G04 #@! TF.FileFunction,Soldermask,Bot*
%FSLAX46Y46*%
G04 Gerber Fmt 4.6, Leading zero omitted, Abs format (unit mm)*
G04 Created by KiCad (PCBNEW 4.0.7) date 07/10/18 09:51:00*
%MOMM*%
%LPD*%
G01*
G04 APERTURE LIST*
%ADD10C,0.100000*%
%ADD11R,2.100000X2.100000*%
%ADD12O,2.100000X2.100000*%
%ADD13C,2.400000*%
%ADD14C,5.800000*%
%ADD15C,1.200000*%
G04 APERTURE END LIST*
D10*
D11*
X116174520Y-84658200D03*
D12*
X118714520Y-84658200D03*
X121254520Y-84658200D03*
X123794520Y-84658200D03*
X126334520Y-84658200D03*
X128874520Y-84658200D03*
D11*
X117515640Y-92425520D03*
D12*
X114975640Y-92425520D03*
X112435640Y-92425520D03*
X109895640Y-92425520D03*
D13*
X109753400Y-133189100D03*
X109753400Y-128689100D03*
X116253400Y-133189100D03*
X116253400Y-128689100D03*
X109768640Y-124045100D03*
X109768640Y-119545100D03*
X116268640Y-124045100D03*
X116268640Y-119545100D03*
X109796580Y-142345800D03*
X109796580Y-137845800D03*
X116296580Y-142345800D03*
X116296580Y-137845800D03*
X98704400Y-133265300D03*
X98704400Y-128765300D03*
X105204400Y-133265300D03*
X105204400Y-128765300D03*
X120777000Y-133181480D03*
X120777000Y-128681480D03*
X127277000Y-133181480D03*
X127277000Y-128681480D03*
D11*
X87061040Y-88290400D03*
D12*
X89601040Y-88290400D03*
X87061040Y-90830400D03*
X89601040Y-90830400D03*
X87061040Y-93370400D03*
X89601040Y-93370400D03*
X87061040Y-95910400D03*
X89601040Y-95910400D03*
X87061040Y-98450400D03*
X89601040Y-98450400D03*
X87061040Y-100990400D03*
X89601040Y-100990400D03*
X87061040Y-103530400D03*
X89601040Y-103530400D03*
X87061040Y-106070400D03*
X89601040Y-106070400D03*
X87061040Y-108610400D03*
X89601040Y-108610400D03*
X87061040Y-111150400D03*
X89601040Y-111150400D03*
X87061040Y-113690400D03*
X89601040Y-113690400D03*
X87061040Y-116230400D03*
X89601040Y-116230400D03*
X87061040Y-118770400D03*
X89601040Y-118770400D03*
X87061040Y-121310400D03*
X89601040Y-121310400D03*
X87061040Y-123850400D03*
X89601040Y-123850400D03*
X87061040Y-126390400D03*
X89601040Y-126390400D03*
X87061040Y-128930400D03*
X89601040Y-128930400D03*
X87061040Y-131470400D03*
X89601040Y-131470400D03*
X87061040Y-134010400D03*
X89601040Y-134010400D03*
X87061040Y-136550400D03*
X89601040Y-136550400D03*
D14*
X88500000Y-141500000D03*
D15*
X90525000Y-141500000D03*
X89931891Y-142931891D03*
X88500000Y-143525000D03*
X87068109Y-142931891D03*
X86475000Y-141500000D03*
X87068109Y-140068109D03*
X88500000Y-139475000D03*
X89931891Y-140068109D03*
D14*
X138000000Y-141500000D03*
D15*
X140025000Y-141500000D03*
X139431891Y-142931891D03*
X138000000Y-143525000D03*
X136568109Y-142931891D03*
X135975000Y-141500000D03*
X136568109Y-140068109D03*
X138000000Y-139475000D03*
X139431891Y-140068109D03*
D14*
X138000000Y-83500000D03*
D15*
X140025000Y-83500000D03*
X139431891Y-84931891D03*
X138000000Y-85525000D03*
X136568109Y-84931891D03*
X135975000Y-83500000D03*
X136568109Y-82068109D03*
X138000000Y-81475000D03*
X139431891Y-82068109D03*
D14*
X88500000Y-83500000D03*
D15*
X90525000Y-83500000D03*
X89931891Y-84931891D03*
X88500000Y-85525000D03*
X87068109Y-84931891D03*
X86475000Y-83500000D03*
X87068109Y-82068109D03*
X88500000Y-81475000D03*
X89931891Y-82068109D03*
D11*
X135661400Y-92989400D03*
D12*
X135661400Y-90449400D03*
M02*
