M48
;DRILL file {KiCad 4.0.7} date 07/29/18 11:18:07
;FORMAT={-:-/ absolute / metric / decimal}
FMAT,2
METRIC,TZ
T1C0.400
T2C0.500
T3C1.000
T4C1.100
T5C2.700
%
G90
G05
M71
T1
X85.71Y-132.36
X92.84Y-108.38
X93.49Y-100.3
X93.82Y-81.36
X94.34Y-97.54
X95.44Y-125.9
X95.52Y-120.24
X95.72Y-139.09
X97.2Y-102.99
X101.697Y-88.903
X105.19Y-87.2
X107.9Y-99.55
X107.94Y-90.56
X108.7Y-86.75
X108.85Y-136.96
X112.49Y-88.79
X117.23Y-104.09
X118.19Y-105.16
X120.13Y-96.16
X120.66Y-137.01
X129.84Y-142.84
X130.05Y-81.14
X131.99Y-99.19
X132.Y-90.42
X134.84Y-107.46
X139.48Y-101.8
T2
X86.475Y-83.5
X86.475Y-141.5
X87.068Y-82.068
X87.068Y-84.932
X87.068Y-140.068
X87.068Y-142.932
X88.5Y-81.475
X88.5Y-85.525
X88.5Y-139.475
X88.5Y-143.525
X89.932Y-82.068
X89.932Y-84.932
X89.932Y-140.068
X89.932Y-142.932
X90.525Y-83.5
X90.525Y-141.5
X135.975Y-83.5
X135.975Y-141.5
X136.568Y-82.068
X136.568Y-84.932
X136.568Y-140.068
X136.568Y-142.932
X138.Y-81.475
X138.Y-85.525
X138.Y-139.475
X138.Y-143.525
X139.432Y-82.068
X139.432Y-84.932
X139.432Y-140.068
X139.432Y-142.932
X140.025Y-83.5
X140.025Y-141.5
T3
X87.295Y-88.229
X87.295Y-90.769
X87.295Y-93.309
X87.295Y-95.849
X87.295Y-98.389
X87.295Y-100.929
X87.295Y-103.469
X87.295Y-106.009
X87.295Y-108.549
X87.295Y-111.089
X87.295Y-113.629
X87.295Y-116.169
X87.295Y-118.709
X87.295Y-121.249
X87.295Y-123.789
X87.295Y-126.329
X87.295Y-128.869
X87.295Y-131.409
X87.295Y-133.949
X87.295Y-136.489
X89.835Y-88.229
X89.835Y-90.769
X89.835Y-93.309
X89.835Y-95.849
X89.835Y-98.389
X89.835Y-100.929
X89.835Y-103.469
X89.835Y-106.009
X89.835Y-108.549
X89.835Y-111.089
X89.835Y-113.629
X89.835Y-116.169
X89.835Y-118.709
X89.835Y-121.249
X89.835Y-123.789
X89.835Y-126.329
X89.835Y-128.869
X89.835Y-131.409
X89.835Y-133.949
X89.835Y-136.489
X107.175Y-142.227
X108.687Y-84.747
X109.715Y-142.227
X111.227Y-84.747
X112.255Y-142.227
X113.767Y-84.747
X114.795Y-142.227
X116.307Y-84.747
X117.335Y-142.227
X119.875Y-142.227
X134.95Y-88.82
X134.95Y-96.42
T4
X99.802Y-121.427
X99.802Y-125.927
X106.302Y-121.427
X106.302Y-125.927
X109.88Y-129.54
X109.88Y-134.04
X109.916Y-121.427
X109.916Y-125.927
X109.972Y-113.381
X109.972Y-117.881
X116.38Y-129.54
X116.38Y-134.04
X116.416Y-121.427
X116.416Y-125.927
X116.472Y-113.381
X116.472Y-117.881
X120.045Y-121.448
X120.045Y-125.948
X126.545Y-121.448
X126.545Y-125.948
T5
X88.5Y-83.5
X88.5Y-141.5
X138.Y-83.5
X138.Y-141.5
T0
M30
