G04 #@! TF.FileFunction,Copper,L1,Top,Signal*
%FSLAX46Y46*%
G04 Gerber Fmt 4.6, Leading zero omitted, Abs format (unit mm)*
G04 Created by KiCad (PCBNEW 4.0.7) date 07/31/18 14:06:48*
%MOMM*%
%LPD*%
G01*
G04 APERTURE LIST*
%ADD10C,0.100000*%
%ADD11R,0.800000X0.800000*%
%ADD12R,1.700000X1.700000*%
%ADD13O,1.700000X1.700000*%
%ADD14R,0.800000X0.900000*%
%ADD15R,0.900000X0.500000*%
%ADD16C,2.000000*%
%ADD17R,0.600000X1.500000*%
%ADD18C,5.400000*%
%ADD19C,0.800000*%
%ADD20R,0.500000X0.900000*%
%ADD21R,0.750000X0.800000*%
%ADD22R,2.000000X2.000000*%
%ADD23C,0.600000*%
%ADD24C,0.250000*%
G04 APERTURE END LIST*
D10*
D11*
X99131120Y-139067640D03*
X99131120Y-140667640D03*
D12*
X108686600Y-84747100D03*
D13*
X111226600Y-84747100D03*
X113766600Y-84747100D03*
X116306600Y-84747100D03*
D14*
X106330000Y-101030000D03*
X104430000Y-101030000D03*
X105380000Y-103030000D03*
X110990000Y-101030000D03*
X109090000Y-101030000D03*
X110040000Y-103030000D03*
X115710000Y-101080000D03*
X113810000Y-101080000D03*
X114760000Y-103080000D03*
X120570000Y-101030000D03*
X118670000Y-101030000D03*
X119620000Y-103030000D03*
D15*
X96840040Y-140561760D03*
X96840040Y-139061760D03*
X105920000Y-84380000D03*
X105920000Y-85880000D03*
X104330000Y-84410000D03*
X104330000Y-85910000D03*
D16*
X109915960Y-125927240D03*
X109915960Y-121427240D03*
X116415960Y-125927240D03*
X116415960Y-121427240D03*
X109971840Y-117880520D03*
X109971840Y-113380520D03*
X116471840Y-117880520D03*
X116471840Y-113380520D03*
X109880400Y-134040000D03*
X109880400Y-129540000D03*
X116380400Y-134040000D03*
X116380400Y-129540000D03*
X99801680Y-125927240D03*
X99801680Y-121427240D03*
X106301680Y-125927240D03*
X106301680Y-121427240D03*
X120045480Y-125947560D03*
X120045480Y-121447560D03*
X126545480Y-125947560D03*
X126545480Y-121447560D03*
D17*
X110545880Y-88902560D03*
X109275880Y-88902560D03*
X108005880Y-88902560D03*
X106735880Y-88902560D03*
X105465880Y-88902560D03*
X104195880Y-88902560D03*
X102925880Y-88902560D03*
X102925880Y-94302560D03*
X104195880Y-94302560D03*
X105465880Y-94302560D03*
X106735880Y-94302560D03*
X108005880Y-94302560D03*
X109275880Y-94302560D03*
X110545880Y-94302560D03*
D12*
X89834720Y-136489440D03*
D13*
X87294720Y-136489440D03*
X89834720Y-133949440D03*
X87294720Y-133949440D03*
X89834720Y-131409440D03*
X87294720Y-131409440D03*
X89834720Y-128869440D03*
X87294720Y-128869440D03*
X89834720Y-126329440D03*
X87294720Y-126329440D03*
X89834720Y-123789440D03*
X87294720Y-123789440D03*
X89834720Y-121249440D03*
X87294720Y-121249440D03*
X89834720Y-118709440D03*
X87294720Y-118709440D03*
X89834720Y-116169440D03*
X87294720Y-116169440D03*
X89834720Y-113629440D03*
X87294720Y-113629440D03*
X89834720Y-111089440D03*
X87294720Y-111089440D03*
X89834720Y-108549440D03*
X87294720Y-108549440D03*
X89834720Y-106009440D03*
X87294720Y-106009440D03*
X89834720Y-103469440D03*
X87294720Y-103469440D03*
X89834720Y-100929440D03*
X87294720Y-100929440D03*
X89834720Y-98389440D03*
X87294720Y-98389440D03*
X89834720Y-95849440D03*
X87294720Y-95849440D03*
X89834720Y-93309440D03*
X87294720Y-93309440D03*
X89834720Y-90769440D03*
X87294720Y-90769440D03*
X89834720Y-88229440D03*
X87294720Y-88229440D03*
D18*
X88500000Y-141500000D03*
D19*
X90525000Y-141500000D03*
X89931891Y-142931891D03*
X88500000Y-143525000D03*
X87068109Y-142931891D03*
X86475000Y-141500000D03*
X87068109Y-140068109D03*
X88500000Y-139475000D03*
X89931891Y-140068109D03*
D18*
X138000000Y-141500000D03*
D19*
X140025000Y-141500000D03*
X139431891Y-142931891D03*
X138000000Y-143525000D03*
X136568109Y-142931891D03*
X135975000Y-141500000D03*
X136568109Y-140068109D03*
X138000000Y-139475000D03*
X139431891Y-140068109D03*
D18*
X138000000Y-83500000D03*
D19*
X140025000Y-83500000D03*
X139431891Y-84931891D03*
X138000000Y-85525000D03*
X136568109Y-84931891D03*
X135975000Y-83500000D03*
X136568109Y-82068109D03*
X138000000Y-81475000D03*
X139431891Y-82068109D03*
D18*
X88500000Y-83500000D03*
D19*
X90525000Y-83500000D03*
X89931891Y-84931891D03*
X88500000Y-85525000D03*
X87068109Y-84931891D03*
X86475000Y-83500000D03*
X87068109Y-82068109D03*
X88500000Y-81475000D03*
X89931891Y-82068109D03*
D20*
X120310000Y-98780000D03*
X118810000Y-98780000D03*
X115400000Y-98690000D03*
X113900000Y-98690000D03*
X110700000Y-98650000D03*
X109200000Y-98650000D03*
X106150000Y-98590000D03*
X104650000Y-98590000D03*
D15*
X117430000Y-109600000D03*
X117430000Y-108100000D03*
X114890000Y-109600000D03*
X114890000Y-108100000D03*
X112350000Y-109600000D03*
X112350000Y-108100000D03*
X109780000Y-109600000D03*
X109780000Y-108100000D03*
D21*
X101058980Y-90837320D03*
X101058980Y-92337320D03*
D22*
X134950000Y-96420000D03*
D16*
X134950000Y-88820000D03*
D12*
X109680000Y-139490000D03*
D13*
X109680000Y-142030000D03*
X112220000Y-139490000D03*
X112220000Y-142030000D03*
X114760000Y-139490000D03*
X114760000Y-142030000D03*
D23*
X101697440Y-88902560D03*
X95720000Y-139090000D03*
X134840000Y-107460000D03*
X108850000Y-136960000D03*
X131990000Y-99190000D03*
X132000000Y-90420000D03*
X124470000Y-103040000D03*
X124140000Y-106790000D03*
X85710000Y-132360000D03*
X93820000Y-81360000D03*
X130050000Y-81140000D03*
X107900000Y-99550000D03*
X92840000Y-108380000D03*
X120130000Y-96160000D03*
X95440000Y-125900000D03*
X95520000Y-120240000D03*
X97200000Y-102990000D03*
X139480000Y-101800000D03*
X110930000Y-143950000D03*
X132800000Y-101790000D03*
X133080000Y-107490000D03*
X107940000Y-90560000D03*
X94340000Y-97540000D03*
X93490000Y-100300000D03*
X112490000Y-88790000D03*
X125230000Y-104100000D03*
X124140000Y-107820000D03*
X105190000Y-87200000D03*
X117230000Y-104090000D03*
X129840000Y-142840000D03*
X126040000Y-105080000D03*
X124170000Y-108910000D03*
X108700000Y-86750000D03*
X118190000Y-105160000D03*
D24*
X101697440Y-88902560D02*
X101497440Y-88902560D01*
X101058980Y-89341020D02*
X101058980Y-90837320D01*
X101497440Y-88902560D02*
X101058980Y-89341020D01*
X101697440Y-88902560D02*
X102925880Y-88902560D01*
X95748240Y-139061760D02*
X96840040Y-139061760D01*
X95720000Y-139090000D02*
X95748240Y-139061760D01*
X109915960Y-125927240D02*
X110330860Y-125927240D01*
X134840000Y-134720000D02*
X134840000Y-107460000D01*
X133880000Y-135680000D02*
X134840000Y-134720000D01*
X118460000Y-135680000D02*
X133880000Y-135680000D01*
X118460000Y-135680000D02*
X118460000Y-135680000D01*
X110130000Y-135680000D02*
X118460000Y-135680000D01*
X108850000Y-136960000D02*
X110130000Y-135680000D01*
X108686600Y-84747100D02*
X108686600Y-83333400D01*
X131580000Y-98780000D02*
X120310000Y-98780000D01*
X131990000Y-99190000D02*
X131580000Y-98780000D01*
X132000000Y-90360000D02*
X132000000Y-90420000D01*
X128590000Y-86950000D02*
X132000000Y-90360000D01*
X113650000Y-86950000D02*
X128590000Y-86950000D01*
X112490000Y-85790000D02*
X113650000Y-86950000D01*
X112490000Y-83490000D02*
X112490000Y-85790000D01*
X111580000Y-82580000D02*
X112490000Y-83490000D01*
X109440000Y-82580000D02*
X111580000Y-82580000D01*
X108686600Y-83333400D02*
X109440000Y-82580000D01*
X110980000Y-102090000D02*
X110980000Y-101040000D01*
X110980000Y-101040000D02*
X110990000Y-101030000D01*
X115780000Y-102090000D02*
X115780000Y-101150000D01*
X115780000Y-101150000D02*
X115710000Y-101080000D01*
X106330000Y-101030000D02*
X106700000Y-101030000D01*
X106700000Y-101030000D02*
X107760000Y-102090000D01*
X119510000Y-102090000D02*
X120570000Y-101030000D01*
X107760000Y-102090000D02*
X110980000Y-102090000D01*
X110980000Y-102090000D02*
X115780000Y-102090000D01*
X115780000Y-102090000D02*
X119510000Y-102090000D01*
X106330000Y-101030000D02*
X106330000Y-98770000D01*
X106330000Y-98770000D02*
X106150000Y-98590000D01*
X110990000Y-101030000D02*
X110990000Y-98940000D01*
X110990000Y-98940000D02*
X110700000Y-98650000D01*
X115710000Y-101080000D02*
X115710000Y-99000000D01*
X115710000Y-99000000D02*
X115400000Y-98690000D01*
X120570000Y-101030000D02*
X120570000Y-99040000D01*
X120570000Y-99040000D02*
X120310000Y-98780000D01*
X99131120Y-139067640D02*
X99131120Y-135401120D01*
X88565280Y-94580000D02*
X87294720Y-93309440D01*
X93880000Y-94580000D02*
X88565280Y-94580000D01*
X96450000Y-97150000D02*
X93880000Y-94580000D01*
X96450000Y-132720000D02*
X96450000Y-97150000D01*
X99131120Y-135401120D02*
X96450000Y-132720000D01*
X96840040Y-140561760D02*
X96840040Y-141270040D01*
X99131120Y-141428880D02*
X99131120Y-140667640D01*
X98850000Y-141710000D02*
X99131120Y-141428880D01*
X97280000Y-141710000D02*
X98850000Y-141710000D01*
X96840040Y-141270040D02*
X97280000Y-141710000D01*
X99069360Y-140729400D02*
X99131120Y-140667640D01*
X112220000Y-139490000D02*
X111420000Y-139490000D01*
X111420000Y-139490000D02*
X110950000Y-139960000D01*
X110950000Y-139960000D02*
X110950000Y-142850000D01*
X110950000Y-142850000D02*
X112100000Y-144000000D01*
X112100000Y-144000000D02*
X113100000Y-144000000D01*
X109780000Y-108100000D02*
X109780000Y-107260000D01*
X124470000Y-103040000D02*
X124530000Y-103040000D01*
X123830000Y-106480000D02*
X124140000Y-106790000D01*
X110560000Y-106480000D02*
X123830000Y-106480000D01*
X109780000Y-107260000D02*
X110560000Y-106480000D01*
X124530000Y-103040000D02*
X124530000Y-103030000D01*
X124530000Y-103030000D02*
X124530000Y-103040000D01*
X124530000Y-103040000D02*
X124530000Y-103030000D01*
X119620000Y-103030000D02*
X124530000Y-103030000D01*
X124530000Y-103030000D02*
X136000000Y-103030000D01*
X136000000Y-103030000D02*
X138250000Y-105280000D01*
X138250000Y-105280000D02*
X138250000Y-136850000D01*
X131100000Y-144000000D02*
X113100000Y-144000000D01*
X138250000Y-136850000D02*
X131100000Y-144000000D01*
X120638000Y-142990000D02*
X115720000Y-142990000D01*
X126740000Y-105920000D02*
X135060000Y-105920000D01*
X135060000Y-105920000D02*
X135860000Y-106720000D01*
X135860000Y-106720000D02*
X135860000Y-135590000D01*
X135860000Y-135590000D02*
X128460000Y-142990000D01*
X128460000Y-142990000D02*
X120638000Y-142990000D01*
X115720000Y-142990000D02*
X114760000Y-142030000D01*
X124165000Y-110055000D02*
X124335000Y-110055000D01*
X125280000Y-109110000D02*
X125280000Y-105920000D01*
X124335000Y-110055000D02*
X125280000Y-109110000D01*
X117430000Y-108100000D02*
X122210000Y-108100000D01*
X122210000Y-108100000D02*
X124165000Y-110055000D01*
X124165000Y-110055000D02*
X124190000Y-110080000D01*
X126740000Y-105950000D02*
X126740000Y-105920000D01*
X126740000Y-105920000D02*
X126740000Y-105950000D01*
X126740000Y-105950000D02*
X126740000Y-105920000D01*
X105380000Y-103030000D02*
X105380000Y-104540000D01*
X105380000Y-104540000D02*
X106760000Y-105920000D01*
X106760000Y-105920000D02*
X125280000Y-105920000D01*
X125280000Y-105920000D02*
X126740000Y-105920000D01*
X113766600Y-84747100D02*
X113766600Y-83256600D01*
X88655280Y-130230000D02*
X89834720Y-131409440D01*
X86400000Y-130230000D02*
X88655280Y-130230000D01*
X85710000Y-129540000D02*
X86400000Y-130230000D01*
X85710000Y-86950000D02*
X85710000Y-129540000D01*
X85930000Y-86730000D02*
X85710000Y-86950000D01*
X90520000Y-86730000D02*
X85930000Y-86730000D01*
X95270000Y-81980000D02*
X90520000Y-86730000D01*
X112490000Y-81980000D02*
X95270000Y-81980000D01*
X113766600Y-83256600D02*
X112490000Y-81980000D01*
X116306600Y-84747100D02*
X116306600Y-83846600D01*
X88490000Y-132660000D02*
X89779440Y-133949440D01*
X86010000Y-132660000D02*
X88490000Y-132660000D01*
X85710000Y-132360000D02*
X86010000Y-132660000D01*
X113820000Y-81360000D02*
X93820000Y-81360000D01*
X116306600Y-83846600D02*
X113820000Y-81360000D01*
X89779440Y-133949440D02*
X89834720Y-133949440D01*
X130050000Y-81140000D02*
X130050000Y-87110000D01*
X133730000Y-96420000D02*
X134950000Y-96420000D01*
X133280000Y-95970000D02*
X133730000Y-96420000D01*
X133280000Y-90340000D02*
X133280000Y-95970000D01*
X130050000Y-87110000D02*
X133280000Y-90340000D01*
X134950000Y-96420000D02*
X135138000Y-96420000D01*
X104650000Y-98590000D02*
X104650000Y-97870000D01*
X88555280Y-92030000D02*
X87294720Y-90769440D01*
X94620000Y-92030000D02*
X88555280Y-92030000D01*
X99170000Y-96580000D02*
X94620000Y-92030000D01*
X103360000Y-96580000D02*
X99170000Y-96580000D01*
X104650000Y-97870000D02*
X103360000Y-96580000D01*
X104430000Y-101030000D02*
X104430000Y-98810000D01*
X104430000Y-98810000D02*
X104650000Y-98590000D01*
X104430000Y-100795520D02*
X104430000Y-101030000D01*
X109200000Y-98650000D02*
X108800000Y-98650000D01*
X108800000Y-98650000D02*
X107900000Y-99550000D01*
X109090000Y-101030000D02*
X109090000Y-98760000D01*
X109090000Y-98760000D02*
X109200000Y-98650000D01*
X108891160Y-101030000D02*
X109090000Y-101030000D01*
X113900000Y-98690000D02*
X113900000Y-97710000D01*
X94929440Y-90769440D02*
X89834720Y-90769440D01*
X100020000Y-95860000D02*
X94929440Y-90769440D01*
X112050000Y-95860000D02*
X100020000Y-95860000D01*
X113900000Y-97710000D02*
X112050000Y-95860000D01*
X113810000Y-101080000D02*
X113810000Y-98780000D01*
X113810000Y-98780000D02*
X113900000Y-98690000D01*
X89631520Y-90830400D02*
X89768680Y-90830400D01*
X113794000Y-101064000D02*
X113810000Y-101080000D01*
X118810000Y-98780000D02*
X118810000Y-97480000D01*
X88290000Y-114890000D02*
X87294720Y-115885280D01*
X92450000Y-114890000D02*
X88290000Y-114890000D01*
X92840000Y-114500000D02*
X92450000Y-114890000D01*
X92840000Y-108380000D02*
X92840000Y-114500000D01*
X118810000Y-97480000D02*
X120130000Y-96160000D01*
X87294720Y-115885280D02*
X87294720Y-116169440D01*
X118670000Y-101030000D02*
X118670000Y-98920000D01*
X118670000Y-98920000D02*
X118810000Y-98780000D01*
X95550000Y-120750000D02*
X95550000Y-120270000D01*
X95440000Y-125900000D02*
X95550000Y-125790000D01*
X95550000Y-125790000D02*
X95550000Y-120750000D01*
X95550000Y-120270000D02*
X95520000Y-120240000D01*
X120045480Y-121447560D02*
X120045480Y-112055480D01*
X97200000Y-109440000D02*
X97200000Y-102990000D01*
X98570000Y-110810000D02*
X97200000Y-109440000D01*
X118800000Y-110810000D02*
X98570000Y-110810000D01*
X120045480Y-112055480D02*
X118800000Y-110810000D01*
X89631520Y-100990400D02*
X89631520Y-100947220D01*
X110390000Y-143970000D02*
X110910000Y-143970000D01*
X137730000Y-101800000D02*
X139480000Y-101800000D01*
X87294720Y-137364720D02*
X87294720Y-136489440D01*
X88070000Y-138140000D02*
X87294720Y-137364720D01*
X90130000Y-138140000D02*
X88070000Y-138140000D01*
X92030000Y-140040000D02*
X90130000Y-138140000D01*
X92030000Y-142120000D02*
X92030000Y-140040000D01*
X93880000Y-143970000D02*
X92030000Y-142120000D01*
X110390000Y-143970000D02*
X93880000Y-143970000D01*
X110910000Y-143970000D02*
X110930000Y-143950000D01*
X117430000Y-109600000D02*
X122650000Y-109600000D01*
X132810000Y-101800000D02*
X137730000Y-101800000D01*
X132800000Y-101790000D02*
X132810000Y-101800000D01*
X132350000Y-106760000D02*
X133080000Y-107490000D01*
X127040000Y-106760000D02*
X132350000Y-106760000D01*
X126930000Y-106870000D02*
X127040000Y-106760000D01*
X126930000Y-109000000D02*
X126930000Y-106870000D01*
X125060000Y-110870000D02*
X126930000Y-109000000D01*
X123920000Y-110870000D02*
X125060000Y-110870000D01*
X122650000Y-109600000D02*
X123920000Y-110870000D01*
X114890000Y-109600000D02*
X117430000Y-109600000D01*
X112350000Y-109600000D02*
X114890000Y-109600000D01*
X109780000Y-109600000D02*
X112350000Y-109600000D01*
X105920000Y-84380000D02*
X104360000Y-84380000D01*
X104360000Y-84380000D02*
X104330000Y-84410000D01*
X104330000Y-84410000D02*
X101250000Y-84410000D01*
X100167320Y-92337320D02*
X101058980Y-92337320D01*
X99650000Y-91820000D02*
X100167320Y-92337320D01*
X99650000Y-86010000D02*
X99650000Y-91820000D01*
X101250000Y-84410000D02*
X99650000Y-86010000D01*
X110545880Y-94302560D02*
X130232560Y-94302560D01*
X130232560Y-94302560D02*
X137730000Y-101800000D01*
X101058980Y-92337320D02*
X102427320Y-92337320D01*
X102427320Y-92337320D02*
X102910000Y-92820000D01*
X102910000Y-92820000D02*
X110080000Y-92820000D01*
X110080000Y-92820000D02*
X110545880Y-93285880D01*
X110545880Y-93285880D02*
X110545880Y-94302560D01*
X105864120Y-84324120D02*
X105920000Y-84380000D01*
X104357940Y-84382060D02*
X104330000Y-84410000D01*
X89834720Y-123789440D02*
X93610560Y-123789440D01*
X108005880Y-90494120D02*
X108005880Y-88902560D01*
X107940000Y-90560000D02*
X108005880Y-90494120D01*
X94340000Y-123060000D02*
X94340000Y-97540000D01*
X93610560Y-123789440D02*
X94340000Y-123060000D01*
X110545880Y-88902560D02*
X112377440Y-88902560D01*
X88550000Y-122510000D02*
X87294720Y-123765280D01*
X92970000Y-122510000D02*
X88550000Y-122510000D01*
X93490000Y-121990000D02*
X92970000Y-122510000D01*
X93490000Y-100300000D02*
X93490000Y-121990000D01*
X112377440Y-88902560D02*
X112490000Y-88790000D01*
X87294720Y-123765280D02*
X87294720Y-123789440D01*
X115120000Y-143549998D02*
X112649998Y-143549998D01*
X112220000Y-143120000D02*
X112220000Y-142030000D01*
X112649998Y-143549998D02*
X112220000Y-143120000D01*
X125230000Y-104100000D02*
X135780000Y-104100000D01*
X135780000Y-104100000D02*
X137460000Y-105780000D01*
X137460000Y-105780000D02*
X137460000Y-136460000D01*
X137460000Y-136460000D02*
X130370002Y-143549998D01*
X130370002Y-143549998D02*
X115120000Y-143549998D01*
X115120000Y-143549998D02*
X115090000Y-143549998D01*
X112350000Y-108100000D02*
X112350000Y-107560000D01*
X123360000Y-107040000D02*
X124140000Y-107820000D01*
X112870000Y-107040000D02*
X123360000Y-107040000D01*
X112350000Y-107560000D02*
X112870000Y-107040000D01*
X117230000Y-104090000D02*
X117230000Y-104100000D01*
X117230000Y-104100000D02*
X117230000Y-104090000D01*
X117230000Y-104090000D02*
X117230000Y-104100000D01*
X104330000Y-85910000D02*
X104330000Y-86500000D01*
X104330000Y-86500000D02*
X105030000Y-87200000D01*
X105030000Y-87200000D02*
X105190000Y-87200000D01*
X106735880Y-87765880D02*
X106735880Y-88902560D01*
X105190000Y-87200000D02*
X106170000Y-87200000D01*
X106170000Y-87200000D02*
X106735880Y-87765880D01*
X114760000Y-103080000D02*
X114760000Y-103640000D01*
X115220000Y-104100000D02*
X117230000Y-104100000D01*
X117230000Y-104100000D02*
X125230000Y-104100000D01*
X114760000Y-103640000D02*
X115220000Y-104100000D01*
X106735880Y-88902560D02*
X106735880Y-88539320D01*
X136650000Y-136030000D02*
X129840000Y-142840000D01*
X136650000Y-106280000D02*
X136650000Y-136030000D01*
X135450000Y-105080000D02*
X136650000Y-106280000D01*
X126040000Y-105080000D02*
X135450000Y-105080000D01*
X114890000Y-108100000D02*
X114890000Y-107790000D01*
X122750002Y-107490002D02*
X124170000Y-108910000D01*
X115189998Y-107490002D02*
X122750002Y-107490002D01*
X114890000Y-107790000D02*
X115189998Y-107490002D01*
X118190000Y-105160000D02*
X118190000Y-105080000D01*
X118190000Y-105080000D02*
X118190000Y-105160000D01*
X118190000Y-105160000D02*
X118190000Y-105080000D01*
X105920000Y-85880000D02*
X105920000Y-86370000D01*
X105920000Y-86370000D02*
X106300000Y-86750000D01*
X106300000Y-86750000D02*
X108700000Y-86750000D01*
X109275880Y-87115880D02*
X109275880Y-88902560D01*
X108700000Y-86750000D02*
X108910000Y-86750000D01*
X108910000Y-86750000D02*
X109275880Y-87115880D01*
X110040000Y-103030000D02*
X110040000Y-103380000D01*
X110040000Y-103380000D02*
X111740000Y-105080000D01*
X111740000Y-105080000D02*
X118190000Y-105080000D01*
X118190000Y-105080000D02*
X126040000Y-105080000D01*
X109174280Y-89004160D02*
X109275880Y-88902560D01*
M02*
