G04 #@! TF.FileFunction,Soldermask,Top*
%FSLAX46Y46*%
G04 Gerber Fmt 4.6, Leading zero omitted, Abs format (unit mm)*
G04 Created by KiCad (PCBNEW 4.0.7) date 07/31/18 14:06:48*
%MOMM*%
%LPD*%
G01*
G04 APERTURE LIST*
%ADD10C,0.100000*%
%ADD11R,1.200000X1.200000*%
%ADD12R,2.100000X2.100000*%
%ADD13O,2.100000X2.100000*%
%ADD14R,1.200000X1.300000*%
%ADD15R,1.300000X0.900000*%
%ADD16C,2.400000*%
%ADD17R,1.000000X1.900000*%
%ADD18C,5.800000*%
%ADD19C,1.200000*%
%ADD20R,0.900000X1.300000*%
%ADD21R,1.150000X1.200000*%
%ADD22R,2.400000X2.400000*%
G04 APERTURE END LIST*
D10*
D11*
X99131120Y-139067640D03*
X99131120Y-140667640D03*
D12*
X108686600Y-84747100D03*
D13*
X111226600Y-84747100D03*
X113766600Y-84747100D03*
X116306600Y-84747100D03*
D14*
X106330000Y-101030000D03*
X104430000Y-101030000D03*
X105380000Y-103030000D03*
X110990000Y-101030000D03*
X109090000Y-101030000D03*
X110040000Y-103030000D03*
X115710000Y-101080000D03*
X113810000Y-101080000D03*
X114760000Y-103080000D03*
X120570000Y-101030000D03*
X118670000Y-101030000D03*
X119620000Y-103030000D03*
D15*
X96840040Y-140561760D03*
X96840040Y-139061760D03*
X105920000Y-84380000D03*
X105920000Y-85880000D03*
X104330000Y-84410000D03*
X104330000Y-85910000D03*
D16*
X109915960Y-125927240D03*
X109915960Y-121427240D03*
X116415960Y-125927240D03*
X116415960Y-121427240D03*
X109971840Y-117880520D03*
X109971840Y-113380520D03*
X116471840Y-117880520D03*
X116471840Y-113380520D03*
X109880400Y-134040000D03*
X109880400Y-129540000D03*
X116380400Y-134040000D03*
X116380400Y-129540000D03*
X99801680Y-125927240D03*
X99801680Y-121427240D03*
X106301680Y-125927240D03*
X106301680Y-121427240D03*
X120045480Y-125947560D03*
X120045480Y-121447560D03*
X126545480Y-125947560D03*
X126545480Y-121447560D03*
D17*
X110545880Y-88902560D03*
X109275880Y-88902560D03*
X108005880Y-88902560D03*
X106735880Y-88902560D03*
X105465880Y-88902560D03*
X104195880Y-88902560D03*
X102925880Y-88902560D03*
X102925880Y-94302560D03*
X104195880Y-94302560D03*
X105465880Y-94302560D03*
X106735880Y-94302560D03*
X108005880Y-94302560D03*
X109275880Y-94302560D03*
X110545880Y-94302560D03*
D12*
X89834720Y-136489440D03*
D13*
X87294720Y-136489440D03*
X89834720Y-133949440D03*
X87294720Y-133949440D03*
X89834720Y-131409440D03*
X87294720Y-131409440D03*
X89834720Y-128869440D03*
X87294720Y-128869440D03*
X89834720Y-126329440D03*
X87294720Y-126329440D03*
X89834720Y-123789440D03*
X87294720Y-123789440D03*
X89834720Y-121249440D03*
X87294720Y-121249440D03*
X89834720Y-118709440D03*
X87294720Y-118709440D03*
X89834720Y-116169440D03*
X87294720Y-116169440D03*
X89834720Y-113629440D03*
X87294720Y-113629440D03*
X89834720Y-111089440D03*
X87294720Y-111089440D03*
X89834720Y-108549440D03*
X87294720Y-108549440D03*
X89834720Y-106009440D03*
X87294720Y-106009440D03*
X89834720Y-103469440D03*
X87294720Y-103469440D03*
X89834720Y-100929440D03*
X87294720Y-100929440D03*
X89834720Y-98389440D03*
X87294720Y-98389440D03*
X89834720Y-95849440D03*
X87294720Y-95849440D03*
X89834720Y-93309440D03*
X87294720Y-93309440D03*
X89834720Y-90769440D03*
X87294720Y-90769440D03*
X89834720Y-88229440D03*
X87294720Y-88229440D03*
D18*
X88500000Y-141500000D03*
D19*
X90525000Y-141500000D03*
X89931891Y-142931891D03*
X88500000Y-143525000D03*
X87068109Y-142931891D03*
X86475000Y-141500000D03*
X87068109Y-140068109D03*
X88500000Y-139475000D03*
X89931891Y-140068109D03*
D18*
X138000000Y-141500000D03*
D19*
X140025000Y-141500000D03*
X139431891Y-142931891D03*
X138000000Y-143525000D03*
X136568109Y-142931891D03*
X135975000Y-141500000D03*
X136568109Y-140068109D03*
X138000000Y-139475000D03*
X139431891Y-140068109D03*
D18*
X138000000Y-83500000D03*
D19*
X140025000Y-83500000D03*
X139431891Y-84931891D03*
X138000000Y-85525000D03*
X136568109Y-84931891D03*
X135975000Y-83500000D03*
X136568109Y-82068109D03*
X138000000Y-81475000D03*
X139431891Y-82068109D03*
D18*
X88500000Y-83500000D03*
D19*
X90525000Y-83500000D03*
X89931891Y-84931891D03*
X88500000Y-85525000D03*
X87068109Y-84931891D03*
X86475000Y-83500000D03*
X87068109Y-82068109D03*
X88500000Y-81475000D03*
X89931891Y-82068109D03*
D20*
X120310000Y-98780000D03*
X118810000Y-98780000D03*
X115400000Y-98690000D03*
X113900000Y-98690000D03*
X110700000Y-98650000D03*
X109200000Y-98650000D03*
X106150000Y-98590000D03*
X104650000Y-98590000D03*
D15*
X117430000Y-109600000D03*
X117430000Y-108100000D03*
X114890000Y-109600000D03*
X114890000Y-108100000D03*
X112350000Y-109600000D03*
X112350000Y-108100000D03*
X109780000Y-109600000D03*
X109780000Y-108100000D03*
D21*
X101058980Y-90837320D03*
X101058980Y-92337320D03*
D22*
X134950000Y-96420000D03*
D16*
X134950000Y-88820000D03*
D12*
X109680000Y-139490000D03*
D13*
X109680000Y-142030000D03*
X112220000Y-139490000D03*
X112220000Y-142030000D03*
X114760000Y-139490000D03*
X114760000Y-142030000D03*
M02*
