G04 #@! TF.FileFunction,Legend,Top*
%FSLAX46Y46*%
G04 Gerber Fmt 4.6, Leading zero omitted, Abs format (unit mm)*
G04 Created by KiCad (PCBNEW 4.0.7) date 07/29/18 11:18:04*
%MOMM*%
%LPD*%
G01*
G04 APERTURE LIST*
%ADD10C,0.100000*%
%ADD11C,0.300000*%
%ADD12C,0.050000*%
%ADD13C,0.150000*%
%ADD14C,0.200000*%
%ADD15C,0.120000*%
G04 APERTURE END LIST*
D10*
D11*
X132378571Y-142397143D02*
X130878571Y-142397143D01*
X132378571Y-141754286D02*
X131592857Y-141754286D01*
X131450000Y-141825715D01*
X131378571Y-141968572D01*
X131378571Y-142182857D01*
X131450000Y-142325715D01*
X131521429Y-142397143D01*
X131378571Y-141254286D02*
X131378571Y-140682857D01*
X130878571Y-141040000D02*
X132164286Y-141040000D01*
X132307143Y-140968572D01*
X132378571Y-140825714D01*
X132378571Y-140682857D01*
X131378571Y-140397143D02*
X131378571Y-139825714D01*
X130878571Y-140182857D02*
X132164286Y-140182857D01*
X132307143Y-140111429D01*
X132378571Y-139968571D01*
X132378571Y-139825714D01*
X131378571Y-139325714D02*
X132878571Y-139325714D01*
X131450000Y-139325714D02*
X131378571Y-139182857D01*
X131378571Y-138897143D01*
X131450000Y-138754286D01*
X131521429Y-138682857D01*
X131664286Y-138611428D01*
X132092857Y-138611428D01*
X132235714Y-138682857D01*
X132307143Y-138754286D01*
X132378571Y-138897143D01*
X132378571Y-139182857D01*
X132307143Y-139325714D01*
X132307143Y-138040000D02*
X132378571Y-137897143D01*
X132378571Y-137611428D01*
X132307143Y-137468571D01*
X132164286Y-137397143D01*
X132092857Y-137397143D01*
X131950000Y-137468571D01*
X131878571Y-137611428D01*
X131878571Y-137825714D01*
X131807143Y-137968571D01*
X131664286Y-138040000D01*
X131592857Y-138040000D01*
X131450000Y-137968571D01*
X131378571Y-137825714D01*
X131378571Y-137611428D01*
X131450000Y-137468571D01*
X132235714Y-136754285D02*
X132307143Y-136682857D01*
X132378571Y-136754285D01*
X132307143Y-136825714D01*
X132235714Y-136754285D01*
X132378571Y-136754285D01*
X131450000Y-136754285D02*
X131521429Y-136682857D01*
X131592857Y-136754285D01*
X131521429Y-136825714D01*
X131450000Y-136754285D01*
X131592857Y-136754285D01*
X130807143Y-134968571D02*
X132735714Y-136254285D01*
X130807143Y-133397142D02*
X132735714Y-134682856D01*
X132307143Y-132254284D02*
X132378571Y-132397141D01*
X132378571Y-132682855D01*
X132307143Y-132825713D01*
X132235714Y-132897141D01*
X132092857Y-132968570D01*
X131664286Y-132968570D01*
X131521429Y-132897141D01*
X131450000Y-132825713D01*
X131378571Y-132682855D01*
X131378571Y-132397141D01*
X131450000Y-132254284D01*
X132378571Y-131611427D02*
X130878571Y-131611427D01*
X131450000Y-131611427D02*
X131378571Y-131468570D01*
X131378571Y-131182856D01*
X131450000Y-131039999D01*
X131521429Y-130968570D01*
X131664286Y-130897141D01*
X132092857Y-130897141D01*
X132235714Y-130968570D01*
X132307143Y-131039999D01*
X132378571Y-131182856D01*
X132378571Y-131468570D01*
X132307143Y-131611427D01*
X132378571Y-130254284D02*
X131378571Y-130254284D01*
X131521429Y-130254284D02*
X131450000Y-130182856D01*
X131378571Y-130039998D01*
X131378571Y-129825713D01*
X131450000Y-129682856D01*
X131592857Y-129611427D01*
X132378571Y-129611427D01*
X131592857Y-129611427D02*
X131450000Y-129539998D01*
X131378571Y-129397141D01*
X131378571Y-129182856D01*
X131450000Y-129039998D01*
X131592857Y-128968570D01*
X132378571Y-128968570D01*
X131807143Y-128254284D02*
X131807143Y-127111427D01*
X131378571Y-126397141D02*
X132878571Y-126397141D01*
X131450000Y-126397141D02*
X131378571Y-126254284D01*
X131378571Y-125968570D01*
X131450000Y-125825713D01*
X131521429Y-125754284D01*
X131664286Y-125682855D01*
X132092857Y-125682855D01*
X132235714Y-125754284D01*
X132307143Y-125825713D01*
X132378571Y-125968570D01*
X132378571Y-126254284D01*
X132307143Y-126397141D01*
X132378571Y-125039998D02*
X131378571Y-125039998D01*
X130878571Y-125039998D02*
X130950000Y-125111427D01*
X131021429Y-125039998D01*
X130950000Y-124968570D01*
X130878571Y-125039998D01*
X131021429Y-125039998D01*
X132378571Y-123539998D02*
X132378571Y-124397141D01*
X132378571Y-123968569D02*
X130878571Y-123968569D01*
X131092857Y-124111426D01*
X131235714Y-124254284D01*
X131307143Y-124397141D01*
X130878571Y-122182855D02*
X130878571Y-122897141D01*
X131592857Y-122968570D01*
X131521429Y-122897141D01*
X131450000Y-122754284D01*
X131450000Y-122397141D01*
X131521429Y-122254284D01*
X131592857Y-122182855D01*
X131735714Y-122111427D01*
X132092857Y-122111427D01*
X132235714Y-122182855D01*
X132307143Y-122254284D01*
X132378571Y-122397141D01*
X132378571Y-122754284D01*
X132307143Y-122897141D01*
X132235714Y-122968570D01*
X131378571Y-120825713D02*
X132378571Y-120825713D01*
X130807143Y-121182856D02*
X131878571Y-121539999D01*
X131878571Y-120611427D01*
X132378571Y-119254285D02*
X132378571Y-120111428D01*
X132378571Y-119682856D02*
X130878571Y-119682856D01*
X131092857Y-119825713D01*
X131235714Y-119968571D01*
X131307143Y-120111428D01*
X132235714Y-118611428D02*
X132307143Y-118540000D01*
X132378571Y-118611428D01*
X132307143Y-118682857D01*
X132235714Y-118611428D01*
X132378571Y-118611428D01*
X131378571Y-118111428D02*
X131378571Y-117539999D01*
X132378571Y-117897142D02*
X131092857Y-117897142D01*
X130950000Y-117825714D01*
X130878571Y-117682856D01*
X130878571Y-117539999D01*
X132378571Y-117039999D02*
X131378571Y-117039999D01*
X130878571Y-117039999D02*
X130950000Y-117111428D01*
X131021429Y-117039999D01*
X130950000Y-116968571D01*
X130878571Y-117039999D01*
X131021429Y-117039999D01*
X132378571Y-116325713D02*
X131378571Y-116325713D01*
X131664286Y-116325713D02*
X131521429Y-116254285D01*
X131450000Y-116182856D01*
X131378571Y-116039999D01*
X131378571Y-115897142D01*
X132307143Y-114825714D02*
X132378571Y-114968571D01*
X132378571Y-115254285D01*
X132307143Y-115397142D01*
X132164286Y-115468571D01*
X131592857Y-115468571D01*
X131450000Y-115397142D01*
X131378571Y-115254285D01*
X131378571Y-114968571D01*
X131450000Y-114825714D01*
X131592857Y-114754285D01*
X131735714Y-114754285D01*
X131878571Y-115468571D01*
X132378571Y-114111428D02*
X130878571Y-114111428D01*
X131450000Y-114111428D02*
X131378571Y-113968571D01*
X131378571Y-113682857D01*
X131450000Y-113540000D01*
X131521429Y-113468571D01*
X131664286Y-113397142D01*
X132092857Y-113397142D01*
X132235714Y-113468571D01*
X132307143Y-113540000D01*
X132378571Y-113682857D01*
X132378571Y-113968571D01*
X132307143Y-114111428D01*
X132378571Y-112111428D02*
X131592857Y-112111428D01*
X131450000Y-112182857D01*
X131378571Y-112325714D01*
X131378571Y-112611428D01*
X131450000Y-112754285D01*
X132307143Y-112111428D02*
X132378571Y-112254285D01*
X132378571Y-112611428D01*
X132307143Y-112754285D01*
X132164286Y-112825714D01*
X132021429Y-112825714D01*
X131878571Y-112754285D01*
X131807143Y-112611428D01*
X131807143Y-112254285D01*
X131735714Y-112111428D01*
X132307143Y-111468571D02*
X132378571Y-111325714D01*
X132378571Y-111039999D01*
X132307143Y-110897142D01*
X132164286Y-110825714D01*
X132092857Y-110825714D01*
X131950000Y-110897142D01*
X131878571Y-111039999D01*
X131878571Y-111254285D01*
X131807143Y-111397142D01*
X131664286Y-111468571D01*
X131592857Y-111468571D01*
X131450000Y-111397142D01*
X131378571Y-111254285D01*
X131378571Y-111039999D01*
X131450000Y-110897142D01*
X132307143Y-109611428D02*
X132378571Y-109754285D01*
X132378571Y-110039999D01*
X132307143Y-110182856D01*
X132164286Y-110254285D01*
X131592857Y-110254285D01*
X131450000Y-110182856D01*
X131378571Y-110039999D01*
X131378571Y-109754285D01*
X131450000Y-109611428D01*
X131592857Y-109539999D01*
X131735714Y-109539999D01*
X131878571Y-110254285D01*
X132378571Y-108254285D02*
X131592857Y-108254285D01*
X131450000Y-108325714D01*
X131378571Y-108468571D01*
X131378571Y-108754285D01*
X131450000Y-108897142D01*
X132307143Y-108254285D02*
X132378571Y-108397142D01*
X132378571Y-108754285D01*
X132307143Y-108897142D01*
X132164286Y-108968571D01*
X132021429Y-108968571D01*
X131878571Y-108897142D01*
X131807143Y-108754285D01*
X131807143Y-108397142D01*
X131735714Y-108254285D01*
X131378571Y-107539999D02*
X132878571Y-107539999D01*
X131450000Y-107539999D02*
X131378571Y-107397142D01*
X131378571Y-107111428D01*
X131450000Y-106968571D01*
X131521429Y-106897142D01*
X131664286Y-106825713D01*
X132092857Y-106825713D01*
X132235714Y-106897142D01*
X132307143Y-106968571D01*
X132378571Y-107111428D01*
X132378571Y-107397142D01*
X132307143Y-107539999D01*
X131378571Y-106182856D02*
X132878571Y-106182856D01*
X131450000Y-106182856D02*
X131378571Y-106039999D01*
X131378571Y-105754285D01*
X131450000Y-105611428D01*
X131521429Y-105539999D01*
X131664286Y-105468570D01*
X132092857Y-105468570D01*
X132235714Y-105539999D01*
X132307143Y-105611428D01*
X132378571Y-105754285D01*
X132378571Y-106039999D01*
X132307143Y-106182856D01*
X132235714Y-104825713D02*
X132307143Y-104754285D01*
X132378571Y-104825713D01*
X132307143Y-104897142D01*
X132235714Y-104825713D01*
X132378571Y-104825713D01*
X132307143Y-103468570D02*
X132378571Y-103611427D01*
X132378571Y-103897141D01*
X132307143Y-104039999D01*
X132235714Y-104111427D01*
X132092857Y-104182856D01*
X131664286Y-104182856D01*
X131521429Y-104111427D01*
X131450000Y-104039999D01*
X131378571Y-103897141D01*
X131378571Y-103611427D01*
X131450000Y-103468570D01*
X132378571Y-102611427D02*
X132307143Y-102754285D01*
X132235714Y-102825713D01*
X132092857Y-102897142D01*
X131664286Y-102897142D01*
X131521429Y-102825713D01*
X131450000Y-102754285D01*
X131378571Y-102611427D01*
X131378571Y-102397142D01*
X131450000Y-102254285D01*
X131521429Y-102182856D01*
X131664286Y-102111427D01*
X132092857Y-102111427D01*
X132235714Y-102182856D01*
X132307143Y-102254285D01*
X132378571Y-102397142D01*
X132378571Y-102611427D01*
X132378571Y-101468570D02*
X131378571Y-101468570D01*
X131521429Y-101468570D02*
X131450000Y-101397142D01*
X131378571Y-101254284D01*
X131378571Y-101039999D01*
X131450000Y-100897142D01*
X131592857Y-100825713D01*
X132378571Y-100825713D01*
X131592857Y-100825713D02*
X131450000Y-100754284D01*
X131378571Y-100611427D01*
X131378571Y-100397142D01*
X131450000Y-100254284D01*
X131592857Y-100182856D01*
X132378571Y-100182856D01*
D12*
X99130000Y-139940000D02*
X99130000Y-140220000D01*
X98930000Y-139950000D02*
X99340000Y-139950000D01*
X99130000Y-139940000D02*
X98930000Y-139740000D01*
X99340000Y-139740000D02*
X99140000Y-139940000D01*
X98930000Y-139740000D02*
X99330000Y-139740000D01*
X99120000Y-139270000D02*
X99120000Y-139740000D01*
D13*
X110697619Y-86342381D02*
X110888096Y-86342381D01*
X110983334Y-86390000D01*
X111078572Y-86485238D01*
X111126191Y-86675714D01*
X111126191Y-87009048D01*
X111078572Y-87199524D01*
X110983334Y-87294762D01*
X110888096Y-87342381D01*
X110697619Y-87342381D01*
X110602381Y-87294762D01*
X110507143Y-87199524D01*
X110459524Y-87009048D01*
X110459524Y-86675714D01*
X110507143Y-86485238D01*
X110602381Y-86390000D01*
X110697619Y-86342381D01*
X112030953Y-87342381D02*
X111554762Y-87342381D01*
X111554762Y-86342381D01*
X112364286Y-86818571D02*
X112697620Y-86818571D01*
X112840477Y-87342381D02*
X112364286Y-87342381D01*
X112364286Y-86342381D01*
X112840477Y-86342381D01*
X113269048Y-87342381D02*
X113269048Y-86342381D01*
X113507143Y-86342381D01*
X113650001Y-86390000D01*
X113745239Y-86485238D01*
X113792858Y-86580476D01*
X113840477Y-86770952D01*
X113840477Y-86913810D01*
X113792858Y-87104286D01*
X113745239Y-87199524D01*
X113650001Y-87294762D01*
X113507143Y-87342381D01*
X113269048Y-87342381D01*
D11*
X96168571Y-121927143D02*
X94668571Y-121927143D01*
X94668571Y-121355715D01*
X94740000Y-121212857D01*
X94811429Y-121141429D01*
X94954286Y-121070000D01*
X95168571Y-121070000D01*
X95311429Y-121141429D01*
X95382857Y-121212857D01*
X95454286Y-121355715D01*
X95454286Y-121927143D01*
X96168571Y-120427143D02*
X94668571Y-120427143D01*
X96168571Y-118927143D02*
X96168571Y-119784286D01*
X96168571Y-119355714D02*
X94668571Y-119355714D01*
X94882857Y-119498571D01*
X95025714Y-119641429D01*
X95097143Y-119784286D01*
X94668571Y-117570000D02*
X94668571Y-118284286D01*
X95382857Y-118355715D01*
X95311429Y-118284286D01*
X95240000Y-118141429D01*
X95240000Y-117784286D01*
X95311429Y-117641429D01*
X95382857Y-117570000D01*
X95525714Y-117498572D01*
X95882857Y-117498572D01*
X96025714Y-117570000D01*
X96097143Y-117641429D01*
X96168571Y-117784286D01*
X96168571Y-118141429D01*
X96097143Y-118284286D01*
X96025714Y-118355715D01*
X95168571Y-116212858D02*
X96168571Y-116212858D01*
X94597143Y-116570001D02*
X95668571Y-116927144D01*
X95668571Y-115998572D01*
X96168571Y-114641430D02*
X96168571Y-115498573D01*
X96168571Y-115070001D02*
X94668571Y-115070001D01*
X94882857Y-115212858D01*
X95025714Y-115355716D01*
X95097143Y-115498573D01*
X95168571Y-112998573D02*
X96168571Y-112712859D01*
X95454286Y-112427145D01*
X96168571Y-112141430D01*
X95168571Y-111855716D01*
X96168571Y-111284287D02*
X95168571Y-111284287D01*
X94668571Y-111284287D02*
X94740000Y-111355716D01*
X94811429Y-111284287D01*
X94740000Y-111212859D01*
X94668571Y-111284287D01*
X94811429Y-111284287D01*
X95168571Y-110784287D02*
X95168571Y-110212858D01*
X94668571Y-110570001D02*
X95954286Y-110570001D01*
X96097143Y-110498573D01*
X96168571Y-110355715D01*
X96168571Y-110212858D01*
X96168571Y-109712858D02*
X94668571Y-109712858D01*
X96168571Y-109070001D02*
X95382857Y-109070001D01*
X95240000Y-109141430D01*
X95168571Y-109284287D01*
X95168571Y-109498572D01*
X95240000Y-109641430D01*
X95311429Y-109712858D01*
X94668571Y-106927144D02*
X94668571Y-106641430D01*
X94740000Y-106498572D01*
X94882857Y-106355715D01*
X95168571Y-106284287D01*
X95668571Y-106284287D01*
X95954286Y-106355715D01*
X96097143Y-106498572D01*
X96168571Y-106641430D01*
X96168571Y-106927144D01*
X96097143Y-107070001D01*
X95954286Y-107212858D01*
X95668571Y-107284287D01*
X95168571Y-107284287D01*
X94882857Y-107212858D01*
X94740000Y-107070001D01*
X94668571Y-106927144D01*
X96168571Y-104927143D02*
X96168571Y-105641429D01*
X94668571Y-105641429D01*
X95382857Y-104427143D02*
X95382857Y-103927143D01*
X96168571Y-103712857D02*
X96168571Y-104427143D01*
X94668571Y-104427143D01*
X94668571Y-103712857D01*
X96168571Y-103070000D02*
X94668571Y-103070000D01*
X94668571Y-102712857D01*
X94740000Y-102498572D01*
X94882857Y-102355714D01*
X95025714Y-102284286D01*
X95311429Y-102212857D01*
X95525714Y-102212857D01*
X95811429Y-102284286D01*
X95954286Y-102355714D01*
X96097143Y-102498572D01*
X96168571Y-102712857D01*
X96168571Y-103070000D01*
X96168571Y-99784286D02*
X94668571Y-99784286D01*
X96097143Y-99784286D02*
X96168571Y-99927143D01*
X96168571Y-100212857D01*
X96097143Y-100355715D01*
X96025714Y-100427143D01*
X95882857Y-100498572D01*
X95454286Y-100498572D01*
X95311429Y-100427143D01*
X95240000Y-100355715D01*
X95168571Y-100212857D01*
X95168571Y-99927143D01*
X95240000Y-99784286D01*
X96168571Y-99070000D02*
X95168571Y-99070000D01*
X94668571Y-99070000D02*
X94740000Y-99141429D01*
X94811429Y-99070000D01*
X94740000Y-98998572D01*
X94668571Y-99070000D01*
X94811429Y-99070000D01*
X96097143Y-98427143D02*
X96168571Y-98284286D01*
X96168571Y-97998571D01*
X96097143Y-97855714D01*
X95954286Y-97784286D01*
X95882857Y-97784286D01*
X95740000Y-97855714D01*
X95668571Y-97998571D01*
X95668571Y-98212857D01*
X95597143Y-98355714D01*
X95454286Y-98427143D01*
X95382857Y-98427143D01*
X95240000Y-98355714D01*
X95168571Y-98212857D01*
X95168571Y-97998571D01*
X95240000Y-97855714D01*
X95168571Y-97141428D02*
X96668571Y-97141428D01*
X95240000Y-97141428D02*
X95168571Y-96998571D01*
X95168571Y-96712857D01*
X95240000Y-96570000D01*
X95311429Y-96498571D01*
X95454286Y-96427142D01*
X95882857Y-96427142D01*
X96025714Y-96498571D01*
X96097143Y-96570000D01*
X96168571Y-96712857D01*
X96168571Y-96998571D01*
X96097143Y-97141428D01*
X96168571Y-95569999D02*
X96097143Y-95712857D01*
X95954286Y-95784285D01*
X94668571Y-95784285D01*
X96168571Y-94355714D02*
X95382857Y-94355714D01*
X95240000Y-94427143D01*
X95168571Y-94570000D01*
X95168571Y-94855714D01*
X95240000Y-94998571D01*
X96097143Y-94355714D02*
X96168571Y-94498571D01*
X96168571Y-94855714D01*
X96097143Y-94998571D01*
X95954286Y-95070000D01*
X95811429Y-95070000D01*
X95668571Y-94998571D01*
X95597143Y-94855714D01*
X95597143Y-94498571D01*
X95525714Y-94355714D01*
X95168571Y-93784285D02*
X96168571Y-93427142D01*
X95168571Y-93070000D02*
X96168571Y-93427142D01*
X96525714Y-93570000D01*
X96597143Y-93641428D01*
X96668571Y-93784285D01*
X98718571Y-117355715D02*
X97218571Y-117355715D01*
X97218571Y-116784287D01*
X97290000Y-116641429D01*
X97361429Y-116570001D01*
X97504286Y-116498572D01*
X97718571Y-116498572D01*
X97861429Y-116570001D01*
X97932857Y-116641429D01*
X98004286Y-116784287D01*
X98004286Y-117355715D01*
X98575714Y-114998572D02*
X98647143Y-115070001D01*
X98718571Y-115284287D01*
X98718571Y-115427144D01*
X98647143Y-115641429D01*
X98504286Y-115784287D01*
X98361429Y-115855715D01*
X98075714Y-115927144D01*
X97861429Y-115927144D01*
X97575714Y-115855715D01*
X97432857Y-115784287D01*
X97290000Y-115641429D01*
X97218571Y-115427144D01*
X97218571Y-115284287D01*
X97290000Y-115070001D01*
X97361429Y-114998572D01*
X97932857Y-113855715D02*
X98004286Y-113641429D01*
X98075714Y-113570001D01*
X98218571Y-113498572D01*
X98432857Y-113498572D01*
X98575714Y-113570001D01*
X98647143Y-113641429D01*
X98718571Y-113784287D01*
X98718571Y-114355715D01*
X97218571Y-114355715D01*
X97218571Y-113855715D01*
X97290000Y-113712858D01*
X97361429Y-113641429D01*
X97504286Y-113570001D01*
X97647143Y-113570001D01*
X97790000Y-113641429D01*
X97861429Y-113712858D01*
X97932857Y-113855715D01*
X97932857Y-114355715D01*
X98718571Y-111712858D02*
X97218571Y-111712858D01*
X97790000Y-111712858D02*
X97718571Y-111570001D01*
X97718571Y-111284287D01*
X97790000Y-111141430D01*
X97861429Y-111070001D01*
X98004286Y-110998572D01*
X98432857Y-110998572D01*
X98575714Y-111070001D01*
X98647143Y-111141430D01*
X98718571Y-111284287D01*
X98718571Y-111570001D01*
X98647143Y-111712858D01*
X97718571Y-110498572D02*
X98718571Y-110141429D01*
X97718571Y-109784287D02*
X98718571Y-110141429D01*
X99075714Y-110284287D01*
X99147143Y-110355715D01*
X99218571Y-110498572D01*
X98718571Y-108070001D02*
X97218571Y-108070001D01*
X97932857Y-108070001D02*
X97932857Y-107212858D01*
X98718571Y-107212858D02*
X97218571Y-107212858D01*
X98718571Y-105855715D02*
X97932857Y-105855715D01*
X97790000Y-105927144D01*
X97718571Y-106070001D01*
X97718571Y-106355715D01*
X97790000Y-106498572D01*
X98647143Y-105855715D02*
X98718571Y-105998572D01*
X98718571Y-106355715D01*
X98647143Y-106498572D01*
X98504286Y-106570001D01*
X98361429Y-106570001D01*
X98218571Y-106498572D01*
X98147143Y-106355715D01*
X98147143Y-105998572D01*
X98075714Y-105855715D01*
X97718571Y-105141429D02*
X98718571Y-105141429D01*
X97861429Y-105141429D02*
X97790000Y-105070001D01*
X97718571Y-104927143D01*
X97718571Y-104712858D01*
X97790000Y-104570001D01*
X97932857Y-104498572D01*
X98718571Y-104498572D01*
X98647143Y-103855715D02*
X98718571Y-103712858D01*
X98718571Y-103427143D01*
X98647143Y-103284286D01*
X98504286Y-103212858D01*
X98432857Y-103212858D01*
X98290000Y-103284286D01*
X98218571Y-103427143D01*
X98218571Y-103641429D01*
X98147143Y-103784286D01*
X98004286Y-103855715D01*
X97932857Y-103855715D01*
X97790000Y-103784286D01*
X97718571Y-103641429D01*
X97718571Y-103427143D01*
X97790000Y-103284286D01*
X98718571Y-100712857D02*
X98718571Y-101427143D01*
X97218571Y-101427143D01*
X98718571Y-100212857D02*
X97718571Y-100212857D01*
X97218571Y-100212857D02*
X97290000Y-100284286D01*
X97361429Y-100212857D01*
X97290000Y-100141429D01*
X97218571Y-100212857D01*
X97361429Y-100212857D01*
X98647143Y-99570000D02*
X98718571Y-99427143D01*
X98718571Y-99141428D01*
X98647143Y-98998571D01*
X98504286Y-98927143D01*
X98432857Y-98927143D01*
X98290000Y-98998571D01*
X98218571Y-99141428D01*
X98218571Y-99355714D01*
X98147143Y-99498571D01*
X98004286Y-99570000D01*
X97932857Y-99570000D01*
X97790000Y-99498571D01*
X97718571Y-99355714D01*
X97718571Y-99141428D01*
X97790000Y-98998571D01*
X98647143Y-98355714D02*
X98718571Y-98212857D01*
X98718571Y-97927142D01*
X98647143Y-97784285D01*
X98504286Y-97712857D01*
X98432857Y-97712857D01*
X98290000Y-97784285D01*
X98218571Y-97927142D01*
X98218571Y-98141428D01*
X98147143Y-98284285D01*
X98004286Y-98355714D01*
X97932857Y-98355714D01*
X97790000Y-98284285D01*
X97718571Y-98141428D01*
X97718571Y-97927142D01*
X97790000Y-97784285D01*
X101268571Y-116427144D02*
X99768571Y-116427144D01*
X100482857Y-116427144D02*
X100482857Y-115570001D01*
X101268571Y-115570001D02*
X99768571Y-115570001D01*
X101268571Y-114212858D02*
X100482857Y-114212858D01*
X100340000Y-114284287D01*
X100268571Y-114427144D01*
X100268571Y-114712858D01*
X100340000Y-114855715D01*
X101197143Y-114212858D02*
X101268571Y-114355715D01*
X101268571Y-114712858D01*
X101197143Y-114855715D01*
X101054286Y-114927144D01*
X100911429Y-114927144D01*
X100768571Y-114855715D01*
X100697143Y-114712858D01*
X100697143Y-114355715D01*
X100625714Y-114212858D01*
X100268571Y-113498572D02*
X101268571Y-113498572D01*
X100411429Y-113498572D02*
X100340000Y-113427144D01*
X100268571Y-113284286D01*
X100268571Y-113070001D01*
X100340000Y-112927144D01*
X100482857Y-112855715D01*
X101268571Y-112855715D01*
X101197143Y-112212858D02*
X101268571Y-112070001D01*
X101268571Y-111784286D01*
X101197143Y-111641429D01*
X101054286Y-111570001D01*
X100982857Y-111570001D01*
X100840000Y-111641429D01*
X100768571Y-111784286D01*
X100768571Y-111998572D01*
X100697143Y-112141429D01*
X100554286Y-112212858D01*
X100482857Y-112212858D01*
X100340000Y-112141429D01*
X100268571Y-111998572D01*
X100268571Y-111784286D01*
X100340000Y-111641429D01*
X100554286Y-109998572D02*
X100482857Y-110070000D01*
X100411429Y-110212857D01*
X100411429Y-110355715D01*
X100482857Y-110498572D01*
X100554286Y-110570000D01*
X100697143Y-110641429D01*
X100840000Y-110641429D01*
X100982857Y-110570000D01*
X101054286Y-110498572D01*
X101125714Y-110355715D01*
X101125714Y-110212857D01*
X101054286Y-110070000D01*
X100982857Y-109998572D01*
X100411429Y-109998572D02*
X100982857Y-109998572D01*
X101054286Y-109927143D01*
X101054286Y-109855715D01*
X100982857Y-109712857D01*
X100840000Y-109641429D01*
X100482857Y-109641429D01*
X100268571Y-109784286D01*
X100125714Y-109998572D01*
X100054286Y-110284286D01*
X100125714Y-110570000D01*
X100268571Y-110784286D01*
X100482857Y-110927143D01*
X100768571Y-110998572D01*
X101054286Y-110927143D01*
X101268571Y-110784286D01*
X101411429Y-110570000D01*
X101482857Y-110284286D01*
X101411429Y-109998572D01*
X101268571Y-109784286D01*
X101268571Y-108284286D02*
X101268571Y-108998572D01*
X99768571Y-108998572D01*
X101268571Y-107784286D02*
X100268571Y-107784286D01*
X99768571Y-107784286D02*
X99840000Y-107855715D01*
X99911429Y-107784286D01*
X99840000Y-107712858D01*
X99768571Y-107784286D01*
X99911429Y-107784286D01*
X101197143Y-107141429D02*
X101268571Y-106998572D01*
X101268571Y-106712857D01*
X101197143Y-106570000D01*
X101054286Y-106498572D01*
X100982857Y-106498572D01*
X100840000Y-106570000D01*
X100768571Y-106712857D01*
X100768571Y-106927143D01*
X100697143Y-107070000D01*
X100554286Y-107141429D01*
X100482857Y-107141429D01*
X100340000Y-107070000D01*
X100268571Y-106927143D01*
X100268571Y-106712857D01*
X100340000Y-106570000D01*
X101197143Y-105927143D02*
X101268571Y-105784286D01*
X101268571Y-105498571D01*
X101197143Y-105355714D01*
X101054286Y-105284286D01*
X100982857Y-105284286D01*
X100840000Y-105355714D01*
X100768571Y-105498571D01*
X100768571Y-105712857D01*
X100697143Y-105855714D01*
X100554286Y-105927143D01*
X100482857Y-105927143D01*
X100340000Y-105855714D01*
X100268571Y-105712857D01*
X100268571Y-105498571D01*
X100340000Y-105355714D01*
X101125714Y-104641428D02*
X101197143Y-104570000D01*
X101268571Y-104641428D01*
X101197143Y-104712857D01*
X101125714Y-104641428D01*
X101268571Y-104641428D01*
X100268571Y-103927142D02*
X101768571Y-103927142D01*
X100340000Y-103927142D02*
X100268571Y-103784285D01*
X100268571Y-103498571D01*
X100340000Y-103355714D01*
X100411429Y-103284285D01*
X100554286Y-103212856D01*
X100982857Y-103212856D01*
X101125714Y-103284285D01*
X101197143Y-103355714D01*
X101268571Y-103498571D01*
X101268571Y-103784285D01*
X101197143Y-103927142D01*
X100268571Y-102569999D02*
X101768571Y-102569999D01*
X100340000Y-102569999D02*
X100268571Y-102427142D01*
X100268571Y-102141428D01*
X100340000Y-101998571D01*
X100411429Y-101927142D01*
X100554286Y-101855713D01*
X100982857Y-101855713D01*
X101125714Y-101927142D01*
X101197143Y-101998571D01*
X101268571Y-102141428D01*
X101268571Y-102427142D01*
X101197143Y-102569999D01*
X101125714Y-101212856D02*
X101197143Y-101141428D01*
X101268571Y-101212856D01*
X101197143Y-101284285D01*
X101125714Y-101212856D01*
X101268571Y-101212856D01*
X101197143Y-100569999D02*
X101268571Y-100427142D01*
X101268571Y-100141427D01*
X101197143Y-99998570D01*
X101054286Y-99927142D01*
X100982857Y-99927142D01*
X100840000Y-99998570D01*
X100768571Y-100141427D01*
X100768571Y-100355713D01*
X100697143Y-100498570D01*
X100554286Y-100569999D01*
X100482857Y-100569999D01*
X100340000Y-100498570D01*
X100268571Y-100355713D01*
X100268571Y-100141427D01*
X100340000Y-99998570D01*
X101197143Y-98712856D02*
X101268571Y-98855713D01*
X101268571Y-99141427D01*
X101197143Y-99284284D01*
X101054286Y-99355713D01*
X100482857Y-99355713D01*
X100340000Y-99284284D01*
X100268571Y-99141427D01*
X100268571Y-98855713D01*
X100340000Y-98712856D01*
X100482857Y-98641427D01*
X100625714Y-98641427D01*
X100768571Y-99355713D01*
D14*
X100055880Y-82567960D02*
X127055880Y-82567960D01*
X100055880Y-82567960D02*
X100055880Y-109567960D01*
X100055880Y-109567960D02*
X127055880Y-109567960D01*
X127055880Y-82567960D02*
X127055880Y-109567960D01*
D15*
X98631120Y-141167640D02*
X99631120Y-141167640D01*
X99631120Y-141167640D02*
X99631120Y-139067640D01*
X98631120Y-141167640D02*
X98631120Y-139067640D01*
X121205300Y-143557300D02*
X121205300Y-140897300D01*
X108445300Y-143557300D02*
X121205300Y-143557300D01*
X108445300Y-140897300D02*
X121205300Y-140897300D01*
X108445300Y-143557300D02*
X108445300Y-140897300D01*
X107175300Y-143557300D02*
X105845300Y-143557300D01*
X105845300Y-143557300D02*
X105845300Y-142227300D01*
X117636600Y-86077100D02*
X117636600Y-83417100D01*
X109956600Y-86077100D02*
X117636600Y-86077100D01*
X109956600Y-83417100D02*
X117636600Y-83417100D01*
X109956600Y-86077100D02*
X109956600Y-83417100D01*
X108686600Y-86077100D02*
X107356600Y-86077100D01*
X107356600Y-86077100D02*
X107356600Y-84747100D01*
X103800000Y-102790000D02*
X104730000Y-102790000D01*
X106960000Y-102790000D02*
X106030000Y-102790000D01*
X106960000Y-102790000D02*
X106960000Y-100630000D01*
X103800000Y-102790000D02*
X103800000Y-101330000D01*
X108460000Y-102790000D02*
X109390000Y-102790000D01*
X111620000Y-102790000D02*
X110690000Y-102790000D01*
X111620000Y-102790000D02*
X111620000Y-100630000D01*
X108460000Y-102790000D02*
X108460000Y-101330000D01*
X113180000Y-102840000D02*
X114110000Y-102840000D01*
X116340000Y-102840000D02*
X115410000Y-102840000D01*
X116340000Y-102840000D02*
X116340000Y-100680000D01*
X113180000Y-102840000D02*
X113180000Y-101380000D01*
X118040000Y-102790000D02*
X118970000Y-102790000D01*
X121200000Y-102790000D02*
X120270000Y-102790000D01*
X121200000Y-102790000D02*
X121200000Y-100630000D01*
X118040000Y-102790000D02*
X118040000Y-101330000D01*
X97520040Y-139311760D02*
X97520040Y-140311760D01*
X96160040Y-140311760D02*
X96160040Y-139311760D01*
X105240000Y-85630000D02*
X105240000Y-84630000D01*
X106600000Y-84630000D02*
X106600000Y-85630000D01*
X103650000Y-85660000D02*
X103650000Y-84660000D01*
X105010000Y-84660000D02*
X105010000Y-85660000D01*
X110915960Y-126927240D02*
X115415960Y-126927240D01*
X109665960Y-122927240D02*
X109665960Y-124427240D01*
X115415960Y-120427240D02*
X110915960Y-120427240D01*
X116665960Y-124427240D02*
X116665960Y-122927240D01*
X110971840Y-118880520D02*
X115471840Y-118880520D01*
X109721840Y-114880520D02*
X109721840Y-116380520D01*
X115471840Y-112380520D02*
X110971840Y-112380520D01*
X116721840Y-116380520D02*
X116721840Y-114880520D01*
X110880400Y-135040000D02*
X115380400Y-135040000D01*
X109630400Y-131040000D02*
X109630400Y-132540000D01*
X115380400Y-128540000D02*
X110880400Y-128540000D01*
X116630400Y-132540000D02*
X116630400Y-131040000D01*
X100801680Y-126927240D02*
X105301680Y-126927240D01*
X99551680Y-122927240D02*
X99551680Y-124427240D01*
X105301680Y-120427240D02*
X100801680Y-120427240D01*
X106551680Y-124427240D02*
X106551680Y-122927240D01*
X121045480Y-126947560D02*
X125545480Y-126947560D01*
X119795480Y-122947560D02*
X119795480Y-124447560D01*
X125545480Y-120447560D02*
X121045480Y-120447560D01*
X126795480Y-124447560D02*
X126795480Y-122947560D01*
D13*
X111185880Y-89527560D02*
X111160880Y-89527560D01*
X111185880Y-93677560D02*
X111070880Y-93677560D01*
X102285880Y-93677560D02*
X102400880Y-93677560D01*
X102285880Y-89527560D02*
X102400880Y-89527560D01*
X111185880Y-89527560D02*
X111185880Y-93677560D01*
X102285880Y-89527560D02*
X102285880Y-93677560D01*
X111160880Y-89527560D02*
X111160880Y-88152560D01*
D15*
X91164720Y-86899440D02*
X85964720Y-86899440D01*
X91164720Y-135219440D02*
X91164720Y-86899440D01*
X85964720Y-137819440D02*
X85964720Y-86899440D01*
X91164720Y-135219440D02*
X88564720Y-135219440D01*
X88564720Y-135219440D02*
X88564720Y-137819440D01*
X88564720Y-137819440D02*
X85964720Y-137819440D01*
X91164720Y-136489440D02*
X91164720Y-137819440D01*
X91164720Y-137819440D02*
X89834720Y-137819440D01*
X119060000Y-98100000D02*
X120060000Y-98100000D01*
X120060000Y-99460000D02*
X119060000Y-99460000D01*
X114150000Y-98010000D02*
X115150000Y-98010000D01*
X115150000Y-99370000D02*
X114150000Y-99370000D01*
X109450000Y-97970000D02*
X110450000Y-97970000D01*
X110450000Y-99330000D02*
X109450000Y-99330000D01*
X104900000Y-97910000D02*
X105900000Y-97910000D01*
X105900000Y-99270000D02*
X104900000Y-99270000D01*
X119195300Y-139747880D02*
X119195300Y-138747880D01*
X120555300Y-138747880D02*
X120555300Y-139747880D01*
X116657840Y-139747880D02*
X116657840Y-138747880D01*
X118017840Y-138747880D02*
X118017840Y-139747880D01*
X114112760Y-139747880D02*
X114112760Y-138747880D01*
X115472760Y-138747880D02*
X115472760Y-139747880D01*
X111562600Y-139755500D02*
X111562600Y-138755500D01*
X112922600Y-138755500D02*
X112922600Y-139755500D01*
X101658980Y-91237320D02*
X101658980Y-91937320D01*
X100458980Y-91937320D02*
X100458980Y-91237320D01*
X141050000Y-92620000D02*
G75*
G03X141050000Y-92620000I-6100000J0D01*
G01*
D13*
X101092261Y-140605735D02*
X100092261Y-140605735D01*
X100092261Y-140367640D01*
X100139880Y-140224782D01*
X100235118Y-140129544D01*
X100330356Y-140081925D01*
X100520832Y-140034306D01*
X100663690Y-140034306D01*
X100854166Y-140081925D01*
X100949404Y-140129544D01*
X101044642Y-140224782D01*
X101092261Y-140367640D01*
X101092261Y-140605735D01*
X101092261Y-139081925D02*
X101092261Y-139653354D01*
X101092261Y-139367640D02*
X100092261Y-139367640D01*
X100235118Y-139462878D01*
X100330356Y-139558116D01*
X100377975Y-139653354D01*
X104297681Y-142560633D02*
X105011967Y-142560633D01*
X105154824Y-142608253D01*
X105250062Y-142703491D01*
X105297681Y-142846348D01*
X105297681Y-142941586D01*
X104392919Y-142132062D02*
X104345300Y-142084443D01*
X104297681Y-141989205D01*
X104297681Y-141751109D01*
X104345300Y-141655871D01*
X104392919Y-141608252D01*
X104488157Y-141560633D01*
X104583395Y-141560633D01*
X104726252Y-141608252D01*
X105297681Y-142179681D01*
X105297681Y-141560633D01*
X116396667Y-82102381D02*
X116396667Y-82816667D01*
X116349047Y-82959524D01*
X116253809Y-83054762D01*
X116110952Y-83102381D01*
X116015714Y-83102381D01*
X116777619Y-82102381D02*
X117396667Y-82102381D01*
X117063333Y-82483333D01*
X117206191Y-82483333D01*
X117301429Y-82530952D01*
X117349048Y-82578571D01*
X117396667Y-82673810D01*
X117396667Y-82911905D01*
X117349048Y-83007143D01*
X117301429Y-83054762D01*
X117206191Y-83102381D01*
X116920476Y-83102381D01*
X116825238Y-83054762D01*
X116777619Y-83007143D01*
X105404762Y-105157619D02*
X105309524Y-105110000D01*
X105214286Y-105014762D01*
X105071429Y-104871905D01*
X104976190Y-104824286D01*
X104880952Y-104824286D01*
X104928571Y-105062381D02*
X104833333Y-105014762D01*
X104738095Y-104919524D01*
X104690476Y-104729048D01*
X104690476Y-104395714D01*
X104738095Y-104205238D01*
X104833333Y-104110000D01*
X104928571Y-104062381D01*
X105119048Y-104062381D01*
X105214286Y-104110000D01*
X105309524Y-104205238D01*
X105357143Y-104395714D01*
X105357143Y-104729048D01*
X105309524Y-104919524D01*
X105214286Y-105014762D01*
X105119048Y-105062381D01*
X104928571Y-105062381D01*
X106309524Y-105062381D02*
X105738095Y-105062381D01*
X106023809Y-105062381D02*
X106023809Y-104062381D01*
X105928571Y-104205238D01*
X105833333Y-104300476D01*
X105738095Y-104348095D01*
X110044762Y-105157619D02*
X109949524Y-105110000D01*
X109854286Y-105014762D01*
X109711429Y-104871905D01*
X109616190Y-104824286D01*
X109520952Y-104824286D01*
X109568571Y-105062381D02*
X109473333Y-105014762D01*
X109378095Y-104919524D01*
X109330476Y-104729048D01*
X109330476Y-104395714D01*
X109378095Y-104205238D01*
X109473333Y-104110000D01*
X109568571Y-104062381D01*
X109759048Y-104062381D01*
X109854286Y-104110000D01*
X109949524Y-104205238D01*
X109997143Y-104395714D01*
X109997143Y-104729048D01*
X109949524Y-104919524D01*
X109854286Y-105014762D01*
X109759048Y-105062381D01*
X109568571Y-105062381D01*
X110378095Y-104157619D02*
X110425714Y-104110000D01*
X110520952Y-104062381D01*
X110759048Y-104062381D01*
X110854286Y-104110000D01*
X110901905Y-104157619D01*
X110949524Y-104252857D01*
X110949524Y-104348095D01*
X110901905Y-104490952D01*
X110330476Y-105062381D01*
X110949524Y-105062381D01*
X114624762Y-105267619D02*
X114529524Y-105220000D01*
X114434286Y-105124762D01*
X114291429Y-104981905D01*
X114196190Y-104934286D01*
X114100952Y-104934286D01*
X114148571Y-105172381D02*
X114053333Y-105124762D01*
X113958095Y-105029524D01*
X113910476Y-104839048D01*
X113910476Y-104505714D01*
X113958095Y-104315238D01*
X114053333Y-104220000D01*
X114148571Y-104172381D01*
X114339048Y-104172381D01*
X114434286Y-104220000D01*
X114529524Y-104315238D01*
X114577143Y-104505714D01*
X114577143Y-104839048D01*
X114529524Y-105029524D01*
X114434286Y-105124762D01*
X114339048Y-105172381D01*
X114148571Y-105172381D01*
X114910476Y-104172381D02*
X115529524Y-104172381D01*
X115196190Y-104553333D01*
X115339048Y-104553333D01*
X115434286Y-104600952D01*
X115481905Y-104648571D01*
X115529524Y-104743810D01*
X115529524Y-104981905D01*
X115481905Y-105077143D01*
X115434286Y-105124762D01*
X115339048Y-105172381D01*
X115053333Y-105172381D01*
X114958095Y-105124762D01*
X114910476Y-105077143D01*
X119594762Y-105267619D02*
X119499524Y-105220000D01*
X119404286Y-105124762D01*
X119261429Y-104981905D01*
X119166190Y-104934286D01*
X119070952Y-104934286D01*
X119118571Y-105172381D02*
X119023333Y-105124762D01*
X118928095Y-105029524D01*
X118880476Y-104839048D01*
X118880476Y-104505714D01*
X118928095Y-104315238D01*
X119023333Y-104220000D01*
X119118571Y-104172381D01*
X119309048Y-104172381D01*
X119404286Y-104220000D01*
X119499524Y-104315238D01*
X119547143Y-104505714D01*
X119547143Y-104839048D01*
X119499524Y-105029524D01*
X119404286Y-105124762D01*
X119309048Y-105172381D01*
X119118571Y-105172381D01*
X120404286Y-104505714D02*
X120404286Y-105172381D01*
X120166190Y-104124762D02*
X119928095Y-104839048D01*
X120547143Y-104839048D01*
X95842421Y-139978426D02*
X95366230Y-140311760D01*
X95842421Y-140549855D02*
X94842421Y-140549855D01*
X94842421Y-140168902D01*
X94890040Y-140073664D01*
X94937659Y-140026045D01*
X95032897Y-139978426D01*
X95175754Y-139978426D01*
X95270992Y-140026045D01*
X95318611Y-140073664D01*
X95366230Y-140168902D01*
X95366230Y-140549855D01*
X95842421Y-139026045D02*
X95842421Y-139597474D01*
X95842421Y-139311760D02*
X94842421Y-139311760D01*
X94985278Y-139406998D01*
X95080516Y-139502236D01*
X95128135Y-139597474D01*
X106402381Y-82976666D02*
X105926190Y-83310000D01*
X106402381Y-83548095D02*
X105402381Y-83548095D01*
X105402381Y-83167142D01*
X105450000Y-83071904D01*
X105497619Y-83024285D01*
X105592857Y-82976666D01*
X105735714Y-82976666D01*
X105830952Y-83024285D01*
X105878571Y-83071904D01*
X105926190Y-83167142D01*
X105926190Y-83548095D01*
X105497619Y-82595714D02*
X105450000Y-82548095D01*
X105402381Y-82452857D01*
X105402381Y-82214761D01*
X105450000Y-82119523D01*
X105497619Y-82071904D01*
X105592857Y-82024285D01*
X105688095Y-82024285D01*
X105830952Y-82071904D01*
X106402381Y-82643333D01*
X106402381Y-82024285D01*
X103245681Y-85501926D02*
X102769490Y-85835260D01*
X103245681Y-86073355D02*
X102245681Y-86073355D01*
X102245681Y-85692402D01*
X102293300Y-85597164D01*
X102340919Y-85549545D01*
X102436157Y-85501926D01*
X102579014Y-85501926D01*
X102674252Y-85549545D01*
X102721871Y-85597164D01*
X102769490Y-85692402D01*
X102769490Y-86073355D01*
X102245681Y-85168593D02*
X102245681Y-84549545D01*
X102626633Y-84882879D01*
X102626633Y-84740021D01*
X102674252Y-84644783D01*
X102721871Y-84597164D01*
X102817110Y-84549545D01*
X103055205Y-84549545D01*
X103150443Y-84597164D01*
X103198062Y-84644783D01*
X103245681Y-84740021D01*
X103245681Y-85025736D01*
X103198062Y-85120974D01*
X103150443Y-85168593D01*
X111832627Y-119832002D02*
X111975484Y-119879621D01*
X112213580Y-119879621D01*
X112308818Y-119832002D01*
X112356437Y-119784383D01*
X112404056Y-119689145D01*
X112404056Y-119593907D01*
X112356437Y-119498669D01*
X112308818Y-119451050D01*
X112213580Y-119403430D01*
X112023103Y-119355811D01*
X111927865Y-119308192D01*
X111880246Y-119260573D01*
X111832627Y-119165335D01*
X111832627Y-119070097D01*
X111880246Y-118974859D01*
X111927865Y-118927240D01*
X112023103Y-118879621D01*
X112261199Y-118879621D01*
X112404056Y-118927240D01*
X112737389Y-118879621D02*
X112975484Y-119879621D01*
X113165961Y-119165335D01*
X113356437Y-119879621D01*
X113594532Y-118879621D01*
X114499294Y-119879621D02*
X113927865Y-119879621D01*
X114213579Y-119879621D02*
X114213579Y-118879621D01*
X114118341Y-119022478D01*
X114023103Y-119117716D01*
X113927865Y-119165335D01*
X111888507Y-111785282D02*
X112031364Y-111832901D01*
X112269460Y-111832901D01*
X112364698Y-111785282D01*
X112412317Y-111737663D01*
X112459936Y-111642425D01*
X112459936Y-111547187D01*
X112412317Y-111451949D01*
X112364698Y-111404330D01*
X112269460Y-111356710D01*
X112078983Y-111309091D01*
X111983745Y-111261472D01*
X111936126Y-111213853D01*
X111888507Y-111118615D01*
X111888507Y-111023377D01*
X111936126Y-110928139D01*
X111983745Y-110880520D01*
X112078983Y-110832901D01*
X112317079Y-110832901D01*
X112459936Y-110880520D01*
X112793269Y-110832901D02*
X113031364Y-111832901D01*
X113221841Y-111118615D01*
X113412317Y-111832901D01*
X113650412Y-110832901D01*
X113983745Y-110928139D02*
X114031364Y-110880520D01*
X114126602Y-110832901D01*
X114364698Y-110832901D01*
X114459936Y-110880520D01*
X114507555Y-110928139D01*
X114555174Y-111023377D01*
X114555174Y-111118615D01*
X114507555Y-111261472D01*
X113936126Y-111832901D01*
X114555174Y-111832901D01*
X111797067Y-127944762D02*
X111939924Y-127992381D01*
X112178020Y-127992381D01*
X112273258Y-127944762D01*
X112320877Y-127897143D01*
X112368496Y-127801905D01*
X112368496Y-127706667D01*
X112320877Y-127611429D01*
X112273258Y-127563810D01*
X112178020Y-127516190D01*
X111987543Y-127468571D01*
X111892305Y-127420952D01*
X111844686Y-127373333D01*
X111797067Y-127278095D01*
X111797067Y-127182857D01*
X111844686Y-127087619D01*
X111892305Y-127040000D01*
X111987543Y-126992381D01*
X112225639Y-126992381D01*
X112368496Y-127040000D01*
X112701829Y-126992381D02*
X112939924Y-127992381D01*
X113130401Y-127278095D01*
X113320877Y-127992381D01*
X113558972Y-126992381D01*
X113844686Y-126992381D02*
X114463734Y-126992381D01*
X114130400Y-127373333D01*
X114273258Y-127373333D01*
X114368496Y-127420952D01*
X114416115Y-127468571D01*
X114463734Y-127563810D01*
X114463734Y-127801905D01*
X114416115Y-127897143D01*
X114368496Y-127944762D01*
X114273258Y-127992381D01*
X113987543Y-127992381D01*
X113892305Y-127944762D01*
X113844686Y-127897143D01*
X101718347Y-119832002D02*
X101861204Y-119879621D01*
X102099300Y-119879621D01*
X102194538Y-119832002D01*
X102242157Y-119784383D01*
X102289776Y-119689145D01*
X102289776Y-119593907D01*
X102242157Y-119498669D01*
X102194538Y-119451050D01*
X102099300Y-119403430D01*
X101908823Y-119355811D01*
X101813585Y-119308192D01*
X101765966Y-119260573D01*
X101718347Y-119165335D01*
X101718347Y-119070097D01*
X101765966Y-118974859D01*
X101813585Y-118927240D01*
X101908823Y-118879621D01*
X102146919Y-118879621D01*
X102289776Y-118927240D01*
X102623109Y-118879621D02*
X102861204Y-119879621D01*
X103051681Y-119165335D01*
X103242157Y-119879621D01*
X103480252Y-118879621D01*
X104289776Y-119212954D02*
X104289776Y-119879621D01*
X104051680Y-118832002D02*
X103813585Y-119546288D01*
X104432633Y-119546288D01*
X121962147Y-119852322D02*
X122105004Y-119899941D01*
X122343100Y-119899941D01*
X122438338Y-119852322D01*
X122485957Y-119804703D01*
X122533576Y-119709465D01*
X122533576Y-119614227D01*
X122485957Y-119518989D01*
X122438338Y-119471370D01*
X122343100Y-119423750D01*
X122152623Y-119376131D01*
X122057385Y-119328512D01*
X122009766Y-119280893D01*
X121962147Y-119185655D01*
X121962147Y-119090417D01*
X122009766Y-118995179D01*
X122057385Y-118947560D01*
X122152623Y-118899941D01*
X122390719Y-118899941D01*
X122533576Y-118947560D01*
X122866909Y-118899941D02*
X123105004Y-119899941D01*
X123295481Y-119185655D01*
X123485957Y-119899941D01*
X123724052Y-118899941D01*
X124581195Y-118899941D02*
X124105004Y-118899941D01*
X124057385Y-119376131D01*
X124105004Y-119328512D01*
X124200242Y-119280893D01*
X124438338Y-119280893D01*
X124533576Y-119328512D01*
X124581195Y-119376131D01*
X124628814Y-119471370D01*
X124628814Y-119709465D01*
X124581195Y-119804703D01*
X124533576Y-119852322D01*
X124438338Y-119899941D01*
X124200242Y-119899941D01*
X124105004Y-119852322D01*
X124057385Y-119804703D01*
X111563261Y-92364465D02*
X112372785Y-92364465D01*
X112468023Y-92316846D01*
X112515642Y-92269227D01*
X112563261Y-92173989D01*
X112563261Y-91983512D01*
X112515642Y-91888274D01*
X112468023Y-91840655D01*
X112372785Y-91793036D01*
X111563261Y-91793036D01*
X112563261Y-90793036D02*
X112563261Y-91364465D01*
X112563261Y-91078751D02*
X111563261Y-91078751D01*
X111706118Y-91173989D01*
X111801356Y-91269227D01*
X111848975Y-91364465D01*
X88231387Y-138271821D02*
X88231387Y-138986107D01*
X88183767Y-139128964D01*
X88088529Y-139224202D01*
X87945672Y-139271821D01*
X87850434Y-139271821D01*
X89231387Y-139271821D02*
X88659958Y-139271821D01*
X88945672Y-139271821D02*
X88945672Y-138271821D01*
X88850434Y-138414678D01*
X88755196Y-138509916D01*
X88659958Y-138557535D01*
X119523334Y-97572381D02*
X119190000Y-97096190D01*
X118951905Y-97572381D02*
X118951905Y-96572381D01*
X119332858Y-96572381D01*
X119428096Y-96620000D01*
X119475715Y-96667619D01*
X119523334Y-96762857D01*
X119523334Y-96905714D01*
X119475715Y-97000952D01*
X119428096Y-97048571D01*
X119332858Y-97096190D01*
X118951905Y-97096190D01*
X120380477Y-96905714D02*
X120380477Y-97572381D01*
X120142381Y-96524762D02*
X119904286Y-97239048D01*
X120523334Y-97239048D01*
X114583334Y-97522381D02*
X114250000Y-97046190D01*
X114011905Y-97522381D02*
X114011905Y-96522381D01*
X114392858Y-96522381D01*
X114488096Y-96570000D01*
X114535715Y-96617619D01*
X114583334Y-96712857D01*
X114583334Y-96855714D01*
X114535715Y-96950952D01*
X114488096Y-96998571D01*
X114392858Y-97046190D01*
X114011905Y-97046190D01*
X115488096Y-96522381D02*
X115011905Y-96522381D01*
X114964286Y-96998571D01*
X115011905Y-96950952D01*
X115107143Y-96903333D01*
X115345239Y-96903333D01*
X115440477Y-96950952D01*
X115488096Y-96998571D01*
X115535715Y-97093810D01*
X115535715Y-97331905D01*
X115488096Y-97427143D01*
X115440477Y-97474762D01*
X115345239Y-97522381D01*
X115107143Y-97522381D01*
X115011905Y-97474762D01*
X114964286Y-97427143D01*
X109703334Y-97522381D02*
X109370000Y-97046190D01*
X109131905Y-97522381D02*
X109131905Y-96522381D01*
X109512858Y-96522381D01*
X109608096Y-96570000D01*
X109655715Y-96617619D01*
X109703334Y-96712857D01*
X109703334Y-96855714D01*
X109655715Y-96950952D01*
X109608096Y-96998571D01*
X109512858Y-97046190D01*
X109131905Y-97046190D01*
X110560477Y-96522381D02*
X110370000Y-96522381D01*
X110274762Y-96570000D01*
X110227143Y-96617619D01*
X110131905Y-96760476D01*
X110084286Y-96950952D01*
X110084286Y-97331905D01*
X110131905Y-97427143D01*
X110179524Y-97474762D01*
X110274762Y-97522381D01*
X110465239Y-97522381D01*
X110560477Y-97474762D01*
X110608096Y-97427143D01*
X110655715Y-97331905D01*
X110655715Y-97093810D01*
X110608096Y-96998571D01*
X110560477Y-96950952D01*
X110465239Y-96903333D01*
X110274762Y-96903333D01*
X110179524Y-96950952D01*
X110131905Y-96998571D01*
X110084286Y-97093810D01*
X105253334Y-97582381D02*
X104920000Y-97106190D01*
X104681905Y-97582381D02*
X104681905Y-96582381D01*
X105062858Y-96582381D01*
X105158096Y-96630000D01*
X105205715Y-96677619D01*
X105253334Y-96772857D01*
X105253334Y-96915714D01*
X105205715Y-97010952D01*
X105158096Y-97058571D01*
X105062858Y-97106190D01*
X104681905Y-97106190D01*
X105586667Y-96582381D02*
X106253334Y-96582381D01*
X105824762Y-97582381D01*
X121777681Y-139414546D02*
X121301490Y-139747880D01*
X121777681Y-139985975D02*
X120777681Y-139985975D01*
X120777681Y-139605022D01*
X120825300Y-139509784D01*
X120872919Y-139462165D01*
X120968157Y-139414546D01*
X121111014Y-139414546D01*
X121206252Y-139462165D01*
X121253871Y-139509784D01*
X121301490Y-139605022D01*
X121301490Y-139985975D01*
X121206252Y-138843118D02*
X121158633Y-138938356D01*
X121111014Y-138985975D01*
X121015776Y-139033594D01*
X120968157Y-139033594D01*
X120872919Y-138985975D01*
X120825300Y-138938356D01*
X120777681Y-138843118D01*
X120777681Y-138652641D01*
X120825300Y-138557403D01*
X120872919Y-138509784D01*
X120968157Y-138462165D01*
X121015776Y-138462165D01*
X121111014Y-138509784D01*
X121158633Y-138557403D01*
X121206252Y-138652641D01*
X121206252Y-138843118D01*
X121253871Y-138938356D01*
X121301490Y-138985975D01*
X121396729Y-139033594D01*
X121587205Y-139033594D01*
X121682443Y-138985975D01*
X121730062Y-138938356D01*
X121777681Y-138843118D01*
X121777681Y-138652641D01*
X121730062Y-138557403D01*
X121682443Y-138509784D01*
X121587205Y-138462165D01*
X121396729Y-138462165D01*
X121301490Y-138509784D01*
X121253871Y-138557403D01*
X121206252Y-138652641D01*
X119240221Y-139414546D02*
X118764030Y-139747880D01*
X119240221Y-139985975D02*
X118240221Y-139985975D01*
X118240221Y-139605022D01*
X118287840Y-139509784D01*
X118335459Y-139462165D01*
X118430697Y-139414546D01*
X118573554Y-139414546D01*
X118668792Y-139462165D01*
X118716411Y-139509784D01*
X118764030Y-139605022D01*
X118764030Y-139985975D01*
X119240221Y-138938356D02*
X119240221Y-138747880D01*
X119192602Y-138652641D01*
X119144983Y-138605022D01*
X119002126Y-138509784D01*
X118811650Y-138462165D01*
X118430697Y-138462165D01*
X118335459Y-138509784D01*
X118287840Y-138557403D01*
X118240221Y-138652641D01*
X118240221Y-138843118D01*
X118287840Y-138938356D01*
X118335459Y-138985975D01*
X118430697Y-139033594D01*
X118668792Y-139033594D01*
X118764030Y-138985975D01*
X118811650Y-138938356D01*
X118859269Y-138843118D01*
X118859269Y-138652641D01*
X118811650Y-138557403D01*
X118764030Y-138509784D01*
X118668792Y-138462165D01*
X116695141Y-139890737D02*
X116218950Y-140224071D01*
X116695141Y-140462166D02*
X115695141Y-140462166D01*
X115695141Y-140081213D01*
X115742760Y-139985975D01*
X115790379Y-139938356D01*
X115885617Y-139890737D01*
X116028474Y-139890737D01*
X116123712Y-139938356D01*
X116171331Y-139985975D01*
X116218950Y-140081213D01*
X116218950Y-140462166D01*
X116695141Y-138938356D02*
X116695141Y-139509785D01*
X116695141Y-139224071D02*
X115695141Y-139224071D01*
X115837998Y-139319309D01*
X115933236Y-139414547D01*
X115980855Y-139509785D01*
X115695141Y-138319309D02*
X115695141Y-138224070D01*
X115742760Y-138128832D01*
X115790379Y-138081213D01*
X115885617Y-138033594D01*
X116076093Y-137985975D01*
X116314189Y-137985975D01*
X116504665Y-138033594D01*
X116599903Y-138081213D01*
X116647522Y-138128832D01*
X116695141Y-138224070D01*
X116695141Y-138319309D01*
X116647522Y-138414547D01*
X116599903Y-138462166D01*
X116504665Y-138509785D01*
X116314189Y-138557404D01*
X116076093Y-138557404D01*
X115885617Y-138509785D01*
X115790379Y-138462166D01*
X115742760Y-138414547D01*
X115695141Y-138319309D01*
X114144981Y-139898357D02*
X113668790Y-140231691D01*
X114144981Y-140469786D02*
X113144981Y-140469786D01*
X113144981Y-140088833D01*
X113192600Y-139993595D01*
X113240219Y-139945976D01*
X113335457Y-139898357D01*
X113478314Y-139898357D01*
X113573552Y-139945976D01*
X113621171Y-139993595D01*
X113668790Y-140088833D01*
X113668790Y-140469786D01*
X114144981Y-138945976D02*
X114144981Y-139517405D01*
X114144981Y-139231691D02*
X113144981Y-139231691D01*
X113287838Y-139326929D01*
X113383076Y-139422167D01*
X113430695Y-139517405D01*
X114144981Y-137993595D02*
X114144981Y-138565024D01*
X114144981Y-138279310D02*
X113144981Y-138279310D01*
X113287838Y-138374548D01*
X113383076Y-138469786D01*
X113430695Y-138565024D01*
X99916123Y-91753986D02*
X99963742Y-91801605D01*
X100011361Y-91944462D01*
X100011361Y-92039700D01*
X99963742Y-92182558D01*
X99868504Y-92277796D01*
X99773266Y-92325415D01*
X99582790Y-92373034D01*
X99439932Y-92373034D01*
X99249456Y-92325415D01*
X99154218Y-92277796D01*
X99058980Y-92182558D01*
X99011361Y-92039700D01*
X99011361Y-91944462D01*
X99058980Y-91801605D01*
X99106599Y-91753986D01*
X100011361Y-90801605D02*
X100011361Y-91373034D01*
X100011361Y-91087320D02*
X99011361Y-91087320D01*
X99154218Y-91182558D01*
X99249456Y-91277796D01*
X99297075Y-91373034D01*
X128202381Y-93262857D02*
X128202381Y-93739048D01*
X127202381Y-93739048D01*
X128154762Y-92977143D02*
X128202381Y-92834286D01*
X128202381Y-92596190D01*
X128154762Y-92500952D01*
X128107143Y-92453333D01*
X128011905Y-92405714D01*
X127916667Y-92405714D01*
X127821429Y-92453333D01*
X127773810Y-92500952D01*
X127726190Y-92596190D01*
X127678571Y-92786667D01*
X127630952Y-92881905D01*
X127583333Y-92929524D01*
X127488095Y-92977143D01*
X127392857Y-92977143D01*
X127297619Y-92929524D01*
X127250000Y-92881905D01*
X127202381Y-92786667D01*
X127202381Y-92548571D01*
X127250000Y-92405714D01*
X128202381Y-91453333D02*
X128202381Y-92024762D01*
X128202381Y-91739048D02*
X127202381Y-91739048D01*
X127345238Y-91834286D01*
X127440476Y-91929524D01*
X127488095Y-92024762D01*
X132481429Y-96810952D02*
X132481429Y-96049047D01*
X132862381Y-96429999D02*
X132100476Y-96429999D01*
M02*
