G04 #@! TF.FileFunction,Other,Fab,Top*
%FSLAX46Y46*%
G04 Gerber Fmt 4.6, Leading zero omitted, Abs format (unit mm)*
G04 Created by KiCad (PCBNEW 4.0.7) date 07/10/18 09:51:00*
%MOMM*%
%LPD*%
G01*
G04 APERTURE LIST*
%ADD10C,0.100000*%
%ADD11C,0.150000*%
%ADD12C,0.075000*%
%ADD13C,0.135000*%
G04 APERTURE END LIST*
D10*
X118965880Y-98301760D02*
X117365880Y-98301760D01*
X117365880Y-98301760D02*
X117365880Y-97501760D01*
X117365880Y-97501760D02*
X118965880Y-97501760D01*
X118965880Y-97501760D02*
X118965880Y-98301760D01*
X95019520Y-123630080D02*
X95019520Y-124030080D01*
X95069520Y-123830080D02*
X95369520Y-123630080D01*
X95369520Y-124030080D02*
X95069520Y-123830080D01*
X95369520Y-123630080D02*
X95369520Y-124030080D01*
X96019520Y-124230080D02*
X94419520Y-124230080D01*
X96019520Y-123430080D02*
X96019520Y-124230080D01*
X94419520Y-123430080D02*
X96019520Y-123430080D01*
X94419520Y-124230080D02*
X94419520Y-123430080D01*
X114904520Y-85293200D02*
X114904520Y-83388200D01*
X114904520Y-83388200D02*
X130144520Y-83388200D01*
X130144520Y-83388200D02*
X130144520Y-85928200D01*
X130144520Y-85928200D02*
X115539520Y-85928200D01*
X115539520Y-85928200D02*
X114904520Y-85293200D01*
X118785640Y-91790520D02*
X118785640Y-93695520D01*
X118785640Y-93695520D02*
X108625640Y-93695520D01*
X108625640Y-93695520D02*
X108625640Y-91155520D01*
X108625640Y-91155520D02*
X118150640Y-91155520D01*
X118150640Y-91155520D02*
X118785640Y-91790520D01*
X120759260Y-105601540D02*
X118309260Y-105601540D01*
X121329260Y-106151540D02*
X121329260Y-107001540D01*
X120759260Y-105601540D02*
X121329260Y-106151540D01*
X121329260Y-107001540D02*
X118289260Y-107001540D01*
X118289260Y-105601540D02*
X118289260Y-107001540D01*
X120815140Y-109736660D02*
X118365140Y-109736660D01*
X121385140Y-110286660D02*
X121385140Y-111136660D01*
X120815140Y-109736660D02*
X121385140Y-110286660D01*
X121385140Y-111136660D02*
X118345140Y-111136660D01*
X118345140Y-109736660D02*
X118345140Y-111136660D01*
X115562420Y-105601540D02*
X113112420Y-105601540D01*
X116132420Y-106151540D02*
X116132420Y-107001540D01*
X115562420Y-105601540D02*
X116132420Y-106151540D01*
X116132420Y-107001540D02*
X113092420Y-107001540D01*
X113092420Y-105601540D02*
X113092420Y-107001540D01*
X115562420Y-109792540D02*
X113112420Y-109792540D01*
X116132420Y-110342540D02*
X116132420Y-111192540D01*
X115562420Y-109792540D02*
X116132420Y-110342540D01*
X116132420Y-111192540D02*
X113092420Y-111192540D01*
X113092420Y-109792540D02*
X113092420Y-111192540D01*
X94307760Y-122386040D02*
X94307760Y-121586040D01*
X95907760Y-122386040D02*
X94307760Y-122386040D01*
X95907760Y-121586040D02*
X95907760Y-122386040D01*
X94307760Y-121586040D02*
X95907760Y-121586040D01*
X120299580Y-96485660D02*
X120299580Y-95685660D01*
X121899580Y-96485660D02*
X120299580Y-96485660D01*
X121899580Y-95685660D02*
X121899580Y-96485660D01*
X120299580Y-95685660D02*
X121899580Y-95685660D01*
X118937940Y-95741540D02*
X118937940Y-96541540D01*
X117337940Y-95741540D02*
X118937940Y-95741540D01*
X117337940Y-96541540D02*
X117337940Y-95741540D01*
X118937940Y-96541540D02*
X117337940Y-96541540D01*
X108221580Y-112016140D02*
X105021580Y-112016140D01*
X105021580Y-112016140D02*
X105021580Y-105616140D01*
X105021580Y-105616140D02*
X108221580Y-105616140D01*
X108221580Y-105616140D02*
X108221580Y-112016140D01*
X111013040Y-88919920D02*
X107813040Y-88919920D01*
X107813040Y-88919920D02*
X107813040Y-82519920D01*
X107813040Y-82519920D02*
X111013040Y-82519920D01*
X111013040Y-82519920D02*
X111013040Y-88919920D01*
X113003400Y-127939100D02*
X116003400Y-127939100D01*
X116003400Y-127939100D02*
X116003400Y-133939100D01*
X116003400Y-133939100D02*
X110003400Y-133939100D01*
X110003400Y-133939100D02*
X110003400Y-127939100D01*
X110003400Y-127939100D02*
X113003400Y-127939100D01*
X115018964Y-130939100D02*
G75*
G03X115018964Y-130939100I-2015564J0D01*
G01*
X113018640Y-118795100D02*
X116018640Y-118795100D01*
X116018640Y-118795100D02*
X116018640Y-124795100D01*
X116018640Y-124795100D02*
X110018640Y-124795100D01*
X110018640Y-124795100D02*
X110018640Y-118795100D01*
X110018640Y-118795100D02*
X113018640Y-118795100D01*
X115034204Y-121795100D02*
G75*
G03X115034204Y-121795100I-2015564J0D01*
G01*
X113046580Y-137095800D02*
X116046580Y-137095800D01*
X116046580Y-137095800D02*
X116046580Y-143095800D01*
X116046580Y-143095800D02*
X110046580Y-143095800D01*
X110046580Y-143095800D02*
X110046580Y-137095800D01*
X110046580Y-137095800D02*
X113046580Y-137095800D01*
X115062144Y-140095800D02*
G75*
G03X115062144Y-140095800I-2015564J0D01*
G01*
X101954400Y-128015300D02*
X104954400Y-128015300D01*
X104954400Y-128015300D02*
X104954400Y-134015300D01*
X104954400Y-134015300D02*
X98954400Y-134015300D01*
X98954400Y-134015300D02*
X98954400Y-128015300D01*
X98954400Y-128015300D02*
X101954400Y-128015300D01*
X103969964Y-131015300D02*
G75*
G03X103969964Y-131015300I-2015564J0D01*
G01*
X124027000Y-127931480D02*
X127027000Y-127931480D01*
X127027000Y-127931480D02*
X127027000Y-133931480D01*
X127027000Y-133931480D02*
X121027000Y-133931480D01*
X121027000Y-133931480D02*
X121027000Y-127931480D01*
X121027000Y-127931480D02*
X124027000Y-127931480D01*
X126042564Y-130931480D02*
G75*
G03X126042564Y-130931480I-2015564J0D01*
G01*
D11*
X111030000Y-98084600D02*
X111030000Y-100984600D01*
X111030000Y-100984600D02*
X102330000Y-100984600D01*
X102330000Y-100984600D02*
X102330000Y-97084600D01*
X102330000Y-97084600D02*
X110030000Y-97084600D01*
X110030000Y-97084600D02*
X111030000Y-98084600D01*
D10*
X87061040Y-87020400D02*
X90871040Y-87020400D01*
X90871040Y-87020400D02*
X90871040Y-137820400D01*
X90871040Y-137820400D02*
X85791040Y-137820400D01*
X85791040Y-137820400D02*
X85791040Y-88290400D01*
X85791040Y-88290400D02*
X87061040Y-87020400D01*
X136296400Y-94259400D02*
X134391400Y-94259400D01*
X134391400Y-94259400D02*
X134391400Y-89179400D01*
X134391400Y-89179400D02*
X136931400Y-89179400D01*
X136931400Y-89179400D02*
X136931400Y-93624400D01*
X136931400Y-93624400D02*
X136296400Y-94259400D01*
D11*
X113037478Y-98242381D02*
X112466049Y-98242381D01*
X112751763Y-98242381D02*
X112751763Y-97242381D01*
X112656525Y-97385238D01*
X112561287Y-97480476D01*
X112466049Y-97528095D01*
X113656525Y-97242381D02*
X113751764Y-97242381D01*
X113847002Y-97290000D01*
X113894621Y-97337619D01*
X113942240Y-97432857D01*
X113989859Y-97623333D01*
X113989859Y-97861429D01*
X113942240Y-98051905D01*
X113894621Y-98147143D01*
X113847002Y-98194762D01*
X113751764Y-98242381D01*
X113656525Y-98242381D01*
X113561287Y-98194762D01*
X113513668Y-98147143D01*
X113466049Y-98051905D01*
X113418430Y-97861429D01*
X113418430Y-97623333D01*
X113466049Y-97432857D01*
X113513668Y-97337619D01*
X113561287Y-97290000D01*
X113656525Y-97242381D01*
X114608906Y-97242381D02*
X114704145Y-97242381D01*
X114799383Y-97290000D01*
X114847002Y-97337619D01*
X114894621Y-97432857D01*
X114942240Y-97623333D01*
X114942240Y-97861429D01*
X114894621Y-98051905D01*
X114847002Y-98147143D01*
X114799383Y-98194762D01*
X114704145Y-98242381D01*
X114608906Y-98242381D01*
X114513668Y-98194762D01*
X114466049Y-98147143D01*
X114418430Y-98051905D01*
X114370811Y-97861429D01*
X114370811Y-97623333D01*
X114418430Y-97432857D01*
X114466049Y-97337619D01*
X114513668Y-97290000D01*
X114608906Y-97242381D01*
X115370811Y-97575714D02*
X115370811Y-98242381D01*
X115370811Y-97670952D02*
X115418430Y-97623333D01*
X115513668Y-97575714D01*
X115656526Y-97575714D01*
X115751764Y-97623333D01*
X115799383Y-97718571D01*
X115799383Y-98242381D01*
X116132716Y-97575714D02*
X116513668Y-97575714D01*
X116275573Y-98242381D02*
X116275573Y-97385238D01*
X116323192Y-97290000D01*
X116418430Y-97242381D01*
X116513668Y-97242381D01*
D12*
X118115880Y-98008903D02*
X118101594Y-98023189D01*
X118058737Y-98037474D01*
X118030166Y-98037474D01*
X117987309Y-98023189D01*
X117958737Y-97994617D01*
X117944452Y-97966046D01*
X117930166Y-97908903D01*
X117930166Y-97866046D01*
X117944452Y-97808903D01*
X117958737Y-97780331D01*
X117987309Y-97751760D01*
X118030166Y-97737474D01*
X118058737Y-97737474D01*
X118101594Y-97751760D01*
X118115880Y-97766046D01*
X118401594Y-98037474D02*
X118230166Y-98037474D01*
X118315880Y-98037474D02*
X118315880Y-97737474D01*
X118287309Y-97780331D01*
X118258737Y-97808903D01*
X118230166Y-97823189D01*
D11*
X91782663Y-124505981D02*
X91306472Y-124505981D01*
X91306472Y-123505981D01*
X92115996Y-123982171D02*
X92449330Y-123982171D01*
X92592187Y-124505981D02*
X92115996Y-124505981D01*
X92115996Y-123505981D01*
X92592187Y-123505981D01*
X93020758Y-124505981D02*
X93020758Y-123505981D01*
X93258853Y-123505981D01*
X93401711Y-123553600D01*
X93496949Y-123648838D01*
X93544568Y-123744076D01*
X93592187Y-123934552D01*
X93592187Y-124077410D01*
X93544568Y-124267886D01*
X93496949Y-124363124D01*
X93401711Y-124458362D01*
X93258853Y-124505981D01*
X93020758Y-124505981D01*
X131656901Y-85682009D02*
X130656901Y-85682009D01*
X130656901Y-85443914D01*
X130704520Y-85301056D01*
X130799758Y-85205818D01*
X130894996Y-85158199D01*
X131085472Y-85110580D01*
X131228330Y-85110580D01*
X131418806Y-85158199D01*
X131514044Y-85205818D01*
X131609282Y-85301056D01*
X131656901Y-85443914D01*
X131656901Y-85682009D01*
X131656901Y-84682009D02*
X130656901Y-84682009D01*
X131656901Y-84205819D02*
X130656901Y-84205819D01*
X131656901Y-83634390D01*
X130656901Y-83634390D01*
X122191187Y-84110581D02*
X122191187Y-84824867D01*
X122143567Y-84967724D01*
X122048329Y-85062962D01*
X121905472Y-85110581D01*
X121810234Y-85110581D01*
X122619758Y-84205819D02*
X122667377Y-84158200D01*
X122762615Y-84110581D01*
X123000711Y-84110581D01*
X123095949Y-84158200D01*
X123143568Y-84205819D01*
X123191187Y-84301057D01*
X123191187Y-84396295D01*
X123143568Y-84539152D01*
X122572139Y-85110581D01*
X123191187Y-85110581D01*
X107018021Y-93877901D02*
X107018021Y-93687424D01*
X107065640Y-93592186D01*
X107160878Y-93496948D01*
X107351354Y-93449329D01*
X107684688Y-93449329D01*
X107875164Y-93496948D01*
X107970402Y-93592186D01*
X108018021Y-93687424D01*
X108018021Y-93877901D01*
X107970402Y-93973139D01*
X107875164Y-94068377D01*
X107684688Y-94115996D01*
X107351354Y-94115996D01*
X107160878Y-94068377D01*
X107065640Y-93973139D01*
X107018021Y-93877901D01*
X108018021Y-92544567D02*
X108018021Y-93020758D01*
X107018021Y-93020758D01*
X107494211Y-92211234D02*
X107494211Y-91877900D01*
X108018021Y-91735043D02*
X108018021Y-92211234D01*
X107018021Y-92211234D01*
X107018021Y-91735043D01*
X108018021Y-91306472D02*
X107018021Y-91306472D01*
X107018021Y-91068377D01*
X107065640Y-90925519D01*
X107160878Y-90830281D01*
X107256116Y-90782662D01*
X107446592Y-90735043D01*
X107589450Y-90735043D01*
X107779926Y-90782662D01*
X107875164Y-90830281D01*
X107970402Y-90925519D01*
X108018021Y-91068377D01*
X108018021Y-91306472D01*
X113372307Y-91877901D02*
X113372307Y-92592187D01*
X113324687Y-92735044D01*
X113229449Y-92830282D01*
X113086592Y-92877901D01*
X112991354Y-92877901D01*
X113753259Y-91877901D02*
X114372307Y-91877901D01*
X114038973Y-92258853D01*
X114181831Y-92258853D01*
X114277069Y-92306472D01*
X114324688Y-92354091D01*
X114372307Y-92449330D01*
X114372307Y-92687425D01*
X114324688Y-92782663D01*
X114277069Y-92830282D01*
X114181831Y-92877901D01*
X113896116Y-92877901D01*
X113800878Y-92830282D01*
X113753259Y-92782663D01*
X118167757Y-103250691D02*
X118310614Y-103298310D01*
X118358233Y-103345930D01*
X118405852Y-103441168D01*
X118405852Y-103584025D01*
X118358233Y-103679263D01*
X118310614Y-103726882D01*
X118215376Y-103774501D01*
X117834423Y-103774501D01*
X117834423Y-102774501D01*
X118167757Y-102774501D01*
X118262995Y-102822120D01*
X118310614Y-102869739D01*
X118358233Y-102964977D01*
X118358233Y-103060215D01*
X118310614Y-103155453D01*
X118262995Y-103203072D01*
X118167757Y-103250691D01*
X117834423Y-103250691D01*
X118786804Y-103726882D02*
X118929661Y-103774501D01*
X119167757Y-103774501D01*
X119262995Y-103726882D01*
X119310614Y-103679263D01*
X119358233Y-103584025D01*
X119358233Y-103488787D01*
X119310614Y-103393549D01*
X119262995Y-103345930D01*
X119167757Y-103298310D01*
X118977280Y-103250691D01*
X118882042Y-103203072D01*
X118834423Y-103155453D01*
X118786804Y-103060215D01*
X118786804Y-102964977D01*
X118834423Y-102869739D01*
X118882042Y-102822120D01*
X118977280Y-102774501D01*
X119215376Y-102774501D01*
X119358233Y-102822120D01*
X119739185Y-103726882D02*
X119882042Y-103774501D01*
X120120138Y-103774501D01*
X120215376Y-103726882D01*
X120262995Y-103679263D01*
X120310614Y-103584025D01*
X120310614Y-103488787D01*
X120262995Y-103393549D01*
X120215376Y-103345930D01*
X120120138Y-103298310D01*
X119929661Y-103250691D01*
X119834423Y-103203072D01*
X119786804Y-103155453D01*
X119739185Y-103060215D01*
X119739185Y-102964977D01*
X119786804Y-102869739D01*
X119834423Y-102822120D01*
X119929661Y-102774501D01*
X120167757Y-102774501D01*
X120310614Y-102822120D01*
X121262995Y-103774501D02*
X120691566Y-103774501D01*
X120977280Y-103774501D02*
X120977280Y-102774501D01*
X120882042Y-102917358D01*
X120786804Y-103012596D01*
X120691566Y-103060215D01*
X121596328Y-102774501D02*
X122215376Y-102774501D01*
X121882042Y-103155453D01*
X122024900Y-103155453D01*
X122120138Y-103203072D01*
X122167757Y-103250691D01*
X122215376Y-103345930D01*
X122215376Y-103584025D01*
X122167757Y-103679263D01*
X122120138Y-103726882D01*
X122024900Y-103774501D01*
X121739185Y-103774501D01*
X121643947Y-103726882D01*
X121596328Y-103679263D01*
X122786804Y-103203072D02*
X122691566Y-103155453D01*
X122643947Y-103107834D01*
X122596328Y-103012596D01*
X122596328Y-102964977D01*
X122643947Y-102869739D01*
X122691566Y-102822120D01*
X122786804Y-102774501D01*
X122977281Y-102774501D01*
X123072519Y-102822120D01*
X123120138Y-102869739D01*
X123167757Y-102964977D01*
X123167757Y-103012596D01*
X123120138Y-103107834D01*
X123072519Y-103155453D01*
X122977281Y-103203072D01*
X122786804Y-103203072D01*
X122691566Y-103250691D01*
X122643947Y-103298310D01*
X122596328Y-103393549D01*
X122596328Y-103584025D01*
X122643947Y-103679263D01*
X122691566Y-103726882D01*
X122786804Y-103774501D01*
X122977281Y-103774501D01*
X123072519Y-103726882D01*
X123120138Y-103679263D01*
X123167757Y-103584025D01*
X123167757Y-103393549D01*
X123120138Y-103298310D01*
X123072519Y-103250691D01*
X122977281Y-103203072D01*
D12*
X119761641Y-106575350D02*
X119714022Y-106551540D01*
X119666403Y-106503921D01*
X119594974Y-106432492D01*
X119547355Y-106408683D01*
X119499736Y-106408683D01*
X119523546Y-106527730D02*
X119475927Y-106503921D01*
X119428308Y-106456302D01*
X119404498Y-106361064D01*
X119404498Y-106194397D01*
X119428308Y-106099159D01*
X119475927Y-106051540D01*
X119523546Y-106027730D01*
X119618784Y-106027730D01*
X119666403Y-106051540D01*
X119714022Y-106099159D01*
X119737831Y-106194397D01*
X119737831Y-106361064D01*
X119714022Y-106456302D01*
X119666403Y-106503921D01*
X119618784Y-106527730D01*
X119523546Y-106527730D01*
X120214022Y-106527730D02*
X119928308Y-106527730D01*
X120071165Y-106527730D02*
X120071165Y-106027730D01*
X120023546Y-106099159D01*
X119975927Y-106146778D01*
X119928308Y-106170588D01*
D11*
X118223637Y-113253211D02*
X118366494Y-113300830D01*
X118414113Y-113348450D01*
X118461732Y-113443688D01*
X118461732Y-113586545D01*
X118414113Y-113681783D01*
X118366494Y-113729402D01*
X118271256Y-113777021D01*
X117890303Y-113777021D01*
X117890303Y-112777021D01*
X118223637Y-112777021D01*
X118318875Y-112824640D01*
X118366494Y-112872259D01*
X118414113Y-112967497D01*
X118414113Y-113062735D01*
X118366494Y-113157973D01*
X118318875Y-113205592D01*
X118223637Y-113253211D01*
X117890303Y-113253211D01*
X118842684Y-113729402D02*
X118985541Y-113777021D01*
X119223637Y-113777021D01*
X119318875Y-113729402D01*
X119366494Y-113681783D01*
X119414113Y-113586545D01*
X119414113Y-113491307D01*
X119366494Y-113396069D01*
X119318875Y-113348450D01*
X119223637Y-113300830D01*
X119033160Y-113253211D01*
X118937922Y-113205592D01*
X118890303Y-113157973D01*
X118842684Y-113062735D01*
X118842684Y-112967497D01*
X118890303Y-112872259D01*
X118937922Y-112824640D01*
X119033160Y-112777021D01*
X119271256Y-112777021D01*
X119414113Y-112824640D01*
X119795065Y-113729402D02*
X119937922Y-113777021D01*
X120176018Y-113777021D01*
X120271256Y-113729402D01*
X120318875Y-113681783D01*
X120366494Y-113586545D01*
X120366494Y-113491307D01*
X120318875Y-113396069D01*
X120271256Y-113348450D01*
X120176018Y-113300830D01*
X119985541Y-113253211D01*
X119890303Y-113205592D01*
X119842684Y-113157973D01*
X119795065Y-113062735D01*
X119795065Y-112967497D01*
X119842684Y-112872259D01*
X119890303Y-112824640D01*
X119985541Y-112777021D01*
X120223637Y-112777021D01*
X120366494Y-112824640D01*
X121318875Y-113777021D02*
X120747446Y-113777021D01*
X121033160Y-113777021D02*
X121033160Y-112777021D01*
X120937922Y-112919878D01*
X120842684Y-113015116D01*
X120747446Y-113062735D01*
X121652208Y-112777021D02*
X122271256Y-112777021D01*
X121937922Y-113157973D01*
X122080780Y-113157973D01*
X122176018Y-113205592D01*
X122223637Y-113253211D01*
X122271256Y-113348450D01*
X122271256Y-113586545D01*
X122223637Y-113681783D01*
X122176018Y-113729402D01*
X122080780Y-113777021D01*
X121795065Y-113777021D01*
X121699827Y-113729402D01*
X121652208Y-113681783D01*
X122842684Y-113205592D02*
X122747446Y-113157973D01*
X122699827Y-113110354D01*
X122652208Y-113015116D01*
X122652208Y-112967497D01*
X122699827Y-112872259D01*
X122747446Y-112824640D01*
X122842684Y-112777021D01*
X123033161Y-112777021D01*
X123128399Y-112824640D01*
X123176018Y-112872259D01*
X123223637Y-112967497D01*
X123223637Y-113015116D01*
X123176018Y-113110354D01*
X123128399Y-113157973D01*
X123033161Y-113205592D01*
X122842684Y-113205592D01*
X122747446Y-113253211D01*
X122699827Y-113300830D01*
X122652208Y-113396069D01*
X122652208Y-113586545D01*
X122699827Y-113681783D01*
X122747446Y-113729402D01*
X122842684Y-113777021D01*
X123033161Y-113777021D01*
X123128399Y-113729402D01*
X123176018Y-113681783D01*
X123223637Y-113586545D01*
X123223637Y-113396069D01*
X123176018Y-113300830D01*
X123128399Y-113253211D01*
X123033161Y-113205592D01*
D12*
X119817521Y-110710470D02*
X119769902Y-110686660D01*
X119722283Y-110639041D01*
X119650854Y-110567612D01*
X119603235Y-110543803D01*
X119555616Y-110543803D01*
X119579426Y-110662850D02*
X119531807Y-110639041D01*
X119484188Y-110591422D01*
X119460378Y-110496184D01*
X119460378Y-110329517D01*
X119484188Y-110234279D01*
X119531807Y-110186660D01*
X119579426Y-110162850D01*
X119674664Y-110162850D01*
X119722283Y-110186660D01*
X119769902Y-110234279D01*
X119793711Y-110329517D01*
X119793711Y-110496184D01*
X119769902Y-110591422D01*
X119722283Y-110639041D01*
X119674664Y-110662850D01*
X119579426Y-110662850D01*
X119984188Y-110210470D02*
X120007998Y-110186660D01*
X120055617Y-110162850D01*
X120174664Y-110162850D01*
X120222283Y-110186660D01*
X120246093Y-110210470D01*
X120269902Y-110258089D01*
X120269902Y-110305708D01*
X120246093Y-110377136D01*
X119960379Y-110662850D01*
X120269902Y-110662850D01*
D11*
X111741557Y-103362451D02*
X111884414Y-103410070D01*
X111932033Y-103457690D01*
X111979652Y-103552928D01*
X111979652Y-103695785D01*
X111932033Y-103791023D01*
X111884414Y-103838642D01*
X111789176Y-103886261D01*
X111408223Y-103886261D01*
X111408223Y-102886261D01*
X111741557Y-102886261D01*
X111836795Y-102933880D01*
X111884414Y-102981499D01*
X111932033Y-103076737D01*
X111932033Y-103171975D01*
X111884414Y-103267213D01*
X111836795Y-103314832D01*
X111741557Y-103362451D01*
X111408223Y-103362451D01*
X112360604Y-103838642D02*
X112503461Y-103886261D01*
X112741557Y-103886261D01*
X112836795Y-103838642D01*
X112884414Y-103791023D01*
X112932033Y-103695785D01*
X112932033Y-103600547D01*
X112884414Y-103505309D01*
X112836795Y-103457690D01*
X112741557Y-103410070D01*
X112551080Y-103362451D01*
X112455842Y-103314832D01*
X112408223Y-103267213D01*
X112360604Y-103171975D01*
X112360604Y-103076737D01*
X112408223Y-102981499D01*
X112455842Y-102933880D01*
X112551080Y-102886261D01*
X112789176Y-102886261D01*
X112932033Y-102933880D01*
X113312985Y-103838642D02*
X113455842Y-103886261D01*
X113693938Y-103886261D01*
X113789176Y-103838642D01*
X113836795Y-103791023D01*
X113884414Y-103695785D01*
X113884414Y-103600547D01*
X113836795Y-103505309D01*
X113789176Y-103457690D01*
X113693938Y-103410070D01*
X113503461Y-103362451D01*
X113408223Y-103314832D01*
X113360604Y-103267213D01*
X113312985Y-103171975D01*
X113312985Y-103076737D01*
X113360604Y-102981499D01*
X113408223Y-102933880D01*
X113503461Y-102886261D01*
X113741557Y-102886261D01*
X113884414Y-102933880D01*
X114836795Y-103886261D02*
X114265366Y-103886261D01*
X114551080Y-103886261D02*
X114551080Y-102886261D01*
X114455842Y-103029118D01*
X114360604Y-103124356D01*
X114265366Y-103171975D01*
X115170128Y-102886261D02*
X115789176Y-102886261D01*
X115455842Y-103267213D01*
X115598700Y-103267213D01*
X115693938Y-103314832D01*
X115741557Y-103362451D01*
X115789176Y-103457690D01*
X115789176Y-103695785D01*
X115741557Y-103791023D01*
X115693938Y-103838642D01*
X115598700Y-103886261D01*
X115312985Y-103886261D01*
X115217747Y-103838642D01*
X115170128Y-103791023D01*
X116360604Y-103314832D02*
X116265366Y-103267213D01*
X116217747Y-103219594D01*
X116170128Y-103124356D01*
X116170128Y-103076737D01*
X116217747Y-102981499D01*
X116265366Y-102933880D01*
X116360604Y-102886261D01*
X116551081Y-102886261D01*
X116646319Y-102933880D01*
X116693938Y-102981499D01*
X116741557Y-103076737D01*
X116741557Y-103124356D01*
X116693938Y-103219594D01*
X116646319Y-103267213D01*
X116551081Y-103314832D01*
X116360604Y-103314832D01*
X116265366Y-103362451D01*
X116217747Y-103410070D01*
X116170128Y-103505309D01*
X116170128Y-103695785D01*
X116217747Y-103791023D01*
X116265366Y-103838642D01*
X116360604Y-103886261D01*
X116551081Y-103886261D01*
X116646319Y-103838642D01*
X116693938Y-103791023D01*
X116741557Y-103695785D01*
X116741557Y-103505309D01*
X116693938Y-103410070D01*
X116646319Y-103362451D01*
X116551081Y-103314832D01*
D12*
X114564801Y-106575350D02*
X114517182Y-106551540D01*
X114469563Y-106503921D01*
X114398134Y-106432492D01*
X114350515Y-106408683D01*
X114302896Y-106408683D01*
X114326706Y-106527730D02*
X114279087Y-106503921D01*
X114231468Y-106456302D01*
X114207658Y-106361064D01*
X114207658Y-106194397D01*
X114231468Y-106099159D01*
X114279087Y-106051540D01*
X114326706Y-106027730D01*
X114421944Y-106027730D01*
X114469563Y-106051540D01*
X114517182Y-106099159D01*
X114540991Y-106194397D01*
X114540991Y-106361064D01*
X114517182Y-106456302D01*
X114469563Y-106503921D01*
X114421944Y-106527730D01*
X114326706Y-106527730D01*
X114707659Y-106027730D02*
X115017182Y-106027730D01*
X114850516Y-106218207D01*
X114921944Y-106218207D01*
X114969563Y-106242016D01*
X114993373Y-106265826D01*
X115017182Y-106313445D01*
X115017182Y-106432492D01*
X114993373Y-106480111D01*
X114969563Y-106503921D01*
X114921944Y-106527730D01*
X114779087Y-106527730D01*
X114731468Y-106503921D01*
X114707659Y-106480111D01*
D11*
X111462157Y-113309091D02*
X111605014Y-113356710D01*
X111652633Y-113404330D01*
X111700252Y-113499568D01*
X111700252Y-113642425D01*
X111652633Y-113737663D01*
X111605014Y-113785282D01*
X111509776Y-113832901D01*
X111128823Y-113832901D01*
X111128823Y-112832901D01*
X111462157Y-112832901D01*
X111557395Y-112880520D01*
X111605014Y-112928139D01*
X111652633Y-113023377D01*
X111652633Y-113118615D01*
X111605014Y-113213853D01*
X111557395Y-113261472D01*
X111462157Y-113309091D01*
X111128823Y-113309091D01*
X112081204Y-113785282D02*
X112224061Y-113832901D01*
X112462157Y-113832901D01*
X112557395Y-113785282D01*
X112605014Y-113737663D01*
X112652633Y-113642425D01*
X112652633Y-113547187D01*
X112605014Y-113451949D01*
X112557395Y-113404330D01*
X112462157Y-113356710D01*
X112271680Y-113309091D01*
X112176442Y-113261472D01*
X112128823Y-113213853D01*
X112081204Y-113118615D01*
X112081204Y-113023377D01*
X112128823Y-112928139D01*
X112176442Y-112880520D01*
X112271680Y-112832901D01*
X112509776Y-112832901D01*
X112652633Y-112880520D01*
X113033585Y-113785282D02*
X113176442Y-113832901D01*
X113414538Y-113832901D01*
X113509776Y-113785282D01*
X113557395Y-113737663D01*
X113605014Y-113642425D01*
X113605014Y-113547187D01*
X113557395Y-113451949D01*
X113509776Y-113404330D01*
X113414538Y-113356710D01*
X113224061Y-113309091D01*
X113128823Y-113261472D01*
X113081204Y-113213853D01*
X113033585Y-113118615D01*
X113033585Y-113023377D01*
X113081204Y-112928139D01*
X113128823Y-112880520D01*
X113224061Y-112832901D01*
X113462157Y-112832901D01*
X113605014Y-112880520D01*
X114557395Y-113832901D02*
X113985966Y-113832901D01*
X114271680Y-113832901D02*
X114271680Y-112832901D01*
X114176442Y-112975758D01*
X114081204Y-113070996D01*
X113985966Y-113118615D01*
X114890728Y-112832901D02*
X115509776Y-112832901D01*
X115176442Y-113213853D01*
X115319300Y-113213853D01*
X115414538Y-113261472D01*
X115462157Y-113309091D01*
X115509776Y-113404330D01*
X115509776Y-113642425D01*
X115462157Y-113737663D01*
X115414538Y-113785282D01*
X115319300Y-113832901D01*
X115033585Y-113832901D01*
X114938347Y-113785282D01*
X114890728Y-113737663D01*
X116081204Y-113261472D02*
X115985966Y-113213853D01*
X115938347Y-113166234D01*
X115890728Y-113070996D01*
X115890728Y-113023377D01*
X115938347Y-112928139D01*
X115985966Y-112880520D01*
X116081204Y-112832901D01*
X116271681Y-112832901D01*
X116366919Y-112880520D01*
X116414538Y-112928139D01*
X116462157Y-113023377D01*
X116462157Y-113070996D01*
X116414538Y-113166234D01*
X116366919Y-113213853D01*
X116271681Y-113261472D01*
X116081204Y-113261472D01*
X115985966Y-113309091D01*
X115938347Y-113356710D01*
X115890728Y-113451949D01*
X115890728Y-113642425D01*
X115938347Y-113737663D01*
X115985966Y-113785282D01*
X116081204Y-113832901D01*
X116271681Y-113832901D01*
X116366919Y-113785282D01*
X116414538Y-113737663D01*
X116462157Y-113642425D01*
X116462157Y-113451949D01*
X116414538Y-113356710D01*
X116366919Y-113309091D01*
X116271681Y-113261472D01*
D12*
X114564801Y-110766350D02*
X114517182Y-110742540D01*
X114469563Y-110694921D01*
X114398134Y-110623492D01*
X114350515Y-110599683D01*
X114302896Y-110599683D01*
X114326706Y-110718730D02*
X114279087Y-110694921D01*
X114231468Y-110647302D01*
X114207658Y-110552064D01*
X114207658Y-110385397D01*
X114231468Y-110290159D01*
X114279087Y-110242540D01*
X114326706Y-110218730D01*
X114421944Y-110218730D01*
X114469563Y-110242540D01*
X114517182Y-110290159D01*
X114540991Y-110385397D01*
X114540991Y-110552064D01*
X114517182Y-110647302D01*
X114469563Y-110694921D01*
X114421944Y-110718730D01*
X114326706Y-110718730D01*
X114969563Y-110385397D02*
X114969563Y-110718730D01*
X114850516Y-110194921D02*
X114731468Y-110552064D01*
X115040992Y-110552064D01*
D11*
X91647094Y-122326661D02*
X91075665Y-122326661D01*
X91361379Y-122326661D02*
X91361379Y-121326661D01*
X91266141Y-121469518D01*
X91170903Y-121564756D01*
X91075665Y-121612375D01*
X92266141Y-121326661D02*
X92361380Y-121326661D01*
X92456618Y-121374280D01*
X92504237Y-121421899D01*
X92551856Y-121517137D01*
X92599475Y-121707613D01*
X92599475Y-121945709D01*
X92551856Y-122136185D01*
X92504237Y-122231423D01*
X92456618Y-122279042D01*
X92361380Y-122326661D01*
X92266141Y-122326661D01*
X92170903Y-122279042D01*
X92123284Y-122231423D01*
X92075665Y-122136185D01*
X92028046Y-121945709D01*
X92028046Y-121707613D01*
X92075665Y-121517137D01*
X92123284Y-121421899D01*
X92170903Y-121374280D01*
X92266141Y-121326661D01*
X93218522Y-121326661D02*
X93313761Y-121326661D01*
X93408999Y-121374280D01*
X93456618Y-121421899D01*
X93504237Y-121517137D01*
X93551856Y-121707613D01*
X93551856Y-121945709D01*
X93504237Y-122136185D01*
X93456618Y-122231423D01*
X93408999Y-122279042D01*
X93313761Y-122326661D01*
X93218522Y-122326661D01*
X93123284Y-122279042D01*
X93075665Y-122231423D01*
X93028046Y-122136185D01*
X92980427Y-121945709D01*
X92980427Y-121707613D01*
X93028046Y-121517137D01*
X93075665Y-121421899D01*
X93123284Y-121374280D01*
X93218522Y-121326661D01*
D12*
X95041094Y-122166992D02*
X94907760Y-121976516D01*
X94812522Y-122166992D02*
X94812522Y-121766992D01*
X94964903Y-121766992D01*
X95002998Y-121786040D01*
X95022046Y-121805088D01*
X95041094Y-121843183D01*
X95041094Y-121900326D01*
X95022046Y-121938421D01*
X95002998Y-121957469D01*
X94964903Y-121976516D01*
X94812522Y-121976516D01*
X95422046Y-122166992D02*
X95193474Y-122166992D01*
X95307760Y-122166992D02*
X95307760Y-121766992D01*
X95269665Y-121824135D01*
X95231570Y-121862230D01*
X95193474Y-121881278D01*
D11*
X123431633Y-96454221D02*
X122860204Y-96454221D01*
X123145918Y-96454221D02*
X123145918Y-95454221D01*
X123050680Y-95597078D01*
X122955442Y-95692316D01*
X122860204Y-95739935D01*
X123860204Y-96454221D02*
X123860204Y-95454221D01*
X123955442Y-96073269D02*
X124241157Y-96454221D01*
X124241157Y-95787554D02*
X123860204Y-96168507D01*
D12*
X121032914Y-96266612D02*
X120899580Y-96076136D01*
X120804342Y-96266612D02*
X120804342Y-95866612D01*
X120956723Y-95866612D01*
X120994818Y-95885660D01*
X121013866Y-95904708D01*
X121032914Y-95942803D01*
X121032914Y-95999946D01*
X121013866Y-96038041D01*
X120994818Y-96057089D01*
X120956723Y-96076136D01*
X120804342Y-96076136D01*
X121185294Y-95904708D02*
X121204342Y-95885660D01*
X121242437Y-95866612D01*
X121337675Y-95866612D01*
X121375771Y-95885660D01*
X121394818Y-95904708D01*
X121413866Y-95942803D01*
X121413866Y-95980898D01*
X121394818Y-96038041D01*
X121166247Y-96266612D01*
X121413866Y-96266612D01*
D11*
X115440793Y-96510101D02*
X114869364Y-96510101D01*
X115155078Y-96510101D02*
X115155078Y-95510101D01*
X115059840Y-95652958D01*
X114964602Y-95748196D01*
X114869364Y-95795815D01*
X115869364Y-96510101D02*
X115869364Y-95510101D01*
X115964602Y-96129149D02*
X116250317Y-96510101D01*
X116250317Y-95843434D02*
X115869364Y-96224387D01*
D12*
X118071274Y-96322492D02*
X117937940Y-96132016D01*
X117842702Y-96322492D02*
X117842702Y-95922492D01*
X117995083Y-95922492D01*
X118033178Y-95941540D01*
X118052226Y-95960588D01*
X118071274Y-95998683D01*
X118071274Y-96055826D01*
X118052226Y-96093921D01*
X118033178Y-96112969D01*
X117995083Y-96132016D01*
X117842702Y-96132016D01*
X118204607Y-95922492D02*
X118452226Y-95922492D01*
X118318893Y-96074873D01*
X118376035Y-96074873D01*
X118414131Y-96093921D01*
X118433178Y-96112969D01*
X118452226Y-96151064D01*
X118452226Y-96246302D01*
X118433178Y-96284397D01*
X118414131Y-96303445D01*
X118376035Y-96322492D01*
X118261750Y-96322492D01*
X118223654Y-96303445D01*
X118204607Y-96284397D01*
D11*
X106026342Y-105068521D02*
X105454913Y-105068521D01*
X105740627Y-105068521D02*
X105740627Y-104068521D01*
X105645389Y-104211378D01*
X105550151Y-104306616D01*
X105454913Y-104354235D01*
X106645389Y-104068521D02*
X106740628Y-104068521D01*
X106835866Y-104116140D01*
X106883485Y-104163759D01*
X106931104Y-104258997D01*
X106978723Y-104449473D01*
X106978723Y-104687569D01*
X106931104Y-104878045D01*
X106883485Y-104973283D01*
X106835866Y-105020902D01*
X106740628Y-105068521D01*
X106645389Y-105068521D01*
X106550151Y-105020902D01*
X106502532Y-104973283D01*
X106454913Y-104878045D01*
X106407294Y-104687569D01*
X106407294Y-104449473D01*
X106454913Y-104258997D01*
X106502532Y-104163759D01*
X106550151Y-104116140D01*
X106645389Y-104068521D01*
X107407294Y-105068521D02*
X107407294Y-104068521D01*
X107502532Y-104687569D02*
X107788247Y-105068521D01*
X107788247Y-104401854D02*
X107407294Y-104782807D01*
X107073961Y-109506616D02*
X106597770Y-109839950D01*
X107073961Y-110078045D02*
X106073961Y-110078045D01*
X106073961Y-109697092D01*
X106121580Y-109601854D01*
X106169199Y-109554235D01*
X106264437Y-109506616D01*
X106407294Y-109506616D01*
X106502532Y-109554235D01*
X106550151Y-109601854D01*
X106597770Y-109697092D01*
X106597770Y-110078045D01*
X107073961Y-109078045D02*
X106073961Y-109078045D01*
X107073961Y-108506616D01*
X106073961Y-108506616D01*
X107073961Y-107506616D02*
X107073961Y-108078045D01*
X107073961Y-107792331D02*
X106073961Y-107792331D01*
X106216818Y-107887569D01*
X106312056Y-107982807D01*
X106359675Y-108078045D01*
X108817802Y-81972301D02*
X108246373Y-81972301D01*
X108532087Y-81972301D02*
X108532087Y-80972301D01*
X108436849Y-81115158D01*
X108341611Y-81210396D01*
X108246373Y-81258015D01*
X109436849Y-80972301D02*
X109532088Y-80972301D01*
X109627326Y-81019920D01*
X109674945Y-81067539D01*
X109722564Y-81162777D01*
X109770183Y-81353253D01*
X109770183Y-81591349D01*
X109722564Y-81781825D01*
X109674945Y-81877063D01*
X109627326Y-81924682D01*
X109532088Y-81972301D01*
X109436849Y-81972301D01*
X109341611Y-81924682D01*
X109293992Y-81877063D01*
X109246373Y-81781825D01*
X109198754Y-81591349D01*
X109198754Y-81353253D01*
X109246373Y-81162777D01*
X109293992Y-81067539D01*
X109341611Y-81019920D01*
X109436849Y-80972301D01*
X110198754Y-81972301D02*
X110198754Y-80972301D01*
X110293992Y-81591349D02*
X110579707Y-81972301D01*
X110579707Y-81305634D02*
X110198754Y-81686587D01*
X109865421Y-86410396D02*
X109389230Y-86743730D01*
X109865421Y-86981825D02*
X108865421Y-86981825D01*
X108865421Y-86600872D01*
X108913040Y-86505634D01*
X108960659Y-86458015D01*
X109055897Y-86410396D01*
X109198754Y-86410396D01*
X109293992Y-86458015D01*
X109341611Y-86505634D01*
X109389230Y-86600872D01*
X109389230Y-86981825D01*
X109865421Y-85981825D02*
X108865421Y-85981825D01*
X109865421Y-85410396D01*
X108865421Y-85410396D01*
X108960659Y-84981825D02*
X108913040Y-84934206D01*
X108865421Y-84838968D01*
X108865421Y-84600872D01*
X108913040Y-84505634D01*
X108960659Y-84458015D01*
X109055897Y-84410396D01*
X109151135Y-84410396D01*
X109293992Y-84458015D01*
X109865421Y-85029444D01*
X109865421Y-84410396D01*
X111670067Y-131343862D02*
X111812924Y-131391481D01*
X112051020Y-131391481D01*
X112146258Y-131343862D01*
X112193877Y-131296243D01*
X112241496Y-131201005D01*
X112241496Y-131105767D01*
X112193877Y-131010529D01*
X112146258Y-130962910D01*
X112051020Y-130915290D01*
X111860543Y-130867671D01*
X111765305Y-130820052D01*
X111717686Y-130772433D01*
X111670067Y-130677195D01*
X111670067Y-130581957D01*
X111717686Y-130486719D01*
X111765305Y-130439100D01*
X111860543Y-130391481D01*
X112098639Y-130391481D01*
X112241496Y-130439100D01*
X112574829Y-130391481D02*
X112812924Y-131391481D01*
X113003401Y-130677195D01*
X113193877Y-131391481D01*
X113431972Y-130391481D01*
X114336734Y-131391481D02*
X113765305Y-131391481D01*
X114051019Y-131391481D02*
X114051019Y-130391481D01*
X113955781Y-130534338D01*
X113860543Y-130629576D01*
X113765305Y-130677195D01*
X111685307Y-122199862D02*
X111828164Y-122247481D01*
X112066260Y-122247481D01*
X112161498Y-122199862D01*
X112209117Y-122152243D01*
X112256736Y-122057005D01*
X112256736Y-121961767D01*
X112209117Y-121866529D01*
X112161498Y-121818910D01*
X112066260Y-121771290D01*
X111875783Y-121723671D01*
X111780545Y-121676052D01*
X111732926Y-121628433D01*
X111685307Y-121533195D01*
X111685307Y-121437957D01*
X111732926Y-121342719D01*
X111780545Y-121295100D01*
X111875783Y-121247481D01*
X112113879Y-121247481D01*
X112256736Y-121295100D01*
X112590069Y-121247481D02*
X112828164Y-122247481D01*
X113018641Y-121533195D01*
X113209117Y-122247481D01*
X113447212Y-121247481D01*
X113780545Y-121342719D02*
X113828164Y-121295100D01*
X113923402Y-121247481D01*
X114161498Y-121247481D01*
X114256736Y-121295100D01*
X114304355Y-121342719D01*
X114351974Y-121437957D01*
X114351974Y-121533195D01*
X114304355Y-121676052D01*
X113732926Y-122247481D01*
X114351974Y-122247481D01*
X111713247Y-140500562D02*
X111856104Y-140548181D01*
X112094200Y-140548181D01*
X112189438Y-140500562D01*
X112237057Y-140452943D01*
X112284676Y-140357705D01*
X112284676Y-140262467D01*
X112237057Y-140167229D01*
X112189438Y-140119610D01*
X112094200Y-140071990D01*
X111903723Y-140024371D01*
X111808485Y-139976752D01*
X111760866Y-139929133D01*
X111713247Y-139833895D01*
X111713247Y-139738657D01*
X111760866Y-139643419D01*
X111808485Y-139595800D01*
X111903723Y-139548181D01*
X112141819Y-139548181D01*
X112284676Y-139595800D01*
X112618009Y-139548181D02*
X112856104Y-140548181D01*
X113046581Y-139833895D01*
X113237057Y-140548181D01*
X113475152Y-139548181D01*
X113760866Y-139548181D02*
X114379914Y-139548181D01*
X114046580Y-139929133D01*
X114189438Y-139929133D01*
X114284676Y-139976752D01*
X114332295Y-140024371D01*
X114379914Y-140119610D01*
X114379914Y-140357705D01*
X114332295Y-140452943D01*
X114284676Y-140500562D01*
X114189438Y-140548181D01*
X113903723Y-140548181D01*
X113808485Y-140500562D01*
X113760866Y-140452943D01*
X100621067Y-131420062D02*
X100763924Y-131467681D01*
X101002020Y-131467681D01*
X101097258Y-131420062D01*
X101144877Y-131372443D01*
X101192496Y-131277205D01*
X101192496Y-131181967D01*
X101144877Y-131086729D01*
X101097258Y-131039110D01*
X101002020Y-130991490D01*
X100811543Y-130943871D01*
X100716305Y-130896252D01*
X100668686Y-130848633D01*
X100621067Y-130753395D01*
X100621067Y-130658157D01*
X100668686Y-130562919D01*
X100716305Y-130515300D01*
X100811543Y-130467681D01*
X101049639Y-130467681D01*
X101192496Y-130515300D01*
X101525829Y-130467681D02*
X101763924Y-131467681D01*
X101954401Y-130753395D01*
X102144877Y-131467681D01*
X102382972Y-130467681D01*
X103192496Y-130801014D02*
X103192496Y-131467681D01*
X102954400Y-130420062D02*
X102716305Y-131134348D01*
X103335353Y-131134348D01*
X122693667Y-131336242D02*
X122836524Y-131383861D01*
X123074620Y-131383861D01*
X123169858Y-131336242D01*
X123217477Y-131288623D01*
X123265096Y-131193385D01*
X123265096Y-131098147D01*
X123217477Y-131002909D01*
X123169858Y-130955290D01*
X123074620Y-130907670D01*
X122884143Y-130860051D01*
X122788905Y-130812432D01*
X122741286Y-130764813D01*
X122693667Y-130669575D01*
X122693667Y-130574337D01*
X122741286Y-130479099D01*
X122788905Y-130431480D01*
X122884143Y-130383861D01*
X123122239Y-130383861D01*
X123265096Y-130431480D01*
X123598429Y-130383861D02*
X123836524Y-131383861D01*
X124027001Y-130669575D01*
X124217477Y-131383861D01*
X124455572Y-130383861D01*
X125312715Y-130383861D02*
X124836524Y-130383861D01*
X124788905Y-130860051D01*
X124836524Y-130812432D01*
X124931762Y-130764813D01*
X125169858Y-130764813D01*
X125265096Y-130812432D01*
X125312715Y-130860051D01*
X125360334Y-130955290D01*
X125360334Y-131193385D01*
X125312715Y-131288623D01*
X125265096Y-131336242D01*
X125169858Y-131383861D01*
X124931762Y-131383861D01*
X124836524Y-131336242D01*
X124788905Y-131288623D01*
X100757381Y-101677457D02*
X100757381Y-101010790D01*
X101757381Y-101439362D01*
X101090714Y-100201266D02*
X101757381Y-100201266D01*
X100709762Y-100439362D02*
X101424048Y-100677457D01*
X101424048Y-100058409D01*
X101757381Y-99201266D02*
X101757381Y-99677457D01*
X100757381Y-99677457D01*
X101709762Y-98915552D02*
X101757381Y-98772695D01*
X101757381Y-98534599D01*
X101709762Y-98439361D01*
X101662143Y-98391742D01*
X101566905Y-98344123D01*
X101471667Y-98344123D01*
X101376429Y-98391742D01*
X101328810Y-98439361D01*
X101281190Y-98534599D01*
X101233571Y-98725076D01*
X101185952Y-98820314D01*
X101138333Y-98867933D01*
X101043095Y-98915552D01*
X100947857Y-98915552D01*
X100852619Y-98867933D01*
X100805000Y-98820314D01*
X100757381Y-98725076D01*
X100757381Y-98486980D01*
X100805000Y-98344123D01*
X100757381Y-97725076D02*
X100757381Y-97629837D01*
X100805000Y-97534599D01*
X100852619Y-97486980D01*
X100947857Y-97439361D01*
X101138333Y-97391742D01*
X101376429Y-97391742D01*
X101566905Y-97439361D01*
X101662143Y-97486980D01*
X101709762Y-97534599D01*
X101757381Y-97629837D01*
X101757381Y-97725076D01*
X101709762Y-97820314D01*
X101662143Y-97867933D01*
X101566905Y-97915552D01*
X101376429Y-97963171D01*
X101138333Y-97963171D01*
X100947857Y-97915552D01*
X100852619Y-97867933D01*
X100805000Y-97820314D01*
X100757381Y-97725076D01*
X100757381Y-96534599D02*
X100757381Y-96725076D01*
X100805000Y-96820314D01*
X100852619Y-96867933D01*
X100995476Y-96963171D01*
X101185952Y-97010790D01*
X101566905Y-97010790D01*
X101662143Y-96963171D01*
X101709762Y-96915552D01*
X101757381Y-96820314D01*
X101757381Y-96629837D01*
X101709762Y-96534599D01*
X101662143Y-96486980D01*
X101566905Y-96439361D01*
X101328810Y-96439361D01*
X101233571Y-96486980D01*
X101185952Y-96534599D01*
X101138333Y-96629837D01*
X101138333Y-96820314D01*
X101185952Y-96915552D01*
X101233571Y-96963171D01*
X101328810Y-97010790D01*
D13*
X106187143Y-99720314D02*
X106915714Y-99720314D01*
X107001429Y-99677457D01*
X107044286Y-99634600D01*
X107087143Y-99548886D01*
X107087143Y-99377457D01*
X107044286Y-99291743D01*
X107001429Y-99248886D01*
X106915714Y-99206029D01*
X106187143Y-99206029D01*
X107087143Y-98306029D02*
X107087143Y-98820314D01*
X107087143Y-98563172D02*
X106187143Y-98563172D01*
X106315714Y-98648886D01*
X106401429Y-98734600D01*
X106444286Y-98820314D01*
D11*
X87783421Y-112753733D02*
X88497707Y-112753733D01*
X88640564Y-112801353D01*
X88735802Y-112896591D01*
X88783421Y-113039448D01*
X88783421Y-113134686D01*
X88783421Y-111753733D02*
X88783421Y-112325162D01*
X88783421Y-112039448D02*
X87783421Y-112039448D01*
X87926278Y-112134686D01*
X88021516Y-112229924D01*
X88069135Y-112325162D01*
X133732829Y-88047971D02*
X133875686Y-88095590D01*
X133923305Y-88143210D01*
X133970924Y-88238448D01*
X133970924Y-88381305D01*
X133923305Y-88476543D01*
X133875686Y-88524162D01*
X133780448Y-88571781D01*
X133399495Y-88571781D01*
X133399495Y-87571781D01*
X133732829Y-87571781D01*
X133828067Y-87619400D01*
X133875686Y-87667019D01*
X133923305Y-87762257D01*
X133923305Y-87857495D01*
X133875686Y-87952733D01*
X133828067Y-88000352D01*
X133732829Y-88047971D01*
X133399495Y-88047971D01*
X134828067Y-87905114D02*
X134828067Y-88571781D01*
X134399495Y-87905114D02*
X134399495Y-88428924D01*
X134447114Y-88524162D01*
X134542352Y-88571781D01*
X134685210Y-88571781D01*
X134780448Y-88524162D01*
X134828067Y-88476543D01*
X135209019Y-87905114D02*
X135732829Y-87905114D01*
X135209019Y-88571781D01*
X135732829Y-88571781D01*
X136018543Y-87905114D02*
X136542353Y-87905114D01*
X136018543Y-88571781D01*
X136542353Y-88571781D01*
X137304258Y-88524162D02*
X137209020Y-88571781D01*
X137018543Y-88571781D01*
X136923305Y-88524162D01*
X136875686Y-88428924D01*
X136875686Y-88047971D01*
X136923305Y-87952733D01*
X137018543Y-87905114D01*
X137209020Y-87905114D01*
X137304258Y-87952733D01*
X137351877Y-88047971D01*
X137351877Y-88143210D01*
X136875686Y-88238448D01*
X137780448Y-88571781D02*
X137780448Y-87905114D01*
X137780448Y-88095590D02*
X137828067Y-88000352D01*
X137875686Y-87952733D01*
X137970924Y-87905114D01*
X138066163Y-87905114D01*
X136113781Y-92362257D02*
X136113781Y-92838448D01*
X135113781Y-92838448D01*
X136066162Y-92076543D02*
X136113781Y-91933686D01*
X136113781Y-91695590D01*
X136066162Y-91600352D01*
X136018543Y-91552733D01*
X135923305Y-91505114D01*
X135828067Y-91505114D01*
X135732829Y-91552733D01*
X135685210Y-91600352D01*
X135637590Y-91695590D01*
X135589971Y-91886067D01*
X135542352Y-91981305D01*
X135494733Y-92028924D01*
X135399495Y-92076543D01*
X135304257Y-92076543D01*
X135209019Y-92028924D01*
X135161400Y-91981305D01*
X135113781Y-91886067D01*
X135113781Y-91647971D01*
X135161400Y-91505114D01*
X136113781Y-90552733D02*
X136113781Y-91124162D01*
X136113781Y-90838448D02*
X135113781Y-90838448D01*
X135256638Y-90933686D01*
X135351876Y-91028924D01*
X135399495Y-91124162D01*
M02*
