G04 #@! TF.FileFunction,Paste,Top*
%FSLAX46Y46*%
G04 Gerber Fmt 4.6, Leading zero omitted, Abs format (unit mm)*
G04 Created by KiCad (PCBNEW 4.0.7) date 07/31/18 14:06:48*
%MOMM*%
%LPD*%
G01*
G04 APERTURE LIST*
%ADD10C,0.100000*%
%ADD11R,0.800000X0.800000*%
%ADD12R,0.800000X0.900000*%
%ADD13R,0.900000X0.500000*%
%ADD14R,0.600000X1.500000*%
%ADD15R,0.500000X0.900000*%
%ADD16R,0.750000X0.800000*%
G04 APERTURE END LIST*
D10*
D11*
X99131120Y-139067640D03*
X99131120Y-140667640D03*
D12*
X106330000Y-101030000D03*
X104430000Y-101030000D03*
X105380000Y-103030000D03*
X110990000Y-101030000D03*
X109090000Y-101030000D03*
X110040000Y-103030000D03*
X115710000Y-101080000D03*
X113810000Y-101080000D03*
X114760000Y-103080000D03*
X120570000Y-101030000D03*
X118670000Y-101030000D03*
X119620000Y-103030000D03*
D13*
X96840040Y-140561760D03*
X96840040Y-139061760D03*
X105920000Y-84380000D03*
X105920000Y-85880000D03*
X104330000Y-84410000D03*
X104330000Y-85910000D03*
D14*
X110545880Y-88902560D03*
X109275880Y-88902560D03*
X108005880Y-88902560D03*
X106735880Y-88902560D03*
X105465880Y-88902560D03*
X104195880Y-88902560D03*
X102925880Y-88902560D03*
X102925880Y-94302560D03*
X104195880Y-94302560D03*
X105465880Y-94302560D03*
X106735880Y-94302560D03*
X108005880Y-94302560D03*
X109275880Y-94302560D03*
X110545880Y-94302560D03*
D15*
X120310000Y-98780000D03*
X118810000Y-98780000D03*
X115400000Y-98690000D03*
X113900000Y-98690000D03*
X110700000Y-98650000D03*
X109200000Y-98650000D03*
X106150000Y-98590000D03*
X104650000Y-98590000D03*
D13*
X117430000Y-109600000D03*
X117430000Y-108100000D03*
X114890000Y-109600000D03*
X114890000Y-108100000D03*
X112350000Y-109600000D03*
X112350000Y-108100000D03*
X109780000Y-109600000D03*
X109780000Y-108100000D03*
D16*
X101058980Y-90837320D03*
X101058980Y-92337320D03*
M02*
