G04 #@! TF.FileFunction,Other,User*
%FSLAX46Y46*%
G04 Gerber Fmt 4.6, Leading zero omitted, Abs format (unit mm)*
G04 Created by KiCad (PCBNEW 4.0.7) date 07/31/18 14:06:48*
%MOMM*%
%LPD*%
G01*
G04 APERTURE LIST*
%ADD10C,0.100000*%
%ADD11C,0.050000*%
G04 APERTURE END LIST*
D10*
D11*
X98481120Y-138417640D02*
X99781120Y-138417640D01*
X99781120Y-138417640D02*
X99781120Y-141317640D01*
X99781120Y-141317640D02*
X98481120Y-141317640D01*
X98481120Y-141317640D02*
X98481120Y-138417640D01*
X106886600Y-86547100D02*
X118086600Y-86547100D01*
X118086600Y-86547100D02*
X118086600Y-82947100D01*
X118086600Y-82947100D02*
X106886600Y-82947100D01*
X106886600Y-82947100D02*
X106886600Y-86547100D01*
X107130000Y-100330000D02*
X107130000Y-103730000D01*
X107130000Y-103730000D02*
X103630000Y-103730000D01*
X103630000Y-103730000D02*
X103630000Y-100330000D01*
X103630000Y-100330000D02*
X107130000Y-100330000D01*
X111790000Y-100330000D02*
X111790000Y-103730000D01*
X111790000Y-103730000D02*
X108290000Y-103730000D01*
X108290000Y-103730000D02*
X108290000Y-100330000D01*
X108290000Y-100330000D02*
X111790000Y-100330000D01*
X116510000Y-100380000D02*
X116510000Y-103780000D01*
X116510000Y-103780000D02*
X113010000Y-103780000D01*
X113010000Y-103780000D02*
X113010000Y-100380000D01*
X113010000Y-100380000D02*
X116510000Y-100380000D01*
X121370000Y-100330000D02*
X121370000Y-103730000D01*
X121370000Y-103730000D02*
X117870000Y-103730000D01*
X117870000Y-103730000D02*
X117870000Y-100330000D01*
X117870000Y-100330000D02*
X121370000Y-100330000D01*
X96140040Y-141061760D02*
X96140040Y-138561760D01*
X96140040Y-141061760D02*
X97540040Y-141061760D01*
X97540040Y-138561760D02*
X96140040Y-138561760D01*
X97540040Y-138561760D02*
X97540040Y-141061760D01*
X106620000Y-83880000D02*
X106620000Y-86380000D01*
X106620000Y-83880000D02*
X105220000Y-83880000D01*
X105220000Y-86380000D02*
X106620000Y-86380000D01*
X105220000Y-86380000D02*
X105220000Y-83880000D01*
X105030000Y-83910000D02*
X105030000Y-86410000D01*
X105030000Y-83910000D02*
X103630000Y-83910000D01*
X103630000Y-86410000D02*
X105030000Y-86410000D01*
X103630000Y-86410000D02*
X103630000Y-83910000D01*
X117665960Y-127427240D02*
X117915960Y-127427240D01*
X117915960Y-127427240D02*
X117915960Y-127177240D01*
X117665960Y-119927240D02*
X117915960Y-119927240D01*
X117915960Y-119927240D02*
X117915960Y-120177240D01*
X108415960Y-120177240D02*
X108415960Y-119927240D01*
X108415960Y-119927240D02*
X108665960Y-119927240D01*
X108415960Y-127177240D02*
X108415960Y-127427240D01*
X108415960Y-127427240D02*
X108665960Y-127427240D01*
X108665960Y-119927240D02*
X117665960Y-119927240D01*
X108415960Y-127177240D02*
X108415960Y-120177240D01*
X117665960Y-127427240D02*
X108665960Y-127427240D01*
X117915960Y-120177240D02*
X117915960Y-127177240D01*
X117721840Y-119380520D02*
X117971840Y-119380520D01*
X117971840Y-119380520D02*
X117971840Y-119130520D01*
X117721840Y-111880520D02*
X117971840Y-111880520D01*
X117971840Y-111880520D02*
X117971840Y-112130520D01*
X108471840Y-112130520D02*
X108471840Y-111880520D01*
X108471840Y-111880520D02*
X108721840Y-111880520D01*
X108471840Y-119130520D02*
X108471840Y-119380520D01*
X108471840Y-119380520D02*
X108721840Y-119380520D01*
X108721840Y-111880520D02*
X117721840Y-111880520D01*
X108471840Y-119130520D02*
X108471840Y-112130520D01*
X117721840Y-119380520D02*
X108721840Y-119380520D01*
X117971840Y-112130520D02*
X117971840Y-119130520D01*
X117630400Y-135540000D02*
X117880400Y-135540000D01*
X117880400Y-135540000D02*
X117880400Y-135290000D01*
X117630400Y-128040000D02*
X117880400Y-128040000D01*
X117880400Y-128040000D02*
X117880400Y-128290000D01*
X108380400Y-128290000D02*
X108380400Y-128040000D01*
X108380400Y-128040000D02*
X108630400Y-128040000D01*
X108380400Y-135290000D02*
X108380400Y-135540000D01*
X108380400Y-135540000D02*
X108630400Y-135540000D01*
X108630400Y-128040000D02*
X117630400Y-128040000D01*
X108380400Y-135290000D02*
X108380400Y-128290000D01*
X117630400Y-135540000D02*
X108630400Y-135540000D01*
X117880400Y-128290000D02*
X117880400Y-135290000D01*
X107551680Y-127427240D02*
X107801680Y-127427240D01*
X107801680Y-127427240D02*
X107801680Y-127177240D01*
X107551680Y-119927240D02*
X107801680Y-119927240D01*
X107801680Y-119927240D02*
X107801680Y-120177240D01*
X98301680Y-120177240D02*
X98301680Y-119927240D01*
X98301680Y-119927240D02*
X98551680Y-119927240D01*
X98301680Y-127177240D02*
X98301680Y-127427240D01*
X98301680Y-127427240D02*
X98551680Y-127427240D01*
X98551680Y-119927240D02*
X107551680Y-119927240D01*
X98301680Y-127177240D02*
X98301680Y-120177240D01*
X107551680Y-127427240D02*
X98551680Y-127427240D01*
X107801680Y-120177240D02*
X107801680Y-127177240D01*
X127795480Y-127447560D02*
X128045480Y-127447560D01*
X128045480Y-127447560D02*
X128045480Y-127197560D01*
X127795480Y-119947560D02*
X128045480Y-119947560D01*
X128045480Y-119947560D02*
X128045480Y-120197560D01*
X118545480Y-120197560D02*
X118545480Y-119947560D01*
X118545480Y-119947560D02*
X118795480Y-119947560D01*
X118545480Y-127197560D02*
X118545480Y-127447560D01*
X118545480Y-127447560D02*
X118795480Y-127447560D01*
X118795480Y-119947560D02*
X127795480Y-119947560D01*
X118545480Y-127197560D02*
X118545480Y-120197560D01*
X127795480Y-127447560D02*
X118795480Y-127447560D01*
X128045480Y-120197560D02*
X128045480Y-127197560D01*
X111385880Y-87902560D02*
X102085880Y-87902560D01*
X111385880Y-95302560D02*
X102085880Y-95302560D01*
X111385880Y-87902560D02*
X111385880Y-95302560D01*
X102085880Y-87902560D02*
X102085880Y-95302560D01*
X91634720Y-138289440D02*
X91634720Y-86439440D01*
X91634720Y-86439440D02*
X85484720Y-86439440D01*
X85484720Y-86439440D02*
X85484720Y-138289440D01*
X85484720Y-138289440D02*
X91634720Y-138289440D01*
X91450000Y-141500000D02*
G75*
G03X91450000Y-141500000I-2950000J0D01*
G01*
X140950000Y-141500000D02*
G75*
G03X140950000Y-141500000I-2950000J0D01*
G01*
X140950000Y-83500000D02*
G75*
G03X140950000Y-83500000I-2950000J0D01*
G01*
X91450000Y-83500000D02*
G75*
G03X91450000Y-83500000I-2950000J0D01*
G01*
X120810000Y-99480000D02*
X118310000Y-99480000D01*
X120810000Y-99480000D02*
X120810000Y-98080000D01*
X118310000Y-98080000D02*
X118310000Y-99480000D01*
X118310000Y-98080000D02*
X120810000Y-98080000D01*
X115900000Y-99390000D02*
X113400000Y-99390000D01*
X115900000Y-99390000D02*
X115900000Y-97990000D01*
X113400000Y-97990000D02*
X113400000Y-99390000D01*
X113400000Y-97990000D02*
X115900000Y-97990000D01*
X111200000Y-99350000D02*
X108700000Y-99350000D01*
X111200000Y-99350000D02*
X111200000Y-97950000D01*
X108700000Y-97950000D02*
X108700000Y-99350000D01*
X108700000Y-97950000D02*
X111200000Y-97950000D01*
X106650000Y-99290000D02*
X104150000Y-99290000D01*
X106650000Y-99290000D02*
X106650000Y-97890000D01*
X104150000Y-97890000D02*
X104150000Y-99290000D01*
X104150000Y-97890000D02*
X106650000Y-97890000D01*
X116730000Y-110100000D02*
X116730000Y-107600000D01*
X116730000Y-110100000D02*
X118130000Y-110100000D01*
X118130000Y-107600000D02*
X116730000Y-107600000D01*
X118130000Y-107600000D02*
X118130000Y-110100000D01*
X114190000Y-110100000D02*
X114190000Y-107600000D01*
X114190000Y-110100000D02*
X115590000Y-110100000D01*
X115590000Y-107600000D02*
X114190000Y-107600000D01*
X115590000Y-107600000D02*
X115590000Y-110100000D01*
X111650000Y-110100000D02*
X111650000Y-107600000D01*
X111650000Y-110100000D02*
X113050000Y-110100000D01*
X113050000Y-107600000D02*
X111650000Y-107600000D01*
X113050000Y-107600000D02*
X113050000Y-110100000D01*
X109080000Y-110100000D02*
X109080000Y-107600000D01*
X109080000Y-110100000D02*
X110480000Y-110100000D01*
X110480000Y-107600000D02*
X109080000Y-107600000D01*
X110480000Y-107600000D02*
X110480000Y-110100000D01*
X101708980Y-90187320D02*
X101708980Y-92987320D01*
X101708980Y-90187320D02*
X100408980Y-90187320D01*
X100408980Y-92987320D02*
X101708980Y-92987320D01*
X100408980Y-92987320D02*
X100408980Y-90187320D01*
X141200000Y-92620000D02*
G75*
G03X141200000Y-92620000I-6250000J0D01*
G01*
M02*
