G04 #@! TF.FileFunction,Legend,Top*
%FSLAX46Y46*%
G04 Gerber Fmt 4.6, Leading zero omitted, Abs format (unit mm)*
G04 Created by KiCad (PCBNEW 4.0.7) date 07/10/18 09:51:00*
%MOMM*%
%LPD*%
G01*
G04 APERTURE LIST*
%ADD10C,0.100000*%
%ADD11C,0.300000*%
%ADD12C,0.200000*%
%ADD13C,0.120000*%
%ADD14C,0.150000*%
G04 APERTURE END LIST*
D10*
D11*
X131537071Y-128771443D02*
X130037071Y-128771443D01*
X130037071Y-128200015D01*
X130108500Y-128057157D01*
X130179929Y-127985729D01*
X130322786Y-127914300D01*
X130537071Y-127914300D01*
X130679929Y-127985729D01*
X130751357Y-128057157D01*
X130822786Y-128200015D01*
X130822786Y-128771443D01*
X131537071Y-127271443D02*
X130037071Y-127271443D01*
X131537071Y-125771443D02*
X131537071Y-126628586D01*
X131537071Y-126200014D02*
X130037071Y-126200014D01*
X130251357Y-126342871D01*
X130394214Y-126485729D01*
X130465643Y-126628586D01*
X130037071Y-124414300D02*
X130037071Y-125128586D01*
X130751357Y-125200015D01*
X130679929Y-125128586D01*
X130608500Y-124985729D01*
X130608500Y-124628586D01*
X130679929Y-124485729D01*
X130751357Y-124414300D01*
X130894214Y-124342872D01*
X131251357Y-124342872D01*
X131394214Y-124414300D01*
X131465643Y-124485729D01*
X131537071Y-124628586D01*
X131537071Y-124985729D01*
X131465643Y-125128586D01*
X131394214Y-125200015D01*
X130537071Y-123057158D02*
X131537071Y-123057158D01*
X129965643Y-123414301D02*
X131037071Y-123771444D01*
X131037071Y-122842872D01*
X131537071Y-121485730D02*
X131537071Y-122342873D01*
X131537071Y-121914301D02*
X130037071Y-121914301D01*
X130251357Y-122057158D01*
X130394214Y-122200016D01*
X130465643Y-122342873D01*
X130537071Y-119842873D02*
X131537071Y-119557159D01*
X130822786Y-119271445D01*
X131537071Y-118985730D01*
X130537071Y-118700016D01*
X131537071Y-118128587D02*
X130537071Y-118128587D01*
X130037071Y-118128587D02*
X130108500Y-118200016D01*
X130179929Y-118128587D01*
X130108500Y-118057159D01*
X130037071Y-118128587D01*
X130179929Y-118128587D01*
X130537071Y-117628587D02*
X130537071Y-117057158D01*
X130037071Y-117414301D02*
X131322786Y-117414301D01*
X131465643Y-117342873D01*
X131537071Y-117200015D01*
X131537071Y-117057158D01*
X131537071Y-116557158D02*
X130037071Y-116557158D01*
X131537071Y-115914301D02*
X130751357Y-115914301D01*
X130608500Y-115985730D01*
X130537071Y-116128587D01*
X130537071Y-116342872D01*
X130608500Y-116485730D01*
X130679929Y-116557158D01*
X130037071Y-113771444D02*
X130037071Y-113485730D01*
X130108500Y-113342872D01*
X130251357Y-113200015D01*
X130537071Y-113128587D01*
X131037071Y-113128587D01*
X131322786Y-113200015D01*
X131465643Y-113342872D01*
X131537071Y-113485730D01*
X131537071Y-113771444D01*
X131465643Y-113914301D01*
X131322786Y-114057158D01*
X131037071Y-114128587D01*
X130537071Y-114128587D01*
X130251357Y-114057158D01*
X130108500Y-113914301D01*
X130037071Y-113771444D01*
X131537071Y-111771443D02*
X131537071Y-112485729D01*
X130037071Y-112485729D01*
X130751357Y-111271443D02*
X130751357Y-110771443D01*
X131537071Y-110557157D02*
X131537071Y-111271443D01*
X130037071Y-111271443D01*
X130037071Y-110557157D01*
X131537071Y-109914300D02*
X130037071Y-109914300D01*
X130037071Y-109557157D01*
X130108500Y-109342872D01*
X130251357Y-109200014D01*
X130394214Y-109128586D01*
X130679929Y-109057157D01*
X130894214Y-109057157D01*
X131179929Y-109128586D01*
X131322786Y-109200014D01*
X131465643Y-109342872D01*
X131537071Y-109557157D01*
X131537071Y-109914300D01*
X131537071Y-106628586D02*
X130037071Y-106628586D01*
X131465643Y-106628586D02*
X131537071Y-106771443D01*
X131537071Y-107057157D01*
X131465643Y-107200015D01*
X131394214Y-107271443D01*
X131251357Y-107342872D01*
X130822786Y-107342872D01*
X130679929Y-107271443D01*
X130608500Y-107200015D01*
X130537071Y-107057157D01*
X130537071Y-106771443D01*
X130608500Y-106628586D01*
X131537071Y-105914300D02*
X130537071Y-105914300D01*
X130037071Y-105914300D02*
X130108500Y-105985729D01*
X130179929Y-105914300D01*
X130108500Y-105842872D01*
X130037071Y-105914300D01*
X130179929Y-105914300D01*
X131465643Y-105271443D02*
X131537071Y-105128586D01*
X131537071Y-104842871D01*
X131465643Y-104700014D01*
X131322786Y-104628586D01*
X131251357Y-104628586D01*
X131108500Y-104700014D01*
X131037071Y-104842871D01*
X131037071Y-105057157D01*
X130965643Y-105200014D01*
X130822786Y-105271443D01*
X130751357Y-105271443D01*
X130608500Y-105200014D01*
X130537071Y-105057157D01*
X130537071Y-104842871D01*
X130608500Y-104700014D01*
X130537071Y-103985728D02*
X132037071Y-103985728D01*
X130608500Y-103985728D02*
X130537071Y-103842871D01*
X130537071Y-103557157D01*
X130608500Y-103414300D01*
X130679929Y-103342871D01*
X130822786Y-103271442D01*
X131251357Y-103271442D01*
X131394214Y-103342871D01*
X131465643Y-103414300D01*
X131537071Y-103557157D01*
X131537071Y-103842871D01*
X131465643Y-103985728D01*
X131537071Y-102414299D02*
X131465643Y-102557157D01*
X131322786Y-102628585D01*
X130037071Y-102628585D01*
X131537071Y-101200014D02*
X130751357Y-101200014D01*
X130608500Y-101271443D01*
X130537071Y-101414300D01*
X130537071Y-101700014D01*
X130608500Y-101842871D01*
X131465643Y-101200014D02*
X131537071Y-101342871D01*
X131537071Y-101700014D01*
X131465643Y-101842871D01*
X131322786Y-101914300D01*
X131179929Y-101914300D01*
X131037071Y-101842871D01*
X130965643Y-101700014D01*
X130965643Y-101342871D01*
X130894214Y-101200014D01*
X130537071Y-100628585D02*
X131537071Y-100271442D01*
X130537071Y-99914300D02*
X131537071Y-100271442D01*
X131894214Y-100414300D01*
X131965643Y-100485728D01*
X132037071Y-100628585D01*
X134087071Y-124200015D02*
X132587071Y-124200015D01*
X132587071Y-123628587D01*
X132658500Y-123485729D01*
X132729929Y-123414301D01*
X132872786Y-123342872D01*
X133087071Y-123342872D01*
X133229929Y-123414301D01*
X133301357Y-123485729D01*
X133372786Y-123628587D01*
X133372786Y-124200015D01*
X133944214Y-121842872D02*
X134015643Y-121914301D01*
X134087071Y-122128587D01*
X134087071Y-122271444D01*
X134015643Y-122485729D01*
X133872786Y-122628587D01*
X133729929Y-122700015D01*
X133444214Y-122771444D01*
X133229929Y-122771444D01*
X132944214Y-122700015D01*
X132801357Y-122628587D01*
X132658500Y-122485729D01*
X132587071Y-122271444D01*
X132587071Y-122128587D01*
X132658500Y-121914301D01*
X132729929Y-121842872D01*
X133301357Y-120700015D02*
X133372786Y-120485729D01*
X133444214Y-120414301D01*
X133587071Y-120342872D01*
X133801357Y-120342872D01*
X133944214Y-120414301D01*
X134015643Y-120485729D01*
X134087071Y-120628587D01*
X134087071Y-121200015D01*
X132587071Y-121200015D01*
X132587071Y-120700015D01*
X132658500Y-120557158D01*
X132729929Y-120485729D01*
X132872786Y-120414301D01*
X133015643Y-120414301D01*
X133158500Y-120485729D01*
X133229929Y-120557158D01*
X133301357Y-120700015D01*
X133301357Y-121200015D01*
X134087071Y-118557158D02*
X132587071Y-118557158D01*
X133158500Y-118557158D02*
X133087071Y-118414301D01*
X133087071Y-118128587D01*
X133158500Y-117985730D01*
X133229929Y-117914301D01*
X133372786Y-117842872D01*
X133801357Y-117842872D01*
X133944214Y-117914301D01*
X134015643Y-117985730D01*
X134087071Y-118128587D01*
X134087071Y-118414301D01*
X134015643Y-118557158D01*
X133087071Y-117342872D02*
X134087071Y-116985729D01*
X133087071Y-116628587D02*
X134087071Y-116985729D01*
X134444214Y-117128587D01*
X134515643Y-117200015D01*
X134587071Y-117342872D01*
X134087071Y-114914301D02*
X132587071Y-114914301D01*
X133301357Y-114914301D02*
X133301357Y-114057158D01*
X134087071Y-114057158D02*
X132587071Y-114057158D01*
X134087071Y-112700015D02*
X133301357Y-112700015D01*
X133158500Y-112771444D01*
X133087071Y-112914301D01*
X133087071Y-113200015D01*
X133158500Y-113342872D01*
X134015643Y-112700015D02*
X134087071Y-112842872D01*
X134087071Y-113200015D01*
X134015643Y-113342872D01*
X133872786Y-113414301D01*
X133729929Y-113414301D01*
X133587071Y-113342872D01*
X133515643Y-113200015D01*
X133515643Y-112842872D01*
X133444214Y-112700015D01*
X133087071Y-111985729D02*
X134087071Y-111985729D01*
X133229929Y-111985729D02*
X133158500Y-111914301D01*
X133087071Y-111771443D01*
X133087071Y-111557158D01*
X133158500Y-111414301D01*
X133301357Y-111342872D01*
X134087071Y-111342872D01*
X134015643Y-110700015D02*
X134087071Y-110557158D01*
X134087071Y-110271443D01*
X134015643Y-110128586D01*
X133872786Y-110057158D01*
X133801357Y-110057158D01*
X133658500Y-110128586D01*
X133587071Y-110271443D01*
X133587071Y-110485729D01*
X133515643Y-110628586D01*
X133372786Y-110700015D01*
X133301357Y-110700015D01*
X133158500Y-110628586D01*
X133087071Y-110485729D01*
X133087071Y-110271443D01*
X133158500Y-110128586D01*
X134087071Y-107557157D02*
X134087071Y-108271443D01*
X132587071Y-108271443D01*
X134087071Y-107057157D02*
X133087071Y-107057157D01*
X132587071Y-107057157D02*
X132658500Y-107128586D01*
X132729929Y-107057157D01*
X132658500Y-106985729D01*
X132587071Y-107057157D01*
X132729929Y-107057157D01*
X134015643Y-106414300D02*
X134087071Y-106271443D01*
X134087071Y-105985728D01*
X134015643Y-105842871D01*
X133872786Y-105771443D01*
X133801357Y-105771443D01*
X133658500Y-105842871D01*
X133587071Y-105985728D01*
X133587071Y-106200014D01*
X133515643Y-106342871D01*
X133372786Y-106414300D01*
X133301357Y-106414300D01*
X133158500Y-106342871D01*
X133087071Y-106200014D01*
X133087071Y-105985728D01*
X133158500Y-105842871D01*
X134015643Y-105200014D02*
X134087071Y-105057157D01*
X134087071Y-104771442D01*
X134015643Y-104628585D01*
X133872786Y-104557157D01*
X133801357Y-104557157D01*
X133658500Y-104628585D01*
X133587071Y-104771442D01*
X133587071Y-104985728D01*
X133515643Y-105128585D01*
X133372786Y-105200014D01*
X133301357Y-105200014D01*
X133158500Y-105128585D01*
X133087071Y-104985728D01*
X133087071Y-104771442D01*
X133158500Y-104628585D01*
X136637071Y-123271444D02*
X135137071Y-123271444D01*
X135851357Y-123271444D02*
X135851357Y-122414301D01*
X136637071Y-122414301D02*
X135137071Y-122414301D01*
X136637071Y-121057158D02*
X135851357Y-121057158D01*
X135708500Y-121128587D01*
X135637071Y-121271444D01*
X135637071Y-121557158D01*
X135708500Y-121700015D01*
X136565643Y-121057158D02*
X136637071Y-121200015D01*
X136637071Y-121557158D01*
X136565643Y-121700015D01*
X136422786Y-121771444D01*
X136279929Y-121771444D01*
X136137071Y-121700015D01*
X136065643Y-121557158D01*
X136065643Y-121200015D01*
X135994214Y-121057158D01*
X135637071Y-120342872D02*
X136637071Y-120342872D01*
X135779929Y-120342872D02*
X135708500Y-120271444D01*
X135637071Y-120128586D01*
X135637071Y-119914301D01*
X135708500Y-119771444D01*
X135851357Y-119700015D01*
X136637071Y-119700015D01*
X136565643Y-119057158D02*
X136637071Y-118914301D01*
X136637071Y-118628586D01*
X136565643Y-118485729D01*
X136422786Y-118414301D01*
X136351357Y-118414301D01*
X136208500Y-118485729D01*
X136137071Y-118628586D01*
X136137071Y-118842872D01*
X136065643Y-118985729D01*
X135922786Y-119057158D01*
X135851357Y-119057158D01*
X135708500Y-118985729D01*
X135637071Y-118842872D01*
X135637071Y-118628586D01*
X135708500Y-118485729D01*
X135922786Y-116842872D02*
X135851357Y-116914300D01*
X135779929Y-117057157D01*
X135779929Y-117200015D01*
X135851357Y-117342872D01*
X135922786Y-117414300D01*
X136065643Y-117485729D01*
X136208500Y-117485729D01*
X136351357Y-117414300D01*
X136422786Y-117342872D01*
X136494214Y-117200015D01*
X136494214Y-117057157D01*
X136422786Y-116914300D01*
X136351357Y-116842872D01*
X135779929Y-116842872D02*
X136351357Y-116842872D01*
X136422786Y-116771443D01*
X136422786Y-116700015D01*
X136351357Y-116557157D01*
X136208500Y-116485729D01*
X135851357Y-116485729D01*
X135637071Y-116628586D01*
X135494214Y-116842872D01*
X135422786Y-117128586D01*
X135494214Y-117414300D01*
X135637071Y-117628586D01*
X135851357Y-117771443D01*
X136137071Y-117842872D01*
X136422786Y-117771443D01*
X136637071Y-117628586D01*
X136779929Y-117414300D01*
X136851357Y-117128586D01*
X136779929Y-116842872D01*
X136637071Y-116628586D01*
X136637071Y-115128586D02*
X136637071Y-115842872D01*
X135137071Y-115842872D01*
X136637071Y-114628586D02*
X135637071Y-114628586D01*
X135137071Y-114628586D02*
X135208500Y-114700015D01*
X135279929Y-114628586D01*
X135208500Y-114557158D01*
X135137071Y-114628586D01*
X135279929Y-114628586D01*
X136565643Y-113985729D02*
X136637071Y-113842872D01*
X136637071Y-113557157D01*
X136565643Y-113414300D01*
X136422786Y-113342872D01*
X136351357Y-113342872D01*
X136208500Y-113414300D01*
X136137071Y-113557157D01*
X136137071Y-113771443D01*
X136065643Y-113914300D01*
X135922786Y-113985729D01*
X135851357Y-113985729D01*
X135708500Y-113914300D01*
X135637071Y-113771443D01*
X135637071Y-113557157D01*
X135708500Y-113414300D01*
X136565643Y-112771443D02*
X136637071Y-112628586D01*
X136637071Y-112342871D01*
X136565643Y-112200014D01*
X136422786Y-112128586D01*
X136351357Y-112128586D01*
X136208500Y-112200014D01*
X136137071Y-112342871D01*
X136137071Y-112557157D01*
X136065643Y-112700014D01*
X135922786Y-112771443D01*
X135851357Y-112771443D01*
X135708500Y-112700014D01*
X135637071Y-112557157D01*
X135637071Y-112342871D01*
X135708500Y-112200014D01*
X136494214Y-111485728D02*
X136565643Y-111414300D01*
X136637071Y-111485728D01*
X136565643Y-111557157D01*
X136494214Y-111485728D01*
X136637071Y-111485728D01*
X135637071Y-110771442D02*
X137137071Y-110771442D01*
X135708500Y-110771442D02*
X135637071Y-110628585D01*
X135637071Y-110342871D01*
X135708500Y-110200014D01*
X135779929Y-110128585D01*
X135922786Y-110057156D01*
X136351357Y-110057156D01*
X136494214Y-110128585D01*
X136565643Y-110200014D01*
X136637071Y-110342871D01*
X136637071Y-110628585D01*
X136565643Y-110771442D01*
X135637071Y-109414299D02*
X137137071Y-109414299D01*
X135708500Y-109414299D02*
X135637071Y-109271442D01*
X135637071Y-108985728D01*
X135708500Y-108842871D01*
X135779929Y-108771442D01*
X135922786Y-108700013D01*
X136351357Y-108700013D01*
X136494214Y-108771442D01*
X136565643Y-108842871D01*
X136637071Y-108985728D01*
X136637071Y-109271442D01*
X136565643Y-109414299D01*
X136494214Y-108057156D02*
X136565643Y-107985728D01*
X136637071Y-108057156D01*
X136565643Y-108128585D01*
X136494214Y-108057156D01*
X136637071Y-108057156D01*
X136565643Y-107414299D02*
X136637071Y-107271442D01*
X136637071Y-106985727D01*
X136565643Y-106842870D01*
X136422786Y-106771442D01*
X136351357Y-106771442D01*
X136208500Y-106842870D01*
X136137071Y-106985727D01*
X136137071Y-107200013D01*
X136065643Y-107342870D01*
X135922786Y-107414299D01*
X135851357Y-107414299D01*
X135708500Y-107342870D01*
X135637071Y-107200013D01*
X135637071Y-106985727D01*
X135708500Y-106842870D01*
X136565643Y-105557156D02*
X136637071Y-105700013D01*
X136637071Y-105985727D01*
X136565643Y-106128584D01*
X136422786Y-106200013D01*
X135851357Y-106200013D01*
X135708500Y-106128584D01*
X135637071Y-105985727D01*
X135637071Y-105700013D01*
X135708500Y-105557156D01*
X135851357Y-105485727D01*
X135994214Y-105485727D01*
X136137071Y-106200013D01*
X139187071Y-135521443D02*
X137687071Y-135521443D01*
X139187071Y-134878586D02*
X138401357Y-134878586D01*
X138258500Y-134950015D01*
X138187071Y-135092872D01*
X138187071Y-135307157D01*
X138258500Y-135450015D01*
X138329929Y-135521443D01*
X138187071Y-134378586D02*
X138187071Y-133807157D01*
X137687071Y-134164300D02*
X138972786Y-134164300D01*
X139115643Y-134092872D01*
X139187071Y-133950014D01*
X139187071Y-133807157D01*
X138187071Y-133521443D02*
X138187071Y-132950014D01*
X137687071Y-133307157D02*
X138972786Y-133307157D01*
X139115643Y-133235729D01*
X139187071Y-133092871D01*
X139187071Y-132950014D01*
X138187071Y-132450014D02*
X139687071Y-132450014D01*
X138258500Y-132450014D02*
X138187071Y-132307157D01*
X138187071Y-132021443D01*
X138258500Y-131878586D01*
X138329929Y-131807157D01*
X138472786Y-131735728D01*
X138901357Y-131735728D01*
X139044214Y-131807157D01*
X139115643Y-131878586D01*
X139187071Y-132021443D01*
X139187071Y-132307157D01*
X139115643Y-132450014D01*
X139115643Y-131164300D02*
X139187071Y-131021443D01*
X139187071Y-130735728D01*
X139115643Y-130592871D01*
X138972786Y-130521443D01*
X138901357Y-130521443D01*
X138758500Y-130592871D01*
X138687071Y-130735728D01*
X138687071Y-130950014D01*
X138615643Y-131092871D01*
X138472786Y-131164300D01*
X138401357Y-131164300D01*
X138258500Y-131092871D01*
X138187071Y-130950014D01*
X138187071Y-130735728D01*
X138258500Y-130592871D01*
X139044214Y-129878585D02*
X139115643Y-129807157D01*
X139187071Y-129878585D01*
X139115643Y-129950014D01*
X139044214Y-129878585D01*
X139187071Y-129878585D01*
X138258500Y-129878585D02*
X138329929Y-129807157D01*
X138401357Y-129878585D01*
X138329929Y-129950014D01*
X138258500Y-129878585D01*
X138401357Y-129878585D01*
X137615643Y-128092871D02*
X139544214Y-129378585D01*
X137615643Y-126521442D02*
X139544214Y-127807156D01*
X139115643Y-125378584D02*
X139187071Y-125521441D01*
X139187071Y-125807155D01*
X139115643Y-125950013D01*
X139044214Y-126021441D01*
X138901357Y-126092870D01*
X138472786Y-126092870D01*
X138329929Y-126021441D01*
X138258500Y-125950013D01*
X138187071Y-125807155D01*
X138187071Y-125521441D01*
X138258500Y-125378584D01*
X139187071Y-124735727D02*
X137687071Y-124735727D01*
X138258500Y-124735727D02*
X138187071Y-124592870D01*
X138187071Y-124307156D01*
X138258500Y-124164299D01*
X138329929Y-124092870D01*
X138472786Y-124021441D01*
X138901357Y-124021441D01*
X139044214Y-124092870D01*
X139115643Y-124164299D01*
X139187071Y-124307156D01*
X139187071Y-124592870D01*
X139115643Y-124735727D01*
X139187071Y-123378584D02*
X138187071Y-123378584D01*
X138329929Y-123378584D02*
X138258500Y-123307156D01*
X138187071Y-123164298D01*
X138187071Y-122950013D01*
X138258500Y-122807156D01*
X138401357Y-122735727D01*
X139187071Y-122735727D01*
X138401357Y-122735727D02*
X138258500Y-122664298D01*
X138187071Y-122521441D01*
X138187071Y-122307156D01*
X138258500Y-122164298D01*
X138401357Y-122092870D01*
X139187071Y-122092870D01*
X138615643Y-121378584D02*
X138615643Y-120235727D01*
X138187071Y-119521441D02*
X139687071Y-119521441D01*
X138258500Y-119521441D02*
X138187071Y-119378584D01*
X138187071Y-119092870D01*
X138258500Y-118950013D01*
X138329929Y-118878584D01*
X138472786Y-118807155D01*
X138901357Y-118807155D01*
X139044214Y-118878584D01*
X139115643Y-118950013D01*
X139187071Y-119092870D01*
X139187071Y-119378584D01*
X139115643Y-119521441D01*
X139187071Y-118164298D02*
X138187071Y-118164298D01*
X137687071Y-118164298D02*
X137758500Y-118235727D01*
X137829929Y-118164298D01*
X137758500Y-118092870D01*
X137687071Y-118164298D01*
X137829929Y-118164298D01*
X139187071Y-116664298D02*
X139187071Y-117521441D01*
X139187071Y-117092869D02*
X137687071Y-117092869D01*
X137901357Y-117235726D01*
X138044214Y-117378584D01*
X138115643Y-117521441D01*
X137687071Y-115307155D02*
X137687071Y-116021441D01*
X138401357Y-116092870D01*
X138329929Y-116021441D01*
X138258500Y-115878584D01*
X138258500Y-115521441D01*
X138329929Y-115378584D01*
X138401357Y-115307155D01*
X138544214Y-115235727D01*
X138901357Y-115235727D01*
X139044214Y-115307155D01*
X139115643Y-115378584D01*
X139187071Y-115521441D01*
X139187071Y-115878584D01*
X139115643Y-116021441D01*
X139044214Y-116092870D01*
X138187071Y-113950013D02*
X139187071Y-113950013D01*
X137615643Y-114307156D02*
X138687071Y-114664299D01*
X138687071Y-113735727D01*
X139187071Y-112378585D02*
X139187071Y-113235728D01*
X139187071Y-112807156D02*
X137687071Y-112807156D01*
X137901357Y-112950013D01*
X138044214Y-113092871D01*
X138115643Y-113235728D01*
X139044214Y-111735728D02*
X139115643Y-111664300D01*
X139187071Y-111735728D01*
X139115643Y-111807157D01*
X139044214Y-111735728D01*
X139187071Y-111735728D01*
X138187071Y-111235728D02*
X138187071Y-110664299D01*
X139187071Y-111021442D02*
X137901357Y-111021442D01*
X137758500Y-110950014D01*
X137687071Y-110807156D01*
X137687071Y-110664299D01*
X139187071Y-110164299D02*
X138187071Y-110164299D01*
X137687071Y-110164299D02*
X137758500Y-110235728D01*
X137829929Y-110164299D01*
X137758500Y-110092871D01*
X137687071Y-110164299D01*
X137829929Y-110164299D01*
X139187071Y-109450013D02*
X138187071Y-109450013D01*
X138472786Y-109450013D02*
X138329929Y-109378585D01*
X138258500Y-109307156D01*
X138187071Y-109164299D01*
X138187071Y-109021442D01*
X139115643Y-107950014D02*
X139187071Y-108092871D01*
X139187071Y-108378585D01*
X139115643Y-108521442D01*
X138972786Y-108592871D01*
X138401357Y-108592871D01*
X138258500Y-108521442D01*
X138187071Y-108378585D01*
X138187071Y-108092871D01*
X138258500Y-107950014D01*
X138401357Y-107878585D01*
X138544214Y-107878585D01*
X138687071Y-108592871D01*
X139187071Y-107235728D02*
X137687071Y-107235728D01*
X138258500Y-107235728D02*
X138187071Y-107092871D01*
X138187071Y-106807157D01*
X138258500Y-106664300D01*
X138329929Y-106592871D01*
X138472786Y-106521442D01*
X138901357Y-106521442D01*
X139044214Y-106592871D01*
X139115643Y-106664300D01*
X139187071Y-106807157D01*
X139187071Y-107092871D01*
X139115643Y-107235728D01*
X139187071Y-105235728D02*
X138401357Y-105235728D01*
X138258500Y-105307157D01*
X138187071Y-105450014D01*
X138187071Y-105735728D01*
X138258500Y-105878585D01*
X139115643Y-105235728D02*
X139187071Y-105378585D01*
X139187071Y-105735728D01*
X139115643Y-105878585D01*
X138972786Y-105950014D01*
X138829929Y-105950014D01*
X138687071Y-105878585D01*
X138615643Y-105735728D01*
X138615643Y-105378585D01*
X138544214Y-105235728D01*
X139115643Y-104592871D02*
X139187071Y-104450014D01*
X139187071Y-104164299D01*
X139115643Y-104021442D01*
X138972786Y-103950014D01*
X138901357Y-103950014D01*
X138758500Y-104021442D01*
X138687071Y-104164299D01*
X138687071Y-104378585D01*
X138615643Y-104521442D01*
X138472786Y-104592871D01*
X138401357Y-104592871D01*
X138258500Y-104521442D01*
X138187071Y-104378585D01*
X138187071Y-104164299D01*
X138258500Y-104021442D01*
X139115643Y-102735728D02*
X139187071Y-102878585D01*
X139187071Y-103164299D01*
X139115643Y-103307156D01*
X138972786Y-103378585D01*
X138401357Y-103378585D01*
X138258500Y-103307156D01*
X138187071Y-103164299D01*
X138187071Y-102878585D01*
X138258500Y-102735728D01*
X138401357Y-102664299D01*
X138544214Y-102664299D01*
X138687071Y-103378585D01*
X139187071Y-101378585D02*
X138401357Y-101378585D01*
X138258500Y-101450014D01*
X138187071Y-101592871D01*
X138187071Y-101878585D01*
X138258500Y-102021442D01*
X139115643Y-101378585D02*
X139187071Y-101521442D01*
X139187071Y-101878585D01*
X139115643Y-102021442D01*
X138972786Y-102092871D01*
X138829929Y-102092871D01*
X138687071Y-102021442D01*
X138615643Y-101878585D01*
X138615643Y-101521442D01*
X138544214Y-101378585D01*
X138187071Y-100664299D02*
X139687071Y-100664299D01*
X138258500Y-100664299D02*
X138187071Y-100521442D01*
X138187071Y-100235728D01*
X138258500Y-100092871D01*
X138329929Y-100021442D01*
X138472786Y-99950013D01*
X138901357Y-99950013D01*
X139044214Y-100021442D01*
X139115643Y-100092871D01*
X139187071Y-100235728D01*
X139187071Y-100521442D01*
X139115643Y-100664299D01*
X138187071Y-99307156D02*
X139687071Y-99307156D01*
X138258500Y-99307156D02*
X138187071Y-99164299D01*
X138187071Y-98878585D01*
X138258500Y-98735728D01*
X138329929Y-98664299D01*
X138472786Y-98592870D01*
X138901357Y-98592870D01*
X139044214Y-98664299D01*
X139115643Y-98735728D01*
X139187071Y-98878585D01*
X139187071Y-99164299D01*
X139115643Y-99307156D01*
X139044214Y-97950013D02*
X139115643Y-97878585D01*
X139187071Y-97950013D01*
X139115643Y-98021442D01*
X139044214Y-97950013D01*
X139187071Y-97950013D01*
X139115643Y-96592870D02*
X139187071Y-96735727D01*
X139187071Y-97021441D01*
X139115643Y-97164299D01*
X139044214Y-97235727D01*
X138901357Y-97307156D01*
X138472786Y-97307156D01*
X138329929Y-97235727D01*
X138258500Y-97164299D01*
X138187071Y-97021441D01*
X138187071Y-96735727D01*
X138258500Y-96592870D01*
X139187071Y-95735727D02*
X139115643Y-95878585D01*
X139044214Y-95950013D01*
X138901357Y-96021442D01*
X138472786Y-96021442D01*
X138329929Y-95950013D01*
X138258500Y-95878585D01*
X138187071Y-95735727D01*
X138187071Y-95521442D01*
X138258500Y-95378585D01*
X138329929Y-95307156D01*
X138472786Y-95235727D01*
X138901357Y-95235727D01*
X139044214Y-95307156D01*
X139115643Y-95378585D01*
X139187071Y-95521442D01*
X139187071Y-95735727D01*
X139187071Y-94592870D02*
X138187071Y-94592870D01*
X138329929Y-94592870D02*
X138258500Y-94521442D01*
X138187071Y-94378584D01*
X138187071Y-94164299D01*
X138258500Y-94021442D01*
X138401357Y-93950013D01*
X139187071Y-93950013D01*
X138401357Y-93950013D02*
X138258500Y-93878584D01*
X138187071Y-93735727D01*
X138187071Y-93521442D01*
X138258500Y-93378584D01*
X138401357Y-93307156D01*
X139187071Y-93307156D01*
D12*
X100000000Y-90000000D02*
X127000000Y-90000000D01*
X100000000Y-90000000D02*
X100000000Y-117000000D01*
X100000000Y-117000000D02*
X127000000Y-117000000D01*
X127000000Y-90000000D02*
X127000000Y-117000000D01*
D13*
X117815880Y-97301760D02*
X118515880Y-97301760D01*
X118515880Y-98501760D02*
X117815880Y-98501760D01*
X93919520Y-123330080D02*
X93919520Y-124330080D01*
X93919520Y-124330080D02*
X96019520Y-124330080D01*
X93919520Y-123330080D02*
X96019520Y-123330080D01*
X130204520Y-85988200D02*
X130204520Y-83328200D01*
X117444520Y-85988200D02*
X130204520Y-85988200D01*
X117444520Y-83328200D02*
X130204520Y-83328200D01*
X117444520Y-85988200D02*
X117444520Y-83328200D01*
X116174520Y-85988200D02*
X114844520Y-85988200D01*
X114844520Y-85988200D02*
X114844520Y-84658200D01*
X108565640Y-91095520D02*
X108565640Y-93755520D01*
X116245640Y-91095520D02*
X108565640Y-91095520D01*
X116245640Y-93755520D02*
X108565640Y-93755520D01*
X116245640Y-91095520D02*
X116245640Y-93755520D01*
X117515640Y-91095520D02*
X118845640Y-91095520D01*
X118845640Y-91095520D02*
X118845640Y-92425520D01*
X118229260Y-107061540D02*
X119159260Y-107061540D01*
X121389260Y-107061540D02*
X120459260Y-107061540D01*
X121389260Y-107061540D02*
X121389260Y-104901540D01*
X118229260Y-107061540D02*
X118229260Y-105601540D01*
X118285140Y-111196660D02*
X119215140Y-111196660D01*
X121445140Y-111196660D02*
X120515140Y-111196660D01*
X121445140Y-111196660D02*
X121445140Y-109036660D01*
X118285140Y-111196660D02*
X118285140Y-109736660D01*
X113032420Y-107061540D02*
X113962420Y-107061540D01*
X116192420Y-107061540D02*
X115262420Y-107061540D01*
X116192420Y-107061540D02*
X116192420Y-104901540D01*
X113032420Y-107061540D02*
X113032420Y-105601540D01*
X113032420Y-111252540D02*
X113962420Y-111252540D01*
X116192420Y-111252540D02*
X115262420Y-111252540D01*
X116192420Y-111252540D02*
X116192420Y-109092540D01*
X113032420Y-111252540D02*
X113032420Y-109792540D01*
X95607760Y-122666040D02*
X94607760Y-122666040D01*
X94607760Y-121306040D02*
X95607760Y-121306040D01*
X121599580Y-96765660D02*
X120599580Y-96765660D01*
X120599580Y-95405660D02*
X121599580Y-95405660D01*
X117637940Y-95461540D02*
X118637940Y-95461540D01*
X118637940Y-96821540D02*
X117637940Y-96821540D01*
X105571580Y-105546140D02*
X107671580Y-105546140D01*
X105571580Y-112086140D02*
X107671580Y-112086140D01*
X108363040Y-82449920D02*
X110463040Y-82449920D01*
X108363040Y-88989920D02*
X110463040Y-88989920D01*
X110753400Y-134189100D02*
X115253400Y-134189100D01*
X109503400Y-130189100D02*
X109503400Y-131689100D01*
X115253400Y-127689100D02*
X110753400Y-127689100D01*
X116503400Y-131689100D02*
X116503400Y-130189100D01*
X110768640Y-125045100D02*
X115268640Y-125045100D01*
X109518640Y-121045100D02*
X109518640Y-122545100D01*
X115268640Y-118545100D02*
X110768640Y-118545100D01*
X116518640Y-122545100D02*
X116518640Y-121045100D01*
X110796580Y-143345800D02*
X115296580Y-143345800D01*
X109546580Y-139345800D02*
X109546580Y-140845800D01*
X115296580Y-136845800D02*
X110796580Y-136845800D01*
X116546580Y-140845800D02*
X116546580Y-139345800D01*
X99704400Y-134265300D02*
X104204400Y-134265300D01*
X98454400Y-130265300D02*
X98454400Y-131765300D01*
X104204400Y-127765300D02*
X99704400Y-127765300D01*
X105454400Y-131765300D02*
X105454400Y-130265300D01*
X121777000Y-134181480D02*
X126277000Y-134181480D01*
X120527000Y-130181480D02*
X120527000Y-131681480D01*
X126277000Y-127681480D02*
X121777000Y-127681480D01*
X127527000Y-131681480D02*
X127527000Y-130181480D01*
D14*
X111130000Y-96959600D02*
X111105000Y-96959600D01*
X111130000Y-101109600D02*
X111015000Y-101109600D01*
X102230000Y-101109600D02*
X102345000Y-101109600D01*
X102230000Y-96959600D02*
X102345000Y-96959600D01*
X111130000Y-96959600D02*
X111130000Y-101109600D01*
X102230000Y-96959600D02*
X102230000Y-101109600D01*
X111105000Y-96959600D02*
X111105000Y-95584600D01*
D13*
X85731040Y-137880400D02*
X90931040Y-137880400D01*
X85731040Y-89560400D02*
X85731040Y-137880400D01*
X90931040Y-86960400D02*
X90931040Y-137880400D01*
X85731040Y-89560400D02*
X88331040Y-89560400D01*
X88331040Y-89560400D02*
X88331040Y-86960400D01*
X88331040Y-86960400D02*
X90931040Y-86960400D01*
X85731040Y-88290400D02*
X85731040Y-86960400D01*
X85731040Y-86960400D02*
X87061040Y-86960400D01*
X136991400Y-89119400D02*
X134331400Y-89119400D01*
X136991400Y-91719400D02*
X136991400Y-89119400D01*
X134331400Y-91719400D02*
X134331400Y-89119400D01*
X136991400Y-91719400D02*
X134331400Y-91719400D01*
X136991400Y-92989400D02*
X136991400Y-94319400D01*
X136991400Y-94319400D02*
X135661400Y-94319400D01*
D14*
X117999214Y-99758903D02*
X117951595Y-99806522D01*
X117808738Y-99854141D01*
X117713500Y-99854141D01*
X117570642Y-99806522D01*
X117475404Y-99711284D01*
X117427785Y-99616046D01*
X117380166Y-99425570D01*
X117380166Y-99282712D01*
X117427785Y-99092236D01*
X117475404Y-98996998D01*
X117570642Y-98901760D01*
X117713500Y-98854141D01*
X117808738Y-98854141D01*
X117951595Y-98901760D01*
X117999214Y-98949379D01*
X118951595Y-99854141D02*
X118380166Y-99854141D01*
X118665880Y-99854141D02*
X118665880Y-98854141D01*
X118570642Y-98996998D01*
X118475404Y-99092236D01*
X118380166Y-99139855D01*
X94481425Y-125791221D02*
X94481425Y-124791221D01*
X94719520Y-124791221D01*
X94862378Y-124838840D01*
X94957616Y-124934078D01*
X95005235Y-125029316D01*
X95052854Y-125219792D01*
X95052854Y-125362650D01*
X95005235Y-125553126D01*
X94957616Y-125648364D01*
X94862378Y-125743602D01*
X94719520Y-125791221D01*
X94481425Y-125791221D01*
X96005235Y-125791221D02*
X95433806Y-125791221D01*
X95719520Y-125791221D02*
X95719520Y-124791221D01*
X95624282Y-124934078D01*
X95529044Y-125029316D01*
X95433806Y-125076935D01*
X113296901Y-84991533D02*
X114011187Y-84991533D01*
X114154044Y-85039153D01*
X114249282Y-85134391D01*
X114296901Y-85277248D01*
X114296901Y-85372486D01*
X113392139Y-84562962D02*
X113344520Y-84515343D01*
X113296901Y-84420105D01*
X113296901Y-84182009D01*
X113344520Y-84086771D01*
X113392139Y-84039152D01*
X113487377Y-83991533D01*
X113582615Y-83991533D01*
X113725472Y-84039152D01*
X114296901Y-84610581D01*
X114296901Y-83991533D01*
X119298021Y-92758853D02*
X120012307Y-92758853D01*
X120155164Y-92806473D01*
X120250402Y-92901711D01*
X120298021Y-93044568D01*
X120298021Y-93139806D01*
X119298021Y-92377901D02*
X119298021Y-91758853D01*
X119678973Y-92092187D01*
X119678973Y-91949329D01*
X119726592Y-91854091D01*
X119774211Y-91806472D01*
X119869450Y-91758853D01*
X120107545Y-91758853D01*
X120202783Y-91806472D01*
X120250402Y-91854091D01*
X120298021Y-91949329D01*
X120298021Y-92235044D01*
X120250402Y-92330282D01*
X120202783Y-92377901D01*
X122505482Y-106496099D02*
X122410244Y-106448480D01*
X122315006Y-106353242D01*
X122172149Y-106210385D01*
X122076910Y-106162766D01*
X121981672Y-106162766D01*
X122029291Y-106400861D02*
X121934053Y-106353242D01*
X121838815Y-106258004D01*
X121791196Y-106067528D01*
X121791196Y-105734194D01*
X121838815Y-105543718D01*
X121934053Y-105448480D01*
X122029291Y-105400861D01*
X122219768Y-105400861D01*
X122315006Y-105448480D01*
X122410244Y-105543718D01*
X122457863Y-105734194D01*
X122457863Y-106067528D01*
X122410244Y-106258004D01*
X122315006Y-106353242D01*
X122219768Y-106400861D01*
X122029291Y-106400861D01*
X123410244Y-106400861D02*
X122838815Y-106400861D01*
X123124529Y-106400861D02*
X123124529Y-105400861D01*
X123029291Y-105543718D01*
X122934053Y-105638956D01*
X122838815Y-105686575D01*
X122505482Y-111134139D02*
X122410244Y-111086520D01*
X122315006Y-110991282D01*
X122172149Y-110848425D01*
X122076910Y-110800806D01*
X121981672Y-110800806D01*
X122029291Y-111038901D02*
X121934053Y-110991282D01*
X121838815Y-110896044D01*
X121791196Y-110705568D01*
X121791196Y-110372234D01*
X121838815Y-110181758D01*
X121934053Y-110086520D01*
X122029291Y-110038901D01*
X122219768Y-110038901D01*
X122315006Y-110086520D01*
X122410244Y-110181758D01*
X122457863Y-110372234D01*
X122457863Y-110705568D01*
X122410244Y-110896044D01*
X122315006Y-110991282D01*
X122219768Y-111038901D01*
X122029291Y-111038901D01*
X122838815Y-110134139D02*
X122886434Y-110086520D01*
X122981672Y-110038901D01*
X123219768Y-110038901D01*
X123315006Y-110086520D01*
X123362625Y-110134139D01*
X123410244Y-110229377D01*
X123410244Y-110324615D01*
X123362625Y-110467472D01*
X122791196Y-111038901D01*
X123410244Y-111038901D01*
X111385362Y-106719619D02*
X111290124Y-106672000D01*
X111194886Y-106576762D01*
X111052029Y-106433905D01*
X110956790Y-106386286D01*
X110861552Y-106386286D01*
X110909171Y-106624381D02*
X110813933Y-106576762D01*
X110718695Y-106481524D01*
X110671076Y-106291048D01*
X110671076Y-105957714D01*
X110718695Y-105767238D01*
X110813933Y-105672000D01*
X110909171Y-105624381D01*
X111099648Y-105624381D01*
X111194886Y-105672000D01*
X111290124Y-105767238D01*
X111337743Y-105957714D01*
X111337743Y-106291048D01*
X111290124Y-106481524D01*
X111194886Y-106576762D01*
X111099648Y-106624381D01*
X110909171Y-106624381D01*
X111671076Y-105624381D02*
X112290124Y-105624381D01*
X111956790Y-106005333D01*
X112099648Y-106005333D01*
X112194886Y-106052952D01*
X112242505Y-106100571D01*
X112290124Y-106195810D01*
X112290124Y-106433905D01*
X112242505Y-106529143D01*
X112194886Y-106576762D01*
X112099648Y-106624381D01*
X111813933Y-106624381D01*
X111718695Y-106576762D01*
X111671076Y-106529143D01*
X111608882Y-111134139D02*
X111513644Y-111086520D01*
X111418406Y-110991282D01*
X111275549Y-110848425D01*
X111180310Y-110800806D01*
X111085072Y-110800806D01*
X111132691Y-111038901D02*
X111037453Y-110991282D01*
X110942215Y-110896044D01*
X110894596Y-110705568D01*
X110894596Y-110372234D01*
X110942215Y-110181758D01*
X111037453Y-110086520D01*
X111132691Y-110038901D01*
X111323168Y-110038901D01*
X111418406Y-110086520D01*
X111513644Y-110181758D01*
X111561263Y-110372234D01*
X111561263Y-110705568D01*
X111513644Y-110896044D01*
X111418406Y-110991282D01*
X111323168Y-111038901D01*
X111132691Y-111038901D01*
X112418406Y-110372234D02*
X112418406Y-111038901D01*
X112180310Y-109991282D02*
X111942215Y-110705568D01*
X112561263Y-110705568D01*
X94941094Y-120988421D02*
X94607760Y-120512230D01*
X94369665Y-120988421D02*
X94369665Y-119988421D01*
X94750618Y-119988421D01*
X94845856Y-120036040D01*
X94893475Y-120083659D01*
X94941094Y-120178897D01*
X94941094Y-120321754D01*
X94893475Y-120416992D01*
X94845856Y-120464611D01*
X94750618Y-120512230D01*
X94369665Y-120512230D01*
X95893475Y-120988421D02*
X95322046Y-120988421D01*
X95607760Y-120988421D02*
X95607760Y-119988421D01*
X95512522Y-120131278D01*
X95417284Y-120226516D01*
X95322046Y-120274135D01*
X120932914Y-95088041D02*
X120599580Y-94611850D01*
X120361485Y-95088041D02*
X120361485Y-94088041D01*
X120742438Y-94088041D01*
X120837676Y-94135660D01*
X120885295Y-94183279D01*
X120932914Y-94278517D01*
X120932914Y-94421374D01*
X120885295Y-94516612D01*
X120837676Y-94564231D01*
X120742438Y-94611850D01*
X120361485Y-94611850D01*
X121313866Y-94183279D02*
X121361485Y-94135660D01*
X121456723Y-94088041D01*
X121694819Y-94088041D01*
X121790057Y-94135660D01*
X121837676Y-94183279D01*
X121885295Y-94278517D01*
X121885295Y-94373755D01*
X121837676Y-94516612D01*
X121266247Y-95088041D01*
X121885295Y-95088041D01*
X117796014Y-95057221D02*
X117462680Y-94581030D01*
X117224585Y-95057221D02*
X117224585Y-94057221D01*
X117605538Y-94057221D01*
X117700776Y-94104840D01*
X117748395Y-94152459D01*
X117796014Y-94247697D01*
X117796014Y-94390554D01*
X117748395Y-94485792D01*
X117700776Y-94533411D01*
X117605538Y-94581030D01*
X117224585Y-94581030D01*
X118129347Y-94057221D02*
X118748395Y-94057221D01*
X118415061Y-94438173D01*
X118557919Y-94438173D01*
X118653157Y-94485792D01*
X118700776Y-94533411D01*
X118748395Y-94628650D01*
X118748395Y-94866745D01*
X118700776Y-94961983D01*
X118653157Y-95009602D01*
X118557919Y-95057221D01*
X118272204Y-95057221D01*
X118176966Y-95009602D01*
X118129347Y-94961983D01*
X105931104Y-113468521D02*
X105597770Y-112992330D01*
X105359675Y-113468521D02*
X105359675Y-112468521D01*
X105740628Y-112468521D01*
X105835866Y-112516140D01*
X105883485Y-112563759D01*
X105931104Y-112658997D01*
X105931104Y-112801854D01*
X105883485Y-112897092D01*
X105835866Y-112944711D01*
X105740628Y-112992330D01*
X105359675Y-112992330D01*
X106359675Y-113468521D02*
X106359675Y-112468521D01*
X106931104Y-113468521D01*
X106931104Y-112468521D01*
X107931104Y-113468521D02*
X107359675Y-113468521D01*
X107645389Y-113468521D02*
X107645389Y-112468521D01*
X107550151Y-112611378D01*
X107454913Y-112706616D01*
X107359675Y-112754235D01*
X108722564Y-90372301D02*
X108389230Y-89896110D01*
X108151135Y-90372301D02*
X108151135Y-89372301D01*
X108532088Y-89372301D01*
X108627326Y-89419920D01*
X108674945Y-89467539D01*
X108722564Y-89562777D01*
X108722564Y-89705634D01*
X108674945Y-89800872D01*
X108627326Y-89848491D01*
X108532088Y-89896110D01*
X108151135Y-89896110D01*
X109151135Y-90372301D02*
X109151135Y-89372301D01*
X109722564Y-90372301D01*
X109722564Y-89372301D01*
X110151135Y-89467539D02*
X110198754Y-89419920D01*
X110293992Y-89372301D01*
X110532088Y-89372301D01*
X110627326Y-89419920D01*
X110674945Y-89467539D01*
X110722564Y-89562777D01*
X110722564Y-89658015D01*
X110674945Y-89800872D01*
X110103516Y-90372301D01*
X110722564Y-90372301D01*
X111670067Y-127093862D02*
X111812924Y-127141481D01*
X112051020Y-127141481D01*
X112146258Y-127093862D01*
X112193877Y-127046243D01*
X112241496Y-126951005D01*
X112241496Y-126855767D01*
X112193877Y-126760529D01*
X112146258Y-126712910D01*
X112051020Y-126665290D01*
X111860543Y-126617671D01*
X111765305Y-126570052D01*
X111717686Y-126522433D01*
X111670067Y-126427195D01*
X111670067Y-126331957D01*
X111717686Y-126236719D01*
X111765305Y-126189100D01*
X111860543Y-126141481D01*
X112098639Y-126141481D01*
X112241496Y-126189100D01*
X112574829Y-126141481D02*
X112812924Y-127141481D01*
X113003401Y-126427195D01*
X113193877Y-127141481D01*
X113431972Y-126141481D01*
X114336734Y-127141481D02*
X113765305Y-127141481D01*
X114051019Y-127141481D02*
X114051019Y-126141481D01*
X113955781Y-126284338D01*
X113860543Y-126379576D01*
X113765305Y-126427195D01*
X111685307Y-117949862D02*
X111828164Y-117997481D01*
X112066260Y-117997481D01*
X112161498Y-117949862D01*
X112209117Y-117902243D01*
X112256736Y-117807005D01*
X112256736Y-117711767D01*
X112209117Y-117616529D01*
X112161498Y-117568910D01*
X112066260Y-117521290D01*
X111875783Y-117473671D01*
X111780545Y-117426052D01*
X111732926Y-117378433D01*
X111685307Y-117283195D01*
X111685307Y-117187957D01*
X111732926Y-117092719D01*
X111780545Y-117045100D01*
X111875783Y-116997481D01*
X112113879Y-116997481D01*
X112256736Y-117045100D01*
X112590069Y-116997481D02*
X112828164Y-117997481D01*
X113018641Y-117283195D01*
X113209117Y-117997481D01*
X113447212Y-116997481D01*
X113780545Y-117092719D02*
X113828164Y-117045100D01*
X113923402Y-116997481D01*
X114161498Y-116997481D01*
X114256736Y-117045100D01*
X114304355Y-117092719D01*
X114351974Y-117187957D01*
X114351974Y-117283195D01*
X114304355Y-117426052D01*
X113732926Y-117997481D01*
X114351974Y-117997481D01*
X111713247Y-136250562D02*
X111856104Y-136298181D01*
X112094200Y-136298181D01*
X112189438Y-136250562D01*
X112237057Y-136202943D01*
X112284676Y-136107705D01*
X112284676Y-136012467D01*
X112237057Y-135917229D01*
X112189438Y-135869610D01*
X112094200Y-135821990D01*
X111903723Y-135774371D01*
X111808485Y-135726752D01*
X111760866Y-135679133D01*
X111713247Y-135583895D01*
X111713247Y-135488657D01*
X111760866Y-135393419D01*
X111808485Y-135345800D01*
X111903723Y-135298181D01*
X112141819Y-135298181D01*
X112284676Y-135345800D01*
X112618009Y-135298181D02*
X112856104Y-136298181D01*
X113046581Y-135583895D01*
X113237057Y-136298181D01*
X113475152Y-135298181D01*
X113760866Y-135298181D02*
X114379914Y-135298181D01*
X114046580Y-135679133D01*
X114189438Y-135679133D01*
X114284676Y-135726752D01*
X114332295Y-135774371D01*
X114379914Y-135869610D01*
X114379914Y-136107705D01*
X114332295Y-136202943D01*
X114284676Y-136250562D01*
X114189438Y-136298181D01*
X113903723Y-136298181D01*
X113808485Y-136250562D01*
X113760866Y-136202943D01*
X100621067Y-127170062D02*
X100763924Y-127217681D01*
X101002020Y-127217681D01*
X101097258Y-127170062D01*
X101144877Y-127122443D01*
X101192496Y-127027205D01*
X101192496Y-126931967D01*
X101144877Y-126836729D01*
X101097258Y-126789110D01*
X101002020Y-126741490D01*
X100811543Y-126693871D01*
X100716305Y-126646252D01*
X100668686Y-126598633D01*
X100621067Y-126503395D01*
X100621067Y-126408157D01*
X100668686Y-126312919D01*
X100716305Y-126265300D01*
X100811543Y-126217681D01*
X101049639Y-126217681D01*
X101192496Y-126265300D01*
X101525829Y-126217681D02*
X101763924Y-127217681D01*
X101954401Y-126503395D01*
X102144877Y-127217681D01*
X102382972Y-126217681D01*
X103192496Y-126551014D02*
X103192496Y-127217681D01*
X102954400Y-126170062D02*
X102716305Y-126884348D01*
X103335353Y-126884348D01*
X122693667Y-127086242D02*
X122836524Y-127133861D01*
X123074620Y-127133861D01*
X123169858Y-127086242D01*
X123217477Y-127038623D01*
X123265096Y-126943385D01*
X123265096Y-126848147D01*
X123217477Y-126752909D01*
X123169858Y-126705290D01*
X123074620Y-126657670D01*
X122884143Y-126610051D01*
X122788905Y-126562432D01*
X122741286Y-126514813D01*
X122693667Y-126419575D01*
X122693667Y-126324337D01*
X122741286Y-126229099D01*
X122788905Y-126181480D01*
X122884143Y-126133861D01*
X123122239Y-126133861D01*
X123265096Y-126181480D01*
X123598429Y-126133861D02*
X123836524Y-127133861D01*
X124027001Y-126419575D01*
X124217477Y-127133861D01*
X124455572Y-126133861D01*
X125312715Y-126133861D02*
X124836524Y-126133861D01*
X124788905Y-126610051D01*
X124836524Y-126562432D01*
X124931762Y-126514813D01*
X125169858Y-126514813D01*
X125265096Y-126562432D01*
X125312715Y-126610051D01*
X125360334Y-126705290D01*
X125360334Y-126943385D01*
X125312715Y-127038623D01*
X125265096Y-127086242D01*
X125169858Y-127133861D01*
X124931762Y-127133861D01*
X124836524Y-127086242D01*
X124788905Y-127038623D01*
X111507381Y-99796505D02*
X112316905Y-99796505D01*
X112412143Y-99748886D01*
X112459762Y-99701267D01*
X112507381Y-99606029D01*
X112507381Y-99415552D01*
X112459762Y-99320314D01*
X112412143Y-99272695D01*
X112316905Y-99225076D01*
X111507381Y-99225076D01*
X112507381Y-98225076D02*
X112507381Y-98796505D01*
X112507381Y-98510791D02*
X111507381Y-98510791D01*
X111650238Y-98606029D01*
X111745476Y-98701267D01*
X111793095Y-98796505D01*
X87997707Y-85412781D02*
X87997707Y-86127067D01*
X87950087Y-86269924D01*
X87854849Y-86365162D01*
X87711992Y-86412781D01*
X87616754Y-86412781D01*
X88997707Y-86412781D02*
X88426278Y-86412781D01*
X88711992Y-86412781D02*
X88711992Y-85412781D01*
X88616754Y-85555638D01*
X88521516Y-85650876D01*
X88426278Y-85698495D01*
X135018543Y-95771781D02*
X134542352Y-95771781D01*
X134542352Y-94771781D01*
X135304257Y-95724162D02*
X135447114Y-95771781D01*
X135685210Y-95771781D01*
X135780448Y-95724162D01*
X135828067Y-95676543D01*
X135875686Y-95581305D01*
X135875686Y-95486067D01*
X135828067Y-95390829D01*
X135780448Y-95343210D01*
X135685210Y-95295590D01*
X135494733Y-95247971D01*
X135399495Y-95200352D01*
X135351876Y-95152733D01*
X135304257Y-95057495D01*
X135304257Y-94962257D01*
X135351876Y-94867019D01*
X135399495Y-94819400D01*
X135494733Y-94771781D01*
X135732829Y-94771781D01*
X135875686Y-94819400D01*
X136828067Y-95771781D02*
X136256638Y-95771781D01*
X136542352Y-95771781D02*
X136542352Y-94771781D01*
X136447114Y-94914638D01*
X136351876Y-95009876D01*
X136256638Y-95057495D01*
M02*
