M48
;DRILL file {KiCad 4.0.7} date 07/10/18 09:51:03
;FORMAT={-:-/ absolute / metric / decimal}
FMAT,2
METRIC,TZ
T1C0.400
T2C0.500
T3C1.000
T4C1.100
T5C2.700
%
G90
G05
M71
T1
X91.521Y-95.24
X100.368Y-124.015
X102.908Y-107.785
X105.237Y-113.589
X107.904Y-123.21
X108.001Y-91.216
X108.407Y-99.08
X109.118Y-104.889
X109.159Y-109.728
X109.87Y-107.513
X110.917Y-89.413
X111.788Y-101.674
X112.517Y-85.115
X112.776Y-85.969
X116.068Y-97.861
X117.152Y-107.848
X117.287Y-110.866
X117.805Y-104.013
X118.242Y-89.449
X118.669Y-87.417
X118.913Y-98.991
T2
X86.475Y-83.5
X86.475Y-141.5
X87.068Y-82.068
X87.068Y-84.932
X87.068Y-140.068
X87.068Y-142.932
X88.5Y-81.475
X88.5Y-85.525
X88.5Y-139.475
X88.5Y-143.525
X89.932Y-82.068
X89.932Y-84.932
X89.932Y-140.068
X89.932Y-142.932
X90.525Y-83.5
X90.525Y-141.5
X135.975Y-83.5
X135.975Y-141.5
X136.568Y-82.068
X136.568Y-84.932
X136.568Y-140.068
X136.568Y-142.932
X138.Y-81.475
X138.Y-85.525
X138.Y-139.475
X138.Y-143.525
X139.432Y-82.068
X139.432Y-84.932
X139.432Y-140.068
X139.432Y-142.932
X140.025Y-83.5
X140.025Y-141.5
T3
X87.061Y-88.29
X87.061Y-90.83
X87.061Y-93.37
X87.061Y-95.91
X87.061Y-98.45
X87.061Y-100.99
X87.061Y-103.53
X87.061Y-106.07
X87.061Y-108.61
X87.061Y-111.15
X87.061Y-113.69
X87.061Y-116.23
X87.061Y-118.77
X87.061Y-121.31
X87.061Y-123.85
X87.061Y-126.39
X87.061Y-128.93
X87.061Y-131.47
X87.061Y-134.01
X87.061Y-136.55
X89.601Y-88.29
X89.601Y-90.83
X89.601Y-93.37
X89.601Y-95.91
X89.601Y-98.45
X89.601Y-100.99
X89.601Y-103.53
X89.601Y-106.07
X89.601Y-108.61
X89.601Y-111.15
X89.601Y-113.69
X89.601Y-116.23
X89.601Y-118.77
X89.601Y-121.31
X89.601Y-123.85
X89.601Y-126.39
X89.601Y-128.93
X89.601Y-131.47
X89.601Y-134.01
X89.601Y-136.55
X109.896Y-92.426
X112.436Y-92.426
X114.976Y-92.426
X116.175Y-84.658
X117.516Y-92.426
X118.715Y-84.658
X121.255Y-84.658
X123.795Y-84.658
X126.335Y-84.658
X128.875Y-84.658
X135.661Y-90.449
X135.661Y-92.989
T4
X98.704Y-128.765
X98.704Y-133.265
X105.204Y-128.765
X105.204Y-133.265
X109.753Y-128.689
X109.753Y-133.189
X109.769Y-119.545
X109.769Y-124.045
X109.797Y-137.846
X109.797Y-142.346
X116.253Y-128.689
X116.253Y-133.189
X116.269Y-119.545
X116.269Y-124.045
X116.297Y-137.846
X116.297Y-142.346
X120.777Y-128.681
X120.777Y-133.181
X127.277Y-128.681
X127.277Y-133.181
T5
X88.5Y-83.5
X88.5Y-141.5
X138.Y-83.5
X138.Y-141.5
T0
M30
