G04 #@! TF.FileFunction,Copper,L2,Bot,Signal*
%FSLAX46Y46*%
G04 Gerber Fmt 4.6, Leading zero omitted, Abs format (unit mm)*
G04 Created by KiCad (PCBNEW 4.0.7) date 07/10/18 09:50:59*
%MOMM*%
%LPD*%
G01*
G04 APERTURE LIST*
%ADD10C,0.100000*%
%ADD11R,1.700000X1.700000*%
%ADD12O,1.700000X1.700000*%
%ADD13C,2.000000*%
%ADD14C,5.400000*%
%ADD15C,0.800000*%
%ADD16C,0.600000*%
%ADD17C,0.250000*%
%ADD18C,0.254000*%
G04 APERTURE END LIST*
D10*
D11*
X116174520Y-84658200D03*
D12*
X118714520Y-84658200D03*
X121254520Y-84658200D03*
X123794520Y-84658200D03*
X126334520Y-84658200D03*
X128874520Y-84658200D03*
D11*
X117515640Y-92425520D03*
D12*
X114975640Y-92425520D03*
X112435640Y-92425520D03*
X109895640Y-92425520D03*
D13*
X109753400Y-133189100D03*
X109753400Y-128689100D03*
X116253400Y-133189100D03*
X116253400Y-128689100D03*
X109768640Y-124045100D03*
X109768640Y-119545100D03*
X116268640Y-124045100D03*
X116268640Y-119545100D03*
X109796580Y-142345800D03*
X109796580Y-137845800D03*
X116296580Y-142345800D03*
X116296580Y-137845800D03*
X98704400Y-133265300D03*
X98704400Y-128765300D03*
X105204400Y-133265300D03*
X105204400Y-128765300D03*
X120777000Y-133181480D03*
X120777000Y-128681480D03*
X127277000Y-133181480D03*
X127277000Y-128681480D03*
D11*
X87061040Y-88290400D03*
D12*
X89601040Y-88290400D03*
X87061040Y-90830400D03*
X89601040Y-90830400D03*
X87061040Y-93370400D03*
X89601040Y-93370400D03*
X87061040Y-95910400D03*
X89601040Y-95910400D03*
X87061040Y-98450400D03*
X89601040Y-98450400D03*
X87061040Y-100990400D03*
X89601040Y-100990400D03*
X87061040Y-103530400D03*
X89601040Y-103530400D03*
X87061040Y-106070400D03*
X89601040Y-106070400D03*
X87061040Y-108610400D03*
X89601040Y-108610400D03*
X87061040Y-111150400D03*
X89601040Y-111150400D03*
X87061040Y-113690400D03*
X89601040Y-113690400D03*
X87061040Y-116230400D03*
X89601040Y-116230400D03*
X87061040Y-118770400D03*
X89601040Y-118770400D03*
X87061040Y-121310400D03*
X89601040Y-121310400D03*
X87061040Y-123850400D03*
X89601040Y-123850400D03*
X87061040Y-126390400D03*
X89601040Y-126390400D03*
X87061040Y-128930400D03*
X89601040Y-128930400D03*
X87061040Y-131470400D03*
X89601040Y-131470400D03*
X87061040Y-134010400D03*
X89601040Y-134010400D03*
X87061040Y-136550400D03*
X89601040Y-136550400D03*
D14*
X88500000Y-141500000D03*
D15*
X90525000Y-141500000D03*
X89931891Y-142931891D03*
X88500000Y-143525000D03*
X87068109Y-142931891D03*
X86475000Y-141500000D03*
X87068109Y-140068109D03*
X88500000Y-139475000D03*
X89931891Y-140068109D03*
D14*
X138000000Y-141500000D03*
D15*
X140025000Y-141500000D03*
X139431891Y-142931891D03*
X138000000Y-143525000D03*
X136568109Y-142931891D03*
X135975000Y-141500000D03*
X136568109Y-140068109D03*
X138000000Y-139475000D03*
X139431891Y-140068109D03*
D14*
X138000000Y-83500000D03*
D15*
X140025000Y-83500000D03*
X139431891Y-84931891D03*
X138000000Y-85525000D03*
X136568109Y-84931891D03*
X135975000Y-83500000D03*
X136568109Y-82068109D03*
X138000000Y-81475000D03*
X139431891Y-82068109D03*
D14*
X88500000Y-83500000D03*
D15*
X90525000Y-83500000D03*
X89931891Y-84931891D03*
X88500000Y-85525000D03*
X87068109Y-84931891D03*
X86475000Y-83500000D03*
X87068109Y-82068109D03*
X88500000Y-81475000D03*
X89931891Y-82068109D03*
D11*
X135661400Y-92989400D03*
D12*
X135661400Y-90449400D03*
D16*
X118242080Y-89448640D03*
X118668800Y-87416640D03*
X91521280Y-95239840D03*
X116067840Y-97861120D03*
X100368100Y-124015500D03*
X117152420Y-107848400D03*
X112776000Y-85968840D03*
X117805200Y-104013000D03*
X109118400Y-104889300D03*
X117287040Y-110865920D03*
X109870240Y-107513120D03*
X105237280Y-113588800D03*
X109159040Y-109728000D03*
X102908100Y-107784900D03*
X107904280Y-123210320D03*
X110916720Y-89413080D03*
X111787940Y-101673660D03*
X118912640Y-98991420D03*
X108000800Y-91216480D03*
X108407200Y-99080320D03*
X112516920Y-85115400D03*
D17*
X118242080Y-87843360D02*
X118242080Y-89448640D01*
X118668800Y-87416640D02*
X118242080Y-87843360D01*
X91521280Y-95239840D02*
X89651840Y-93370400D01*
X89651840Y-93370400D02*
X89601040Y-93370400D01*
X109796580Y-142345800D02*
X116296580Y-142345800D01*
X105204400Y-133265300D02*
X98704400Y-133265300D01*
X116253400Y-133189100D02*
X109753400Y-133189100D01*
X127277000Y-133181480D02*
X120777000Y-133181480D01*
X116268640Y-124045100D02*
X109768640Y-124045100D01*
X114975640Y-96768920D02*
X114975640Y-92425520D01*
X116067840Y-97861120D02*
X114975640Y-96768920D01*
X100397700Y-124045100D02*
X109768640Y-124045100D01*
X100368100Y-124015500D02*
X100397700Y-124045100D01*
X117515640Y-92425520D02*
X117515640Y-90769440D01*
X88597740Y-86753700D02*
X87061040Y-88290400D01*
X113499900Y-86753700D02*
X88597740Y-86753700D01*
X117515640Y-90769440D02*
X113499900Y-86753700D01*
X119946420Y-94856300D02*
X117515640Y-92425520D01*
X119946420Y-105054400D02*
X119946420Y-94856300D01*
X117152420Y-107848400D02*
X119946420Y-105054400D01*
X114442240Y-86522560D02*
X114442240Y-86233000D01*
X114442240Y-86522560D02*
X127010160Y-86522560D01*
X128874520Y-84658200D02*
X127010160Y-86522560D01*
X114178080Y-85968840D02*
X112776000Y-85968840D01*
X114442240Y-86233000D02*
X114178080Y-85968840D01*
X112776000Y-85968840D02*
X112826800Y-86019640D01*
X109994700Y-104013000D02*
X117805200Y-104013000D01*
X109118400Y-104889300D02*
X109994700Y-104013000D01*
X109870240Y-111963200D02*
X110581440Y-111963200D01*
X117287040Y-112308640D02*
X117287040Y-110865920D01*
X116169440Y-113426240D02*
X117287040Y-112308640D01*
X112044480Y-113426240D02*
X116169440Y-113426240D01*
X110581440Y-111963200D02*
X112044480Y-113426240D01*
X109870240Y-111983520D02*
X109870240Y-111963200D01*
X109870240Y-111963200D02*
X109870240Y-107513120D01*
X108651040Y-113202720D02*
X109870240Y-111983520D01*
X105623360Y-113202720D02*
X108651040Y-113202720D01*
X105237280Y-113588800D02*
X105623360Y-113202720D01*
X104851200Y-109728000D02*
X109159040Y-109728000D01*
X102908100Y-107784900D02*
X104851200Y-109728000D01*
X87061040Y-103530400D02*
X87061040Y-103172260D01*
X87061040Y-103172260D02*
X87972900Y-102260400D01*
X119062500Y-125880000D02*
X116253400Y-128689100D01*
X119062500Y-118262400D02*
X119062500Y-125880000D01*
X117309900Y-116509800D02*
X119062500Y-118262400D01*
X106756200Y-116509800D02*
X117309900Y-116509800D01*
X103365300Y-113118900D02*
X106756200Y-116509800D01*
X103365300Y-110109000D02*
X103365300Y-113118900D01*
X95516700Y-102260400D02*
X103365300Y-110109000D01*
X87972900Y-102260400D02*
X95516700Y-102260400D01*
X87061040Y-103530400D02*
X87061040Y-103621840D01*
X116253400Y-128689100D02*
X109753400Y-128689100D01*
X109768640Y-119545100D02*
X116268640Y-119545100D01*
X87061040Y-106070400D02*
X87061040Y-105801160D01*
X87061040Y-105801160D02*
X88087200Y-104775000D01*
X88087200Y-104775000D02*
X97002600Y-104775000D01*
X97002600Y-104775000D02*
X102755700Y-110528100D01*
X102755700Y-110528100D02*
X102755700Y-113817400D01*
X102755700Y-113817400D02*
X108483400Y-119545100D01*
X108483400Y-119545100D02*
X109768640Y-119545100D01*
X89601040Y-106070400D02*
X97078800Y-106070400D01*
X107901740Y-120309640D02*
X107904280Y-123210320D01*
X102011480Y-114475260D02*
X107901740Y-120309640D01*
X101970840Y-111018320D02*
X102011480Y-114475260D01*
X97078800Y-106070400D02*
X101970840Y-111018320D01*
X87061040Y-95910400D02*
X87061040Y-96047560D01*
X87061040Y-96047560D02*
X85618320Y-97490280D01*
X85618320Y-97490280D02*
X85618320Y-122118120D01*
X85618320Y-122118120D02*
X86075520Y-122575320D01*
X86075520Y-122575320D02*
X90863420Y-122575320D01*
X90863420Y-122575320D02*
X91810840Y-123522740D01*
X91810840Y-123522740D02*
X91810840Y-128049020D01*
X91810840Y-128049020D02*
X92527120Y-128765300D01*
X92527120Y-128765300D02*
X98704400Y-128765300D01*
X98704400Y-128765300D02*
X105204400Y-128765300D01*
X120777000Y-128681480D02*
X127277000Y-128681480D01*
X120777000Y-128681480D02*
X120777000Y-129159000D01*
X120777000Y-129159000D02*
X119725440Y-130210560D01*
X119725440Y-130210560D02*
X86299040Y-130210560D01*
X86299040Y-130210560D02*
X85567520Y-129479040D01*
X85567520Y-129479040D02*
X85567520Y-124927360D01*
X85567520Y-124927360D02*
X86644480Y-123850400D01*
X86644480Y-123850400D02*
X87061040Y-123850400D01*
X110490000Y-89976960D02*
X110490000Y-89839800D01*
X110490000Y-89839800D02*
X110916720Y-89413080D01*
X111787940Y-101673660D02*
X111787940Y-94414340D01*
X91287600Y-89976960D02*
X89601040Y-88290400D01*
X110490000Y-89976960D02*
X91287600Y-89976960D01*
X111206280Y-90693240D02*
X110490000Y-89976960D01*
X111206280Y-93832680D02*
X111206280Y-90693240D01*
X111787940Y-94414340D02*
X111206280Y-93832680D01*
X116230400Y-101673660D02*
X111787940Y-101673660D01*
X118912640Y-98991420D02*
X116230400Y-101673660D01*
X108000800Y-91216480D02*
X108407200Y-91622880D01*
X108407200Y-91622880D02*
X108407200Y-99080320D01*
X126334520Y-84658200D02*
X126334520Y-84272120D01*
X126334520Y-84272120D02*
X124625100Y-82562700D01*
X124625100Y-82562700D02*
X114185700Y-82562700D01*
X114185700Y-82562700D02*
X112509300Y-84239100D01*
X112509300Y-84239100D02*
X112516920Y-85115400D01*
D18*
G36*
X139531954Y-80643891D02*
X139589733Y-80682498D01*
X140335064Y-81264220D01*
X140932064Y-82246380D01*
X140937019Y-82271293D01*
X140958255Y-82711940D01*
X140574448Y-81783057D01*
X139721434Y-80928553D01*
X138606347Y-80465528D01*
X137398950Y-80464474D01*
X136283057Y-80925552D01*
X135428553Y-81778566D01*
X134965528Y-82893653D01*
X134964474Y-84101050D01*
X135425552Y-85216943D01*
X136278566Y-86071447D01*
X137393653Y-86534472D01*
X138601050Y-86535526D01*
X139716943Y-86074448D01*
X140571447Y-85221434D01*
X141015893Y-84151089D01*
X141056171Y-142129691D01*
X140951800Y-142654400D01*
X140745325Y-143197754D01*
X140532139Y-143516810D01*
X140109915Y-143969928D01*
X139596035Y-144313291D01*
X139299167Y-144423003D01*
X138707848Y-144540624D01*
X137666121Y-144571720D01*
X88500212Y-144571720D01*
X88145802Y-144534692D01*
X89101050Y-144535526D01*
X90216943Y-144074448D01*
X90927123Y-143365506D01*
X109027190Y-143365506D01*
X109146503Y-143541684D01*
X109653632Y-143699427D01*
X110182524Y-143651092D01*
X110446657Y-143541684D01*
X110565970Y-143365506D01*
X115527190Y-143365506D01*
X115646503Y-143541684D01*
X116153632Y-143699427D01*
X116682524Y-143651092D01*
X116946657Y-143541684D01*
X117065970Y-143365506D01*
X116296580Y-142596116D01*
X115527190Y-143365506D01*
X110565970Y-143365506D01*
X109796580Y-142596116D01*
X109027190Y-143365506D01*
X90927123Y-143365506D01*
X91071447Y-143221434D01*
X91494399Y-142202852D01*
X108442953Y-142202852D01*
X108491288Y-142731744D01*
X108600696Y-142995877D01*
X108776874Y-143115190D01*
X109546264Y-142345800D01*
X110046896Y-142345800D01*
X110816286Y-143115190D01*
X110992464Y-142995877D01*
X111150207Y-142488748D01*
X111124080Y-142202852D01*
X114942953Y-142202852D01*
X114991288Y-142731744D01*
X115100696Y-142995877D01*
X115276874Y-143115190D01*
X116046264Y-142345800D01*
X116546896Y-142345800D01*
X117316286Y-143115190D01*
X117492464Y-142995877D01*
X117650207Y-142488748D01*
X117614776Y-142101050D01*
X134964474Y-142101050D01*
X135425552Y-143216943D01*
X136278566Y-144071447D01*
X137393653Y-144534472D01*
X138601050Y-144535526D01*
X139716943Y-144074448D01*
X140571447Y-143221434D01*
X141034472Y-142106347D01*
X141035526Y-140898950D01*
X140574448Y-139783057D01*
X139721434Y-138928553D01*
X138606347Y-138465528D01*
X137398950Y-138464474D01*
X136283057Y-138925552D01*
X135428553Y-139778566D01*
X134965528Y-140893653D01*
X134964474Y-142101050D01*
X117614776Y-142101050D01*
X117601872Y-141959856D01*
X117492464Y-141695723D01*
X117316286Y-141576410D01*
X116546896Y-142345800D01*
X116046264Y-142345800D01*
X115276874Y-141576410D01*
X115100696Y-141695723D01*
X114942953Y-142202852D01*
X111124080Y-142202852D01*
X111101872Y-141959856D01*
X110992464Y-141695723D01*
X110816286Y-141576410D01*
X110046896Y-142345800D01*
X109546264Y-142345800D01*
X108776874Y-141576410D01*
X108600696Y-141695723D01*
X108442953Y-142202852D01*
X91494399Y-142202852D01*
X91534472Y-142106347D01*
X91535153Y-141326094D01*
X109027190Y-141326094D01*
X109796580Y-142095484D01*
X110565970Y-141326094D01*
X115527190Y-141326094D01*
X116296580Y-142095484D01*
X117065970Y-141326094D01*
X116946657Y-141149916D01*
X116439528Y-140992173D01*
X115910636Y-141040508D01*
X115646503Y-141149916D01*
X115527190Y-141326094D01*
X110565970Y-141326094D01*
X110446657Y-141149916D01*
X109939528Y-140992173D01*
X109410636Y-141040508D01*
X109146503Y-141149916D01*
X109027190Y-141326094D01*
X91535153Y-141326094D01*
X91535526Y-140898950D01*
X91074448Y-139783057D01*
X90221434Y-138928553D01*
X89106347Y-138465528D01*
X87898950Y-138464474D01*
X86783057Y-138925552D01*
X85928553Y-139778566D01*
X85465528Y-140893653D01*
X85464474Y-142101050D01*
X85925552Y-143216943D01*
X86778566Y-144071447D01*
X87809589Y-144499565D01*
X87338072Y-144450302D01*
X87123075Y-144407537D01*
X86729315Y-144196594D01*
X86174273Y-143825727D01*
X85726391Y-143155424D01*
X85599094Y-142910260D01*
X85410000Y-141959618D01*
X85410000Y-138110183D01*
X108461349Y-138110183D01*
X108664162Y-138601029D01*
X109039376Y-138976898D01*
X109529867Y-139180568D01*
X110060963Y-139181031D01*
X110551809Y-138978218D01*
X110927678Y-138603004D01*
X111131348Y-138112513D01*
X111131350Y-138110183D01*
X114961349Y-138110183D01*
X115164162Y-138601029D01*
X115539376Y-138976898D01*
X116029867Y-139180568D01*
X116560963Y-139181031D01*
X117051809Y-138978218D01*
X117427678Y-138603004D01*
X117631348Y-138112513D01*
X117631811Y-137581417D01*
X117428998Y-137090571D01*
X117053784Y-136714702D01*
X116563293Y-136511032D01*
X116032197Y-136510569D01*
X115541351Y-136713382D01*
X115165482Y-137088596D01*
X114961812Y-137579087D01*
X114961349Y-138110183D01*
X111131350Y-138110183D01*
X111131811Y-137581417D01*
X110928998Y-137090571D01*
X110553784Y-136714702D01*
X110063293Y-136511032D01*
X109532197Y-136510569D01*
X109041351Y-136713382D01*
X108665482Y-137088596D01*
X108461812Y-137579087D01*
X108461349Y-138110183D01*
X85410000Y-138110183D01*
X85410000Y-136550400D01*
X85852824Y-136550400D01*
X85943027Y-137003880D01*
X86199902Y-137388322D01*
X86584344Y-137645197D01*
X87037824Y-137735400D01*
X87084256Y-137735400D01*
X87537736Y-137645197D01*
X87922178Y-137388322D01*
X88179053Y-137003880D01*
X88269256Y-136550400D01*
X88392824Y-136550400D01*
X88483027Y-137003880D01*
X88739902Y-137388322D01*
X89124344Y-137645197D01*
X89577824Y-137735400D01*
X89624256Y-137735400D01*
X90077736Y-137645197D01*
X90462178Y-137388322D01*
X90719053Y-137003880D01*
X90809256Y-136550400D01*
X90719053Y-136096920D01*
X90462178Y-135712478D01*
X90077736Y-135455603D01*
X89624256Y-135365400D01*
X89577824Y-135365400D01*
X89124344Y-135455603D01*
X88739902Y-135712478D01*
X88483027Y-136096920D01*
X88392824Y-136550400D01*
X88269256Y-136550400D01*
X88179053Y-136096920D01*
X87922178Y-135712478D01*
X87537736Y-135455603D01*
X87084256Y-135365400D01*
X87037824Y-135365400D01*
X86584344Y-135455603D01*
X86199902Y-135712478D01*
X85943027Y-136096920D01*
X85852824Y-136550400D01*
X85410000Y-136550400D01*
X85410000Y-134010400D01*
X85852824Y-134010400D01*
X85943027Y-134463880D01*
X86199902Y-134848322D01*
X86584344Y-135105197D01*
X87037824Y-135195400D01*
X87084256Y-135195400D01*
X87537736Y-135105197D01*
X87922178Y-134848322D01*
X88179053Y-134463880D01*
X88269256Y-134010400D01*
X88392824Y-134010400D01*
X88483027Y-134463880D01*
X88739902Y-134848322D01*
X89124344Y-135105197D01*
X89577824Y-135195400D01*
X89624256Y-135195400D01*
X90077736Y-135105197D01*
X90462178Y-134848322D01*
X90719053Y-134463880D01*
X90754633Y-134285006D01*
X97935010Y-134285006D01*
X98054323Y-134461184D01*
X98561452Y-134618927D01*
X99090344Y-134570592D01*
X99354477Y-134461184D01*
X99473790Y-134285006D01*
X104435010Y-134285006D01*
X104554323Y-134461184D01*
X105061452Y-134618927D01*
X105590344Y-134570592D01*
X105854477Y-134461184D01*
X105973790Y-134285006D01*
X105897590Y-134208806D01*
X108984010Y-134208806D01*
X109103323Y-134384984D01*
X109610452Y-134542727D01*
X110139344Y-134494392D01*
X110403477Y-134384984D01*
X110522790Y-134208806D01*
X115484010Y-134208806D01*
X115603323Y-134384984D01*
X116110452Y-134542727D01*
X116639344Y-134494392D01*
X116903477Y-134384984D01*
X117022790Y-134208806D01*
X117015170Y-134201186D01*
X120007610Y-134201186D01*
X120126923Y-134377364D01*
X120634052Y-134535107D01*
X121162944Y-134486772D01*
X121427077Y-134377364D01*
X121546390Y-134201186D01*
X126507610Y-134201186D01*
X126626923Y-134377364D01*
X127134052Y-134535107D01*
X127662944Y-134486772D01*
X127927077Y-134377364D01*
X128046390Y-134201186D01*
X127277000Y-133431796D01*
X126507610Y-134201186D01*
X121546390Y-134201186D01*
X120777000Y-133431796D01*
X120007610Y-134201186D01*
X117015170Y-134201186D01*
X116253400Y-133439416D01*
X115484010Y-134208806D01*
X110522790Y-134208806D01*
X109753400Y-133439416D01*
X108984010Y-134208806D01*
X105897590Y-134208806D01*
X105204400Y-133515616D01*
X104435010Y-134285006D01*
X99473790Y-134285006D01*
X98704400Y-133515616D01*
X97935010Y-134285006D01*
X90754633Y-134285006D01*
X90809256Y-134010400D01*
X90719053Y-133556920D01*
X90462178Y-133172478D01*
X90387159Y-133122352D01*
X97350773Y-133122352D01*
X97399108Y-133651244D01*
X97508516Y-133915377D01*
X97684694Y-134034690D01*
X98454084Y-133265300D01*
X98954716Y-133265300D01*
X99724106Y-134034690D01*
X99900284Y-133915377D01*
X100058027Y-133408248D01*
X100031900Y-133122352D01*
X103850773Y-133122352D01*
X103899108Y-133651244D01*
X104008516Y-133915377D01*
X104184694Y-134034690D01*
X104954084Y-133265300D01*
X105454716Y-133265300D01*
X106224106Y-134034690D01*
X106400284Y-133915377D01*
X106558027Y-133408248D01*
X106524936Y-133046152D01*
X108399773Y-133046152D01*
X108448108Y-133575044D01*
X108557516Y-133839177D01*
X108733694Y-133958490D01*
X109503084Y-133189100D01*
X110003716Y-133189100D01*
X110773106Y-133958490D01*
X110949284Y-133839177D01*
X111107027Y-133332048D01*
X111080900Y-133046152D01*
X114899773Y-133046152D01*
X114948108Y-133575044D01*
X115057516Y-133839177D01*
X115233694Y-133958490D01*
X116003084Y-133189100D01*
X116503716Y-133189100D01*
X117273106Y-133958490D01*
X117449284Y-133839177D01*
X117607027Y-133332048D01*
X117580203Y-133038532D01*
X119423373Y-133038532D01*
X119471708Y-133567424D01*
X119581116Y-133831557D01*
X119757294Y-133950870D01*
X120526684Y-133181480D01*
X121027316Y-133181480D01*
X121796706Y-133950870D01*
X121972884Y-133831557D01*
X122130627Y-133324428D01*
X122104500Y-133038532D01*
X125923373Y-133038532D01*
X125971708Y-133567424D01*
X126081116Y-133831557D01*
X126257294Y-133950870D01*
X127026684Y-133181480D01*
X127527316Y-133181480D01*
X128296706Y-133950870D01*
X128472884Y-133831557D01*
X128630627Y-133324428D01*
X128582292Y-132795536D01*
X128472884Y-132531403D01*
X128296706Y-132412090D01*
X127527316Y-133181480D01*
X127026684Y-133181480D01*
X126257294Y-132412090D01*
X126081116Y-132531403D01*
X125923373Y-133038532D01*
X122104500Y-133038532D01*
X122082292Y-132795536D01*
X121972884Y-132531403D01*
X121796706Y-132412090D01*
X121027316Y-133181480D01*
X120526684Y-133181480D01*
X119757294Y-132412090D01*
X119581116Y-132531403D01*
X119423373Y-133038532D01*
X117580203Y-133038532D01*
X117558692Y-132803156D01*
X117449284Y-132539023D01*
X117273106Y-132419710D01*
X116503716Y-133189100D01*
X116003084Y-133189100D01*
X115233694Y-132419710D01*
X115057516Y-132539023D01*
X114899773Y-133046152D01*
X111080900Y-133046152D01*
X111058692Y-132803156D01*
X110949284Y-132539023D01*
X110773106Y-132419710D01*
X110003716Y-133189100D01*
X109503084Y-133189100D01*
X108733694Y-132419710D01*
X108557516Y-132539023D01*
X108399773Y-133046152D01*
X106524936Y-133046152D01*
X106509692Y-132879356D01*
X106400284Y-132615223D01*
X106224106Y-132495910D01*
X105454716Y-133265300D01*
X104954084Y-133265300D01*
X104184694Y-132495910D01*
X104008516Y-132615223D01*
X103850773Y-133122352D01*
X100031900Y-133122352D01*
X100009692Y-132879356D01*
X99900284Y-132615223D01*
X99724106Y-132495910D01*
X98954716Y-133265300D01*
X98454084Y-133265300D01*
X97684694Y-132495910D01*
X97508516Y-132615223D01*
X97350773Y-133122352D01*
X90387159Y-133122352D01*
X90077736Y-132915603D01*
X89624256Y-132825400D01*
X89577824Y-132825400D01*
X89124344Y-132915603D01*
X88739902Y-133172478D01*
X88483027Y-133556920D01*
X88392824Y-134010400D01*
X88269256Y-134010400D01*
X88179053Y-133556920D01*
X87922178Y-133172478D01*
X87537736Y-132915603D01*
X87084256Y-132825400D01*
X87037824Y-132825400D01*
X86584344Y-132915603D01*
X86199902Y-133172478D01*
X85943027Y-133556920D01*
X85852824Y-134010400D01*
X85410000Y-134010400D01*
X85410000Y-129972058D01*
X85973771Y-130535829D01*
X86123005Y-130635545D01*
X86189072Y-130648686D01*
X85943027Y-131016920D01*
X85852824Y-131470400D01*
X85943027Y-131923880D01*
X86199902Y-132308322D01*
X86584344Y-132565197D01*
X87037824Y-132655400D01*
X87084256Y-132655400D01*
X87537736Y-132565197D01*
X87922178Y-132308322D01*
X88179053Y-131923880D01*
X88269256Y-131470400D01*
X88179053Y-131016920D01*
X87947623Y-130670560D01*
X88714457Y-130670560D01*
X88483027Y-131016920D01*
X88392824Y-131470400D01*
X88483027Y-131923880D01*
X88739902Y-132308322D01*
X89124344Y-132565197D01*
X89577824Y-132655400D01*
X89624256Y-132655400D01*
X90077736Y-132565197D01*
X90462178Y-132308322D01*
X90504091Y-132245594D01*
X97935010Y-132245594D01*
X98704400Y-133014984D01*
X99473790Y-132245594D01*
X104435010Y-132245594D01*
X105204400Y-133014984D01*
X105973790Y-132245594D01*
X105922186Y-132169394D01*
X108984010Y-132169394D01*
X109753400Y-132938784D01*
X110522790Y-132169394D01*
X115484010Y-132169394D01*
X116253400Y-132938784D01*
X117022790Y-132169394D01*
X117017630Y-132161774D01*
X120007610Y-132161774D01*
X120777000Y-132931164D01*
X121546390Y-132161774D01*
X126507610Y-132161774D01*
X127277000Y-132931164D01*
X128046390Y-132161774D01*
X127927077Y-131985596D01*
X127419948Y-131827853D01*
X126891056Y-131876188D01*
X126626923Y-131985596D01*
X126507610Y-132161774D01*
X121546390Y-132161774D01*
X121427077Y-131985596D01*
X120919948Y-131827853D01*
X120391056Y-131876188D01*
X120126923Y-131985596D01*
X120007610Y-132161774D01*
X117017630Y-132161774D01*
X116903477Y-131993216D01*
X116396348Y-131835473D01*
X115867456Y-131883808D01*
X115603323Y-131993216D01*
X115484010Y-132169394D01*
X110522790Y-132169394D01*
X110403477Y-131993216D01*
X109896348Y-131835473D01*
X109367456Y-131883808D01*
X109103323Y-131993216D01*
X108984010Y-132169394D01*
X105922186Y-132169394D01*
X105854477Y-132069416D01*
X105347348Y-131911673D01*
X104818456Y-131960008D01*
X104554323Y-132069416D01*
X104435010Y-132245594D01*
X99473790Y-132245594D01*
X99354477Y-132069416D01*
X98847348Y-131911673D01*
X98318456Y-131960008D01*
X98054323Y-132069416D01*
X97935010Y-132245594D01*
X90504091Y-132245594D01*
X90719053Y-131923880D01*
X90809256Y-131470400D01*
X90719053Y-131016920D01*
X90487623Y-130670560D01*
X119725440Y-130670560D01*
X119901475Y-130635545D01*
X120050709Y-130535829D01*
X120570238Y-130016300D01*
X121041383Y-130016711D01*
X121532229Y-129813898D01*
X121908098Y-129438684D01*
X122031508Y-129141480D01*
X126022596Y-129141480D01*
X126144582Y-129436709D01*
X126519796Y-129812578D01*
X127010287Y-130016248D01*
X127541383Y-130016711D01*
X128032229Y-129813898D01*
X128408098Y-129438684D01*
X128611768Y-128948193D01*
X128612231Y-128417097D01*
X128409418Y-127926251D01*
X128034204Y-127550382D01*
X127543713Y-127346712D01*
X127012617Y-127346249D01*
X126521771Y-127549062D01*
X126145902Y-127924276D01*
X126022492Y-128221480D01*
X122031404Y-128221480D01*
X121909418Y-127926251D01*
X121534204Y-127550382D01*
X121043713Y-127346712D01*
X120512617Y-127346249D01*
X120021771Y-127549062D01*
X119645902Y-127924276D01*
X119442232Y-128414767D01*
X119441769Y-128945863D01*
X119644582Y-129436709D01*
X119746578Y-129538884D01*
X119534902Y-129750560D01*
X117079711Y-129750560D01*
X117384498Y-129446304D01*
X117588168Y-128955813D01*
X117588631Y-128424717D01*
X117465740Y-128127298D01*
X119387769Y-126205269D01*
X119487484Y-126056035D01*
X119487485Y-126056034D01*
X119522500Y-125880000D01*
X119522500Y-118262400D01*
X119487485Y-118086366D01*
X119487485Y-118086365D01*
X119387769Y-117937131D01*
X117635169Y-116184531D01*
X117485935Y-116084815D01*
X117309900Y-116049800D01*
X106946738Y-116049800D01*
X105120636Y-114223698D01*
X105363035Y-114223910D01*
X105596508Y-114127440D01*
X105775293Y-113948968D01*
X105872169Y-113715663D01*
X105872215Y-113662720D01*
X108651040Y-113662720D01*
X108827075Y-113627705D01*
X108976309Y-113527989D01*
X110081098Y-112423200D01*
X110390902Y-112423200D01*
X111719211Y-113751509D01*
X111868445Y-113851225D01*
X112044480Y-113886240D01*
X116169440Y-113886240D01*
X116345475Y-113851225D01*
X116494709Y-113751509D01*
X117612309Y-112633909D01*
X117712025Y-112484675D01*
X117747040Y-112308640D01*
X117747040Y-111303964D01*
X117825053Y-111226088D01*
X117921929Y-110992783D01*
X117922150Y-110740165D01*
X117825680Y-110506692D01*
X117647208Y-110327907D01*
X117413903Y-110231031D01*
X117161285Y-110230810D01*
X116927812Y-110327280D01*
X116749027Y-110505752D01*
X116652151Y-110739057D01*
X116651930Y-110991675D01*
X116748400Y-111225148D01*
X116827040Y-111303926D01*
X116827040Y-112118102D01*
X115978902Y-112966240D01*
X112235018Y-112966240D01*
X110906709Y-111637931D01*
X110757475Y-111538215D01*
X110581440Y-111503200D01*
X110330240Y-111503200D01*
X110330240Y-107951164D01*
X110408253Y-107873288D01*
X110505129Y-107639983D01*
X110505350Y-107387365D01*
X110408880Y-107153892D01*
X110230408Y-106975107D01*
X109997103Y-106878231D01*
X109744485Y-106878010D01*
X109511012Y-106974480D01*
X109332227Y-107152952D01*
X109235351Y-107386257D01*
X109235130Y-107638875D01*
X109331600Y-107872348D01*
X109410240Y-107951126D01*
X109410240Y-109144740D01*
X109285903Y-109093111D01*
X109033285Y-109092890D01*
X108799812Y-109189360D01*
X108721034Y-109268000D01*
X105041738Y-109268000D01*
X103543114Y-107769376D01*
X103543210Y-107659145D01*
X103446740Y-107425672D01*
X103268268Y-107246887D01*
X103034963Y-107150011D01*
X102782345Y-107149790D01*
X102548872Y-107246260D01*
X102370087Y-107424732D01*
X102273211Y-107658037D01*
X102272990Y-107910655D01*
X102369460Y-108144128D01*
X102547932Y-108322913D01*
X102781237Y-108419789D01*
X102892548Y-108419886D01*
X104525931Y-110053269D01*
X104675166Y-110152985D01*
X104851200Y-110188000D01*
X108720996Y-110188000D01*
X108798872Y-110266013D01*
X109032177Y-110362889D01*
X109284795Y-110363110D01*
X109410240Y-110311277D01*
X109410240Y-111792982D01*
X108460502Y-112742720D01*
X105623360Y-112742720D01*
X105447325Y-112777735D01*
X105298091Y-112877451D01*
X105221756Y-112953786D01*
X105111525Y-112953690D01*
X104878052Y-113050160D01*
X104699267Y-113228632D01*
X104602391Y-113461937D01*
X104602178Y-113705240D01*
X103825300Y-112928362D01*
X103825300Y-110109000D01*
X103814215Y-110053269D01*
X103790285Y-109932965D01*
X103690569Y-109783731D01*
X98921893Y-105015055D01*
X108483290Y-105015055D01*
X108579760Y-105248528D01*
X108758232Y-105427313D01*
X108991537Y-105524189D01*
X109244155Y-105524410D01*
X109477628Y-105427940D01*
X109656413Y-105249468D01*
X109753289Y-105016163D01*
X109753386Y-104904852D01*
X110185238Y-104473000D01*
X117367156Y-104473000D01*
X117445032Y-104551013D01*
X117678337Y-104647889D01*
X117930955Y-104648110D01*
X118164428Y-104551640D01*
X118343213Y-104373168D01*
X118440089Y-104139863D01*
X118440310Y-103887245D01*
X118343840Y-103653772D01*
X118165368Y-103474987D01*
X117932063Y-103378111D01*
X117679445Y-103377890D01*
X117445972Y-103474360D01*
X117367194Y-103553000D01*
X109994700Y-103553000D01*
X109818666Y-103588015D01*
X109752449Y-103632260D01*
X109669431Y-103687731D01*
X109102876Y-104254286D01*
X108992645Y-104254190D01*
X108759172Y-104350660D01*
X108580387Y-104529132D01*
X108483511Y-104762437D01*
X108483290Y-105015055D01*
X98921893Y-105015055D01*
X95841969Y-101935131D01*
X95692735Y-101835415D01*
X95516700Y-101800400D01*
X90480835Y-101800400D01*
X90719053Y-101443880D01*
X90809256Y-100990400D01*
X90719053Y-100536920D01*
X90462178Y-100152478D01*
X90077736Y-99895603D01*
X89624256Y-99805400D01*
X89577824Y-99805400D01*
X89124344Y-99895603D01*
X88739902Y-100152478D01*
X88483027Y-100536920D01*
X88392824Y-100990400D01*
X88483027Y-101443880D01*
X88721245Y-101800400D01*
X87972900Y-101800400D01*
X87935920Y-101807756D01*
X88179053Y-101443880D01*
X88269256Y-100990400D01*
X88179053Y-100536920D01*
X87922178Y-100152478D01*
X87537736Y-99895603D01*
X87084256Y-99805400D01*
X87037824Y-99805400D01*
X86584344Y-99895603D01*
X86199902Y-100152478D01*
X86078320Y-100334439D01*
X86078320Y-99106361D01*
X86199902Y-99288322D01*
X86584344Y-99545197D01*
X87037824Y-99635400D01*
X87084256Y-99635400D01*
X87537736Y-99545197D01*
X87922178Y-99288322D01*
X88179053Y-98903880D01*
X88269256Y-98450400D01*
X88392824Y-98450400D01*
X88483027Y-98903880D01*
X88739902Y-99288322D01*
X89124344Y-99545197D01*
X89577824Y-99635400D01*
X89624256Y-99635400D01*
X90077736Y-99545197D01*
X90462178Y-99288322D01*
X90719053Y-98903880D01*
X90809256Y-98450400D01*
X90719053Y-97996920D01*
X90462178Y-97612478D01*
X90077736Y-97355603D01*
X89624256Y-97265400D01*
X89577824Y-97265400D01*
X89124344Y-97355603D01*
X88739902Y-97612478D01*
X88483027Y-97996920D01*
X88392824Y-98450400D01*
X88269256Y-98450400D01*
X88179053Y-97996920D01*
X87922178Y-97612478D01*
X87537736Y-97355603D01*
X87084256Y-97265400D01*
X87037824Y-97265400D01*
X86584344Y-97355603D01*
X86199902Y-97612478D01*
X86078320Y-97794439D01*
X86078320Y-97680818D01*
X86725803Y-97033335D01*
X87037824Y-97095400D01*
X87084256Y-97095400D01*
X87537736Y-97005197D01*
X87922178Y-96748322D01*
X88179053Y-96363880D01*
X88269256Y-95910400D01*
X88392824Y-95910400D01*
X88483027Y-96363880D01*
X88739902Y-96748322D01*
X89124344Y-97005197D01*
X89577824Y-97095400D01*
X89624256Y-97095400D01*
X90077736Y-97005197D01*
X90462178Y-96748322D01*
X90719053Y-96363880D01*
X90809256Y-95910400D01*
X90719053Y-95456920D01*
X90462178Y-95072478D01*
X90077736Y-94815603D01*
X89624256Y-94725400D01*
X89577824Y-94725400D01*
X89124344Y-94815603D01*
X88739902Y-95072478D01*
X88483027Y-95456920D01*
X88392824Y-95910400D01*
X88269256Y-95910400D01*
X88179053Y-95456920D01*
X87922178Y-95072478D01*
X87537736Y-94815603D01*
X87084256Y-94725400D01*
X87037824Y-94725400D01*
X86584344Y-94815603D01*
X86199902Y-95072478D01*
X85943027Y-95456920D01*
X85852824Y-95910400D01*
X85943027Y-96363880D01*
X86003571Y-96454491D01*
X85410000Y-97048062D01*
X85410000Y-93370400D01*
X85852824Y-93370400D01*
X85943027Y-93823880D01*
X86199902Y-94208322D01*
X86584344Y-94465197D01*
X87037824Y-94555400D01*
X87084256Y-94555400D01*
X87537736Y-94465197D01*
X87922178Y-94208322D01*
X88179053Y-93823880D01*
X88198022Y-93728516D01*
X88471449Y-93728516D01*
X88549058Y-93915926D01*
X88837899Y-94276976D01*
X89242921Y-94500008D01*
X89424040Y-94458373D01*
X89424040Y-93547400D01*
X89778040Y-93547400D01*
X89778040Y-94458373D01*
X89959159Y-94500008D01*
X90364181Y-94276976D01*
X90653022Y-93915926D01*
X90730631Y-93728516D01*
X90687973Y-93547400D01*
X89778040Y-93547400D01*
X89424040Y-93547400D01*
X88514107Y-93547400D01*
X88471449Y-93728516D01*
X88198022Y-93728516D01*
X88269256Y-93370400D01*
X88198023Y-93012284D01*
X88471449Y-93012284D01*
X88514107Y-93193400D01*
X89424040Y-93193400D01*
X89424040Y-92282427D01*
X89778040Y-92282427D01*
X89778040Y-93193400D01*
X90687973Y-93193400D01*
X90730631Y-93012284D01*
X90653022Y-92824874D01*
X90364181Y-92463824D01*
X89959159Y-92240792D01*
X89778040Y-92282427D01*
X89424040Y-92282427D01*
X89242921Y-92240792D01*
X88837899Y-92463824D01*
X88549058Y-92824874D01*
X88471449Y-93012284D01*
X88198023Y-93012284D01*
X88179053Y-92916920D01*
X87922178Y-92532478D01*
X87537736Y-92275603D01*
X87084256Y-92185400D01*
X87037824Y-92185400D01*
X86584344Y-92275603D01*
X86199902Y-92532478D01*
X85943027Y-92916920D01*
X85852824Y-93370400D01*
X85410000Y-93370400D01*
X85410000Y-90830400D01*
X85852824Y-90830400D01*
X85943027Y-91283880D01*
X86199902Y-91668322D01*
X86584344Y-91925197D01*
X87037824Y-92015400D01*
X87084256Y-92015400D01*
X87537736Y-91925197D01*
X87922178Y-91668322D01*
X88179053Y-91283880D01*
X88269256Y-90830400D01*
X88392824Y-90830400D01*
X88483027Y-91283880D01*
X88739902Y-91668322D01*
X89124344Y-91925197D01*
X89577824Y-92015400D01*
X89624256Y-92015400D01*
X90077736Y-91925197D01*
X90462178Y-91668322D01*
X90719053Y-91283880D01*
X90809256Y-90830400D01*
X90719053Y-90376920D01*
X90462178Y-89992478D01*
X90077736Y-89735603D01*
X89624256Y-89645400D01*
X89577824Y-89645400D01*
X89124344Y-89735603D01*
X88739902Y-89992478D01*
X88483027Y-90376920D01*
X88392824Y-90830400D01*
X88269256Y-90830400D01*
X88179053Y-90376920D01*
X87922178Y-89992478D01*
X87537736Y-89735603D01*
X87084256Y-89645400D01*
X87037824Y-89645400D01*
X86584344Y-89735603D01*
X86199902Y-89992478D01*
X85943027Y-90376920D01*
X85852824Y-90830400D01*
X85410000Y-90830400D01*
X85410000Y-84101050D01*
X85464474Y-84101050D01*
X85925552Y-85216943D01*
X86778566Y-86071447D01*
X87893653Y-86534472D01*
X88166192Y-86534710D01*
X87602065Y-87098837D01*
X86211040Y-87098837D01*
X86086896Y-87122196D01*
X85972878Y-87195565D01*
X85896387Y-87307513D01*
X85869477Y-87440400D01*
X85869477Y-89140400D01*
X85892836Y-89264544D01*
X85966205Y-89378562D01*
X86078153Y-89455053D01*
X86211040Y-89481963D01*
X87911040Y-89481963D01*
X88035184Y-89458604D01*
X88149202Y-89385235D01*
X88225693Y-89273287D01*
X88252603Y-89140400D01*
X88252603Y-87749375D01*
X88788278Y-87213700D01*
X89097260Y-87213700D01*
X88739902Y-87452478D01*
X88483027Y-87836920D01*
X88392824Y-88290400D01*
X88483027Y-88743880D01*
X88739902Y-89128322D01*
X89124344Y-89385197D01*
X89577824Y-89475400D01*
X89624256Y-89475400D01*
X90050681Y-89390579D01*
X90962331Y-90302229D01*
X91111565Y-90401945D01*
X91287600Y-90436960D01*
X110299462Y-90436960D01*
X110746280Y-90883778D01*
X110746280Y-91583416D01*
X110733562Y-91564382D01*
X110349120Y-91307507D01*
X109895640Y-91217304D01*
X109442160Y-91307507D01*
X109057718Y-91564382D01*
X108867200Y-91849513D01*
X108867200Y-91622880D01*
X108832185Y-91446846D01*
X108732469Y-91297611D01*
X108635814Y-91200956D01*
X108635910Y-91090725D01*
X108539440Y-90857252D01*
X108360968Y-90678467D01*
X108127663Y-90581591D01*
X107875045Y-90581370D01*
X107641572Y-90677840D01*
X107462787Y-90856312D01*
X107365911Y-91089617D01*
X107365690Y-91342235D01*
X107462160Y-91575708D01*
X107640632Y-91754493D01*
X107873937Y-91851369D01*
X107947200Y-91851433D01*
X107947200Y-98642276D01*
X107869187Y-98720152D01*
X107772311Y-98953457D01*
X107772090Y-99206075D01*
X107868560Y-99439548D01*
X108047032Y-99618333D01*
X108280337Y-99715209D01*
X108532955Y-99715430D01*
X108766428Y-99618960D01*
X108945213Y-99440488D01*
X109042089Y-99207183D01*
X109042310Y-98954565D01*
X108945840Y-98721092D01*
X108867200Y-98642314D01*
X108867200Y-93001527D01*
X109057718Y-93286658D01*
X109442160Y-93543533D01*
X109895640Y-93633736D01*
X110349120Y-93543533D01*
X110733562Y-93286658D01*
X110746280Y-93267624D01*
X110746280Y-93832680D01*
X110781295Y-94008715D01*
X110881011Y-94157949D01*
X111327940Y-94604878D01*
X111327940Y-101235616D01*
X111249927Y-101313492D01*
X111153051Y-101546797D01*
X111152830Y-101799415D01*
X111249300Y-102032888D01*
X111427772Y-102211673D01*
X111661077Y-102308549D01*
X111913695Y-102308770D01*
X112147168Y-102212300D01*
X112225946Y-102133660D01*
X116230400Y-102133660D01*
X116406435Y-102098645D01*
X116555669Y-101998929D01*
X118928164Y-99626434D01*
X119038395Y-99626530D01*
X119271868Y-99530060D01*
X119450653Y-99351588D01*
X119486420Y-99265451D01*
X119486420Y-104863862D01*
X117136896Y-107213386D01*
X117026665Y-107213290D01*
X116793192Y-107309760D01*
X116614407Y-107488232D01*
X116517531Y-107721537D01*
X116517310Y-107974155D01*
X116613780Y-108207628D01*
X116792252Y-108386413D01*
X117025557Y-108483289D01*
X117278175Y-108483510D01*
X117511648Y-108387040D01*
X117690433Y-108208568D01*
X117787309Y-107975263D01*
X117787406Y-107863952D01*
X120271689Y-105379669D01*
X120371405Y-105230435D01*
X120406420Y-105054400D01*
X120406420Y-94856300D01*
X120371405Y-94680266D01*
X120371405Y-94680265D01*
X120271689Y-94531031D01*
X118707203Y-92966545D01*
X118707203Y-92139400D01*
X134469837Y-92139400D01*
X134469837Y-93839400D01*
X134493196Y-93963544D01*
X134566565Y-94077562D01*
X134678513Y-94154053D01*
X134811400Y-94180963D01*
X136511400Y-94180963D01*
X136635544Y-94157604D01*
X136749562Y-94084235D01*
X136826053Y-93972287D01*
X136852963Y-93839400D01*
X136852963Y-92139400D01*
X136829604Y-92015256D01*
X136756235Y-91901238D01*
X136644287Y-91824747D01*
X136511400Y-91797837D01*
X134811400Y-91797837D01*
X134687256Y-91821196D01*
X134573238Y-91894565D01*
X134496747Y-92006513D01*
X134469837Y-92139400D01*
X118707203Y-92139400D01*
X118707203Y-91575520D01*
X118683844Y-91451376D01*
X118610475Y-91337358D01*
X118498527Y-91260867D01*
X118365640Y-91233957D01*
X117975640Y-91233957D01*
X117975640Y-90807516D01*
X134531809Y-90807516D01*
X134609418Y-90994926D01*
X134898259Y-91355976D01*
X135303281Y-91579008D01*
X135484400Y-91537373D01*
X135484400Y-90626400D01*
X135838400Y-90626400D01*
X135838400Y-91537373D01*
X136019519Y-91579008D01*
X136424541Y-91355976D01*
X136713382Y-90994926D01*
X136790991Y-90807516D01*
X136748333Y-90626400D01*
X135838400Y-90626400D01*
X135484400Y-90626400D01*
X134574467Y-90626400D01*
X134531809Y-90807516D01*
X117975640Y-90807516D01*
X117975640Y-90769440D01*
X117940625Y-90593406D01*
X117940625Y-90593405D01*
X117840909Y-90444171D01*
X117488022Y-90091284D01*
X134531809Y-90091284D01*
X134574467Y-90272400D01*
X135484400Y-90272400D01*
X135484400Y-89361427D01*
X135838400Y-89361427D01*
X135838400Y-90272400D01*
X136748333Y-90272400D01*
X136790991Y-90091284D01*
X136713382Y-89903874D01*
X136424541Y-89542824D01*
X136019519Y-89319792D01*
X135838400Y-89361427D01*
X135484400Y-89361427D01*
X135303281Y-89319792D01*
X134898259Y-89542824D01*
X134609418Y-89903874D01*
X134531809Y-90091284D01*
X117488022Y-90091284D01*
X114363670Y-86966932D01*
X114442240Y-86982560D01*
X127010160Y-86982560D01*
X127186195Y-86947545D01*
X127335429Y-86847829D01*
X128412651Y-85770607D01*
X128421040Y-85776213D01*
X128874520Y-85866416D01*
X129328000Y-85776213D01*
X129712442Y-85519338D01*
X129969317Y-85134896D01*
X130059520Y-84681416D01*
X130059520Y-84634984D01*
X129969317Y-84181504D01*
X129712442Y-83797062D01*
X129328000Y-83540187D01*
X128874520Y-83449984D01*
X128421040Y-83540187D01*
X128036598Y-83797062D01*
X127779723Y-84181504D01*
X127689520Y-84634984D01*
X127689520Y-84681416D01*
X127774341Y-85107841D01*
X126819622Y-86062560D01*
X114868338Y-86062560D01*
X114867225Y-86056965D01*
X114767509Y-85907731D01*
X114503349Y-85643571D01*
X114354115Y-85543855D01*
X114178080Y-85508840D01*
X113214044Y-85508840D01*
X113136168Y-85430827D01*
X113082725Y-85408636D01*
X113151809Y-85242263D01*
X113152030Y-84989645D01*
X113055560Y-84756172D01*
X112973096Y-84673563D01*
X112970960Y-84427978D01*
X113590738Y-83808200D01*
X114982957Y-83808200D01*
X114982957Y-85508200D01*
X115006316Y-85632344D01*
X115079685Y-85746362D01*
X115191633Y-85822853D01*
X115324520Y-85849763D01*
X117024520Y-85849763D01*
X117148664Y-85826404D01*
X117262682Y-85753035D01*
X117339173Y-85641087D01*
X117366083Y-85508200D01*
X117366083Y-85016319D01*
X117584912Y-85016319D01*
X117807944Y-85421341D01*
X118168994Y-85710182D01*
X118356404Y-85787791D01*
X118537520Y-85745133D01*
X118537520Y-84835200D01*
X118891520Y-84835200D01*
X118891520Y-85745133D01*
X119072636Y-85787791D01*
X119260046Y-85710182D01*
X119621096Y-85421341D01*
X119844128Y-85016319D01*
X119802493Y-84835200D01*
X118891520Y-84835200D01*
X118537520Y-84835200D01*
X117626547Y-84835200D01*
X117584912Y-85016319D01*
X117366083Y-85016319D01*
X117366083Y-84634984D01*
X120069520Y-84634984D01*
X120069520Y-84681416D01*
X120159723Y-85134896D01*
X120416598Y-85519338D01*
X120801040Y-85776213D01*
X121254520Y-85866416D01*
X121708000Y-85776213D01*
X122092442Y-85519338D01*
X122349317Y-85134896D01*
X122439520Y-84681416D01*
X122439520Y-84634984D01*
X122609520Y-84634984D01*
X122609520Y-84681416D01*
X122699723Y-85134896D01*
X122956598Y-85519338D01*
X123341040Y-85776213D01*
X123794520Y-85866416D01*
X124248000Y-85776213D01*
X124632442Y-85519338D01*
X124889317Y-85134896D01*
X124979520Y-84681416D01*
X124979520Y-84634984D01*
X124889317Y-84181504D01*
X124632442Y-83797062D01*
X124248000Y-83540187D01*
X123794520Y-83449984D01*
X123341040Y-83540187D01*
X122956598Y-83797062D01*
X122699723Y-84181504D01*
X122609520Y-84634984D01*
X122439520Y-84634984D01*
X122349317Y-84181504D01*
X122092442Y-83797062D01*
X121708000Y-83540187D01*
X121254520Y-83449984D01*
X120801040Y-83540187D01*
X120416598Y-83797062D01*
X120159723Y-84181504D01*
X120069520Y-84634984D01*
X117366083Y-84634984D01*
X117366083Y-84300081D01*
X117584912Y-84300081D01*
X117626547Y-84481200D01*
X118537520Y-84481200D01*
X118537520Y-83571267D01*
X118891520Y-83571267D01*
X118891520Y-84481200D01*
X119802493Y-84481200D01*
X119844128Y-84300081D01*
X119621096Y-83895059D01*
X119260046Y-83606218D01*
X119072636Y-83528609D01*
X118891520Y-83571267D01*
X118537520Y-83571267D01*
X118356404Y-83528609D01*
X118168994Y-83606218D01*
X117807944Y-83895059D01*
X117584912Y-84300081D01*
X117366083Y-84300081D01*
X117366083Y-83808200D01*
X117342724Y-83684056D01*
X117269355Y-83570038D01*
X117157407Y-83493547D01*
X117024520Y-83466637D01*
X115324520Y-83466637D01*
X115200376Y-83489996D01*
X115086358Y-83563365D01*
X115009867Y-83675313D01*
X114982957Y-83808200D01*
X113590738Y-83808200D01*
X114376238Y-83022700D01*
X124434562Y-83022700D01*
X125381372Y-83969510D01*
X125239723Y-84181504D01*
X125149520Y-84634984D01*
X125149520Y-84681416D01*
X125239723Y-85134896D01*
X125496598Y-85519338D01*
X125881040Y-85776213D01*
X126334520Y-85866416D01*
X126788000Y-85776213D01*
X127172442Y-85519338D01*
X127429317Y-85134896D01*
X127519520Y-84681416D01*
X127519520Y-84634984D01*
X127429317Y-84181504D01*
X127172442Y-83797062D01*
X126788000Y-83540187D01*
X126334520Y-83449984D01*
X126191392Y-83478454D01*
X124950369Y-82237431D01*
X124801135Y-82137715D01*
X124625100Y-82102700D01*
X114185700Y-82102700D01*
X114009665Y-82137715D01*
X113860431Y-82237431D01*
X112184031Y-83913831D01*
X112182899Y-83915526D01*
X112181215Y-83916672D01*
X112133098Y-83990056D01*
X112084315Y-84063065D01*
X112083917Y-84065064D01*
X112082800Y-84066768D01*
X112066418Y-84153039D01*
X112049300Y-84239100D01*
X112049697Y-84241097D01*
X112049317Y-84243100D01*
X112053126Y-84681143D01*
X111978907Y-84755232D01*
X111882031Y-84988537D01*
X111881810Y-85241155D01*
X111978280Y-85474628D01*
X112156752Y-85653413D01*
X112210195Y-85675604D01*
X112141111Y-85841977D01*
X112140890Y-86094595D01*
X112223159Y-86293700D01*
X89686313Y-86293700D01*
X90216943Y-86074448D01*
X91071447Y-85221434D01*
X91534472Y-84106347D01*
X91535526Y-82898950D01*
X91074448Y-81783057D01*
X90221434Y-80928553D01*
X89106347Y-80465528D01*
X87898950Y-80464474D01*
X86783057Y-80925552D01*
X85928553Y-81778566D01*
X85465528Y-82893653D01*
X85464474Y-84101050D01*
X85410000Y-84101050D01*
X85410000Y-83114047D01*
X85461035Y-82841860D01*
X85479005Y-82817915D01*
X85488185Y-82791405D01*
X85690348Y-81898519D01*
X86003756Y-81429471D01*
X86306272Y-81086074D01*
X86748959Y-80790280D01*
X87203180Y-80576529D01*
X87797686Y-80458275D01*
X88556865Y-80431637D01*
X106198212Y-80410000D01*
X138429325Y-80410000D01*
X139531954Y-80643891D01*
X139531954Y-80643891D01*
G37*
X139531954Y-80643891D02*
X139589733Y-80682498D01*
X140335064Y-81264220D01*
X140932064Y-82246380D01*
X140937019Y-82271293D01*
X140958255Y-82711940D01*
X140574448Y-81783057D01*
X139721434Y-80928553D01*
X138606347Y-80465528D01*
X137398950Y-80464474D01*
X136283057Y-80925552D01*
X135428553Y-81778566D01*
X134965528Y-82893653D01*
X134964474Y-84101050D01*
X135425552Y-85216943D01*
X136278566Y-86071447D01*
X137393653Y-86534472D01*
X138601050Y-86535526D01*
X139716943Y-86074448D01*
X140571447Y-85221434D01*
X141015893Y-84151089D01*
X141056171Y-142129691D01*
X140951800Y-142654400D01*
X140745325Y-143197754D01*
X140532139Y-143516810D01*
X140109915Y-143969928D01*
X139596035Y-144313291D01*
X139299167Y-144423003D01*
X138707848Y-144540624D01*
X137666121Y-144571720D01*
X88500212Y-144571720D01*
X88145802Y-144534692D01*
X89101050Y-144535526D01*
X90216943Y-144074448D01*
X90927123Y-143365506D01*
X109027190Y-143365506D01*
X109146503Y-143541684D01*
X109653632Y-143699427D01*
X110182524Y-143651092D01*
X110446657Y-143541684D01*
X110565970Y-143365506D01*
X115527190Y-143365506D01*
X115646503Y-143541684D01*
X116153632Y-143699427D01*
X116682524Y-143651092D01*
X116946657Y-143541684D01*
X117065970Y-143365506D01*
X116296580Y-142596116D01*
X115527190Y-143365506D01*
X110565970Y-143365506D01*
X109796580Y-142596116D01*
X109027190Y-143365506D01*
X90927123Y-143365506D01*
X91071447Y-143221434D01*
X91494399Y-142202852D01*
X108442953Y-142202852D01*
X108491288Y-142731744D01*
X108600696Y-142995877D01*
X108776874Y-143115190D01*
X109546264Y-142345800D01*
X110046896Y-142345800D01*
X110816286Y-143115190D01*
X110992464Y-142995877D01*
X111150207Y-142488748D01*
X111124080Y-142202852D01*
X114942953Y-142202852D01*
X114991288Y-142731744D01*
X115100696Y-142995877D01*
X115276874Y-143115190D01*
X116046264Y-142345800D01*
X116546896Y-142345800D01*
X117316286Y-143115190D01*
X117492464Y-142995877D01*
X117650207Y-142488748D01*
X117614776Y-142101050D01*
X134964474Y-142101050D01*
X135425552Y-143216943D01*
X136278566Y-144071447D01*
X137393653Y-144534472D01*
X138601050Y-144535526D01*
X139716943Y-144074448D01*
X140571447Y-143221434D01*
X141034472Y-142106347D01*
X141035526Y-140898950D01*
X140574448Y-139783057D01*
X139721434Y-138928553D01*
X138606347Y-138465528D01*
X137398950Y-138464474D01*
X136283057Y-138925552D01*
X135428553Y-139778566D01*
X134965528Y-140893653D01*
X134964474Y-142101050D01*
X117614776Y-142101050D01*
X117601872Y-141959856D01*
X117492464Y-141695723D01*
X117316286Y-141576410D01*
X116546896Y-142345800D01*
X116046264Y-142345800D01*
X115276874Y-141576410D01*
X115100696Y-141695723D01*
X114942953Y-142202852D01*
X111124080Y-142202852D01*
X111101872Y-141959856D01*
X110992464Y-141695723D01*
X110816286Y-141576410D01*
X110046896Y-142345800D01*
X109546264Y-142345800D01*
X108776874Y-141576410D01*
X108600696Y-141695723D01*
X108442953Y-142202852D01*
X91494399Y-142202852D01*
X91534472Y-142106347D01*
X91535153Y-141326094D01*
X109027190Y-141326094D01*
X109796580Y-142095484D01*
X110565970Y-141326094D01*
X115527190Y-141326094D01*
X116296580Y-142095484D01*
X117065970Y-141326094D01*
X116946657Y-141149916D01*
X116439528Y-140992173D01*
X115910636Y-141040508D01*
X115646503Y-141149916D01*
X115527190Y-141326094D01*
X110565970Y-141326094D01*
X110446657Y-141149916D01*
X109939528Y-140992173D01*
X109410636Y-141040508D01*
X109146503Y-141149916D01*
X109027190Y-141326094D01*
X91535153Y-141326094D01*
X91535526Y-140898950D01*
X91074448Y-139783057D01*
X90221434Y-138928553D01*
X89106347Y-138465528D01*
X87898950Y-138464474D01*
X86783057Y-138925552D01*
X85928553Y-139778566D01*
X85465528Y-140893653D01*
X85464474Y-142101050D01*
X85925552Y-143216943D01*
X86778566Y-144071447D01*
X87809589Y-144499565D01*
X87338072Y-144450302D01*
X87123075Y-144407537D01*
X86729315Y-144196594D01*
X86174273Y-143825727D01*
X85726391Y-143155424D01*
X85599094Y-142910260D01*
X85410000Y-141959618D01*
X85410000Y-138110183D01*
X108461349Y-138110183D01*
X108664162Y-138601029D01*
X109039376Y-138976898D01*
X109529867Y-139180568D01*
X110060963Y-139181031D01*
X110551809Y-138978218D01*
X110927678Y-138603004D01*
X111131348Y-138112513D01*
X111131350Y-138110183D01*
X114961349Y-138110183D01*
X115164162Y-138601029D01*
X115539376Y-138976898D01*
X116029867Y-139180568D01*
X116560963Y-139181031D01*
X117051809Y-138978218D01*
X117427678Y-138603004D01*
X117631348Y-138112513D01*
X117631811Y-137581417D01*
X117428998Y-137090571D01*
X117053784Y-136714702D01*
X116563293Y-136511032D01*
X116032197Y-136510569D01*
X115541351Y-136713382D01*
X115165482Y-137088596D01*
X114961812Y-137579087D01*
X114961349Y-138110183D01*
X111131350Y-138110183D01*
X111131811Y-137581417D01*
X110928998Y-137090571D01*
X110553784Y-136714702D01*
X110063293Y-136511032D01*
X109532197Y-136510569D01*
X109041351Y-136713382D01*
X108665482Y-137088596D01*
X108461812Y-137579087D01*
X108461349Y-138110183D01*
X85410000Y-138110183D01*
X85410000Y-136550400D01*
X85852824Y-136550400D01*
X85943027Y-137003880D01*
X86199902Y-137388322D01*
X86584344Y-137645197D01*
X87037824Y-137735400D01*
X87084256Y-137735400D01*
X87537736Y-137645197D01*
X87922178Y-137388322D01*
X88179053Y-137003880D01*
X88269256Y-136550400D01*
X88392824Y-136550400D01*
X88483027Y-137003880D01*
X88739902Y-137388322D01*
X89124344Y-137645197D01*
X89577824Y-137735400D01*
X89624256Y-137735400D01*
X90077736Y-137645197D01*
X90462178Y-137388322D01*
X90719053Y-137003880D01*
X90809256Y-136550400D01*
X90719053Y-136096920D01*
X90462178Y-135712478D01*
X90077736Y-135455603D01*
X89624256Y-135365400D01*
X89577824Y-135365400D01*
X89124344Y-135455603D01*
X88739902Y-135712478D01*
X88483027Y-136096920D01*
X88392824Y-136550400D01*
X88269256Y-136550400D01*
X88179053Y-136096920D01*
X87922178Y-135712478D01*
X87537736Y-135455603D01*
X87084256Y-135365400D01*
X87037824Y-135365400D01*
X86584344Y-135455603D01*
X86199902Y-135712478D01*
X85943027Y-136096920D01*
X85852824Y-136550400D01*
X85410000Y-136550400D01*
X85410000Y-134010400D01*
X85852824Y-134010400D01*
X85943027Y-134463880D01*
X86199902Y-134848322D01*
X86584344Y-135105197D01*
X87037824Y-135195400D01*
X87084256Y-135195400D01*
X87537736Y-135105197D01*
X87922178Y-134848322D01*
X88179053Y-134463880D01*
X88269256Y-134010400D01*
X88392824Y-134010400D01*
X88483027Y-134463880D01*
X88739902Y-134848322D01*
X89124344Y-135105197D01*
X89577824Y-135195400D01*
X89624256Y-135195400D01*
X90077736Y-135105197D01*
X90462178Y-134848322D01*
X90719053Y-134463880D01*
X90754633Y-134285006D01*
X97935010Y-134285006D01*
X98054323Y-134461184D01*
X98561452Y-134618927D01*
X99090344Y-134570592D01*
X99354477Y-134461184D01*
X99473790Y-134285006D01*
X104435010Y-134285006D01*
X104554323Y-134461184D01*
X105061452Y-134618927D01*
X105590344Y-134570592D01*
X105854477Y-134461184D01*
X105973790Y-134285006D01*
X105897590Y-134208806D01*
X108984010Y-134208806D01*
X109103323Y-134384984D01*
X109610452Y-134542727D01*
X110139344Y-134494392D01*
X110403477Y-134384984D01*
X110522790Y-134208806D01*
X115484010Y-134208806D01*
X115603323Y-134384984D01*
X116110452Y-134542727D01*
X116639344Y-134494392D01*
X116903477Y-134384984D01*
X117022790Y-134208806D01*
X117015170Y-134201186D01*
X120007610Y-134201186D01*
X120126923Y-134377364D01*
X120634052Y-134535107D01*
X121162944Y-134486772D01*
X121427077Y-134377364D01*
X121546390Y-134201186D01*
X126507610Y-134201186D01*
X126626923Y-134377364D01*
X127134052Y-134535107D01*
X127662944Y-134486772D01*
X127927077Y-134377364D01*
X128046390Y-134201186D01*
X127277000Y-133431796D01*
X126507610Y-134201186D01*
X121546390Y-134201186D01*
X120777000Y-133431796D01*
X120007610Y-134201186D01*
X117015170Y-134201186D01*
X116253400Y-133439416D01*
X115484010Y-134208806D01*
X110522790Y-134208806D01*
X109753400Y-133439416D01*
X108984010Y-134208806D01*
X105897590Y-134208806D01*
X105204400Y-133515616D01*
X104435010Y-134285006D01*
X99473790Y-134285006D01*
X98704400Y-133515616D01*
X97935010Y-134285006D01*
X90754633Y-134285006D01*
X90809256Y-134010400D01*
X90719053Y-133556920D01*
X90462178Y-133172478D01*
X90387159Y-133122352D01*
X97350773Y-133122352D01*
X97399108Y-133651244D01*
X97508516Y-133915377D01*
X97684694Y-134034690D01*
X98454084Y-133265300D01*
X98954716Y-133265300D01*
X99724106Y-134034690D01*
X99900284Y-133915377D01*
X100058027Y-133408248D01*
X100031900Y-133122352D01*
X103850773Y-133122352D01*
X103899108Y-133651244D01*
X104008516Y-133915377D01*
X104184694Y-134034690D01*
X104954084Y-133265300D01*
X105454716Y-133265300D01*
X106224106Y-134034690D01*
X106400284Y-133915377D01*
X106558027Y-133408248D01*
X106524936Y-133046152D01*
X108399773Y-133046152D01*
X108448108Y-133575044D01*
X108557516Y-133839177D01*
X108733694Y-133958490D01*
X109503084Y-133189100D01*
X110003716Y-133189100D01*
X110773106Y-133958490D01*
X110949284Y-133839177D01*
X111107027Y-133332048D01*
X111080900Y-133046152D01*
X114899773Y-133046152D01*
X114948108Y-133575044D01*
X115057516Y-133839177D01*
X115233694Y-133958490D01*
X116003084Y-133189100D01*
X116503716Y-133189100D01*
X117273106Y-133958490D01*
X117449284Y-133839177D01*
X117607027Y-133332048D01*
X117580203Y-133038532D01*
X119423373Y-133038532D01*
X119471708Y-133567424D01*
X119581116Y-133831557D01*
X119757294Y-133950870D01*
X120526684Y-133181480D01*
X121027316Y-133181480D01*
X121796706Y-133950870D01*
X121972884Y-133831557D01*
X122130627Y-133324428D01*
X122104500Y-133038532D01*
X125923373Y-133038532D01*
X125971708Y-133567424D01*
X126081116Y-133831557D01*
X126257294Y-133950870D01*
X127026684Y-133181480D01*
X127527316Y-133181480D01*
X128296706Y-133950870D01*
X128472884Y-133831557D01*
X128630627Y-133324428D01*
X128582292Y-132795536D01*
X128472884Y-132531403D01*
X128296706Y-132412090D01*
X127527316Y-133181480D01*
X127026684Y-133181480D01*
X126257294Y-132412090D01*
X126081116Y-132531403D01*
X125923373Y-133038532D01*
X122104500Y-133038532D01*
X122082292Y-132795536D01*
X121972884Y-132531403D01*
X121796706Y-132412090D01*
X121027316Y-133181480D01*
X120526684Y-133181480D01*
X119757294Y-132412090D01*
X119581116Y-132531403D01*
X119423373Y-133038532D01*
X117580203Y-133038532D01*
X117558692Y-132803156D01*
X117449284Y-132539023D01*
X117273106Y-132419710D01*
X116503716Y-133189100D01*
X116003084Y-133189100D01*
X115233694Y-132419710D01*
X115057516Y-132539023D01*
X114899773Y-133046152D01*
X111080900Y-133046152D01*
X111058692Y-132803156D01*
X110949284Y-132539023D01*
X110773106Y-132419710D01*
X110003716Y-133189100D01*
X109503084Y-133189100D01*
X108733694Y-132419710D01*
X108557516Y-132539023D01*
X108399773Y-133046152D01*
X106524936Y-133046152D01*
X106509692Y-132879356D01*
X106400284Y-132615223D01*
X106224106Y-132495910D01*
X105454716Y-133265300D01*
X104954084Y-133265300D01*
X104184694Y-132495910D01*
X104008516Y-132615223D01*
X103850773Y-133122352D01*
X100031900Y-133122352D01*
X100009692Y-132879356D01*
X99900284Y-132615223D01*
X99724106Y-132495910D01*
X98954716Y-133265300D01*
X98454084Y-133265300D01*
X97684694Y-132495910D01*
X97508516Y-132615223D01*
X97350773Y-133122352D01*
X90387159Y-133122352D01*
X90077736Y-132915603D01*
X89624256Y-132825400D01*
X89577824Y-132825400D01*
X89124344Y-132915603D01*
X88739902Y-133172478D01*
X88483027Y-133556920D01*
X88392824Y-134010400D01*
X88269256Y-134010400D01*
X88179053Y-133556920D01*
X87922178Y-133172478D01*
X87537736Y-132915603D01*
X87084256Y-132825400D01*
X87037824Y-132825400D01*
X86584344Y-132915603D01*
X86199902Y-133172478D01*
X85943027Y-133556920D01*
X85852824Y-134010400D01*
X85410000Y-134010400D01*
X85410000Y-129972058D01*
X85973771Y-130535829D01*
X86123005Y-130635545D01*
X86189072Y-130648686D01*
X85943027Y-131016920D01*
X85852824Y-131470400D01*
X85943027Y-131923880D01*
X86199902Y-132308322D01*
X86584344Y-132565197D01*
X87037824Y-132655400D01*
X87084256Y-132655400D01*
X87537736Y-132565197D01*
X87922178Y-132308322D01*
X88179053Y-131923880D01*
X88269256Y-131470400D01*
X88179053Y-131016920D01*
X87947623Y-130670560D01*
X88714457Y-130670560D01*
X88483027Y-131016920D01*
X88392824Y-131470400D01*
X88483027Y-131923880D01*
X88739902Y-132308322D01*
X89124344Y-132565197D01*
X89577824Y-132655400D01*
X89624256Y-132655400D01*
X90077736Y-132565197D01*
X90462178Y-132308322D01*
X90504091Y-132245594D01*
X97935010Y-132245594D01*
X98704400Y-133014984D01*
X99473790Y-132245594D01*
X104435010Y-132245594D01*
X105204400Y-133014984D01*
X105973790Y-132245594D01*
X105922186Y-132169394D01*
X108984010Y-132169394D01*
X109753400Y-132938784D01*
X110522790Y-132169394D01*
X115484010Y-132169394D01*
X116253400Y-132938784D01*
X117022790Y-132169394D01*
X117017630Y-132161774D01*
X120007610Y-132161774D01*
X120777000Y-132931164D01*
X121546390Y-132161774D01*
X126507610Y-132161774D01*
X127277000Y-132931164D01*
X128046390Y-132161774D01*
X127927077Y-131985596D01*
X127419948Y-131827853D01*
X126891056Y-131876188D01*
X126626923Y-131985596D01*
X126507610Y-132161774D01*
X121546390Y-132161774D01*
X121427077Y-131985596D01*
X120919948Y-131827853D01*
X120391056Y-131876188D01*
X120126923Y-131985596D01*
X120007610Y-132161774D01*
X117017630Y-132161774D01*
X116903477Y-131993216D01*
X116396348Y-131835473D01*
X115867456Y-131883808D01*
X115603323Y-131993216D01*
X115484010Y-132169394D01*
X110522790Y-132169394D01*
X110403477Y-131993216D01*
X109896348Y-131835473D01*
X109367456Y-131883808D01*
X109103323Y-131993216D01*
X108984010Y-132169394D01*
X105922186Y-132169394D01*
X105854477Y-132069416D01*
X105347348Y-131911673D01*
X104818456Y-131960008D01*
X104554323Y-132069416D01*
X104435010Y-132245594D01*
X99473790Y-132245594D01*
X99354477Y-132069416D01*
X98847348Y-131911673D01*
X98318456Y-131960008D01*
X98054323Y-132069416D01*
X97935010Y-132245594D01*
X90504091Y-132245594D01*
X90719053Y-131923880D01*
X90809256Y-131470400D01*
X90719053Y-131016920D01*
X90487623Y-130670560D01*
X119725440Y-130670560D01*
X119901475Y-130635545D01*
X120050709Y-130535829D01*
X120570238Y-130016300D01*
X121041383Y-130016711D01*
X121532229Y-129813898D01*
X121908098Y-129438684D01*
X122031508Y-129141480D01*
X126022596Y-129141480D01*
X126144582Y-129436709D01*
X126519796Y-129812578D01*
X127010287Y-130016248D01*
X127541383Y-130016711D01*
X128032229Y-129813898D01*
X128408098Y-129438684D01*
X128611768Y-128948193D01*
X128612231Y-128417097D01*
X128409418Y-127926251D01*
X128034204Y-127550382D01*
X127543713Y-127346712D01*
X127012617Y-127346249D01*
X126521771Y-127549062D01*
X126145902Y-127924276D01*
X126022492Y-128221480D01*
X122031404Y-128221480D01*
X121909418Y-127926251D01*
X121534204Y-127550382D01*
X121043713Y-127346712D01*
X120512617Y-127346249D01*
X120021771Y-127549062D01*
X119645902Y-127924276D01*
X119442232Y-128414767D01*
X119441769Y-128945863D01*
X119644582Y-129436709D01*
X119746578Y-129538884D01*
X119534902Y-129750560D01*
X117079711Y-129750560D01*
X117384498Y-129446304D01*
X117588168Y-128955813D01*
X117588631Y-128424717D01*
X117465740Y-128127298D01*
X119387769Y-126205269D01*
X119487484Y-126056035D01*
X119487485Y-126056034D01*
X119522500Y-125880000D01*
X119522500Y-118262400D01*
X119487485Y-118086366D01*
X119487485Y-118086365D01*
X119387769Y-117937131D01*
X117635169Y-116184531D01*
X117485935Y-116084815D01*
X117309900Y-116049800D01*
X106946738Y-116049800D01*
X105120636Y-114223698D01*
X105363035Y-114223910D01*
X105596508Y-114127440D01*
X105775293Y-113948968D01*
X105872169Y-113715663D01*
X105872215Y-113662720D01*
X108651040Y-113662720D01*
X108827075Y-113627705D01*
X108976309Y-113527989D01*
X110081098Y-112423200D01*
X110390902Y-112423200D01*
X111719211Y-113751509D01*
X111868445Y-113851225D01*
X112044480Y-113886240D01*
X116169440Y-113886240D01*
X116345475Y-113851225D01*
X116494709Y-113751509D01*
X117612309Y-112633909D01*
X117712025Y-112484675D01*
X117747040Y-112308640D01*
X117747040Y-111303964D01*
X117825053Y-111226088D01*
X117921929Y-110992783D01*
X117922150Y-110740165D01*
X117825680Y-110506692D01*
X117647208Y-110327907D01*
X117413903Y-110231031D01*
X117161285Y-110230810D01*
X116927812Y-110327280D01*
X116749027Y-110505752D01*
X116652151Y-110739057D01*
X116651930Y-110991675D01*
X116748400Y-111225148D01*
X116827040Y-111303926D01*
X116827040Y-112118102D01*
X115978902Y-112966240D01*
X112235018Y-112966240D01*
X110906709Y-111637931D01*
X110757475Y-111538215D01*
X110581440Y-111503200D01*
X110330240Y-111503200D01*
X110330240Y-107951164D01*
X110408253Y-107873288D01*
X110505129Y-107639983D01*
X110505350Y-107387365D01*
X110408880Y-107153892D01*
X110230408Y-106975107D01*
X109997103Y-106878231D01*
X109744485Y-106878010D01*
X109511012Y-106974480D01*
X109332227Y-107152952D01*
X109235351Y-107386257D01*
X109235130Y-107638875D01*
X109331600Y-107872348D01*
X109410240Y-107951126D01*
X109410240Y-109144740D01*
X109285903Y-109093111D01*
X109033285Y-109092890D01*
X108799812Y-109189360D01*
X108721034Y-109268000D01*
X105041738Y-109268000D01*
X103543114Y-107769376D01*
X103543210Y-107659145D01*
X103446740Y-107425672D01*
X103268268Y-107246887D01*
X103034963Y-107150011D01*
X102782345Y-107149790D01*
X102548872Y-107246260D01*
X102370087Y-107424732D01*
X102273211Y-107658037D01*
X102272990Y-107910655D01*
X102369460Y-108144128D01*
X102547932Y-108322913D01*
X102781237Y-108419789D01*
X102892548Y-108419886D01*
X104525931Y-110053269D01*
X104675166Y-110152985D01*
X104851200Y-110188000D01*
X108720996Y-110188000D01*
X108798872Y-110266013D01*
X109032177Y-110362889D01*
X109284795Y-110363110D01*
X109410240Y-110311277D01*
X109410240Y-111792982D01*
X108460502Y-112742720D01*
X105623360Y-112742720D01*
X105447325Y-112777735D01*
X105298091Y-112877451D01*
X105221756Y-112953786D01*
X105111525Y-112953690D01*
X104878052Y-113050160D01*
X104699267Y-113228632D01*
X104602391Y-113461937D01*
X104602178Y-113705240D01*
X103825300Y-112928362D01*
X103825300Y-110109000D01*
X103814215Y-110053269D01*
X103790285Y-109932965D01*
X103690569Y-109783731D01*
X98921893Y-105015055D01*
X108483290Y-105015055D01*
X108579760Y-105248528D01*
X108758232Y-105427313D01*
X108991537Y-105524189D01*
X109244155Y-105524410D01*
X109477628Y-105427940D01*
X109656413Y-105249468D01*
X109753289Y-105016163D01*
X109753386Y-104904852D01*
X110185238Y-104473000D01*
X117367156Y-104473000D01*
X117445032Y-104551013D01*
X117678337Y-104647889D01*
X117930955Y-104648110D01*
X118164428Y-104551640D01*
X118343213Y-104373168D01*
X118440089Y-104139863D01*
X118440310Y-103887245D01*
X118343840Y-103653772D01*
X118165368Y-103474987D01*
X117932063Y-103378111D01*
X117679445Y-103377890D01*
X117445972Y-103474360D01*
X117367194Y-103553000D01*
X109994700Y-103553000D01*
X109818666Y-103588015D01*
X109752449Y-103632260D01*
X109669431Y-103687731D01*
X109102876Y-104254286D01*
X108992645Y-104254190D01*
X108759172Y-104350660D01*
X108580387Y-104529132D01*
X108483511Y-104762437D01*
X108483290Y-105015055D01*
X98921893Y-105015055D01*
X95841969Y-101935131D01*
X95692735Y-101835415D01*
X95516700Y-101800400D01*
X90480835Y-101800400D01*
X90719053Y-101443880D01*
X90809256Y-100990400D01*
X90719053Y-100536920D01*
X90462178Y-100152478D01*
X90077736Y-99895603D01*
X89624256Y-99805400D01*
X89577824Y-99805400D01*
X89124344Y-99895603D01*
X88739902Y-100152478D01*
X88483027Y-100536920D01*
X88392824Y-100990400D01*
X88483027Y-101443880D01*
X88721245Y-101800400D01*
X87972900Y-101800400D01*
X87935920Y-101807756D01*
X88179053Y-101443880D01*
X88269256Y-100990400D01*
X88179053Y-100536920D01*
X87922178Y-100152478D01*
X87537736Y-99895603D01*
X87084256Y-99805400D01*
X87037824Y-99805400D01*
X86584344Y-99895603D01*
X86199902Y-100152478D01*
X86078320Y-100334439D01*
X86078320Y-99106361D01*
X86199902Y-99288322D01*
X86584344Y-99545197D01*
X87037824Y-99635400D01*
X87084256Y-99635400D01*
X87537736Y-99545197D01*
X87922178Y-99288322D01*
X88179053Y-98903880D01*
X88269256Y-98450400D01*
X88392824Y-98450400D01*
X88483027Y-98903880D01*
X88739902Y-99288322D01*
X89124344Y-99545197D01*
X89577824Y-99635400D01*
X89624256Y-99635400D01*
X90077736Y-99545197D01*
X90462178Y-99288322D01*
X90719053Y-98903880D01*
X90809256Y-98450400D01*
X90719053Y-97996920D01*
X90462178Y-97612478D01*
X90077736Y-97355603D01*
X89624256Y-97265400D01*
X89577824Y-97265400D01*
X89124344Y-97355603D01*
X88739902Y-97612478D01*
X88483027Y-97996920D01*
X88392824Y-98450400D01*
X88269256Y-98450400D01*
X88179053Y-97996920D01*
X87922178Y-97612478D01*
X87537736Y-97355603D01*
X87084256Y-97265400D01*
X87037824Y-97265400D01*
X86584344Y-97355603D01*
X86199902Y-97612478D01*
X86078320Y-97794439D01*
X86078320Y-97680818D01*
X86725803Y-97033335D01*
X87037824Y-97095400D01*
X87084256Y-97095400D01*
X87537736Y-97005197D01*
X87922178Y-96748322D01*
X88179053Y-96363880D01*
X88269256Y-95910400D01*
X88392824Y-95910400D01*
X88483027Y-96363880D01*
X88739902Y-96748322D01*
X89124344Y-97005197D01*
X89577824Y-97095400D01*
X89624256Y-97095400D01*
X90077736Y-97005197D01*
X90462178Y-96748322D01*
X90719053Y-96363880D01*
X90809256Y-95910400D01*
X90719053Y-95456920D01*
X90462178Y-95072478D01*
X90077736Y-94815603D01*
X89624256Y-94725400D01*
X89577824Y-94725400D01*
X89124344Y-94815603D01*
X88739902Y-95072478D01*
X88483027Y-95456920D01*
X88392824Y-95910400D01*
X88269256Y-95910400D01*
X88179053Y-95456920D01*
X87922178Y-95072478D01*
X87537736Y-94815603D01*
X87084256Y-94725400D01*
X87037824Y-94725400D01*
X86584344Y-94815603D01*
X86199902Y-95072478D01*
X85943027Y-95456920D01*
X85852824Y-95910400D01*
X85943027Y-96363880D01*
X86003571Y-96454491D01*
X85410000Y-97048062D01*
X85410000Y-93370400D01*
X85852824Y-93370400D01*
X85943027Y-93823880D01*
X86199902Y-94208322D01*
X86584344Y-94465197D01*
X87037824Y-94555400D01*
X87084256Y-94555400D01*
X87537736Y-94465197D01*
X87922178Y-94208322D01*
X88179053Y-93823880D01*
X88198022Y-93728516D01*
X88471449Y-93728516D01*
X88549058Y-93915926D01*
X88837899Y-94276976D01*
X89242921Y-94500008D01*
X89424040Y-94458373D01*
X89424040Y-93547400D01*
X89778040Y-93547400D01*
X89778040Y-94458373D01*
X89959159Y-94500008D01*
X90364181Y-94276976D01*
X90653022Y-93915926D01*
X90730631Y-93728516D01*
X90687973Y-93547400D01*
X89778040Y-93547400D01*
X89424040Y-93547400D01*
X88514107Y-93547400D01*
X88471449Y-93728516D01*
X88198022Y-93728516D01*
X88269256Y-93370400D01*
X88198023Y-93012284D01*
X88471449Y-93012284D01*
X88514107Y-93193400D01*
X89424040Y-93193400D01*
X89424040Y-92282427D01*
X89778040Y-92282427D01*
X89778040Y-93193400D01*
X90687973Y-93193400D01*
X90730631Y-93012284D01*
X90653022Y-92824874D01*
X90364181Y-92463824D01*
X89959159Y-92240792D01*
X89778040Y-92282427D01*
X89424040Y-92282427D01*
X89242921Y-92240792D01*
X88837899Y-92463824D01*
X88549058Y-92824874D01*
X88471449Y-93012284D01*
X88198023Y-93012284D01*
X88179053Y-92916920D01*
X87922178Y-92532478D01*
X87537736Y-92275603D01*
X87084256Y-92185400D01*
X87037824Y-92185400D01*
X86584344Y-92275603D01*
X86199902Y-92532478D01*
X85943027Y-92916920D01*
X85852824Y-93370400D01*
X85410000Y-93370400D01*
X85410000Y-90830400D01*
X85852824Y-90830400D01*
X85943027Y-91283880D01*
X86199902Y-91668322D01*
X86584344Y-91925197D01*
X87037824Y-92015400D01*
X87084256Y-92015400D01*
X87537736Y-91925197D01*
X87922178Y-91668322D01*
X88179053Y-91283880D01*
X88269256Y-90830400D01*
X88392824Y-90830400D01*
X88483027Y-91283880D01*
X88739902Y-91668322D01*
X89124344Y-91925197D01*
X89577824Y-92015400D01*
X89624256Y-92015400D01*
X90077736Y-91925197D01*
X90462178Y-91668322D01*
X90719053Y-91283880D01*
X90809256Y-90830400D01*
X90719053Y-90376920D01*
X90462178Y-89992478D01*
X90077736Y-89735603D01*
X89624256Y-89645400D01*
X89577824Y-89645400D01*
X89124344Y-89735603D01*
X88739902Y-89992478D01*
X88483027Y-90376920D01*
X88392824Y-90830400D01*
X88269256Y-90830400D01*
X88179053Y-90376920D01*
X87922178Y-89992478D01*
X87537736Y-89735603D01*
X87084256Y-89645400D01*
X87037824Y-89645400D01*
X86584344Y-89735603D01*
X86199902Y-89992478D01*
X85943027Y-90376920D01*
X85852824Y-90830400D01*
X85410000Y-90830400D01*
X85410000Y-84101050D01*
X85464474Y-84101050D01*
X85925552Y-85216943D01*
X86778566Y-86071447D01*
X87893653Y-86534472D01*
X88166192Y-86534710D01*
X87602065Y-87098837D01*
X86211040Y-87098837D01*
X86086896Y-87122196D01*
X85972878Y-87195565D01*
X85896387Y-87307513D01*
X85869477Y-87440400D01*
X85869477Y-89140400D01*
X85892836Y-89264544D01*
X85966205Y-89378562D01*
X86078153Y-89455053D01*
X86211040Y-89481963D01*
X87911040Y-89481963D01*
X88035184Y-89458604D01*
X88149202Y-89385235D01*
X88225693Y-89273287D01*
X88252603Y-89140400D01*
X88252603Y-87749375D01*
X88788278Y-87213700D01*
X89097260Y-87213700D01*
X88739902Y-87452478D01*
X88483027Y-87836920D01*
X88392824Y-88290400D01*
X88483027Y-88743880D01*
X88739902Y-89128322D01*
X89124344Y-89385197D01*
X89577824Y-89475400D01*
X89624256Y-89475400D01*
X90050681Y-89390579D01*
X90962331Y-90302229D01*
X91111565Y-90401945D01*
X91287600Y-90436960D01*
X110299462Y-90436960D01*
X110746280Y-90883778D01*
X110746280Y-91583416D01*
X110733562Y-91564382D01*
X110349120Y-91307507D01*
X109895640Y-91217304D01*
X109442160Y-91307507D01*
X109057718Y-91564382D01*
X108867200Y-91849513D01*
X108867200Y-91622880D01*
X108832185Y-91446846D01*
X108732469Y-91297611D01*
X108635814Y-91200956D01*
X108635910Y-91090725D01*
X108539440Y-90857252D01*
X108360968Y-90678467D01*
X108127663Y-90581591D01*
X107875045Y-90581370D01*
X107641572Y-90677840D01*
X107462787Y-90856312D01*
X107365911Y-91089617D01*
X107365690Y-91342235D01*
X107462160Y-91575708D01*
X107640632Y-91754493D01*
X107873937Y-91851369D01*
X107947200Y-91851433D01*
X107947200Y-98642276D01*
X107869187Y-98720152D01*
X107772311Y-98953457D01*
X107772090Y-99206075D01*
X107868560Y-99439548D01*
X108047032Y-99618333D01*
X108280337Y-99715209D01*
X108532955Y-99715430D01*
X108766428Y-99618960D01*
X108945213Y-99440488D01*
X109042089Y-99207183D01*
X109042310Y-98954565D01*
X108945840Y-98721092D01*
X108867200Y-98642314D01*
X108867200Y-93001527D01*
X109057718Y-93286658D01*
X109442160Y-93543533D01*
X109895640Y-93633736D01*
X110349120Y-93543533D01*
X110733562Y-93286658D01*
X110746280Y-93267624D01*
X110746280Y-93832680D01*
X110781295Y-94008715D01*
X110881011Y-94157949D01*
X111327940Y-94604878D01*
X111327940Y-101235616D01*
X111249927Y-101313492D01*
X111153051Y-101546797D01*
X111152830Y-101799415D01*
X111249300Y-102032888D01*
X111427772Y-102211673D01*
X111661077Y-102308549D01*
X111913695Y-102308770D01*
X112147168Y-102212300D01*
X112225946Y-102133660D01*
X116230400Y-102133660D01*
X116406435Y-102098645D01*
X116555669Y-101998929D01*
X118928164Y-99626434D01*
X119038395Y-99626530D01*
X119271868Y-99530060D01*
X119450653Y-99351588D01*
X119486420Y-99265451D01*
X119486420Y-104863862D01*
X117136896Y-107213386D01*
X117026665Y-107213290D01*
X116793192Y-107309760D01*
X116614407Y-107488232D01*
X116517531Y-107721537D01*
X116517310Y-107974155D01*
X116613780Y-108207628D01*
X116792252Y-108386413D01*
X117025557Y-108483289D01*
X117278175Y-108483510D01*
X117511648Y-108387040D01*
X117690433Y-108208568D01*
X117787309Y-107975263D01*
X117787406Y-107863952D01*
X120271689Y-105379669D01*
X120371405Y-105230435D01*
X120406420Y-105054400D01*
X120406420Y-94856300D01*
X120371405Y-94680266D01*
X120371405Y-94680265D01*
X120271689Y-94531031D01*
X118707203Y-92966545D01*
X118707203Y-92139400D01*
X134469837Y-92139400D01*
X134469837Y-93839400D01*
X134493196Y-93963544D01*
X134566565Y-94077562D01*
X134678513Y-94154053D01*
X134811400Y-94180963D01*
X136511400Y-94180963D01*
X136635544Y-94157604D01*
X136749562Y-94084235D01*
X136826053Y-93972287D01*
X136852963Y-93839400D01*
X136852963Y-92139400D01*
X136829604Y-92015256D01*
X136756235Y-91901238D01*
X136644287Y-91824747D01*
X136511400Y-91797837D01*
X134811400Y-91797837D01*
X134687256Y-91821196D01*
X134573238Y-91894565D01*
X134496747Y-92006513D01*
X134469837Y-92139400D01*
X118707203Y-92139400D01*
X118707203Y-91575520D01*
X118683844Y-91451376D01*
X118610475Y-91337358D01*
X118498527Y-91260867D01*
X118365640Y-91233957D01*
X117975640Y-91233957D01*
X117975640Y-90807516D01*
X134531809Y-90807516D01*
X134609418Y-90994926D01*
X134898259Y-91355976D01*
X135303281Y-91579008D01*
X135484400Y-91537373D01*
X135484400Y-90626400D01*
X135838400Y-90626400D01*
X135838400Y-91537373D01*
X136019519Y-91579008D01*
X136424541Y-91355976D01*
X136713382Y-90994926D01*
X136790991Y-90807516D01*
X136748333Y-90626400D01*
X135838400Y-90626400D01*
X135484400Y-90626400D01*
X134574467Y-90626400D01*
X134531809Y-90807516D01*
X117975640Y-90807516D01*
X117975640Y-90769440D01*
X117940625Y-90593406D01*
X117940625Y-90593405D01*
X117840909Y-90444171D01*
X117488022Y-90091284D01*
X134531809Y-90091284D01*
X134574467Y-90272400D01*
X135484400Y-90272400D01*
X135484400Y-89361427D01*
X135838400Y-89361427D01*
X135838400Y-90272400D01*
X136748333Y-90272400D01*
X136790991Y-90091284D01*
X136713382Y-89903874D01*
X136424541Y-89542824D01*
X136019519Y-89319792D01*
X135838400Y-89361427D01*
X135484400Y-89361427D01*
X135303281Y-89319792D01*
X134898259Y-89542824D01*
X134609418Y-89903874D01*
X134531809Y-90091284D01*
X117488022Y-90091284D01*
X114363670Y-86966932D01*
X114442240Y-86982560D01*
X127010160Y-86982560D01*
X127186195Y-86947545D01*
X127335429Y-86847829D01*
X128412651Y-85770607D01*
X128421040Y-85776213D01*
X128874520Y-85866416D01*
X129328000Y-85776213D01*
X129712442Y-85519338D01*
X129969317Y-85134896D01*
X130059520Y-84681416D01*
X130059520Y-84634984D01*
X129969317Y-84181504D01*
X129712442Y-83797062D01*
X129328000Y-83540187D01*
X128874520Y-83449984D01*
X128421040Y-83540187D01*
X128036598Y-83797062D01*
X127779723Y-84181504D01*
X127689520Y-84634984D01*
X127689520Y-84681416D01*
X127774341Y-85107841D01*
X126819622Y-86062560D01*
X114868338Y-86062560D01*
X114867225Y-86056965D01*
X114767509Y-85907731D01*
X114503349Y-85643571D01*
X114354115Y-85543855D01*
X114178080Y-85508840D01*
X113214044Y-85508840D01*
X113136168Y-85430827D01*
X113082725Y-85408636D01*
X113151809Y-85242263D01*
X113152030Y-84989645D01*
X113055560Y-84756172D01*
X112973096Y-84673563D01*
X112970960Y-84427978D01*
X113590738Y-83808200D01*
X114982957Y-83808200D01*
X114982957Y-85508200D01*
X115006316Y-85632344D01*
X115079685Y-85746362D01*
X115191633Y-85822853D01*
X115324520Y-85849763D01*
X117024520Y-85849763D01*
X117148664Y-85826404D01*
X117262682Y-85753035D01*
X117339173Y-85641087D01*
X117366083Y-85508200D01*
X117366083Y-85016319D01*
X117584912Y-85016319D01*
X117807944Y-85421341D01*
X118168994Y-85710182D01*
X118356404Y-85787791D01*
X118537520Y-85745133D01*
X118537520Y-84835200D01*
X118891520Y-84835200D01*
X118891520Y-85745133D01*
X119072636Y-85787791D01*
X119260046Y-85710182D01*
X119621096Y-85421341D01*
X119844128Y-85016319D01*
X119802493Y-84835200D01*
X118891520Y-84835200D01*
X118537520Y-84835200D01*
X117626547Y-84835200D01*
X117584912Y-85016319D01*
X117366083Y-85016319D01*
X117366083Y-84634984D01*
X120069520Y-84634984D01*
X120069520Y-84681416D01*
X120159723Y-85134896D01*
X120416598Y-85519338D01*
X120801040Y-85776213D01*
X121254520Y-85866416D01*
X121708000Y-85776213D01*
X122092442Y-85519338D01*
X122349317Y-85134896D01*
X122439520Y-84681416D01*
X122439520Y-84634984D01*
X122609520Y-84634984D01*
X122609520Y-84681416D01*
X122699723Y-85134896D01*
X122956598Y-85519338D01*
X123341040Y-85776213D01*
X123794520Y-85866416D01*
X124248000Y-85776213D01*
X124632442Y-85519338D01*
X124889317Y-85134896D01*
X124979520Y-84681416D01*
X124979520Y-84634984D01*
X124889317Y-84181504D01*
X124632442Y-83797062D01*
X124248000Y-83540187D01*
X123794520Y-83449984D01*
X123341040Y-83540187D01*
X122956598Y-83797062D01*
X122699723Y-84181504D01*
X122609520Y-84634984D01*
X122439520Y-84634984D01*
X122349317Y-84181504D01*
X122092442Y-83797062D01*
X121708000Y-83540187D01*
X121254520Y-83449984D01*
X120801040Y-83540187D01*
X120416598Y-83797062D01*
X120159723Y-84181504D01*
X120069520Y-84634984D01*
X117366083Y-84634984D01*
X117366083Y-84300081D01*
X117584912Y-84300081D01*
X117626547Y-84481200D01*
X118537520Y-84481200D01*
X118537520Y-83571267D01*
X118891520Y-83571267D01*
X118891520Y-84481200D01*
X119802493Y-84481200D01*
X119844128Y-84300081D01*
X119621096Y-83895059D01*
X119260046Y-83606218D01*
X119072636Y-83528609D01*
X118891520Y-83571267D01*
X118537520Y-83571267D01*
X118356404Y-83528609D01*
X118168994Y-83606218D01*
X117807944Y-83895059D01*
X117584912Y-84300081D01*
X117366083Y-84300081D01*
X117366083Y-83808200D01*
X117342724Y-83684056D01*
X117269355Y-83570038D01*
X117157407Y-83493547D01*
X117024520Y-83466637D01*
X115324520Y-83466637D01*
X115200376Y-83489996D01*
X115086358Y-83563365D01*
X115009867Y-83675313D01*
X114982957Y-83808200D01*
X113590738Y-83808200D01*
X114376238Y-83022700D01*
X124434562Y-83022700D01*
X125381372Y-83969510D01*
X125239723Y-84181504D01*
X125149520Y-84634984D01*
X125149520Y-84681416D01*
X125239723Y-85134896D01*
X125496598Y-85519338D01*
X125881040Y-85776213D01*
X126334520Y-85866416D01*
X126788000Y-85776213D01*
X127172442Y-85519338D01*
X127429317Y-85134896D01*
X127519520Y-84681416D01*
X127519520Y-84634984D01*
X127429317Y-84181504D01*
X127172442Y-83797062D01*
X126788000Y-83540187D01*
X126334520Y-83449984D01*
X126191392Y-83478454D01*
X124950369Y-82237431D01*
X124801135Y-82137715D01*
X124625100Y-82102700D01*
X114185700Y-82102700D01*
X114009665Y-82137715D01*
X113860431Y-82237431D01*
X112184031Y-83913831D01*
X112182899Y-83915526D01*
X112181215Y-83916672D01*
X112133098Y-83990056D01*
X112084315Y-84063065D01*
X112083917Y-84065064D01*
X112082800Y-84066768D01*
X112066418Y-84153039D01*
X112049300Y-84239100D01*
X112049697Y-84241097D01*
X112049317Y-84243100D01*
X112053126Y-84681143D01*
X111978907Y-84755232D01*
X111882031Y-84988537D01*
X111881810Y-85241155D01*
X111978280Y-85474628D01*
X112156752Y-85653413D01*
X112210195Y-85675604D01*
X112141111Y-85841977D01*
X112140890Y-86094595D01*
X112223159Y-86293700D01*
X89686313Y-86293700D01*
X90216943Y-86074448D01*
X91071447Y-85221434D01*
X91534472Y-84106347D01*
X91535526Y-82898950D01*
X91074448Y-81783057D01*
X90221434Y-80928553D01*
X89106347Y-80465528D01*
X87898950Y-80464474D01*
X86783057Y-80925552D01*
X85928553Y-81778566D01*
X85465528Y-82893653D01*
X85464474Y-84101050D01*
X85410000Y-84101050D01*
X85410000Y-83114047D01*
X85461035Y-82841860D01*
X85479005Y-82817915D01*
X85488185Y-82791405D01*
X85690348Y-81898519D01*
X86003756Y-81429471D01*
X86306272Y-81086074D01*
X86748959Y-80790280D01*
X87203180Y-80576529D01*
X87797686Y-80458275D01*
X88556865Y-80431637D01*
X106198212Y-80410000D01*
X138429325Y-80410000D01*
X139531954Y-80643891D01*
G36*
X117055640Y-90959978D02*
X117055640Y-91233957D01*
X116665640Y-91233957D01*
X116541496Y-91257316D01*
X116427478Y-91330685D01*
X116350987Y-91442633D01*
X116324077Y-91575520D01*
X116324077Y-93275520D01*
X116347436Y-93399664D01*
X116420805Y-93513682D01*
X116532753Y-93590173D01*
X116665640Y-93617083D01*
X118056665Y-93617083D01*
X119486420Y-95046838D01*
X119486420Y-98717236D01*
X119451280Y-98632192D01*
X119272808Y-98453407D01*
X119039503Y-98356531D01*
X118786885Y-98356310D01*
X118553412Y-98452780D01*
X118374627Y-98631252D01*
X118277751Y-98864557D01*
X118277654Y-98975868D01*
X116039862Y-101213660D01*
X112247940Y-101213660D01*
X112247940Y-94414340D01*
X112212925Y-94238306D01*
X112113209Y-94089071D01*
X111666280Y-93642142D01*
X111666280Y-93332469D01*
X111982160Y-93543533D01*
X112435640Y-93633736D01*
X112889120Y-93543533D01*
X113273562Y-93286658D01*
X113530437Y-92902216D01*
X113554023Y-92783639D01*
X113846032Y-92783639D01*
X114069064Y-93188661D01*
X114430114Y-93477502D01*
X114617524Y-93555111D01*
X114798640Y-93512453D01*
X114798640Y-92602520D01*
X115152640Y-92602520D01*
X115152640Y-93512453D01*
X115333756Y-93555111D01*
X115521166Y-93477502D01*
X115882216Y-93188661D01*
X116105248Y-92783639D01*
X116063613Y-92602520D01*
X115152640Y-92602520D01*
X114798640Y-92602520D01*
X113887667Y-92602520D01*
X113846032Y-92783639D01*
X113554023Y-92783639D01*
X113620640Y-92448736D01*
X113620640Y-92402304D01*
X113554024Y-92067401D01*
X113846032Y-92067401D01*
X113887667Y-92248520D01*
X114798640Y-92248520D01*
X114798640Y-91338587D01*
X115152640Y-91338587D01*
X115152640Y-92248520D01*
X116063613Y-92248520D01*
X116105248Y-92067401D01*
X115882216Y-91662379D01*
X115521166Y-91373538D01*
X115333756Y-91295929D01*
X115152640Y-91338587D01*
X114798640Y-91338587D01*
X114617524Y-91295929D01*
X114430114Y-91373538D01*
X114069064Y-91662379D01*
X113846032Y-92067401D01*
X113554024Y-92067401D01*
X113530437Y-91948824D01*
X113273562Y-91564382D01*
X112889120Y-91307507D01*
X112435640Y-91217304D01*
X111982160Y-91307507D01*
X111666280Y-91518571D01*
X111666280Y-90693240D01*
X111631265Y-90517205D01*
X111531549Y-90367971D01*
X111162269Y-89998691D01*
X111275948Y-89951720D01*
X111454733Y-89773248D01*
X111551609Y-89539943D01*
X111551830Y-89287325D01*
X111455360Y-89053852D01*
X111276888Y-88875067D01*
X111043583Y-88778191D01*
X110790965Y-88777970D01*
X110557492Y-88874440D01*
X110378707Y-89052912D01*
X110281831Y-89286217D01*
X110281734Y-89397528D01*
X110164731Y-89514531D01*
X110163108Y-89516960D01*
X91478138Y-89516960D01*
X90713447Y-88752269D01*
X90719053Y-88743880D01*
X90809256Y-88290400D01*
X90719053Y-87836920D01*
X90462178Y-87452478D01*
X90104820Y-87213700D01*
X113309362Y-87213700D01*
X117055640Y-90959978D01*
X117055640Y-90959978D01*
G37*
X117055640Y-90959978D02*
X117055640Y-91233957D01*
X116665640Y-91233957D01*
X116541496Y-91257316D01*
X116427478Y-91330685D01*
X116350987Y-91442633D01*
X116324077Y-91575520D01*
X116324077Y-93275520D01*
X116347436Y-93399664D01*
X116420805Y-93513682D01*
X116532753Y-93590173D01*
X116665640Y-93617083D01*
X118056665Y-93617083D01*
X119486420Y-95046838D01*
X119486420Y-98717236D01*
X119451280Y-98632192D01*
X119272808Y-98453407D01*
X119039503Y-98356531D01*
X118786885Y-98356310D01*
X118553412Y-98452780D01*
X118374627Y-98631252D01*
X118277751Y-98864557D01*
X118277654Y-98975868D01*
X116039862Y-101213660D01*
X112247940Y-101213660D01*
X112247940Y-94414340D01*
X112212925Y-94238306D01*
X112113209Y-94089071D01*
X111666280Y-93642142D01*
X111666280Y-93332469D01*
X111982160Y-93543533D01*
X112435640Y-93633736D01*
X112889120Y-93543533D01*
X113273562Y-93286658D01*
X113530437Y-92902216D01*
X113554023Y-92783639D01*
X113846032Y-92783639D01*
X114069064Y-93188661D01*
X114430114Y-93477502D01*
X114617524Y-93555111D01*
X114798640Y-93512453D01*
X114798640Y-92602520D01*
X115152640Y-92602520D01*
X115152640Y-93512453D01*
X115333756Y-93555111D01*
X115521166Y-93477502D01*
X115882216Y-93188661D01*
X116105248Y-92783639D01*
X116063613Y-92602520D01*
X115152640Y-92602520D01*
X114798640Y-92602520D01*
X113887667Y-92602520D01*
X113846032Y-92783639D01*
X113554023Y-92783639D01*
X113620640Y-92448736D01*
X113620640Y-92402304D01*
X113554024Y-92067401D01*
X113846032Y-92067401D01*
X113887667Y-92248520D01*
X114798640Y-92248520D01*
X114798640Y-91338587D01*
X115152640Y-91338587D01*
X115152640Y-92248520D01*
X116063613Y-92248520D01*
X116105248Y-92067401D01*
X115882216Y-91662379D01*
X115521166Y-91373538D01*
X115333756Y-91295929D01*
X115152640Y-91338587D01*
X114798640Y-91338587D01*
X114617524Y-91295929D01*
X114430114Y-91373538D01*
X114069064Y-91662379D01*
X113846032Y-92067401D01*
X113554024Y-92067401D01*
X113530437Y-91948824D01*
X113273562Y-91564382D01*
X112889120Y-91307507D01*
X112435640Y-91217304D01*
X111982160Y-91307507D01*
X111666280Y-91518571D01*
X111666280Y-90693240D01*
X111631265Y-90517205D01*
X111531549Y-90367971D01*
X111162269Y-89998691D01*
X111275948Y-89951720D01*
X111454733Y-89773248D01*
X111551609Y-89539943D01*
X111551830Y-89287325D01*
X111455360Y-89053852D01*
X111276888Y-88875067D01*
X111043583Y-88778191D01*
X110790965Y-88777970D01*
X110557492Y-88874440D01*
X110378707Y-89052912D01*
X110281831Y-89286217D01*
X110281734Y-89397528D01*
X110164731Y-89514531D01*
X110163108Y-89516960D01*
X91478138Y-89516960D01*
X90713447Y-88752269D01*
X90719053Y-88743880D01*
X90809256Y-88290400D01*
X90719053Y-87836920D01*
X90462178Y-87452478D01*
X90104820Y-87213700D01*
X113309362Y-87213700D01*
X117055640Y-90959978D01*
G36*
X88483027Y-105616920D02*
X88392824Y-106070400D01*
X88483027Y-106523880D01*
X88739902Y-106908322D01*
X89124344Y-107165197D01*
X89577824Y-107255400D01*
X89624256Y-107255400D01*
X90077736Y-107165197D01*
X90462178Y-106908322D01*
X90714696Y-106530400D01*
X96886729Y-106530400D01*
X101513057Y-111209572D01*
X101551512Y-114480668D01*
X101569721Y-114566903D01*
X101587339Y-114653318D01*
X101588256Y-114654676D01*
X101588594Y-114656278D01*
X101638419Y-114728981D01*
X101687765Y-114802076D01*
X107441908Y-120501630D01*
X107443896Y-122772659D01*
X107366267Y-122850152D01*
X107269391Y-123083457D01*
X107269170Y-123336075D01*
X107365640Y-123569548D01*
X107544112Y-123748333D01*
X107777417Y-123845209D01*
X108030035Y-123845430D01*
X108263508Y-123748960D01*
X108442293Y-123570488D01*
X108539169Y-123337183D01*
X108539390Y-123084565D01*
X108514941Y-123025394D01*
X108999250Y-123025394D01*
X109768640Y-123794784D01*
X110538030Y-123025394D01*
X115499250Y-123025394D01*
X116268640Y-123794784D01*
X117038030Y-123025394D01*
X116918717Y-122849216D01*
X116411588Y-122691473D01*
X115882696Y-122739808D01*
X115618563Y-122849216D01*
X115499250Y-123025394D01*
X110538030Y-123025394D01*
X110418717Y-122849216D01*
X109911588Y-122691473D01*
X109382696Y-122739808D01*
X109118563Y-122849216D01*
X108999250Y-123025394D01*
X108514941Y-123025394D01*
X108442920Y-122851092D01*
X108363896Y-122771930D01*
X108361740Y-120309237D01*
X108361561Y-120308343D01*
X108361735Y-120307448D01*
X108343995Y-120220431D01*
X108326571Y-120133234D01*
X108326063Y-120132475D01*
X108325881Y-120131582D01*
X108276199Y-120057990D01*
X108226724Y-119984086D01*
X108225964Y-119983579D01*
X108225455Y-119982825D01*
X102469230Y-114281208D01*
X102468044Y-114180282D01*
X108158131Y-119870369D01*
X108307365Y-119970085D01*
X108483400Y-120005100D01*
X108514236Y-120005100D01*
X108636222Y-120300329D01*
X109011436Y-120676198D01*
X109501927Y-120879868D01*
X110033023Y-120880331D01*
X110523869Y-120677518D01*
X110899738Y-120302304D01*
X111023148Y-120005100D01*
X115014236Y-120005100D01*
X115136222Y-120300329D01*
X115511436Y-120676198D01*
X116001927Y-120879868D01*
X116533023Y-120880331D01*
X117023869Y-120677518D01*
X117399738Y-120302304D01*
X117603408Y-119811813D01*
X117603871Y-119280717D01*
X117401058Y-118789871D01*
X117025844Y-118414002D01*
X116535353Y-118210332D01*
X116004257Y-118209869D01*
X115513411Y-118412682D01*
X115137542Y-118787896D01*
X115014132Y-119085100D01*
X111023044Y-119085100D01*
X110901058Y-118789871D01*
X110525844Y-118414002D01*
X110035353Y-118210332D01*
X109504257Y-118209869D01*
X109013411Y-118412682D01*
X108637542Y-118787896D01*
X108561020Y-118972182D01*
X103215700Y-113626862D01*
X103215700Y-113619838D01*
X106430931Y-116835069D01*
X106580165Y-116934785D01*
X106756200Y-116969800D01*
X117119362Y-116969800D01*
X118602500Y-118452938D01*
X118602500Y-125689462D01*
X116815129Y-127476833D01*
X116520113Y-127354332D01*
X115989017Y-127353869D01*
X115498171Y-127556682D01*
X115122302Y-127931896D01*
X114998892Y-128229100D01*
X111007804Y-128229100D01*
X110885818Y-127933871D01*
X110510604Y-127558002D01*
X110020113Y-127354332D01*
X109489017Y-127353869D01*
X108998171Y-127556682D01*
X108622302Y-127931896D01*
X108418632Y-128422387D01*
X108418169Y-128953483D01*
X108620982Y-129444329D01*
X108926679Y-129750560D01*
X106107044Y-129750560D01*
X106335498Y-129522504D01*
X106539168Y-129032013D01*
X106539631Y-128500917D01*
X106336818Y-128010071D01*
X105961604Y-127634202D01*
X105471113Y-127430532D01*
X104940017Y-127430069D01*
X104449171Y-127632882D01*
X104073302Y-128008096D01*
X103949892Y-128305300D01*
X99958804Y-128305300D01*
X99836818Y-128010071D01*
X99461604Y-127634202D01*
X98971113Y-127430532D01*
X98440017Y-127430069D01*
X97949171Y-127632882D01*
X97573302Y-128008096D01*
X97449892Y-128305300D01*
X92717658Y-128305300D01*
X92270840Y-127858482D01*
X92270840Y-125064806D01*
X108999250Y-125064806D01*
X109118563Y-125240984D01*
X109625692Y-125398727D01*
X110154584Y-125350392D01*
X110418717Y-125240984D01*
X110538030Y-125064806D01*
X115499250Y-125064806D01*
X115618563Y-125240984D01*
X116125692Y-125398727D01*
X116654584Y-125350392D01*
X116918717Y-125240984D01*
X117038030Y-125064806D01*
X116268640Y-124295416D01*
X115499250Y-125064806D01*
X110538030Y-125064806D01*
X109768640Y-124295416D01*
X108999250Y-125064806D01*
X92270840Y-125064806D01*
X92270840Y-123902152D01*
X108415013Y-123902152D01*
X108463348Y-124431044D01*
X108572756Y-124695177D01*
X108748934Y-124814490D01*
X109518324Y-124045100D01*
X110018956Y-124045100D01*
X110788346Y-124814490D01*
X110964524Y-124695177D01*
X111122267Y-124188048D01*
X111096140Y-123902152D01*
X114915013Y-123902152D01*
X114963348Y-124431044D01*
X115072756Y-124695177D01*
X115248934Y-124814490D01*
X116018324Y-124045100D01*
X116518956Y-124045100D01*
X117288346Y-124814490D01*
X117464524Y-124695177D01*
X117622267Y-124188048D01*
X117573932Y-123659156D01*
X117464524Y-123395023D01*
X117288346Y-123275710D01*
X116518956Y-124045100D01*
X116018324Y-124045100D01*
X115248934Y-123275710D01*
X115072756Y-123395023D01*
X114915013Y-123902152D01*
X111096140Y-123902152D01*
X111073932Y-123659156D01*
X110964524Y-123395023D01*
X110788346Y-123275710D01*
X110018956Y-124045100D01*
X109518324Y-124045100D01*
X108748934Y-123275710D01*
X108572756Y-123395023D01*
X108415013Y-123902152D01*
X92270840Y-123902152D01*
X92270840Y-123522740D01*
X92235825Y-123346706D01*
X92136109Y-123197471D01*
X91188689Y-122250051D01*
X91039455Y-122150335D01*
X90863420Y-122115320D01*
X90484229Y-122115320D01*
X90719053Y-121763880D01*
X90809256Y-121310400D01*
X90719053Y-120856920D01*
X90462178Y-120472478D01*
X90077736Y-120215603D01*
X89624256Y-120125400D01*
X89577824Y-120125400D01*
X89124344Y-120215603D01*
X88739902Y-120472478D01*
X88483027Y-120856920D01*
X88392824Y-121310400D01*
X88483027Y-121763880D01*
X88717851Y-122115320D01*
X87944229Y-122115320D01*
X88179053Y-121763880D01*
X88269256Y-121310400D01*
X88179053Y-120856920D01*
X87922178Y-120472478D01*
X87537736Y-120215603D01*
X87084256Y-120125400D01*
X87037824Y-120125400D01*
X86584344Y-120215603D01*
X86199902Y-120472478D01*
X86078320Y-120654439D01*
X86078320Y-119426361D01*
X86199902Y-119608322D01*
X86584344Y-119865197D01*
X87037824Y-119955400D01*
X87084256Y-119955400D01*
X87537736Y-119865197D01*
X87922178Y-119608322D01*
X88179053Y-119223880D01*
X88269256Y-118770400D01*
X88392824Y-118770400D01*
X88483027Y-119223880D01*
X88739902Y-119608322D01*
X89124344Y-119865197D01*
X89577824Y-119955400D01*
X89624256Y-119955400D01*
X90077736Y-119865197D01*
X90462178Y-119608322D01*
X90719053Y-119223880D01*
X90809256Y-118770400D01*
X90719053Y-118316920D01*
X90462178Y-117932478D01*
X90077736Y-117675603D01*
X89624256Y-117585400D01*
X89577824Y-117585400D01*
X89124344Y-117675603D01*
X88739902Y-117932478D01*
X88483027Y-118316920D01*
X88392824Y-118770400D01*
X88269256Y-118770400D01*
X88179053Y-118316920D01*
X87922178Y-117932478D01*
X87537736Y-117675603D01*
X87084256Y-117585400D01*
X87037824Y-117585400D01*
X86584344Y-117675603D01*
X86199902Y-117932478D01*
X86078320Y-118114439D01*
X86078320Y-116886361D01*
X86199902Y-117068322D01*
X86584344Y-117325197D01*
X87037824Y-117415400D01*
X87084256Y-117415400D01*
X87537736Y-117325197D01*
X87922178Y-117068322D01*
X88179053Y-116683880D01*
X88269256Y-116230400D01*
X88392824Y-116230400D01*
X88483027Y-116683880D01*
X88739902Y-117068322D01*
X89124344Y-117325197D01*
X89577824Y-117415400D01*
X89624256Y-117415400D01*
X90077736Y-117325197D01*
X90462178Y-117068322D01*
X90719053Y-116683880D01*
X90809256Y-116230400D01*
X90719053Y-115776920D01*
X90462178Y-115392478D01*
X90077736Y-115135603D01*
X89624256Y-115045400D01*
X89577824Y-115045400D01*
X89124344Y-115135603D01*
X88739902Y-115392478D01*
X88483027Y-115776920D01*
X88392824Y-116230400D01*
X88269256Y-116230400D01*
X88179053Y-115776920D01*
X87922178Y-115392478D01*
X87537736Y-115135603D01*
X87084256Y-115045400D01*
X87037824Y-115045400D01*
X86584344Y-115135603D01*
X86199902Y-115392478D01*
X86078320Y-115574439D01*
X86078320Y-114346361D01*
X86199902Y-114528322D01*
X86584344Y-114785197D01*
X87037824Y-114875400D01*
X87084256Y-114875400D01*
X87537736Y-114785197D01*
X87922178Y-114528322D01*
X88179053Y-114143880D01*
X88269256Y-113690400D01*
X88392824Y-113690400D01*
X88483027Y-114143880D01*
X88739902Y-114528322D01*
X89124344Y-114785197D01*
X89577824Y-114875400D01*
X89624256Y-114875400D01*
X90077736Y-114785197D01*
X90462178Y-114528322D01*
X90719053Y-114143880D01*
X90809256Y-113690400D01*
X90719053Y-113236920D01*
X90462178Y-112852478D01*
X90077736Y-112595603D01*
X89624256Y-112505400D01*
X89577824Y-112505400D01*
X89124344Y-112595603D01*
X88739902Y-112852478D01*
X88483027Y-113236920D01*
X88392824Y-113690400D01*
X88269256Y-113690400D01*
X88179053Y-113236920D01*
X87922178Y-112852478D01*
X87537736Y-112595603D01*
X87084256Y-112505400D01*
X87037824Y-112505400D01*
X86584344Y-112595603D01*
X86199902Y-112852478D01*
X86078320Y-113034439D01*
X86078320Y-111806361D01*
X86199902Y-111988322D01*
X86584344Y-112245197D01*
X87037824Y-112335400D01*
X87084256Y-112335400D01*
X87537736Y-112245197D01*
X87922178Y-111988322D01*
X88179053Y-111603880D01*
X88269256Y-111150400D01*
X88392824Y-111150400D01*
X88483027Y-111603880D01*
X88739902Y-111988322D01*
X89124344Y-112245197D01*
X89577824Y-112335400D01*
X89624256Y-112335400D01*
X90077736Y-112245197D01*
X90462178Y-111988322D01*
X90719053Y-111603880D01*
X90809256Y-111150400D01*
X90719053Y-110696920D01*
X90462178Y-110312478D01*
X90077736Y-110055603D01*
X89624256Y-109965400D01*
X89577824Y-109965400D01*
X89124344Y-110055603D01*
X88739902Y-110312478D01*
X88483027Y-110696920D01*
X88392824Y-111150400D01*
X88269256Y-111150400D01*
X88179053Y-110696920D01*
X87922178Y-110312478D01*
X87537736Y-110055603D01*
X87084256Y-109965400D01*
X87037824Y-109965400D01*
X86584344Y-110055603D01*
X86199902Y-110312478D01*
X86078320Y-110494439D01*
X86078320Y-109266361D01*
X86199902Y-109448322D01*
X86584344Y-109705197D01*
X87037824Y-109795400D01*
X87084256Y-109795400D01*
X87537736Y-109705197D01*
X87922178Y-109448322D01*
X88179053Y-109063880D01*
X88269256Y-108610400D01*
X88392824Y-108610400D01*
X88483027Y-109063880D01*
X88739902Y-109448322D01*
X89124344Y-109705197D01*
X89577824Y-109795400D01*
X89624256Y-109795400D01*
X90077736Y-109705197D01*
X90462178Y-109448322D01*
X90719053Y-109063880D01*
X90809256Y-108610400D01*
X90719053Y-108156920D01*
X90462178Y-107772478D01*
X90077736Y-107515603D01*
X89624256Y-107425400D01*
X89577824Y-107425400D01*
X89124344Y-107515603D01*
X88739902Y-107772478D01*
X88483027Y-108156920D01*
X88392824Y-108610400D01*
X88269256Y-108610400D01*
X88179053Y-108156920D01*
X87922178Y-107772478D01*
X87537736Y-107515603D01*
X87084256Y-107425400D01*
X87037824Y-107425400D01*
X86584344Y-107515603D01*
X86199902Y-107772478D01*
X86078320Y-107954439D01*
X86078320Y-106726361D01*
X86199902Y-106908322D01*
X86584344Y-107165197D01*
X87037824Y-107255400D01*
X87084256Y-107255400D01*
X87537736Y-107165197D01*
X87922178Y-106908322D01*
X88179053Y-106523880D01*
X88269256Y-106070400D01*
X88179053Y-105616920D01*
X88065605Y-105447133D01*
X88277738Y-105235000D01*
X88738217Y-105235000D01*
X88483027Y-105616920D01*
X88483027Y-105616920D01*
G37*
X88483027Y-105616920D02*
X88392824Y-106070400D01*
X88483027Y-106523880D01*
X88739902Y-106908322D01*
X89124344Y-107165197D01*
X89577824Y-107255400D01*
X89624256Y-107255400D01*
X90077736Y-107165197D01*
X90462178Y-106908322D01*
X90714696Y-106530400D01*
X96886729Y-106530400D01*
X101513057Y-111209572D01*
X101551512Y-114480668D01*
X101569721Y-114566903D01*
X101587339Y-114653318D01*
X101588256Y-114654676D01*
X101588594Y-114656278D01*
X101638419Y-114728981D01*
X101687765Y-114802076D01*
X107441908Y-120501630D01*
X107443896Y-122772659D01*
X107366267Y-122850152D01*
X107269391Y-123083457D01*
X107269170Y-123336075D01*
X107365640Y-123569548D01*
X107544112Y-123748333D01*
X107777417Y-123845209D01*
X108030035Y-123845430D01*
X108263508Y-123748960D01*
X108442293Y-123570488D01*
X108539169Y-123337183D01*
X108539390Y-123084565D01*
X108514941Y-123025394D01*
X108999250Y-123025394D01*
X109768640Y-123794784D01*
X110538030Y-123025394D01*
X115499250Y-123025394D01*
X116268640Y-123794784D01*
X117038030Y-123025394D01*
X116918717Y-122849216D01*
X116411588Y-122691473D01*
X115882696Y-122739808D01*
X115618563Y-122849216D01*
X115499250Y-123025394D01*
X110538030Y-123025394D01*
X110418717Y-122849216D01*
X109911588Y-122691473D01*
X109382696Y-122739808D01*
X109118563Y-122849216D01*
X108999250Y-123025394D01*
X108514941Y-123025394D01*
X108442920Y-122851092D01*
X108363896Y-122771930D01*
X108361740Y-120309237D01*
X108361561Y-120308343D01*
X108361735Y-120307448D01*
X108343995Y-120220431D01*
X108326571Y-120133234D01*
X108326063Y-120132475D01*
X108325881Y-120131582D01*
X108276199Y-120057990D01*
X108226724Y-119984086D01*
X108225964Y-119983579D01*
X108225455Y-119982825D01*
X102469230Y-114281208D01*
X102468044Y-114180282D01*
X108158131Y-119870369D01*
X108307365Y-119970085D01*
X108483400Y-120005100D01*
X108514236Y-120005100D01*
X108636222Y-120300329D01*
X109011436Y-120676198D01*
X109501927Y-120879868D01*
X110033023Y-120880331D01*
X110523869Y-120677518D01*
X110899738Y-120302304D01*
X111023148Y-120005100D01*
X115014236Y-120005100D01*
X115136222Y-120300329D01*
X115511436Y-120676198D01*
X116001927Y-120879868D01*
X116533023Y-120880331D01*
X117023869Y-120677518D01*
X117399738Y-120302304D01*
X117603408Y-119811813D01*
X117603871Y-119280717D01*
X117401058Y-118789871D01*
X117025844Y-118414002D01*
X116535353Y-118210332D01*
X116004257Y-118209869D01*
X115513411Y-118412682D01*
X115137542Y-118787896D01*
X115014132Y-119085100D01*
X111023044Y-119085100D01*
X110901058Y-118789871D01*
X110525844Y-118414002D01*
X110035353Y-118210332D01*
X109504257Y-118209869D01*
X109013411Y-118412682D01*
X108637542Y-118787896D01*
X108561020Y-118972182D01*
X103215700Y-113626862D01*
X103215700Y-113619838D01*
X106430931Y-116835069D01*
X106580165Y-116934785D01*
X106756200Y-116969800D01*
X117119362Y-116969800D01*
X118602500Y-118452938D01*
X118602500Y-125689462D01*
X116815129Y-127476833D01*
X116520113Y-127354332D01*
X115989017Y-127353869D01*
X115498171Y-127556682D01*
X115122302Y-127931896D01*
X114998892Y-128229100D01*
X111007804Y-128229100D01*
X110885818Y-127933871D01*
X110510604Y-127558002D01*
X110020113Y-127354332D01*
X109489017Y-127353869D01*
X108998171Y-127556682D01*
X108622302Y-127931896D01*
X108418632Y-128422387D01*
X108418169Y-128953483D01*
X108620982Y-129444329D01*
X108926679Y-129750560D01*
X106107044Y-129750560D01*
X106335498Y-129522504D01*
X106539168Y-129032013D01*
X106539631Y-128500917D01*
X106336818Y-128010071D01*
X105961604Y-127634202D01*
X105471113Y-127430532D01*
X104940017Y-127430069D01*
X104449171Y-127632882D01*
X104073302Y-128008096D01*
X103949892Y-128305300D01*
X99958804Y-128305300D01*
X99836818Y-128010071D01*
X99461604Y-127634202D01*
X98971113Y-127430532D01*
X98440017Y-127430069D01*
X97949171Y-127632882D01*
X97573302Y-128008096D01*
X97449892Y-128305300D01*
X92717658Y-128305300D01*
X92270840Y-127858482D01*
X92270840Y-125064806D01*
X108999250Y-125064806D01*
X109118563Y-125240984D01*
X109625692Y-125398727D01*
X110154584Y-125350392D01*
X110418717Y-125240984D01*
X110538030Y-125064806D01*
X115499250Y-125064806D01*
X115618563Y-125240984D01*
X116125692Y-125398727D01*
X116654584Y-125350392D01*
X116918717Y-125240984D01*
X117038030Y-125064806D01*
X116268640Y-124295416D01*
X115499250Y-125064806D01*
X110538030Y-125064806D01*
X109768640Y-124295416D01*
X108999250Y-125064806D01*
X92270840Y-125064806D01*
X92270840Y-123902152D01*
X108415013Y-123902152D01*
X108463348Y-124431044D01*
X108572756Y-124695177D01*
X108748934Y-124814490D01*
X109518324Y-124045100D01*
X110018956Y-124045100D01*
X110788346Y-124814490D01*
X110964524Y-124695177D01*
X111122267Y-124188048D01*
X111096140Y-123902152D01*
X114915013Y-123902152D01*
X114963348Y-124431044D01*
X115072756Y-124695177D01*
X115248934Y-124814490D01*
X116018324Y-124045100D01*
X116518956Y-124045100D01*
X117288346Y-124814490D01*
X117464524Y-124695177D01*
X117622267Y-124188048D01*
X117573932Y-123659156D01*
X117464524Y-123395023D01*
X117288346Y-123275710D01*
X116518956Y-124045100D01*
X116018324Y-124045100D01*
X115248934Y-123275710D01*
X115072756Y-123395023D01*
X114915013Y-123902152D01*
X111096140Y-123902152D01*
X111073932Y-123659156D01*
X110964524Y-123395023D01*
X110788346Y-123275710D01*
X110018956Y-124045100D01*
X109518324Y-124045100D01*
X108748934Y-123275710D01*
X108572756Y-123395023D01*
X108415013Y-123902152D01*
X92270840Y-123902152D01*
X92270840Y-123522740D01*
X92235825Y-123346706D01*
X92136109Y-123197471D01*
X91188689Y-122250051D01*
X91039455Y-122150335D01*
X90863420Y-122115320D01*
X90484229Y-122115320D01*
X90719053Y-121763880D01*
X90809256Y-121310400D01*
X90719053Y-120856920D01*
X90462178Y-120472478D01*
X90077736Y-120215603D01*
X89624256Y-120125400D01*
X89577824Y-120125400D01*
X89124344Y-120215603D01*
X88739902Y-120472478D01*
X88483027Y-120856920D01*
X88392824Y-121310400D01*
X88483027Y-121763880D01*
X88717851Y-122115320D01*
X87944229Y-122115320D01*
X88179053Y-121763880D01*
X88269256Y-121310400D01*
X88179053Y-120856920D01*
X87922178Y-120472478D01*
X87537736Y-120215603D01*
X87084256Y-120125400D01*
X87037824Y-120125400D01*
X86584344Y-120215603D01*
X86199902Y-120472478D01*
X86078320Y-120654439D01*
X86078320Y-119426361D01*
X86199902Y-119608322D01*
X86584344Y-119865197D01*
X87037824Y-119955400D01*
X87084256Y-119955400D01*
X87537736Y-119865197D01*
X87922178Y-119608322D01*
X88179053Y-119223880D01*
X88269256Y-118770400D01*
X88392824Y-118770400D01*
X88483027Y-119223880D01*
X88739902Y-119608322D01*
X89124344Y-119865197D01*
X89577824Y-119955400D01*
X89624256Y-119955400D01*
X90077736Y-119865197D01*
X90462178Y-119608322D01*
X90719053Y-119223880D01*
X90809256Y-118770400D01*
X90719053Y-118316920D01*
X90462178Y-117932478D01*
X90077736Y-117675603D01*
X89624256Y-117585400D01*
X89577824Y-117585400D01*
X89124344Y-117675603D01*
X88739902Y-117932478D01*
X88483027Y-118316920D01*
X88392824Y-118770400D01*
X88269256Y-118770400D01*
X88179053Y-118316920D01*
X87922178Y-117932478D01*
X87537736Y-117675603D01*
X87084256Y-117585400D01*
X87037824Y-117585400D01*
X86584344Y-117675603D01*
X86199902Y-117932478D01*
X86078320Y-118114439D01*
X86078320Y-116886361D01*
X86199902Y-117068322D01*
X86584344Y-117325197D01*
X87037824Y-117415400D01*
X87084256Y-117415400D01*
X87537736Y-117325197D01*
X87922178Y-117068322D01*
X88179053Y-116683880D01*
X88269256Y-116230400D01*
X88392824Y-116230400D01*
X88483027Y-116683880D01*
X88739902Y-117068322D01*
X89124344Y-117325197D01*
X89577824Y-117415400D01*
X89624256Y-117415400D01*
X90077736Y-117325197D01*
X90462178Y-117068322D01*
X90719053Y-116683880D01*
X90809256Y-116230400D01*
X90719053Y-115776920D01*
X90462178Y-115392478D01*
X90077736Y-115135603D01*
X89624256Y-115045400D01*
X89577824Y-115045400D01*
X89124344Y-115135603D01*
X88739902Y-115392478D01*
X88483027Y-115776920D01*
X88392824Y-116230400D01*
X88269256Y-116230400D01*
X88179053Y-115776920D01*
X87922178Y-115392478D01*
X87537736Y-115135603D01*
X87084256Y-115045400D01*
X87037824Y-115045400D01*
X86584344Y-115135603D01*
X86199902Y-115392478D01*
X86078320Y-115574439D01*
X86078320Y-114346361D01*
X86199902Y-114528322D01*
X86584344Y-114785197D01*
X87037824Y-114875400D01*
X87084256Y-114875400D01*
X87537736Y-114785197D01*
X87922178Y-114528322D01*
X88179053Y-114143880D01*
X88269256Y-113690400D01*
X88392824Y-113690400D01*
X88483027Y-114143880D01*
X88739902Y-114528322D01*
X89124344Y-114785197D01*
X89577824Y-114875400D01*
X89624256Y-114875400D01*
X90077736Y-114785197D01*
X90462178Y-114528322D01*
X90719053Y-114143880D01*
X90809256Y-113690400D01*
X90719053Y-113236920D01*
X90462178Y-112852478D01*
X90077736Y-112595603D01*
X89624256Y-112505400D01*
X89577824Y-112505400D01*
X89124344Y-112595603D01*
X88739902Y-112852478D01*
X88483027Y-113236920D01*
X88392824Y-113690400D01*
X88269256Y-113690400D01*
X88179053Y-113236920D01*
X87922178Y-112852478D01*
X87537736Y-112595603D01*
X87084256Y-112505400D01*
X87037824Y-112505400D01*
X86584344Y-112595603D01*
X86199902Y-112852478D01*
X86078320Y-113034439D01*
X86078320Y-111806361D01*
X86199902Y-111988322D01*
X86584344Y-112245197D01*
X87037824Y-112335400D01*
X87084256Y-112335400D01*
X87537736Y-112245197D01*
X87922178Y-111988322D01*
X88179053Y-111603880D01*
X88269256Y-111150400D01*
X88392824Y-111150400D01*
X88483027Y-111603880D01*
X88739902Y-111988322D01*
X89124344Y-112245197D01*
X89577824Y-112335400D01*
X89624256Y-112335400D01*
X90077736Y-112245197D01*
X90462178Y-111988322D01*
X90719053Y-111603880D01*
X90809256Y-111150400D01*
X90719053Y-110696920D01*
X90462178Y-110312478D01*
X90077736Y-110055603D01*
X89624256Y-109965400D01*
X89577824Y-109965400D01*
X89124344Y-110055603D01*
X88739902Y-110312478D01*
X88483027Y-110696920D01*
X88392824Y-111150400D01*
X88269256Y-111150400D01*
X88179053Y-110696920D01*
X87922178Y-110312478D01*
X87537736Y-110055603D01*
X87084256Y-109965400D01*
X87037824Y-109965400D01*
X86584344Y-110055603D01*
X86199902Y-110312478D01*
X86078320Y-110494439D01*
X86078320Y-109266361D01*
X86199902Y-109448322D01*
X86584344Y-109705197D01*
X87037824Y-109795400D01*
X87084256Y-109795400D01*
X87537736Y-109705197D01*
X87922178Y-109448322D01*
X88179053Y-109063880D01*
X88269256Y-108610400D01*
X88392824Y-108610400D01*
X88483027Y-109063880D01*
X88739902Y-109448322D01*
X89124344Y-109705197D01*
X89577824Y-109795400D01*
X89624256Y-109795400D01*
X90077736Y-109705197D01*
X90462178Y-109448322D01*
X90719053Y-109063880D01*
X90809256Y-108610400D01*
X90719053Y-108156920D01*
X90462178Y-107772478D01*
X90077736Y-107515603D01*
X89624256Y-107425400D01*
X89577824Y-107425400D01*
X89124344Y-107515603D01*
X88739902Y-107772478D01*
X88483027Y-108156920D01*
X88392824Y-108610400D01*
X88269256Y-108610400D01*
X88179053Y-108156920D01*
X87922178Y-107772478D01*
X87537736Y-107515603D01*
X87084256Y-107425400D01*
X87037824Y-107425400D01*
X86584344Y-107515603D01*
X86199902Y-107772478D01*
X86078320Y-107954439D01*
X86078320Y-106726361D01*
X86199902Y-106908322D01*
X86584344Y-107165197D01*
X87037824Y-107255400D01*
X87084256Y-107255400D01*
X87537736Y-107165197D01*
X87922178Y-106908322D01*
X88179053Y-106523880D01*
X88269256Y-106070400D01*
X88179053Y-105616920D01*
X88065605Y-105447133D01*
X88277738Y-105235000D01*
X88738217Y-105235000D01*
X88483027Y-105616920D01*
M02*
