G04 #@! TF.FileFunction,Copper,L2,Bot,Signal*
%FSLAX46Y46*%
G04 Gerber Fmt 4.6, Leading zero omitted, Abs format (unit mm)*
G04 Created by KiCad (PCBNEW 4.0.7) date 07/31/18 14:06:48*
%MOMM*%
%LPD*%
G01*
G04 APERTURE LIST*
%ADD10C,0.100000*%
%ADD11R,1.700000X1.700000*%
%ADD12O,1.700000X1.700000*%
%ADD13C,2.000000*%
%ADD14C,5.400000*%
%ADD15C,0.800000*%
%ADD16R,2.000000X2.000000*%
%ADD17C,0.600000*%
%ADD18C,0.250000*%
%ADD19C,0.254000*%
G04 APERTURE END LIST*
D10*
D11*
X108686600Y-84747100D03*
D12*
X111226600Y-84747100D03*
X113766600Y-84747100D03*
X116306600Y-84747100D03*
D13*
X109915960Y-125927240D03*
X109915960Y-121427240D03*
X116415960Y-125927240D03*
X116415960Y-121427240D03*
X109971840Y-117880520D03*
X109971840Y-113380520D03*
X116471840Y-117880520D03*
X116471840Y-113380520D03*
X109880400Y-134040000D03*
X109880400Y-129540000D03*
X116380400Y-134040000D03*
X116380400Y-129540000D03*
X99801680Y-125927240D03*
X99801680Y-121427240D03*
X106301680Y-125927240D03*
X106301680Y-121427240D03*
X120045480Y-125947560D03*
X120045480Y-121447560D03*
X126545480Y-125947560D03*
X126545480Y-121447560D03*
D11*
X89834720Y-136489440D03*
D12*
X87294720Y-136489440D03*
X89834720Y-133949440D03*
X87294720Y-133949440D03*
X89834720Y-131409440D03*
X87294720Y-131409440D03*
X89834720Y-128869440D03*
X87294720Y-128869440D03*
X89834720Y-126329440D03*
X87294720Y-126329440D03*
X89834720Y-123789440D03*
X87294720Y-123789440D03*
X89834720Y-121249440D03*
X87294720Y-121249440D03*
X89834720Y-118709440D03*
X87294720Y-118709440D03*
X89834720Y-116169440D03*
X87294720Y-116169440D03*
X89834720Y-113629440D03*
X87294720Y-113629440D03*
X89834720Y-111089440D03*
X87294720Y-111089440D03*
X89834720Y-108549440D03*
X87294720Y-108549440D03*
X89834720Y-106009440D03*
X87294720Y-106009440D03*
X89834720Y-103469440D03*
X87294720Y-103469440D03*
X89834720Y-100929440D03*
X87294720Y-100929440D03*
X89834720Y-98389440D03*
X87294720Y-98389440D03*
X89834720Y-95849440D03*
X87294720Y-95849440D03*
X89834720Y-93309440D03*
X87294720Y-93309440D03*
X89834720Y-90769440D03*
X87294720Y-90769440D03*
X89834720Y-88229440D03*
X87294720Y-88229440D03*
D14*
X88500000Y-141500000D03*
D15*
X90525000Y-141500000D03*
X89931891Y-142931891D03*
X88500000Y-143525000D03*
X87068109Y-142931891D03*
X86475000Y-141500000D03*
X87068109Y-140068109D03*
X88500000Y-139475000D03*
X89931891Y-140068109D03*
D14*
X138000000Y-141500000D03*
D15*
X140025000Y-141500000D03*
X139431891Y-142931891D03*
X138000000Y-143525000D03*
X136568109Y-142931891D03*
X135975000Y-141500000D03*
X136568109Y-140068109D03*
X138000000Y-139475000D03*
X139431891Y-140068109D03*
D14*
X138000000Y-83500000D03*
D15*
X140025000Y-83500000D03*
X139431891Y-84931891D03*
X138000000Y-85525000D03*
X136568109Y-84931891D03*
X135975000Y-83500000D03*
X136568109Y-82068109D03*
X138000000Y-81475000D03*
X139431891Y-82068109D03*
D14*
X88500000Y-83500000D03*
D15*
X90525000Y-83500000D03*
X89931891Y-84931891D03*
X88500000Y-85525000D03*
X87068109Y-84931891D03*
X86475000Y-83500000D03*
X87068109Y-82068109D03*
X88500000Y-81475000D03*
X89931891Y-82068109D03*
D16*
X134950000Y-96420000D03*
D13*
X134950000Y-88820000D03*
D11*
X109680000Y-139490000D03*
D12*
X109680000Y-142030000D03*
X112220000Y-139490000D03*
X112220000Y-142030000D03*
X114760000Y-139490000D03*
X114760000Y-142030000D03*
D17*
X101697440Y-88902560D03*
X95720000Y-139090000D03*
X134840000Y-107460000D03*
X108850000Y-136960000D03*
X131990000Y-99190000D03*
X132000000Y-90420000D03*
X124470000Y-103040000D03*
X124140000Y-106790000D03*
X85710000Y-132360000D03*
X93820000Y-81360000D03*
X130050000Y-81140000D03*
X107900000Y-99550000D03*
X92840000Y-108380000D03*
X120130000Y-96160000D03*
X95440000Y-125900000D03*
X95520000Y-120240000D03*
X97200000Y-102990000D03*
X139480000Y-101800000D03*
X110930000Y-143950000D03*
X132800000Y-101790000D03*
X133080000Y-107490000D03*
X107940000Y-90560000D03*
X94340000Y-97540000D03*
X93490000Y-100300000D03*
X112490000Y-88790000D03*
X125230000Y-104100000D03*
X124140000Y-107820000D03*
X105190000Y-87200000D03*
X117230000Y-104090000D03*
X129840000Y-142840000D03*
X126040000Y-105080000D03*
X124170000Y-108910000D03*
X108700000Y-86750000D03*
X118190000Y-105160000D03*
D18*
X109680000Y-142030000D02*
X109680000Y-142780000D01*
X109680000Y-142780000D02*
X108510000Y-143950000D01*
X109880400Y-134040000D02*
X109880400Y-137109600D01*
X108460000Y-142030000D02*
X109680000Y-142030000D01*
X107820000Y-141390000D02*
X108460000Y-142030000D01*
X107820000Y-138410000D02*
X107820000Y-141390000D01*
X108200000Y-138030000D02*
X107820000Y-138410000D01*
X108960000Y-138030000D02*
X108200000Y-138030000D01*
X109880400Y-137109600D02*
X108960000Y-138030000D01*
X134950000Y-88820000D02*
X134950000Y-85190000D01*
X129060000Y-81840000D02*
X109720000Y-81840000D01*
X129070000Y-81850000D02*
X129060000Y-81840000D01*
X131610000Y-81850000D02*
X129070000Y-81850000D01*
X134950000Y-85190000D02*
X131610000Y-81850000D01*
X134950000Y-88820000D02*
X135760000Y-88820000D01*
X135760000Y-88820000D02*
X138140000Y-91200000D01*
X136370000Y-119810000D02*
X128930000Y-119810000D01*
X138140000Y-118040000D02*
X136370000Y-119810000D01*
X138140000Y-91200000D02*
X138140000Y-118040000D01*
X101700000Y-88900000D02*
X101697440Y-88902560D01*
X101700000Y-88900000D02*
X101700000Y-84600000D01*
X101700000Y-84600000D02*
X104520000Y-81780000D01*
X104520000Y-81780000D02*
X109660000Y-81780000D01*
X109660000Y-81780000D02*
X109720000Y-81840000D01*
X111226600Y-84747100D02*
X111226600Y-83346600D01*
X109720000Y-81840000D02*
X111226600Y-83346600D01*
X116471840Y-117880520D02*
X127000520Y-117880520D01*
X127000520Y-117880520D02*
X128930000Y-119810000D01*
X128930000Y-124440000D02*
X127422440Y-125947560D01*
X128930000Y-119810000D02*
X128930000Y-124440000D01*
X127422440Y-125947560D02*
X126545480Y-125947560D01*
X126545480Y-125947560D02*
X126545480Y-129744520D01*
X122250000Y-134040000D02*
X116380400Y-134040000D01*
X126545480Y-129744520D02*
X122250000Y-134040000D01*
X116415960Y-125927240D02*
X120025160Y-125927240D01*
X120025160Y-125927240D02*
X120045480Y-125947560D01*
X106301680Y-125927240D02*
X109915960Y-125927240D01*
X92090000Y-140140000D02*
X93790000Y-140140000D01*
X94840000Y-139090000D02*
X95720000Y-139090000D01*
X93790000Y-140140000D02*
X94840000Y-139090000D01*
X88560000Y-132464720D02*
X87414720Y-131319440D01*
X88560000Y-137880000D02*
X88560000Y-132464720D01*
X88840000Y-138160000D02*
X88560000Y-137880000D01*
X90110000Y-138160000D02*
X88840000Y-138160000D01*
X92090000Y-140140000D02*
X90110000Y-138160000D01*
X92090000Y-141770000D02*
X92090000Y-140140000D01*
X94270000Y-143950000D02*
X92090000Y-141770000D01*
X126545480Y-125947560D02*
X127270120Y-125947560D01*
X109880400Y-134040000D02*
X116380400Y-134040000D01*
X106301680Y-125927240D02*
X99801680Y-125927240D01*
X116415960Y-125927240D02*
X109915960Y-125927240D01*
X126545480Y-125947560D02*
X120045480Y-125947560D01*
X116471840Y-117880520D02*
X109971840Y-117880520D01*
X109715300Y-142227300D02*
X109715300Y-142754700D01*
X108520000Y-143950000D02*
X108510000Y-143950000D01*
X108510000Y-143950000D02*
X94270000Y-143950000D01*
X89834720Y-136489440D02*
X96589440Y-136489440D01*
X134560000Y-101760000D02*
X131990000Y-99190000D01*
X134560000Y-107180000D02*
X134560000Y-101760000D01*
X134840000Y-107460000D02*
X134560000Y-107180000D01*
X97060000Y-136960000D02*
X108850000Y-136960000D01*
X96589440Y-136489440D02*
X97060000Y-136960000D01*
X131990000Y-93990000D02*
X131990000Y-99190000D01*
X132000000Y-90420000D02*
X131990000Y-93990000D01*
X124470000Y-106460000D02*
X124470000Y-103040000D01*
X124140000Y-106790000D02*
X124470000Y-106460000D01*
X85710000Y-86890000D02*
X85710000Y-132360000D01*
X85890000Y-86710000D02*
X85710000Y-86890000D01*
X90530000Y-86710000D02*
X85890000Y-86710000D01*
X92430000Y-84810000D02*
X90530000Y-86710000D01*
X92430000Y-82750000D02*
X92430000Y-84810000D01*
X93820000Y-81360000D02*
X92430000Y-82750000D01*
X89834720Y-95849440D02*
X91680560Y-95849440D01*
X93040000Y-94490000D02*
X91680560Y-95849440D01*
X93040000Y-85830000D02*
X93040000Y-94490000D01*
X97660000Y-81210000D02*
X93040000Y-85830000D01*
X129980000Y-81210000D02*
X97660000Y-81210000D01*
X130050000Y-81140000D02*
X129980000Y-81210000D01*
X88554160Y-109830000D02*
X87294720Y-111089440D01*
X91530000Y-109830000D02*
X88554160Y-109830000D01*
X91810000Y-109550000D02*
X91530000Y-109830000D01*
X91810000Y-108350000D02*
X91810000Y-109550000D01*
X94320000Y-105840000D02*
X91810000Y-108350000D01*
X107340000Y-105840000D02*
X94320000Y-105840000D01*
X108040000Y-105140000D02*
X107340000Y-105840000D01*
X108040000Y-99690000D02*
X108040000Y-105140000D01*
X107900000Y-99550000D02*
X108040000Y-99690000D01*
X94740000Y-106480000D02*
X92840000Y-108380000D01*
X122170000Y-106480000D02*
X94740000Y-106480000D01*
X123390000Y-105260000D02*
X122170000Y-106480000D01*
X123390000Y-98250000D02*
X123390000Y-105260000D01*
X121230000Y-96090000D02*
X123390000Y-98250000D01*
X120200000Y-96090000D02*
X121230000Y-96090000D01*
X120130000Y-96160000D02*
X120200000Y-96090000D01*
X109915960Y-121427240D02*
X109587240Y-121427240D01*
X109587240Y-121427240D02*
X107630000Y-119470000D01*
X96340000Y-121260000D02*
X89845280Y-121260000D01*
X98130000Y-119470000D02*
X96340000Y-121260000D01*
X107630000Y-119470000D02*
X98130000Y-119470000D01*
X89845280Y-121260000D02*
X89834720Y-121249440D01*
X116415960Y-121427240D02*
X109915960Y-121427240D01*
X109971840Y-113380520D02*
X108459480Y-113380520D01*
X106540560Y-118709440D02*
X89834720Y-118709440D01*
X107400000Y-117850000D02*
X106540560Y-118709440D01*
X107400000Y-114440000D02*
X107400000Y-117850000D01*
X108459480Y-113380520D02*
X107400000Y-114440000D01*
X109971840Y-113380520D02*
X116471840Y-113380520D01*
X98020000Y-129540000D02*
X95440000Y-126960000D01*
X95440000Y-126960000D02*
X95440000Y-125900000D01*
X109880400Y-129540000D02*
X98020000Y-129540000D01*
X88555280Y-119970000D02*
X87294720Y-118709440D01*
X95250000Y-119970000D02*
X88555280Y-119970000D01*
X95520000Y-120240000D02*
X95250000Y-119970000D01*
X116380400Y-129540000D02*
X109880400Y-129540000D01*
X99801680Y-121427240D02*
X97392760Y-121427240D01*
X93030560Y-128869440D02*
X89834720Y-128869440D01*
X94050000Y-127850000D02*
X93030560Y-128869440D01*
X94050000Y-124770000D02*
X94050000Y-127850000D01*
X97392760Y-121427240D02*
X94050000Y-124770000D01*
X99801680Y-121427240D02*
X106301680Y-121427240D01*
X90745280Y-101840000D02*
X89834720Y-100929440D01*
X96050000Y-101840000D02*
X90745280Y-101840000D01*
X97200000Y-102990000D02*
X96050000Y-101840000D01*
X120045480Y-121447560D02*
X126545480Y-121447560D01*
X120045480Y-121447560D02*
X120045480Y-121925080D01*
X139100000Y-102180000D02*
X139100000Y-132550000D01*
X139480000Y-101800000D02*
X139100000Y-102180000D01*
X139100000Y-135320000D02*
X139100000Y-132550000D01*
X130390000Y-144030000D02*
X139100000Y-135320000D01*
X111010000Y-144030000D02*
X130390000Y-144030000D01*
X110930000Y-143950000D02*
X111010000Y-144030000D01*
X132800000Y-107210000D02*
X132800000Y-101790000D01*
X133080000Y-107490000D02*
X132800000Y-107210000D01*
X107830000Y-90560000D02*
X107940000Y-90560000D01*
X106220000Y-92170000D02*
X107830000Y-90560000D01*
X99710000Y-92170000D02*
X106220000Y-92170000D01*
X94340000Y-97540000D02*
X99710000Y-92170000D01*
X96670000Y-97120000D02*
X93490000Y-100300000D01*
X111820000Y-97120000D02*
X96670000Y-97120000D01*
X113160000Y-95780000D02*
X111820000Y-97120000D01*
X113160000Y-89460000D02*
X113160000Y-95780000D01*
X112490000Y-88790000D02*
X113160000Y-89460000D01*
X125230000Y-106730000D02*
X125230000Y-104100000D01*
X124140000Y-107820000D02*
X125230000Y-106730000D01*
X117230000Y-104090000D02*
X117230000Y-91010000D01*
X113770000Y-87550000D02*
X117230000Y-91010000D01*
X105540000Y-87550000D02*
X113770000Y-87550000D01*
X105540000Y-87550000D02*
X105190000Y-87200000D01*
X117689998Y-143569998D02*
X117109998Y-143569998D01*
X129110002Y-143569998D02*
X117689998Y-143569998D01*
X129840000Y-142840000D02*
X129110002Y-143569998D01*
X115660000Y-139490000D02*
X114760000Y-139490000D01*
X116490000Y-140320000D02*
X115660000Y-139490000D01*
X116490000Y-142950000D02*
X116490000Y-140320000D01*
X117109998Y-143569998D02*
X116490000Y-142950000D01*
X126040000Y-107040000D02*
X126040000Y-105080000D01*
X124170000Y-108910000D02*
X126040000Y-107040000D01*
X118190000Y-105160000D02*
X118190000Y-90910000D01*
X114000000Y-86720000D02*
X118190000Y-90910000D01*
X108730000Y-86720000D02*
X114000000Y-86720000D01*
X108730000Y-86720000D02*
X108700000Y-86750000D01*
D19*
G36*
X139531954Y-80643891D02*
X139589733Y-80682498D01*
X140335064Y-81264220D01*
X140932064Y-82246380D01*
X140937019Y-82271293D01*
X140958255Y-82711940D01*
X140574448Y-81783057D01*
X139721434Y-80928553D01*
X138606347Y-80465528D01*
X137398950Y-80464474D01*
X136283057Y-80925552D01*
X135428553Y-81778566D01*
X134965528Y-82893653D01*
X134964474Y-84101050D01*
X135425552Y-85216943D01*
X136278566Y-86071447D01*
X137393653Y-86534472D01*
X138601050Y-86535526D01*
X139716943Y-86074448D01*
X140571447Y-85221434D01*
X141015893Y-84151089D01*
X141056171Y-142129691D01*
X140951800Y-142654400D01*
X140745325Y-143197754D01*
X140532139Y-143516810D01*
X140109915Y-143969928D01*
X139596035Y-144313291D01*
X139299167Y-144423003D01*
X138707848Y-144540624D01*
X137666121Y-144571720D01*
X111088161Y-144571720D01*
X111285937Y-144490000D01*
X130390000Y-144490000D01*
X130566035Y-144454985D01*
X130715269Y-144355269D01*
X132969488Y-142101050D01*
X134964474Y-142101050D01*
X135425552Y-143216943D01*
X136278566Y-144071447D01*
X137393653Y-144534472D01*
X138601050Y-144535526D01*
X139716943Y-144074448D01*
X140571447Y-143221434D01*
X141034472Y-142106347D01*
X141035526Y-140898950D01*
X140574448Y-139783057D01*
X139721434Y-138928553D01*
X138606347Y-138465528D01*
X137398950Y-138464474D01*
X136283057Y-138925552D01*
X135428553Y-139778566D01*
X134965528Y-140893653D01*
X134964474Y-142101050D01*
X132969488Y-142101050D01*
X139425269Y-135645269D01*
X139524985Y-135496035D01*
X139560000Y-135320000D01*
X139560000Y-102435070D01*
X139605755Y-102435110D01*
X139839228Y-102338640D01*
X140018013Y-102160168D01*
X140114889Y-101926863D01*
X140115110Y-101674245D01*
X140018640Y-101440772D01*
X139840168Y-101261987D01*
X139606863Y-101165111D01*
X139354245Y-101164890D01*
X139120772Y-101261360D01*
X138941987Y-101439832D01*
X138845111Y-101673137D01*
X138845014Y-101784448D01*
X138774731Y-101854731D01*
X138675015Y-102003965D01*
X138650887Y-102125269D01*
X138640000Y-102180000D01*
X138640000Y-135129462D01*
X130199462Y-143570000D01*
X129760538Y-143570000D01*
X129855524Y-143475014D01*
X129965755Y-143475110D01*
X130199228Y-143378640D01*
X130378013Y-143200168D01*
X130474889Y-142966863D01*
X130475110Y-142714245D01*
X130378640Y-142480772D01*
X130200168Y-142301987D01*
X129966863Y-142205111D01*
X129714245Y-142204890D01*
X129480772Y-142301360D01*
X129301987Y-142479832D01*
X129205111Y-142713137D01*
X129205014Y-142824448D01*
X128919464Y-143109998D01*
X117300536Y-143109998D01*
X116950000Y-142759462D01*
X116950000Y-140320000D01*
X116914985Y-140143966D01*
X116815269Y-139994731D01*
X115985269Y-139164731D01*
X115869536Y-139087400D01*
X115854797Y-139013304D01*
X115597922Y-138628862D01*
X115213480Y-138371987D01*
X114760000Y-138281784D01*
X114306520Y-138371987D01*
X113922078Y-138628862D01*
X113665203Y-139013304D01*
X113575000Y-139466784D01*
X113575000Y-139513216D01*
X113665203Y-139966696D01*
X113922078Y-140351138D01*
X114306520Y-140608013D01*
X114760000Y-140698216D01*
X115213480Y-140608013D01*
X115597922Y-140351138D01*
X115707141Y-140187679D01*
X116030000Y-140510538D01*
X116030000Y-142950000D01*
X116065015Y-143126035D01*
X116164731Y-143275269D01*
X116459462Y-143570000D01*
X111447904Y-143570000D01*
X111290168Y-143411987D01*
X111056863Y-143315111D01*
X110804245Y-143314890D01*
X110570772Y-143411360D01*
X110391987Y-143589832D01*
X110295111Y-143823137D01*
X110294890Y-144075755D01*
X110391360Y-144309228D01*
X110569832Y-144488013D01*
X110771422Y-144571720D01*
X88500212Y-144571720D01*
X88145802Y-144534692D01*
X89101050Y-144535526D01*
X90216943Y-144074448D01*
X91071447Y-143221434D01*
X91417469Y-142388119D01*
X108550392Y-142388119D01*
X108773424Y-142793141D01*
X109134474Y-143081982D01*
X109321884Y-143159591D01*
X109503000Y-143116933D01*
X109503000Y-142207000D01*
X109857000Y-142207000D01*
X109857000Y-143116933D01*
X110038116Y-143159591D01*
X110225526Y-143081982D01*
X110586576Y-142793141D01*
X110809608Y-142388119D01*
X110767973Y-142207000D01*
X109857000Y-142207000D01*
X109503000Y-142207000D01*
X108592027Y-142207000D01*
X108550392Y-142388119D01*
X91417469Y-142388119D01*
X91534472Y-142106347D01*
X91534558Y-142006784D01*
X111035000Y-142006784D01*
X111035000Y-142053216D01*
X111125203Y-142506696D01*
X111382078Y-142891138D01*
X111766520Y-143148013D01*
X112220000Y-143238216D01*
X112673480Y-143148013D01*
X113057922Y-142891138D01*
X113314797Y-142506696D01*
X113405000Y-142053216D01*
X113405000Y-142006784D01*
X113575000Y-142006784D01*
X113575000Y-142053216D01*
X113665203Y-142506696D01*
X113922078Y-142891138D01*
X114306520Y-143148013D01*
X114760000Y-143238216D01*
X115213480Y-143148013D01*
X115597922Y-142891138D01*
X115854797Y-142506696D01*
X115945000Y-142053216D01*
X115945000Y-142006784D01*
X115854797Y-141553304D01*
X115597922Y-141168862D01*
X115213480Y-140911987D01*
X114760000Y-140821784D01*
X114306520Y-140911987D01*
X113922078Y-141168862D01*
X113665203Y-141553304D01*
X113575000Y-142006784D01*
X113405000Y-142006784D01*
X113314797Y-141553304D01*
X113057922Y-141168862D01*
X112673480Y-140911987D01*
X112220000Y-140821784D01*
X111766520Y-140911987D01*
X111382078Y-141168862D01*
X111125203Y-141553304D01*
X111035000Y-142006784D01*
X91534558Y-142006784D01*
X91534851Y-141671881D01*
X108550392Y-141671881D01*
X108592027Y-141853000D01*
X109503000Y-141853000D01*
X109503000Y-140943067D01*
X109857000Y-140943067D01*
X109857000Y-141853000D01*
X110767973Y-141853000D01*
X110809608Y-141671881D01*
X110586576Y-141266859D01*
X110225526Y-140978018D01*
X110038116Y-140900409D01*
X109857000Y-140943067D01*
X109503000Y-140943067D01*
X109321884Y-140900409D01*
X109134474Y-140978018D01*
X108773424Y-141266859D01*
X108550392Y-141671881D01*
X91534851Y-141671881D01*
X91535526Y-140898950D01*
X91074448Y-139783057D01*
X90221434Y-138928553D01*
X89526522Y-138640000D01*
X108488437Y-138640000D01*
X108488437Y-140340000D01*
X108511796Y-140464144D01*
X108585165Y-140578162D01*
X108697113Y-140654653D01*
X108830000Y-140681563D01*
X110530000Y-140681563D01*
X110654144Y-140658204D01*
X110768162Y-140584835D01*
X110844653Y-140472887D01*
X110871563Y-140340000D01*
X110871563Y-139466784D01*
X111035000Y-139466784D01*
X111035000Y-139513216D01*
X111125203Y-139966696D01*
X111382078Y-140351138D01*
X111766520Y-140608013D01*
X112220000Y-140698216D01*
X112673480Y-140608013D01*
X113057922Y-140351138D01*
X113314797Y-139966696D01*
X113405000Y-139513216D01*
X113405000Y-139466784D01*
X113314797Y-139013304D01*
X113057922Y-138628862D01*
X112673480Y-138371987D01*
X112220000Y-138281784D01*
X111766520Y-138371987D01*
X111382078Y-138628862D01*
X111125203Y-139013304D01*
X111035000Y-139466784D01*
X110871563Y-139466784D01*
X110871563Y-138640000D01*
X110848204Y-138515856D01*
X110774835Y-138401838D01*
X110662887Y-138325347D01*
X110530000Y-138298437D01*
X108830000Y-138298437D01*
X108705856Y-138321796D01*
X108591838Y-138395165D01*
X108515347Y-138507113D01*
X108488437Y-138640000D01*
X89526522Y-138640000D01*
X89106347Y-138465528D01*
X87898950Y-138464474D01*
X86783057Y-138925552D01*
X85928553Y-139778566D01*
X85465528Y-140893653D01*
X85464474Y-142101050D01*
X85925552Y-143216943D01*
X86778566Y-144071447D01*
X87809589Y-144499565D01*
X87338072Y-144450302D01*
X87123075Y-144407537D01*
X86729315Y-144196594D01*
X86174273Y-143825727D01*
X85726391Y-143155424D01*
X85599094Y-142910260D01*
X85410000Y-141959618D01*
X85410000Y-136489440D01*
X86086504Y-136489440D01*
X86176707Y-136942920D01*
X86433582Y-137327362D01*
X86818024Y-137584237D01*
X87271504Y-137674440D01*
X87317936Y-137674440D01*
X87771416Y-137584237D01*
X88155858Y-137327362D01*
X88412733Y-136942920D01*
X88502936Y-136489440D01*
X88412733Y-136035960D01*
X88155858Y-135651518D01*
X88137782Y-135639440D01*
X88643157Y-135639440D01*
X88643157Y-137339440D01*
X88666516Y-137463584D01*
X88739885Y-137577602D01*
X88851833Y-137654093D01*
X88984720Y-137681003D01*
X90684720Y-137681003D01*
X90808864Y-137657644D01*
X90922882Y-137584275D01*
X90999373Y-137472327D01*
X91026283Y-137339440D01*
X91026283Y-136949440D01*
X96398902Y-136949440D01*
X96734731Y-137285269D01*
X96883966Y-137384985D01*
X97060000Y-137420000D01*
X108411956Y-137420000D01*
X108489832Y-137498013D01*
X108723137Y-137594889D01*
X108975755Y-137595110D01*
X109209228Y-137498640D01*
X109388013Y-137320168D01*
X109484889Y-137086863D01*
X109485110Y-136834245D01*
X109388640Y-136600772D01*
X109210168Y-136421987D01*
X108976863Y-136325111D01*
X108724245Y-136324890D01*
X108490772Y-136421360D01*
X108411994Y-136500000D01*
X97250538Y-136500000D01*
X96914709Y-136164171D01*
X96765475Y-136064455D01*
X96589440Y-136029440D01*
X91026283Y-136029440D01*
X91026283Y-135639440D01*
X91002924Y-135515296D01*
X90929555Y-135401278D01*
X90817607Y-135324787D01*
X90684720Y-135297877D01*
X88984720Y-135297877D01*
X88860576Y-135321236D01*
X88746558Y-135394605D01*
X88670067Y-135506553D01*
X88643157Y-135639440D01*
X88137782Y-135639440D01*
X87771416Y-135394643D01*
X87317936Y-135304440D01*
X87271504Y-135304440D01*
X86818024Y-135394643D01*
X86433582Y-135651518D01*
X86176707Y-136035960D01*
X86086504Y-136489440D01*
X85410000Y-136489440D01*
X85410000Y-133949440D01*
X86086504Y-133949440D01*
X86176707Y-134402920D01*
X86433582Y-134787362D01*
X86818024Y-135044237D01*
X87271504Y-135134440D01*
X87317936Y-135134440D01*
X87771416Y-135044237D01*
X88155858Y-134787362D01*
X88412733Y-134402920D01*
X88502936Y-133949440D01*
X88626504Y-133949440D01*
X88716707Y-134402920D01*
X88973582Y-134787362D01*
X89358024Y-135044237D01*
X89811504Y-135134440D01*
X89857936Y-135134440D01*
X90233648Y-135059706D01*
X109111010Y-135059706D01*
X109230323Y-135235884D01*
X109737452Y-135393627D01*
X110266344Y-135345292D01*
X110530477Y-135235884D01*
X110649790Y-135059706D01*
X115611010Y-135059706D01*
X115730323Y-135235884D01*
X116237452Y-135393627D01*
X116766344Y-135345292D01*
X117030477Y-135235884D01*
X117149790Y-135059706D01*
X116380400Y-134290316D01*
X115611010Y-135059706D01*
X110649790Y-135059706D01*
X109880400Y-134290316D01*
X109111010Y-135059706D01*
X90233648Y-135059706D01*
X90311416Y-135044237D01*
X90695858Y-134787362D01*
X90952733Y-134402920D01*
X91042936Y-133949440D01*
X91032516Y-133897052D01*
X108526773Y-133897052D01*
X108575108Y-134425944D01*
X108684516Y-134690077D01*
X108860694Y-134809390D01*
X109630084Y-134040000D01*
X110130716Y-134040000D01*
X110900106Y-134809390D01*
X111076284Y-134690077D01*
X111234027Y-134182948D01*
X111207900Y-133897052D01*
X115026773Y-133897052D01*
X115075108Y-134425944D01*
X115184516Y-134690077D01*
X115360694Y-134809390D01*
X116130084Y-134040000D01*
X116630716Y-134040000D01*
X117400106Y-134809390D01*
X117576284Y-134690077D01*
X117734027Y-134182948D01*
X117685692Y-133654056D01*
X117576284Y-133389923D01*
X117400106Y-133270610D01*
X116630716Y-134040000D01*
X116130084Y-134040000D01*
X115360694Y-133270610D01*
X115184516Y-133389923D01*
X115026773Y-133897052D01*
X111207900Y-133897052D01*
X111185692Y-133654056D01*
X111076284Y-133389923D01*
X110900106Y-133270610D01*
X110130716Y-134040000D01*
X109630084Y-134040000D01*
X108860694Y-133270610D01*
X108684516Y-133389923D01*
X108526773Y-133897052D01*
X91032516Y-133897052D01*
X90952733Y-133495960D01*
X90695858Y-133111518D01*
X90559332Y-133020294D01*
X109111010Y-133020294D01*
X109880400Y-133789684D01*
X110649790Y-133020294D01*
X115611010Y-133020294D01*
X116380400Y-133789684D01*
X117149790Y-133020294D01*
X117030477Y-132844116D01*
X116523348Y-132686373D01*
X115994456Y-132734708D01*
X115730323Y-132844116D01*
X115611010Y-133020294D01*
X110649790Y-133020294D01*
X110530477Y-132844116D01*
X110023348Y-132686373D01*
X109494456Y-132734708D01*
X109230323Y-132844116D01*
X109111010Y-133020294D01*
X90559332Y-133020294D01*
X90311416Y-132854643D01*
X89857936Y-132764440D01*
X89811504Y-132764440D01*
X89358024Y-132854643D01*
X88973582Y-133111518D01*
X88716707Y-133495960D01*
X88626504Y-133949440D01*
X88502936Y-133949440D01*
X88412733Y-133495960D01*
X88155858Y-133111518D01*
X87771416Y-132854643D01*
X87317936Y-132764440D01*
X87271504Y-132764440D01*
X86818024Y-132854643D01*
X86433582Y-133111518D01*
X86176707Y-133495960D01*
X86086504Y-133949440D01*
X85410000Y-133949440D01*
X85410000Y-132922997D01*
X85583137Y-132994889D01*
X85835755Y-132995110D01*
X86069228Y-132898640D01*
X86248013Y-132720168D01*
X86344889Y-132486863D01*
X86345110Y-132234245D01*
X86248640Y-132000772D01*
X86170000Y-131921994D01*
X86170000Y-131779318D01*
X86242738Y-131954966D01*
X86531579Y-132316016D01*
X86936601Y-132539048D01*
X87117720Y-132497413D01*
X87117720Y-131586440D01*
X87471720Y-131586440D01*
X87471720Y-132497413D01*
X87652839Y-132539048D01*
X88057861Y-132316016D01*
X88346702Y-131954966D01*
X88424311Y-131767556D01*
X88381653Y-131586440D01*
X87471720Y-131586440D01*
X87117720Y-131586440D01*
X87097720Y-131586440D01*
X87097720Y-131409440D01*
X88626504Y-131409440D01*
X88716707Y-131862920D01*
X88973582Y-132247362D01*
X89358024Y-132504237D01*
X89811504Y-132594440D01*
X89857936Y-132594440D01*
X90311416Y-132504237D01*
X90695858Y-132247362D01*
X90952733Y-131862920D01*
X91042936Y-131409440D01*
X90952733Y-130955960D01*
X90695858Y-130571518D01*
X90311416Y-130314643D01*
X89857936Y-130224440D01*
X89811504Y-130224440D01*
X89358024Y-130314643D01*
X88973582Y-130571518D01*
X88716707Y-130955960D01*
X88626504Y-131409440D01*
X87097720Y-131409440D01*
X87097720Y-131232440D01*
X87117720Y-131232440D01*
X87117720Y-130321467D01*
X87471720Y-130321467D01*
X87471720Y-131232440D01*
X88381653Y-131232440D01*
X88424311Y-131051324D01*
X88346702Y-130863914D01*
X88057861Y-130502864D01*
X87652839Y-130279832D01*
X87471720Y-130321467D01*
X87117720Y-130321467D01*
X86936601Y-130279832D01*
X86531579Y-130502864D01*
X86242738Y-130863914D01*
X86170000Y-131039562D01*
X86170000Y-129289202D01*
X86176707Y-129322920D01*
X86433582Y-129707362D01*
X86818024Y-129964237D01*
X87271504Y-130054440D01*
X87317936Y-130054440D01*
X87771416Y-129964237D01*
X88155858Y-129707362D01*
X88412733Y-129322920D01*
X88502936Y-128869440D01*
X88412733Y-128415960D01*
X88155858Y-128031518D01*
X87771416Y-127774643D01*
X87317936Y-127684440D01*
X87271504Y-127684440D01*
X86818024Y-127774643D01*
X86433582Y-128031518D01*
X86176707Y-128415960D01*
X86170000Y-128449678D01*
X86170000Y-126749202D01*
X86176707Y-126782920D01*
X86433582Y-127167362D01*
X86818024Y-127424237D01*
X87271504Y-127514440D01*
X87317936Y-127514440D01*
X87771416Y-127424237D01*
X88155858Y-127167362D01*
X88412733Y-126782920D01*
X88502936Y-126329440D01*
X88626504Y-126329440D01*
X88716707Y-126782920D01*
X88973582Y-127167362D01*
X89358024Y-127424237D01*
X89811504Y-127514440D01*
X89857936Y-127514440D01*
X90311416Y-127424237D01*
X90695858Y-127167362D01*
X90952733Y-126782920D01*
X91042936Y-126329440D01*
X90952733Y-125875960D01*
X90695858Y-125491518D01*
X90311416Y-125234643D01*
X89857936Y-125144440D01*
X89811504Y-125144440D01*
X89358024Y-125234643D01*
X88973582Y-125491518D01*
X88716707Y-125875960D01*
X88626504Y-126329440D01*
X88502936Y-126329440D01*
X88412733Y-125875960D01*
X88155858Y-125491518D01*
X87771416Y-125234643D01*
X87317936Y-125144440D01*
X87271504Y-125144440D01*
X86818024Y-125234643D01*
X86433582Y-125491518D01*
X86176707Y-125875960D01*
X86170000Y-125909678D01*
X86170000Y-124209202D01*
X86176707Y-124242920D01*
X86433582Y-124627362D01*
X86818024Y-124884237D01*
X87271504Y-124974440D01*
X87317936Y-124974440D01*
X87771416Y-124884237D01*
X88155858Y-124627362D01*
X88412733Y-124242920D01*
X88502936Y-123789440D01*
X88626504Y-123789440D01*
X88716707Y-124242920D01*
X88973582Y-124627362D01*
X89358024Y-124884237D01*
X89811504Y-124974440D01*
X89857936Y-124974440D01*
X90311416Y-124884237D01*
X90695858Y-124627362D01*
X90952733Y-124242920D01*
X91042936Y-123789440D01*
X90952733Y-123335960D01*
X90695858Y-122951518D01*
X90311416Y-122694643D01*
X89857936Y-122604440D01*
X89811504Y-122604440D01*
X89358024Y-122694643D01*
X88973582Y-122951518D01*
X88716707Y-123335960D01*
X88626504Y-123789440D01*
X88502936Y-123789440D01*
X88412733Y-123335960D01*
X88155858Y-122951518D01*
X87771416Y-122694643D01*
X87317936Y-122604440D01*
X87271504Y-122604440D01*
X86818024Y-122694643D01*
X86433582Y-122951518D01*
X86176707Y-123335960D01*
X86170000Y-123369678D01*
X86170000Y-121669202D01*
X86176707Y-121702920D01*
X86433582Y-122087362D01*
X86818024Y-122344237D01*
X87271504Y-122434440D01*
X87317936Y-122434440D01*
X87771416Y-122344237D01*
X88155858Y-122087362D01*
X88412733Y-121702920D01*
X88502936Y-121249440D01*
X88412733Y-120795960D01*
X88155858Y-120411518D01*
X87771416Y-120154643D01*
X87317936Y-120064440D01*
X87271504Y-120064440D01*
X86818024Y-120154643D01*
X86433582Y-120411518D01*
X86176707Y-120795960D01*
X86170000Y-120829678D01*
X86170000Y-119129202D01*
X86176707Y-119162920D01*
X86433582Y-119547362D01*
X86818024Y-119804237D01*
X87271504Y-119894440D01*
X87317936Y-119894440D01*
X87744361Y-119809619D01*
X88230011Y-120295269D01*
X88379245Y-120394985D01*
X88555280Y-120430000D01*
X88961233Y-120430000D01*
X88716707Y-120795960D01*
X88626504Y-121249440D01*
X88716707Y-121702920D01*
X88973582Y-122087362D01*
X89358024Y-122344237D01*
X89811504Y-122434440D01*
X89857936Y-122434440D01*
X90311416Y-122344237D01*
X90695858Y-122087362D01*
X90941321Y-121720000D01*
X96340000Y-121720000D01*
X96476641Y-121692821D01*
X93724731Y-124444731D01*
X93625015Y-124593965D01*
X93625015Y-124593966D01*
X93590000Y-124770000D01*
X93590000Y-127659462D01*
X92840022Y-128409440D01*
X90948376Y-128409440D01*
X90695858Y-128031518D01*
X90311416Y-127774643D01*
X89857936Y-127684440D01*
X89811504Y-127684440D01*
X89358024Y-127774643D01*
X88973582Y-128031518D01*
X88716707Y-128415960D01*
X88626504Y-128869440D01*
X88716707Y-129322920D01*
X88973582Y-129707362D01*
X89358024Y-129964237D01*
X89811504Y-130054440D01*
X89857936Y-130054440D01*
X90311416Y-129964237D01*
X90695858Y-129707362D01*
X90948376Y-129329440D01*
X93030560Y-129329440D01*
X93206595Y-129294425D01*
X93355829Y-129194709D01*
X94375269Y-128175269D01*
X94474985Y-128026035D01*
X94510000Y-127850000D01*
X94510000Y-126025755D01*
X94804890Y-126025755D01*
X94901360Y-126259228D01*
X94980000Y-126338006D01*
X94980000Y-126960000D01*
X95015015Y-127136035D01*
X95114731Y-127285269D01*
X97694731Y-129865269D01*
X97843965Y-129964985D01*
X98020000Y-130000000D01*
X108625996Y-130000000D01*
X108747982Y-130295229D01*
X109123196Y-130671098D01*
X109613687Y-130874768D01*
X110144783Y-130875231D01*
X110635629Y-130672418D01*
X111011498Y-130297204D01*
X111134908Y-130000000D01*
X115125996Y-130000000D01*
X115247982Y-130295229D01*
X115623196Y-130671098D01*
X116113687Y-130874768D01*
X116644783Y-130875231D01*
X117135629Y-130672418D01*
X117511498Y-130297204D01*
X117715168Y-129806713D01*
X117715631Y-129275617D01*
X117512818Y-128784771D01*
X117137604Y-128408902D01*
X116647113Y-128205232D01*
X116116017Y-128204769D01*
X115625171Y-128407582D01*
X115249302Y-128782796D01*
X115125892Y-129080000D01*
X111134804Y-129080000D01*
X111012818Y-128784771D01*
X110637604Y-128408902D01*
X110147113Y-128205232D01*
X109616017Y-128204769D01*
X109125171Y-128407582D01*
X108749302Y-128782796D01*
X108625892Y-129080000D01*
X98210538Y-129080000D01*
X96077484Y-126946946D01*
X99032290Y-126946946D01*
X99151603Y-127123124D01*
X99658732Y-127280867D01*
X100187624Y-127232532D01*
X100451757Y-127123124D01*
X100571070Y-126946946D01*
X105532290Y-126946946D01*
X105651603Y-127123124D01*
X106158732Y-127280867D01*
X106687624Y-127232532D01*
X106951757Y-127123124D01*
X107071070Y-126946946D01*
X109146570Y-126946946D01*
X109265883Y-127123124D01*
X109773012Y-127280867D01*
X110301904Y-127232532D01*
X110566037Y-127123124D01*
X110685350Y-126946946D01*
X115646570Y-126946946D01*
X115765883Y-127123124D01*
X116273012Y-127280867D01*
X116801904Y-127232532D01*
X117066037Y-127123124D01*
X117171588Y-126967266D01*
X119276090Y-126967266D01*
X119395403Y-127143444D01*
X119902532Y-127301187D01*
X120431424Y-127252852D01*
X120695557Y-127143444D01*
X120814870Y-126967266D01*
X125776090Y-126967266D01*
X125895403Y-127143444D01*
X126402532Y-127301187D01*
X126931424Y-127252852D01*
X127195557Y-127143444D01*
X127314870Y-126967266D01*
X126545480Y-126197876D01*
X125776090Y-126967266D01*
X120814870Y-126967266D01*
X120045480Y-126197876D01*
X119276090Y-126967266D01*
X117171588Y-126967266D01*
X117185350Y-126946946D01*
X116415960Y-126177556D01*
X115646570Y-126946946D01*
X110685350Y-126946946D01*
X109915960Y-126177556D01*
X109146570Y-126946946D01*
X107071070Y-126946946D01*
X106301680Y-126177556D01*
X105532290Y-126946946D01*
X100571070Y-126946946D01*
X99801680Y-126177556D01*
X99032290Y-126946946D01*
X96077484Y-126946946D01*
X95900000Y-126769462D01*
X95900000Y-126338044D01*
X95978013Y-126260168D01*
X96074889Y-126026863D01*
X96075101Y-125784292D01*
X98448053Y-125784292D01*
X98496388Y-126313184D01*
X98605796Y-126577317D01*
X98781974Y-126696630D01*
X99551364Y-125927240D01*
X100051996Y-125927240D01*
X100821386Y-126696630D01*
X100997564Y-126577317D01*
X101155307Y-126070188D01*
X101129180Y-125784292D01*
X104948053Y-125784292D01*
X104996388Y-126313184D01*
X105105796Y-126577317D01*
X105281974Y-126696630D01*
X106051364Y-125927240D01*
X106551996Y-125927240D01*
X107321386Y-126696630D01*
X107497564Y-126577317D01*
X107655307Y-126070188D01*
X107629180Y-125784292D01*
X108562333Y-125784292D01*
X108610668Y-126313184D01*
X108720076Y-126577317D01*
X108896254Y-126696630D01*
X109665644Y-125927240D01*
X110166276Y-125927240D01*
X110935666Y-126696630D01*
X111111844Y-126577317D01*
X111269587Y-126070188D01*
X111243460Y-125784292D01*
X115062333Y-125784292D01*
X115110668Y-126313184D01*
X115220076Y-126577317D01*
X115396254Y-126696630D01*
X116165644Y-125927240D01*
X116666276Y-125927240D01*
X117435666Y-126696630D01*
X117611844Y-126577317D01*
X117769587Y-126070188D01*
X117745317Y-125804612D01*
X118691853Y-125804612D01*
X118740188Y-126333504D01*
X118849596Y-126597637D01*
X119025774Y-126716950D01*
X119795164Y-125947560D01*
X120295796Y-125947560D01*
X121065186Y-126716950D01*
X121241364Y-126597637D01*
X121399107Y-126090508D01*
X121372980Y-125804612D01*
X125191853Y-125804612D01*
X125240188Y-126333504D01*
X125349596Y-126597637D01*
X125525774Y-126716950D01*
X126295164Y-125947560D01*
X126795796Y-125947560D01*
X127565186Y-126716950D01*
X127741364Y-126597637D01*
X127899107Y-126090508D01*
X127850772Y-125561616D01*
X127741364Y-125297483D01*
X127565186Y-125178170D01*
X126795796Y-125947560D01*
X126295164Y-125947560D01*
X125525774Y-125178170D01*
X125349596Y-125297483D01*
X125191853Y-125804612D01*
X121372980Y-125804612D01*
X121350772Y-125561616D01*
X121241364Y-125297483D01*
X121065186Y-125178170D01*
X120295796Y-125947560D01*
X119795164Y-125947560D01*
X119025774Y-125178170D01*
X118849596Y-125297483D01*
X118691853Y-125804612D01*
X117745317Y-125804612D01*
X117721252Y-125541296D01*
X117611844Y-125277163D01*
X117435666Y-125157850D01*
X116666276Y-125927240D01*
X116165644Y-125927240D01*
X115396254Y-125157850D01*
X115220076Y-125277163D01*
X115062333Y-125784292D01*
X111243460Y-125784292D01*
X111221252Y-125541296D01*
X111111844Y-125277163D01*
X110935666Y-125157850D01*
X110166276Y-125927240D01*
X109665644Y-125927240D01*
X108896254Y-125157850D01*
X108720076Y-125277163D01*
X108562333Y-125784292D01*
X107629180Y-125784292D01*
X107606972Y-125541296D01*
X107497564Y-125277163D01*
X107321386Y-125157850D01*
X106551996Y-125927240D01*
X106051364Y-125927240D01*
X105281974Y-125157850D01*
X105105796Y-125277163D01*
X104948053Y-125784292D01*
X101129180Y-125784292D01*
X101106972Y-125541296D01*
X100997564Y-125277163D01*
X100821386Y-125157850D01*
X100051996Y-125927240D01*
X99551364Y-125927240D01*
X98781974Y-125157850D01*
X98605796Y-125277163D01*
X98448053Y-125784292D01*
X96075101Y-125784292D01*
X96075110Y-125774245D01*
X95978640Y-125540772D01*
X95800168Y-125361987D01*
X95566863Y-125265111D01*
X95314245Y-125264890D01*
X95080772Y-125361360D01*
X94901987Y-125539832D01*
X94805111Y-125773137D01*
X94804890Y-126025755D01*
X94510000Y-126025755D01*
X94510000Y-124960538D01*
X94563004Y-124907534D01*
X99032290Y-124907534D01*
X99801680Y-125676924D01*
X100571070Y-124907534D01*
X105532290Y-124907534D01*
X106301680Y-125676924D01*
X107071070Y-124907534D01*
X109146570Y-124907534D01*
X109915960Y-125676924D01*
X110685350Y-124907534D01*
X115646570Y-124907534D01*
X116415960Y-125676924D01*
X117165030Y-124927854D01*
X119276090Y-124927854D01*
X120045480Y-125697244D01*
X120814870Y-124927854D01*
X125776090Y-124927854D01*
X126545480Y-125697244D01*
X127314870Y-124927854D01*
X127195557Y-124751676D01*
X126688428Y-124593933D01*
X126159536Y-124642268D01*
X125895403Y-124751676D01*
X125776090Y-124927854D01*
X120814870Y-124927854D01*
X120695557Y-124751676D01*
X120188428Y-124593933D01*
X119659536Y-124642268D01*
X119395403Y-124751676D01*
X119276090Y-124927854D01*
X117165030Y-124927854D01*
X117185350Y-124907534D01*
X117066037Y-124731356D01*
X116558908Y-124573613D01*
X116030016Y-124621948D01*
X115765883Y-124731356D01*
X115646570Y-124907534D01*
X110685350Y-124907534D01*
X110566037Y-124731356D01*
X110058908Y-124573613D01*
X109530016Y-124621948D01*
X109265883Y-124731356D01*
X109146570Y-124907534D01*
X107071070Y-124907534D01*
X106951757Y-124731356D01*
X106444628Y-124573613D01*
X105915736Y-124621948D01*
X105651603Y-124731356D01*
X105532290Y-124907534D01*
X100571070Y-124907534D01*
X100451757Y-124731356D01*
X99944628Y-124573613D01*
X99415736Y-124621948D01*
X99151603Y-124731356D01*
X99032290Y-124907534D01*
X94563004Y-124907534D01*
X97583298Y-121887240D01*
X98547276Y-121887240D01*
X98669262Y-122182469D01*
X99044476Y-122558338D01*
X99534967Y-122762008D01*
X100066063Y-122762471D01*
X100556909Y-122559658D01*
X100932778Y-122184444D01*
X101056188Y-121887240D01*
X105047276Y-121887240D01*
X105169262Y-122182469D01*
X105544476Y-122558338D01*
X106034967Y-122762008D01*
X106566063Y-122762471D01*
X107056909Y-122559658D01*
X107432778Y-122184444D01*
X107636448Y-121693953D01*
X107636911Y-121162857D01*
X107434098Y-120672011D01*
X107058884Y-120296142D01*
X106568393Y-120092472D01*
X106037297Y-120092009D01*
X105546451Y-120294822D01*
X105170582Y-120670036D01*
X105047172Y-120967240D01*
X101056084Y-120967240D01*
X100934098Y-120672011D01*
X100558884Y-120296142D01*
X100068393Y-120092472D01*
X99537297Y-120092009D01*
X99046451Y-120294822D01*
X98670582Y-120670036D01*
X98547172Y-120967240D01*
X97392760Y-120967240D01*
X97256119Y-120994419D01*
X98320538Y-119930000D01*
X107439462Y-119930000D01*
X108607245Y-121097783D01*
X108581192Y-121160527D01*
X108580729Y-121691623D01*
X108783542Y-122182469D01*
X109158756Y-122558338D01*
X109649247Y-122762008D01*
X110180343Y-122762471D01*
X110671189Y-122559658D01*
X111047058Y-122184444D01*
X111170468Y-121887240D01*
X115161556Y-121887240D01*
X115283542Y-122182469D01*
X115658756Y-122558338D01*
X116149247Y-122762008D01*
X116680343Y-122762471D01*
X117171189Y-122559658D01*
X117547058Y-122184444D01*
X117743257Y-121711943D01*
X118710249Y-121711943D01*
X118913062Y-122202789D01*
X119288276Y-122578658D01*
X119778767Y-122782328D01*
X120309863Y-122782791D01*
X120800709Y-122579978D01*
X121176578Y-122204764D01*
X121299988Y-121907560D01*
X125291076Y-121907560D01*
X125413062Y-122202789D01*
X125788276Y-122578658D01*
X126278767Y-122782328D01*
X126809863Y-122782791D01*
X127300709Y-122579978D01*
X127676578Y-122204764D01*
X127880248Y-121714273D01*
X127880711Y-121183177D01*
X127677898Y-120692331D01*
X127302684Y-120316462D01*
X126812193Y-120112792D01*
X126281097Y-120112329D01*
X125790251Y-120315142D01*
X125414382Y-120690356D01*
X125290972Y-120987560D01*
X121299884Y-120987560D01*
X121177898Y-120692331D01*
X120802684Y-120316462D01*
X120312193Y-120112792D01*
X119781097Y-120112329D01*
X119290251Y-120315142D01*
X118914382Y-120690356D01*
X118710712Y-121180847D01*
X118710249Y-121711943D01*
X117743257Y-121711943D01*
X117750728Y-121693953D01*
X117751191Y-121162857D01*
X117548378Y-120672011D01*
X117173164Y-120296142D01*
X116682673Y-120092472D01*
X116151577Y-120092009D01*
X115660731Y-120294822D01*
X115284862Y-120670036D01*
X115161452Y-120967240D01*
X111170364Y-120967240D01*
X111048378Y-120672011D01*
X110673164Y-120296142D01*
X110182673Y-120092472D01*
X109651577Y-120092009D01*
X109160731Y-120294822D01*
X109133021Y-120322483D01*
X107955269Y-119144731D01*
X107806035Y-119045015D01*
X107630000Y-119010000D01*
X106890538Y-119010000D01*
X107000312Y-118900226D01*
X109202450Y-118900226D01*
X109321763Y-119076404D01*
X109828892Y-119234147D01*
X110357784Y-119185812D01*
X110621917Y-119076404D01*
X110741230Y-118900226D01*
X115702450Y-118900226D01*
X115821763Y-119076404D01*
X116328892Y-119234147D01*
X116857784Y-119185812D01*
X117121917Y-119076404D01*
X117241230Y-118900226D01*
X116471840Y-118130836D01*
X115702450Y-118900226D01*
X110741230Y-118900226D01*
X109971840Y-118130836D01*
X109202450Y-118900226D01*
X107000312Y-118900226D01*
X107725269Y-118175269D01*
X107824985Y-118026035D01*
X107860000Y-117850000D01*
X107860000Y-117737572D01*
X108618213Y-117737572D01*
X108666548Y-118266464D01*
X108775956Y-118530597D01*
X108952134Y-118649910D01*
X109721524Y-117880520D01*
X110222156Y-117880520D01*
X110991546Y-118649910D01*
X111167724Y-118530597D01*
X111325467Y-118023468D01*
X111299340Y-117737572D01*
X115118213Y-117737572D01*
X115166548Y-118266464D01*
X115275956Y-118530597D01*
X115452134Y-118649910D01*
X116221524Y-117880520D01*
X116722156Y-117880520D01*
X117491546Y-118649910D01*
X117667724Y-118530597D01*
X117825467Y-118023468D01*
X117777132Y-117494576D01*
X117667724Y-117230443D01*
X117491546Y-117111130D01*
X116722156Y-117880520D01*
X116221524Y-117880520D01*
X115452134Y-117111130D01*
X115275956Y-117230443D01*
X115118213Y-117737572D01*
X111299340Y-117737572D01*
X111277132Y-117494576D01*
X111167724Y-117230443D01*
X110991546Y-117111130D01*
X110222156Y-117880520D01*
X109721524Y-117880520D01*
X108952134Y-117111130D01*
X108775956Y-117230443D01*
X108618213Y-117737572D01*
X107860000Y-117737572D01*
X107860000Y-116860814D01*
X109202450Y-116860814D01*
X109971840Y-117630204D01*
X110741230Y-116860814D01*
X115702450Y-116860814D01*
X116471840Y-117630204D01*
X117241230Y-116860814D01*
X117121917Y-116684636D01*
X116614788Y-116526893D01*
X116085896Y-116575228D01*
X115821763Y-116684636D01*
X115702450Y-116860814D01*
X110741230Y-116860814D01*
X110621917Y-116684636D01*
X110114788Y-116526893D01*
X109585896Y-116575228D01*
X109321763Y-116684636D01*
X109202450Y-116860814D01*
X107860000Y-116860814D01*
X107860000Y-114630538D01*
X108650018Y-113840520D01*
X108717436Y-113840520D01*
X108839422Y-114135749D01*
X109214636Y-114511618D01*
X109705127Y-114715288D01*
X110236223Y-114715751D01*
X110727069Y-114512938D01*
X111102938Y-114137724D01*
X111226348Y-113840520D01*
X115217436Y-113840520D01*
X115339422Y-114135749D01*
X115714636Y-114511618D01*
X116205127Y-114715288D01*
X116736223Y-114715751D01*
X117227069Y-114512938D01*
X117602938Y-114137724D01*
X117806608Y-113647233D01*
X117807071Y-113116137D01*
X117604258Y-112625291D01*
X117229044Y-112249422D01*
X116738553Y-112045752D01*
X116207457Y-112045289D01*
X115716611Y-112248102D01*
X115340742Y-112623316D01*
X115217332Y-112920520D01*
X111226244Y-112920520D01*
X111104258Y-112625291D01*
X110729044Y-112249422D01*
X110238553Y-112045752D01*
X109707457Y-112045289D01*
X109216611Y-112248102D01*
X108840742Y-112623316D01*
X108717332Y-112920520D01*
X108459480Y-112920520D01*
X108283445Y-112955535D01*
X108134211Y-113055251D01*
X107074731Y-114114731D01*
X106975015Y-114263965D01*
X106975015Y-114263966D01*
X106940000Y-114440000D01*
X106940000Y-117659462D01*
X106350022Y-118249440D01*
X90948376Y-118249440D01*
X90695858Y-117871518D01*
X90311416Y-117614643D01*
X89857936Y-117524440D01*
X89811504Y-117524440D01*
X89358024Y-117614643D01*
X88973582Y-117871518D01*
X88716707Y-118255960D01*
X88626504Y-118709440D01*
X88716707Y-119162920D01*
X88948618Y-119510000D01*
X88745818Y-119510000D01*
X88407127Y-119171309D01*
X88412733Y-119162920D01*
X88502936Y-118709440D01*
X88412733Y-118255960D01*
X88155858Y-117871518D01*
X87771416Y-117614643D01*
X87317936Y-117524440D01*
X87271504Y-117524440D01*
X86818024Y-117614643D01*
X86433582Y-117871518D01*
X86176707Y-118255960D01*
X86170000Y-118289678D01*
X86170000Y-116589202D01*
X86176707Y-116622920D01*
X86433582Y-117007362D01*
X86818024Y-117264237D01*
X87271504Y-117354440D01*
X87317936Y-117354440D01*
X87771416Y-117264237D01*
X88155858Y-117007362D01*
X88412733Y-116622920D01*
X88502936Y-116169440D01*
X88626504Y-116169440D01*
X88716707Y-116622920D01*
X88973582Y-117007362D01*
X89358024Y-117264237D01*
X89811504Y-117354440D01*
X89857936Y-117354440D01*
X90311416Y-117264237D01*
X90695858Y-117007362D01*
X90952733Y-116622920D01*
X91042936Y-116169440D01*
X90952733Y-115715960D01*
X90695858Y-115331518D01*
X90311416Y-115074643D01*
X89857936Y-114984440D01*
X89811504Y-114984440D01*
X89358024Y-115074643D01*
X88973582Y-115331518D01*
X88716707Y-115715960D01*
X88626504Y-116169440D01*
X88502936Y-116169440D01*
X88412733Y-115715960D01*
X88155858Y-115331518D01*
X87771416Y-115074643D01*
X87317936Y-114984440D01*
X87271504Y-114984440D01*
X86818024Y-115074643D01*
X86433582Y-115331518D01*
X86176707Y-115715960D01*
X86170000Y-115749678D01*
X86170000Y-114049202D01*
X86176707Y-114082920D01*
X86433582Y-114467362D01*
X86818024Y-114724237D01*
X87271504Y-114814440D01*
X87317936Y-114814440D01*
X87771416Y-114724237D01*
X88155858Y-114467362D01*
X88412733Y-114082920D01*
X88502936Y-113629440D01*
X88626504Y-113629440D01*
X88716707Y-114082920D01*
X88973582Y-114467362D01*
X89358024Y-114724237D01*
X89811504Y-114814440D01*
X89857936Y-114814440D01*
X90311416Y-114724237D01*
X90695858Y-114467362D01*
X90952733Y-114082920D01*
X91042936Y-113629440D01*
X90952733Y-113175960D01*
X90695858Y-112791518D01*
X90311416Y-112534643D01*
X89857936Y-112444440D01*
X89811504Y-112444440D01*
X89358024Y-112534643D01*
X88973582Y-112791518D01*
X88716707Y-113175960D01*
X88626504Y-113629440D01*
X88502936Y-113629440D01*
X88412733Y-113175960D01*
X88155858Y-112791518D01*
X87771416Y-112534643D01*
X87317936Y-112444440D01*
X87271504Y-112444440D01*
X86818024Y-112534643D01*
X86433582Y-112791518D01*
X86176707Y-113175960D01*
X86170000Y-113209678D01*
X86170000Y-111509202D01*
X86176707Y-111542920D01*
X86433582Y-111927362D01*
X86818024Y-112184237D01*
X87271504Y-112274440D01*
X87317936Y-112274440D01*
X87771416Y-112184237D01*
X88155858Y-111927362D01*
X88412733Y-111542920D01*
X88502936Y-111089440D01*
X88412733Y-110635960D01*
X88407127Y-110627571D01*
X88744698Y-110290000D01*
X88947869Y-110290000D01*
X88716707Y-110635960D01*
X88626504Y-111089440D01*
X88716707Y-111542920D01*
X88973582Y-111927362D01*
X89358024Y-112184237D01*
X89811504Y-112274440D01*
X89857936Y-112274440D01*
X90311416Y-112184237D01*
X90695858Y-111927362D01*
X90952733Y-111542920D01*
X91042936Y-111089440D01*
X90952733Y-110635960D01*
X90721571Y-110290000D01*
X91530000Y-110290000D01*
X91706035Y-110254985D01*
X91855269Y-110155269D01*
X92135269Y-109875269D01*
X92234985Y-109726035D01*
X92270000Y-109550000D01*
X92270000Y-108663332D01*
X92301360Y-108739228D01*
X92479832Y-108918013D01*
X92713137Y-109014889D01*
X92965755Y-109015110D01*
X93199228Y-108918640D01*
X93378013Y-108740168D01*
X93474889Y-108506863D01*
X93474986Y-108395552D01*
X94930538Y-106940000D01*
X122170000Y-106940000D01*
X122346035Y-106904985D01*
X122495269Y-106805269D01*
X123715269Y-105585269D01*
X123814985Y-105436035D01*
X123850000Y-105260000D01*
X123850000Y-103202324D01*
X123931360Y-103399228D01*
X124010000Y-103478006D01*
X124010000Y-106156644D01*
X123780772Y-106251360D01*
X123601987Y-106429832D01*
X123505111Y-106663137D01*
X123504890Y-106915755D01*
X123601360Y-107149228D01*
X123756975Y-107305116D01*
X123601987Y-107459832D01*
X123505111Y-107693137D01*
X123504890Y-107945755D01*
X123601360Y-108179228D01*
X123779832Y-108358013D01*
X123811375Y-108371111D01*
X123810772Y-108371360D01*
X123631987Y-108549832D01*
X123535111Y-108783137D01*
X123534890Y-109035755D01*
X123631360Y-109269228D01*
X123809832Y-109448013D01*
X124043137Y-109544889D01*
X124295755Y-109545110D01*
X124529228Y-109448640D01*
X124708013Y-109270168D01*
X124804889Y-109036863D01*
X124804986Y-108925552D01*
X126365269Y-107365269D01*
X126421335Y-107281360D01*
X126464985Y-107216034D01*
X126500000Y-107040000D01*
X126500000Y-105518044D01*
X126578013Y-105440168D01*
X126674889Y-105206863D01*
X126675110Y-104954245D01*
X126578640Y-104720772D01*
X126400168Y-104541987D01*
X126166863Y-104445111D01*
X125914245Y-104444890D01*
X125690850Y-104537196D01*
X125768013Y-104460168D01*
X125864889Y-104226863D01*
X125865110Y-103974245D01*
X125768640Y-103740772D01*
X125590168Y-103561987D01*
X125356863Y-103465111D01*
X125104245Y-103464890D01*
X124930000Y-103536887D01*
X124930000Y-103478044D01*
X125008013Y-103400168D01*
X125104889Y-103166863D01*
X125105110Y-102914245D01*
X125008640Y-102680772D01*
X124830168Y-102501987D01*
X124596863Y-102405111D01*
X124344245Y-102404890D01*
X124110772Y-102501360D01*
X123931987Y-102679832D01*
X123850000Y-102877280D01*
X123850000Y-101915755D01*
X132164890Y-101915755D01*
X132261360Y-102149228D01*
X132340000Y-102228006D01*
X132340000Y-107210000D01*
X132375015Y-107386035D01*
X132444999Y-107490773D01*
X132444890Y-107615755D01*
X132541360Y-107849228D01*
X132719832Y-108028013D01*
X132953137Y-108124889D01*
X133205755Y-108125110D01*
X133439228Y-108028640D01*
X133618013Y-107850168D01*
X133714889Y-107616863D01*
X133715110Y-107364245D01*
X133618640Y-107130772D01*
X133440168Y-106951987D01*
X133260000Y-106877175D01*
X133260000Y-102228044D01*
X133338013Y-102150168D01*
X133434889Y-101916863D01*
X133435110Y-101664245D01*
X133338640Y-101430772D01*
X133160168Y-101251987D01*
X132926863Y-101155111D01*
X132674245Y-101154890D01*
X132440772Y-101251360D01*
X132261987Y-101429832D01*
X132165111Y-101663137D01*
X132164890Y-101915755D01*
X123850000Y-101915755D01*
X123850000Y-99315755D01*
X131354890Y-99315755D01*
X131451360Y-99549228D01*
X131629832Y-99728013D01*
X131863137Y-99824889D01*
X131974448Y-99824986D01*
X134100000Y-101950538D01*
X134100000Y-107180000D01*
X134135015Y-107356035D01*
X134204999Y-107460772D01*
X134204890Y-107585755D01*
X134301360Y-107819228D01*
X134479832Y-107998013D01*
X134713137Y-108094889D01*
X134965755Y-108095110D01*
X135199228Y-107998640D01*
X135378013Y-107820168D01*
X135474889Y-107586863D01*
X135475110Y-107334245D01*
X135378640Y-107100772D01*
X135200168Y-106921987D01*
X135020000Y-106847175D01*
X135020000Y-101760000D01*
X135012044Y-101720000D01*
X134984985Y-101583965D01*
X134885269Y-101434731D01*
X132625014Y-99174476D01*
X132625110Y-99064245D01*
X132528640Y-98830772D01*
X132450000Y-98751994D01*
X132450000Y-95420000D01*
X133608437Y-95420000D01*
X133608437Y-97420000D01*
X133631796Y-97544144D01*
X133705165Y-97658162D01*
X133817113Y-97734653D01*
X133950000Y-97761563D01*
X135950000Y-97761563D01*
X136074144Y-97738204D01*
X136188162Y-97664835D01*
X136264653Y-97552887D01*
X136291563Y-97420000D01*
X136291563Y-95420000D01*
X136268204Y-95295856D01*
X136194835Y-95181838D01*
X136082887Y-95105347D01*
X135950000Y-95078437D01*
X133950000Y-95078437D01*
X133825856Y-95101796D01*
X133711838Y-95175165D01*
X133635347Y-95287113D01*
X133608437Y-95420000D01*
X132450000Y-95420000D01*
X132450000Y-93990575D01*
X132458771Y-90859271D01*
X132538013Y-90780168D01*
X132634889Y-90546863D01*
X132635110Y-90294245D01*
X132538640Y-90060772D01*
X132360168Y-89881987D01*
X132258344Y-89839706D01*
X134180610Y-89839706D01*
X134299923Y-90015884D01*
X134807052Y-90173627D01*
X135335944Y-90125292D01*
X135600077Y-90015884D01*
X135719390Y-89839706D01*
X134950000Y-89070316D01*
X134180610Y-89839706D01*
X132258344Y-89839706D01*
X132126863Y-89785111D01*
X131874245Y-89784890D01*
X131640772Y-89881360D01*
X131461987Y-90059832D01*
X131365111Y-90293137D01*
X131364890Y-90545755D01*
X131461360Y-90779228D01*
X131538775Y-90856779D01*
X131530002Y-93988711D01*
X131530128Y-93989355D01*
X131530000Y-93990000D01*
X131530000Y-98751956D01*
X131451987Y-98829832D01*
X131355111Y-99063137D01*
X131354890Y-99315755D01*
X123850000Y-99315755D01*
X123850000Y-98250000D01*
X123814985Y-98073966D01*
X123715269Y-97924731D01*
X121555269Y-95764731D01*
X121406035Y-95665015D01*
X121230000Y-95630000D01*
X120498167Y-95630000D01*
X120490168Y-95621987D01*
X120256863Y-95525111D01*
X120004245Y-95524890D01*
X119770772Y-95621360D01*
X119591987Y-95799832D01*
X119495111Y-96033137D01*
X119494890Y-96285755D01*
X119591360Y-96519228D01*
X119769832Y-96698013D01*
X120003137Y-96794889D01*
X120255755Y-96795110D01*
X120489228Y-96698640D01*
X120638129Y-96550000D01*
X121039462Y-96550000D01*
X122930000Y-98440538D01*
X122930000Y-105069462D01*
X121979462Y-106020000D01*
X107810538Y-106020000D01*
X108365269Y-105465269D01*
X108464984Y-105316035D01*
X108464985Y-105316034D01*
X108500000Y-105140000D01*
X108500000Y-99760886D01*
X108534889Y-99676863D01*
X108535110Y-99424245D01*
X108438640Y-99190772D01*
X108260168Y-99011987D01*
X108026863Y-98915111D01*
X107774245Y-98914890D01*
X107540772Y-99011360D01*
X107361987Y-99189832D01*
X107265111Y-99423137D01*
X107264890Y-99675755D01*
X107361360Y-99909228D01*
X107539832Y-100088013D01*
X107580000Y-100104692D01*
X107580000Y-104949462D01*
X107149462Y-105380000D01*
X94320000Y-105380000D01*
X94143965Y-105415015D01*
X93994731Y-105514731D01*
X91484731Y-108024731D01*
X91385015Y-108173965D01*
X91369267Y-108253137D01*
X91350000Y-108350000D01*
X91350000Y-109359462D01*
X91339462Y-109370000D01*
X90707459Y-109370000D01*
X90952733Y-109002920D01*
X91042936Y-108549440D01*
X90952733Y-108095960D01*
X90695858Y-107711518D01*
X90311416Y-107454643D01*
X89857936Y-107364440D01*
X89811504Y-107364440D01*
X89358024Y-107454643D01*
X88973582Y-107711518D01*
X88716707Y-108095960D01*
X88626504Y-108549440D01*
X88716707Y-109002920D01*
X88961981Y-109370000D01*
X88554160Y-109370000D01*
X88378125Y-109405015D01*
X88228891Y-109504731D01*
X87744361Y-109989261D01*
X87317936Y-109904440D01*
X87271504Y-109904440D01*
X86818024Y-109994643D01*
X86433582Y-110251518D01*
X86176707Y-110635960D01*
X86170000Y-110669678D01*
X86170000Y-108969202D01*
X86176707Y-109002920D01*
X86433582Y-109387362D01*
X86818024Y-109644237D01*
X87271504Y-109734440D01*
X87317936Y-109734440D01*
X87771416Y-109644237D01*
X88155858Y-109387362D01*
X88412733Y-109002920D01*
X88502936Y-108549440D01*
X88412733Y-108095960D01*
X88155858Y-107711518D01*
X87771416Y-107454643D01*
X87317936Y-107364440D01*
X87271504Y-107364440D01*
X86818024Y-107454643D01*
X86433582Y-107711518D01*
X86176707Y-108095960D01*
X86170000Y-108129678D01*
X86170000Y-106429202D01*
X86176707Y-106462920D01*
X86433582Y-106847362D01*
X86818024Y-107104237D01*
X87271504Y-107194440D01*
X87317936Y-107194440D01*
X87771416Y-107104237D01*
X88155858Y-106847362D01*
X88412733Y-106462920D01*
X88502936Y-106009440D01*
X88626504Y-106009440D01*
X88716707Y-106462920D01*
X88973582Y-106847362D01*
X89358024Y-107104237D01*
X89811504Y-107194440D01*
X89857936Y-107194440D01*
X90311416Y-107104237D01*
X90695858Y-106847362D01*
X90952733Y-106462920D01*
X91042936Y-106009440D01*
X90952733Y-105555960D01*
X90695858Y-105171518D01*
X90311416Y-104914643D01*
X89857936Y-104824440D01*
X89811504Y-104824440D01*
X89358024Y-104914643D01*
X88973582Y-105171518D01*
X88716707Y-105555960D01*
X88626504Y-106009440D01*
X88502936Y-106009440D01*
X88412733Y-105555960D01*
X88155858Y-105171518D01*
X87771416Y-104914643D01*
X87317936Y-104824440D01*
X87271504Y-104824440D01*
X86818024Y-104914643D01*
X86433582Y-105171518D01*
X86176707Y-105555960D01*
X86170000Y-105589678D01*
X86170000Y-103889202D01*
X86176707Y-103922920D01*
X86433582Y-104307362D01*
X86818024Y-104564237D01*
X87271504Y-104654440D01*
X87317936Y-104654440D01*
X87771416Y-104564237D01*
X88155858Y-104307362D01*
X88412733Y-103922920D01*
X88502936Y-103469440D01*
X88626504Y-103469440D01*
X88716707Y-103922920D01*
X88973582Y-104307362D01*
X89358024Y-104564237D01*
X89811504Y-104654440D01*
X89857936Y-104654440D01*
X90311416Y-104564237D01*
X90695858Y-104307362D01*
X90952733Y-103922920D01*
X91042936Y-103469440D01*
X90952733Y-103015960D01*
X90695858Y-102631518D01*
X90311416Y-102374643D01*
X89857936Y-102284440D01*
X89811504Y-102284440D01*
X89358024Y-102374643D01*
X88973582Y-102631518D01*
X88716707Y-103015960D01*
X88626504Y-103469440D01*
X88502936Y-103469440D01*
X88412733Y-103015960D01*
X88155858Y-102631518D01*
X87771416Y-102374643D01*
X87317936Y-102284440D01*
X87271504Y-102284440D01*
X86818024Y-102374643D01*
X86433582Y-102631518D01*
X86176707Y-103015960D01*
X86170000Y-103049678D01*
X86170000Y-101349202D01*
X86176707Y-101382920D01*
X86433582Y-101767362D01*
X86818024Y-102024237D01*
X87271504Y-102114440D01*
X87317936Y-102114440D01*
X87771416Y-102024237D01*
X88155858Y-101767362D01*
X88412733Y-101382920D01*
X88502936Y-100929440D01*
X88626504Y-100929440D01*
X88716707Y-101382920D01*
X88973582Y-101767362D01*
X89358024Y-102024237D01*
X89811504Y-102114440D01*
X89857936Y-102114440D01*
X90284361Y-102029619D01*
X90420011Y-102165269D01*
X90569246Y-102264985D01*
X90745280Y-102300000D01*
X95859462Y-102300000D01*
X96564986Y-103005524D01*
X96564890Y-103115755D01*
X96661360Y-103349228D01*
X96839832Y-103528013D01*
X97073137Y-103624889D01*
X97325755Y-103625110D01*
X97559228Y-103528640D01*
X97738013Y-103350168D01*
X97834889Y-103116863D01*
X97835110Y-102864245D01*
X97738640Y-102630772D01*
X97560168Y-102451987D01*
X97326863Y-102355111D01*
X97215552Y-102355014D01*
X96375269Y-101514731D01*
X96226035Y-101415015D01*
X96050000Y-101380000D01*
X90953314Y-101380000D01*
X91042936Y-100929440D01*
X90952733Y-100475960D01*
X90919188Y-100425755D01*
X92854890Y-100425755D01*
X92951360Y-100659228D01*
X93129832Y-100838013D01*
X93363137Y-100934889D01*
X93615755Y-100935110D01*
X93849228Y-100838640D01*
X94028013Y-100660168D01*
X94124889Y-100426863D01*
X94124986Y-100315552D01*
X96860538Y-97580000D01*
X111820000Y-97580000D01*
X111996035Y-97544985D01*
X112145269Y-97445269D01*
X113485269Y-96105269D01*
X113538586Y-96025475D01*
X113584985Y-95956034D01*
X113620000Y-95780000D01*
X113620000Y-89460000D01*
X113593871Y-89328640D01*
X113584985Y-89283965D01*
X113485269Y-89134731D01*
X113125014Y-88774476D01*
X113125110Y-88664245D01*
X113028640Y-88430772D01*
X112850168Y-88251987D01*
X112616863Y-88155111D01*
X112364245Y-88154890D01*
X112130772Y-88251360D01*
X111951987Y-88429832D01*
X111855111Y-88663137D01*
X111854890Y-88915755D01*
X111951360Y-89149228D01*
X112129832Y-89328013D01*
X112363137Y-89424889D01*
X112474448Y-89424986D01*
X112700000Y-89650538D01*
X112700000Y-95589462D01*
X111629462Y-96660000D01*
X96670000Y-96660000D01*
X96493965Y-96695015D01*
X96344731Y-96794731D01*
X93474476Y-99664986D01*
X93364245Y-99664890D01*
X93130772Y-99761360D01*
X92951987Y-99939832D01*
X92855111Y-100173137D01*
X92854890Y-100425755D01*
X90919188Y-100425755D01*
X90695858Y-100091518D01*
X90311416Y-99834643D01*
X89857936Y-99744440D01*
X89811504Y-99744440D01*
X89358024Y-99834643D01*
X88973582Y-100091518D01*
X88716707Y-100475960D01*
X88626504Y-100929440D01*
X88502936Y-100929440D01*
X88412733Y-100475960D01*
X88155858Y-100091518D01*
X87771416Y-99834643D01*
X87317936Y-99744440D01*
X87271504Y-99744440D01*
X86818024Y-99834643D01*
X86433582Y-100091518D01*
X86176707Y-100475960D01*
X86170000Y-100509678D01*
X86170000Y-98809202D01*
X86176707Y-98842920D01*
X86433582Y-99227362D01*
X86818024Y-99484237D01*
X87271504Y-99574440D01*
X87317936Y-99574440D01*
X87771416Y-99484237D01*
X88155858Y-99227362D01*
X88412733Y-98842920D01*
X88502936Y-98389440D01*
X88626504Y-98389440D01*
X88716707Y-98842920D01*
X88973582Y-99227362D01*
X89358024Y-99484237D01*
X89811504Y-99574440D01*
X89857936Y-99574440D01*
X90311416Y-99484237D01*
X90695858Y-99227362D01*
X90952733Y-98842920D01*
X91042936Y-98389440D01*
X90952733Y-97935960D01*
X90772189Y-97665755D01*
X93704890Y-97665755D01*
X93801360Y-97899228D01*
X93979832Y-98078013D01*
X94213137Y-98174889D01*
X94465755Y-98175110D01*
X94699228Y-98078640D01*
X94878013Y-97900168D01*
X94974889Y-97666863D01*
X94974986Y-97555552D01*
X99900538Y-92630000D01*
X106220000Y-92630000D01*
X106396035Y-92594985D01*
X106545269Y-92495269D01*
X107845621Y-91194917D01*
X108065755Y-91195110D01*
X108299228Y-91098640D01*
X108478013Y-90920168D01*
X108574889Y-90686863D01*
X108575110Y-90434245D01*
X108478640Y-90200772D01*
X108300168Y-90021987D01*
X108066863Y-89925111D01*
X107814245Y-89924890D01*
X107580772Y-90021360D01*
X107401987Y-90199832D01*
X107305111Y-90433137D01*
X107305110Y-90434352D01*
X106029462Y-91710000D01*
X99710000Y-91710000D01*
X99533965Y-91745015D01*
X99384731Y-91844731D01*
X94324476Y-96904986D01*
X94214245Y-96904890D01*
X93980772Y-97001360D01*
X93801987Y-97179832D01*
X93705111Y-97413137D01*
X93704890Y-97665755D01*
X90772189Y-97665755D01*
X90695858Y-97551518D01*
X90311416Y-97294643D01*
X89857936Y-97204440D01*
X89811504Y-97204440D01*
X89358024Y-97294643D01*
X88973582Y-97551518D01*
X88716707Y-97935960D01*
X88626504Y-98389440D01*
X88502936Y-98389440D01*
X88412733Y-97935960D01*
X88155858Y-97551518D01*
X87771416Y-97294643D01*
X87317936Y-97204440D01*
X87271504Y-97204440D01*
X86818024Y-97294643D01*
X86433582Y-97551518D01*
X86176707Y-97935960D01*
X86170000Y-97969678D01*
X86170000Y-96269202D01*
X86176707Y-96302920D01*
X86433582Y-96687362D01*
X86818024Y-96944237D01*
X87271504Y-97034440D01*
X87317936Y-97034440D01*
X87771416Y-96944237D01*
X88155858Y-96687362D01*
X88412733Y-96302920D01*
X88502936Y-95849440D01*
X88626504Y-95849440D01*
X88716707Y-96302920D01*
X88973582Y-96687362D01*
X89358024Y-96944237D01*
X89811504Y-97034440D01*
X89857936Y-97034440D01*
X90311416Y-96944237D01*
X90695858Y-96687362D01*
X90948376Y-96309440D01*
X91680560Y-96309440D01*
X91856595Y-96274425D01*
X92005829Y-96174709D01*
X93365269Y-94815269D01*
X93464984Y-94666035D01*
X93464985Y-94666034D01*
X93500000Y-94490000D01*
X93500000Y-87325755D01*
X104554890Y-87325755D01*
X104651360Y-87559228D01*
X104829832Y-87738013D01*
X105063137Y-87834889D01*
X105174448Y-87834986D01*
X105214731Y-87875269D01*
X105363965Y-87974985D01*
X105540000Y-88010000D01*
X113579462Y-88010000D01*
X116770000Y-91200538D01*
X116770000Y-103651956D01*
X116691987Y-103729832D01*
X116595111Y-103963137D01*
X116594890Y-104215755D01*
X116691360Y-104449228D01*
X116869832Y-104628013D01*
X117103137Y-104724889D01*
X117355755Y-104725110D01*
X117589228Y-104628640D01*
X117730000Y-104488114D01*
X117730000Y-104721956D01*
X117651987Y-104799832D01*
X117555111Y-105033137D01*
X117554890Y-105285755D01*
X117651360Y-105519228D01*
X117829832Y-105698013D01*
X118063137Y-105794889D01*
X118315755Y-105795110D01*
X118549228Y-105698640D01*
X118728013Y-105520168D01*
X118824889Y-105286863D01*
X118825110Y-105034245D01*
X118728640Y-104800772D01*
X118650000Y-104721994D01*
X118650000Y-90910000D01*
X118615397Y-90736035D01*
X118614985Y-90733965D01*
X118515269Y-90584731D01*
X116607590Y-88677052D01*
X133596373Y-88677052D01*
X133644708Y-89205944D01*
X133754116Y-89470077D01*
X133930294Y-89589390D01*
X134699684Y-88820000D01*
X135200316Y-88820000D01*
X135969706Y-89589390D01*
X136145884Y-89470077D01*
X136303627Y-88962948D01*
X136255292Y-88434056D01*
X136145884Y-88169923D01*
X135969706Y-88050610D01*
X135200316Y-88820000D01*
X134699684Y-88820000D01*
X133930294Y-88050610D01*
X133754116Y-88169923D01*
X133596373Y-88677052D01*
X116607590Y-88677052D01*
X115730832Y-87800294D01*
X134180610Y-87800294D01*
X134950000Y-88569684D01*
X135719390Y-87800294D01*
X135600077Y-87624116D01*
X135092948Y-87466373D01*
X134564056Y-87514708D01*
X134299923Y-87624116D01*
X134180610Y-87800294D01*
X115730832Y-87800294D01*
X114325269Y-86394731D01*
X114176035Y-86295015D01*
X114000000Y-86260000D01*
X109108097Y-86260000D01*
X109060168Y-86211987D01*
X108826863Y-86115111D01*
X108574245Y-86114890D01*
X108340772Y-86211360D01*
X108161987Y-86389832D01*
X108065111Y-86623137D01*
X108064890Y-86875755D01*
X108153415Y-87090000D01*
X105825096Y-87090000D01*
X105825110Y-87074245D01*
X105728640Y-86840772D01*
X105550168Y-86661987D01*
X105316863Y-86565111D01*
X105064245Y-86564890D01*
X104830772Y-86661360D01*
X104651987Y-86839832D01*
X104555111Y-87073137D01*
X104554890Y-87325755D01*
X93500000Y-87325755D01*
X93500000Y-86020538D01*
X95623438Y-83897100D01*
X107495037Y-83897100D01*
X107495037Y-85597100D01*
X107518396Y-85721244D01*
X107591765Y-85835262D01*
X107703713Y-85911753D01*
X107836600Y-85938663D01*
X109536600Y-85938663D01*
X109660744Y-85915304D01*
X109774762Y-85841935D01*
X109851253Y-85729987D01*
X109878163Y-85597100D01*
X109878163Y-85105219D01*
X110096992Y-85105219D01*
X110320024Y-85510241D01*
X110681074Y-85799082D01*
X110868484Y-85876691D01*
X111049600Y-85834033D01*
X111049600Y-84924100D01*
X111403600Y-84924100D01*
X111403600Y-85834033D01*
X111584716Y-85876691D01*
X111772126Y-85799082D01*
X112133176Y-85510241D01*
X112356208Y-85105219D01*
X112314573Y-84924100D01*
X111403600Y-84924100D01*
X111049600Y-84924100D01*
X110138627Y-84924100D01*
X110096992Y-85105219D01*
X109878163Y-85105219D01*
X109878163Y-84723884D01*
X112581600Y-84723884D01*
X112581600Y-84770316D01*
X112671803Y-85223796D01*
X112928678Y-85608238D01*
X113313120Y-85865113D01*
X113766600Y-85955316D01*
X114220080Y-85865113D01*
X114604522Y-85608238D01*
X114861397Y-85223796D01*
X114951600Y-84770316D01*
X114951600Y-84723884D01*
X115121600Y-84723884D01*
X115121600Y-84770316D01*
X115211803Y-85223796D01*
X115468678Y-85608238D01*
X115853120Y-85865113D01*
X116306600Y-85955316D01*
X116760080Y-85865113D01*
X117144522Y-85608238D01*
X117401397Y-85223796D01*
X117491600Y-84770316D01*
X117491600Y-84723884D01*
X117401397Y-84270404D01*
X117144522Y-83885962D01*
X116760080Y-83629087D01*
X116306600Y-83538884D01*
X115853120Y-83629087D01*
X115468678Y-83885962D01*
X115211803Y-84270404D01*
X115121600Y-84723884D01*
X114951600Y-84723884D01*
X114861397Y-84270404D01*
X114604522Y-83885962D01*
X114220080Y-83629087D01*
X113766600Y-83538884D01*
X113313120Y-83629087D01*
X112928678Y-83885962D01*
X112671803Y-84270404D01*
X112581600Y-84723884D01*
X109878163Y-84723884D01*
X109878163Y-84388981D01*
X110096992Y-84388981D01*
X110138627Y-84570100D01*
X111049600Y-84570100D01*
X111049600Y-83660167D01*
X111403600Y-83660167D01*
X111403600Y-84570100D01*
X112314573Y-84570100D01*
X112356208Y-84388981D01*
X112133176Y-83983959D01*
X111772126Y-83695118D01*
X111584716Y-83617509D01*
X111403600Y-83660167D01*
X111049600Y-83660167D01*
X110868484Y-83617509D01*
X110681074Y-83695118D01*
X110320024Y-83983959D01*
X110096992Y-84388981D01*
X109878163Y-84388981D01*
X109878163Y-83897100D01*
X109854804Y-83772956D01*
X109781435Y-83658938D01*
X109669487Y-83582447D01*
X109536600Y-83555537D01*
X107836600Y-83555537D01*
X107712456Y-83578896D01*
X107598438Y-83652265D01*
X107521947Y-83764213D01*
X107495037Y-83897100D01*
X95623438Y-83897100D01*
X97850538Y-81670000D01*
X129681833Y-81670000D01*
X129689832Y-81678013D01*
X129923137Y-81774889D01*
X130175755Y-81775110D01*
X130409228Y-81678640D01*
X130588013Y-81500168D01*
X130684889Y-81266863D01*
X130685110Y-81014245D01*
X130588640Y-80780772D01*
X130410168Y-80601987D01*
X130176863Y-80505111D01*
X129924245Y-80504890D01*
X129690772Y-80601360D01*
X129541871Y-80750000D01*
X97660000Y-80750000D01*
X97483965Y-80785015D01*
X97334731Y-80884731D01*
X92714731Y-85504731D01*
X92615015Y-85653965D01*
X92611714Y-85670559D01*
X92580000Y-85830000D01*
X92580000Y-94299462D01*
X91490022Y-95389440D01*
X90948376Y-95389440D01*
X90695858Y-95011518D01*
X90311416Y-94754643D01*
X89857936Y-94664440D01*
X89811504Y-94664440D01*
X89358024Y-94754643D01*
X88973582Y-95011518D01*
X88716707Y-95395960D01*
X88626504Y-95849440D01*
X88502936Y-95849440D01*
X88412733Y-95395960D01*
X88155858Y-95011518D01*
X87771416Y-94754643D01*
X87317936Y-94664440D01*
X87271504Y-94664440D01*
X86818024Y-94754643D01*
X86433582Y-95011518D01*
X86176707Y-95395960D01*
X86170000Y-95429678D01*
X86170000Y-93729202D01*
X86176707Y-93762920D01*
X86433582Y-94147362D01*
X86818024Y-94404237D01*
X87271504Y-94494440D01*
X87317936Y-94494440D01*
X87771416Y-94404237D01*
X88155858Y-94147362D01*
X88412733Y-93762920D01*
X88502936Y-93309440D01*
X88626504Y-93309440D01*
X88716707Y-93762920D01*
X88973582Y-94147362D01*
X89358024Y-94404237D01*
X89811504Y-94494440D01*
X89857936Y-94494440D01*
X90311416Y-94404237D01*
X90695858Y-94147362D01*
X90952733Y-93762920D01*
X91042936Y-93309440D01*
X90952733Y-92855960D01*
X90695858Y-92471518D01*
X90311416Y-92214643D01*
X89857936Y-92124440D01*
X89811504Y-92124440D01*
X89358024Y-92214643D01*
X88973582Y-92471518D01*
X88716707Y-92855960D01*
X88626504Y-93309440D01*
X88502936Y-93309440D01*
X88412733Y-92855960D01*
X88155858Y-92471518D01*
X87771416Y-92214643D01*
X87317936Y-92124440D01*
X87271504Y-92124440D01*
X86818024Y-92214643D01*
X86433582Y-92471518D01*
X86176707Y-92855960D01*
X86170000Y-92889678D01*
X86170000Y-91189202D01*
X86176707Y-91222920D01*
X86433582Y-91607362D01*
X86818024Y-91864237D01*
X87271504Y-91954440D01*
X87317936Y-91954440D01*
X87771416Y-91864237D01*
X88155858Y-91607362D01*
X88412733Y-91222920D01*
X88502936Y-90769440D01*
X88626504Y-90769440D01*
X88716707Y-91222920D01*
X88973582Y-91607362D01*
X89358024Y-91864237D01*
X89811504Y-91954440D01*
X89857936Y-91954440D01*
X90311416Y-91864237D01*
X90695858Y-91607362D01*
X90952733Y-91222920D01*
X91042936Y-90769440D01*
X90952733Y-90315960D01*
X90695858Y-89931518D01*
X90311416Y-89674643D01*
X89857936Y-89584440D01*
X89811504Y-89584440D01*
X89358024Y-89674643D01*
X88973582Y-89931518D01*
X88716707Y-90315960D01*
X88626504Y-90769440D01*
X88502936Y-90769440D01*
X88412733Y-90315960D01*
X88155858Y-89931518D01*
X87771416Y-89674643D01*
X87317936Y-89584440D01*
X87271504Y-89584440D01*
X86818024Y-89674643D01*
X86433582Y-89931518D01*
X86176707Y-90315960D01*
X86170000Y-90349678D01*
X86170000Y-88649202D01*
X86176707Y-88682920D01*
X86433582Y-89067362D01*
X86818024Y-89324237D01*
X87271504Y-89414440D01*
X87317936Y-89414440D01*
X87771416Y-89324237D01*
X88155858Y-89067362D01*
X88412733Y-88682920D01*
X88502936Y-88229440D01*
X88412733Y-87775960D01*
X88155858Y-87391518D01*
X87824332Y-87170000D01*
X89305108Y-87170000D01*
X88973582Y-87391518D01*
X88716707Y-87775960D01*
X88626504Y-88229440D01*
X88716707Y-88682920D01*
X88973582Y-89067362D01*
X89358024Y-89324237D01*
X89811504Y-89414440D01*
X89857936Y-89414440D01*
X90311416Y-89324237D01*
X90695858Y-89067362D01*
X90952733Y-88682920D01*
X91042936Y-88229440D01*
X90952733Y-87775960D01*
X90695858Y-87391518D01*
X90364332Y-87170000D01*
X90530000Y-87170000D01*
X90706035Y-87134985D01*
X90855269Y-87035269D01*
X92755269Y-85135269D01*
X92854985Y-84986035D01*
X92890000Y-84810000D01*
X92890000Y-82940538D01*
X93835524Y-81995014D01*
X93945755Y-81995110D01*
X94179228Y-81898640D01*
X94358013Y-81720168D01*
X94454889Y-81486863D01*
X94455110Y-81234245D01*
X94358640Y-81000772D01*
X94180168Y-80821987D01*
X93946863Y-80725111D01*
X93694245Y-80724890D01*
X93460772Y-80821360D01*
X93281987Y-80999832D01*
X93185111Y-81233137D01*
X93185014Y-81344448D01*
X92104731Y-82424731D01*
X92005015Y-82573965D01*
X91995618Y-82621209D01*
X91970000Y-82750000D01*
X91970000Y-84619462D01*
X90339462Y-86250000D01*
X89792075Y-86250000D01*
X90216943Y-86074448D01*
X91071447Y-85221434D01*
X91534472Y-84106347D01*
X91535526Y-82898950D01*
X91074448Y-81783057D01*
X90221434Y-80928553D01*
X89106347Y-80465528D01*
X87898950Y-80464474D01*
X86783057Y-80925552D01*
X85928553Y-81778566D01*
X85465528Y-82893653D01*
X85464474Y-84101050D01*
X85925552Y-85216943D01*
X86778566Y-86071447D01*
X87208569Y-86250000D01*
X85890000Y-86250000D01*
X85713966Y-86285015D01*
X85564731Y-86384731D01*
X85410000Y-86539462D01*
X85410000Y-83114047D01*
X85461035Y-82841860D01*
X85479005Y-82817915D01*
X85488185Y-82791405D01*
X85690348Y-81898519D01*
X86003756Y-81429471D01*
X86306272Y-81086074D01*
X86748959Y-80790280D01*
X87203180Y-80576529D01*
X87797686Y-80458275D01*
X88556865Y-80431637D01*
X106198212Y-80410000D01*
X138429325Y-80410000D01*
X139531954Y-80643891D01*
X139531954Y-80643891D01*
G37*
X139531954Y-80643891D02*
X139589733Y-80682498D01*
X140335064Y-81264220D01*
X140932064Y-82246380D01*
X140937019Y-82271293D01*
X140958255Y-82711940D01*
X140574448Y-81783057D01*
X139721434Y-80928553D01*
X138606347Y-80465528D01*
X137398950Y-80464474D01*
X136283057Y-80925552D01*
X135428553Y-81778566D01*
X134965528Y-82893653D01*
X134964474Y-84101050D01*
X135425552Y-85216943D01*
X136278566Y-86071447D01*
X137393653Y-86534472D01*
X138601050Y-86535526D01*
X139716943Y-86074448D01*
X140571447Y-85221434D01*
X141015893Y-84151089D01*
X141056171Y-142129691D01*
X140951800Y-142654400D01*
X140745325Y-143197754D01*
X140532139Y-143516810D01*
X140109915Y-143969928D01*
X139596035Y-144313291D01*
X139299167Y-144423003D01*
X138707848Y-144540624D01*
X137666121Y-144571720D01*
X111088161Y-144571720D01*
X111285937Y-144490000D01*
X130390000Y-144490000D01*
X130566035Y-144454985D01*
X130715269Y-144355269D01*
X132969488Y-142101050D01*
X134964474Y-142101050D01*
X135425552Y-143216943D01*
X136278566Y-144071447D01*
X137393653Y-144534472D01*
X138601050Y-144535526D01*
X139716943Y-144074448D01*
X140571447Y-143221434D01*
X141034472Y-142106347D01*
X141035526Y-140898950D01*
X140574448Y-139783057D01*
X139721434Y-138928553D01*
X138606347Y-138465528D01*
X137398950Y-138464474D01*
X136283057Y-138925552D01*
X135428553Y-139778566D01*
X134965528Y-140893653D01*
X134964474Y-142101050D01*
X132969488Y-142101050D01*
X139425269Y-135645269D01*
X139524985Y-135496035D01*
X139560000Y-135320000D01*
X139560000Y-102435070D01*
X139605755Y-102435110D01*
X139839228Y-102338640D01*
X140018013Y-102160168D01*
X140114889Y-101926863D01*
X140115110Y-101674245D01*
X140018640Y-101440772D01*
X139840168Y-101261987D01*
X139606863Y-101165111D01*
X139354245Y-101164890D01*
X139120772Y-101261360D01*
X138941987Y-101439832D01*
X138845111Y-101673137D01*
X138845014Y-101784448D01*
X138774731Y-101854731D01*
X138675015Y-102003965D01*
X138650887Y-102125269D01*
X138640000Y-102180000D01*
X138640000Y-135129462D01*
X130199462Y-143570000D01*
X129760538Y-143570000D01*
X129855524Y-143475014D01*
X129965755Y-143475110D01*
X130199228Y-143378640D01*
X130378013Y-143200168D01*
X130474889Y-142966863D01*
X130475110Y-142714245D01*
X130378640Y-142480772D01*
X130200168Y-142301987D01*
X129966863Y-142205111D01*
X129714245Y-142204890D01*
X129480772Y-142301360D01*
X129301987Y-142479832D01*
X129205111Y-142713137D01*
X129205014Y-142824448D01*
X128919464Y-143109998D01*
X117300536Y-143109998D01*
X116950000Y-142759462D01*
X116950000Y-140320000D01*
X116914985Y-140143966D01*
X116815269Y-139994731D01*
X115985269Y-139164731D01*
X115869536Y-139087400D01*
X115854797Y-139013304D01*
X115597922Y-138628862D01*
X115213480Y-138371987D01*
X114760000Y-138281784D01*
X114306520Y-138371987D01*
X113922078Y-138628862D01*
X113665203Y-139013304D01*
X113575000Y-139466784D01*
X113575000Y-139513216D01*
X113665203Y-139966696D01*
X113922078Y-140351138D01*
X114306520Y-140608013D01*
X114760000Y-140698216D01*
X115213480Y-140608013D01*
X115597922Y-140351138D01*
X115707141Y-140187679D01*
X116030000Y-140510538D01*
X116030000Y-142950000D01*
X116065015Y-143126035D01*
X116164731Y-143275269D01*
X116459462Y-143570000D01*
X111447904Y-143570000D01*
X111290168Y-143411987D01*
X111056863Y-143315111D01*
X110804245Y-143314890D01*
X110570772Y-143411360D01*
X110391987Y-143589832D01*
X110295111Y-143823137D01*
X110294890Y-144075755D01*
X110391360Y-144309228D01*
X110569832Y-144488013D01*
X110771422Y-144571720D01*
X88500212Y-144571720D01*
X88145802Y-144534692D01*
X89101050Y-144535526D01*
X90216943Y-144074448D01*
X91071447Y-143221434D01*
X91417469Y-142388119D01*
X108550392Y-142388119D01*
X108773424Y-142793141D01*
X109134474Y-143081982D01*
X109321884Y-143159591D01*
X109503000Y-143116933D01*
X109503000Y-142207000D01*
X109857000Y-142207000D01*
X109857000Y-143116933D01*
X110038116Y-143159591D01*
X110225526Y-143081982D01*
X110586576Y-142793141D01*
X110809608Y-142388119D01*
X110767973Y-142207000D01*
X109857000Y-142207000D01*
X109503000Y-142207000D01*
X108592027Y-142207000D01*
X108550392Y-142388119D01*
X91417469Y-142388119D01*
X91534472Y-142106347D01*
X91534558Y-142006784D01*
X111035000Y-142006784D01*
X111035000Y-142053216D01*
X111125203Y-142506696D01*
X111382078Y-142891138D01*
X111766520Y-143148013D01*
X112220000Y-143238216D01*
X112673480Y-143148013D01*
X113057922Y-142891138D01*
X113314797Y-142506696D01*
X113405000Y-142053216D01*
X113405000Y-142006784D01*
X113575000Y-142006784D01*
X113575000Y-142053216D01*
X113665203Y-142506696D01*
X113922078Y-142891138D01*
X114306520Y-143148013D01*
X114760000Y-143238216D01*
X115213480Y-143148013D01*
X115597922Y-142891138D01*
X115854797Y-142506696D01*
X115945000Y-142053216D01*
X115945000Y-142006784D01*
X115854797Y-141553304D01*
X115597922Y-141168862D01*
X115213480Y-140911987D01*
X114760000Y-140821784D01*
X114306520Y-140911987D01*
X113922078Y-141168862D01*
X113665203Y-141553304D01*
X113575000Y-142006784D01*
X113405000Y-142006784D01*
X113314797Y-141553304D01*
X113057922Y-141168862D01*
X112673480Y-140911987D01*
X112220000Y-140821784D01*
X111766520Y-140911987D01*
X111382078Y-141168862D01*
X111125203Y-141553304D01*
X111035000Y-142006784D01*
X91534558Y-142006784D01*
X91534851Y-141671881D01*
X108550392Y-141671881D01*
X108592027Y-141853000D01*
X109503000Y-141853000D01*
X109503000Y-140943067D01*
X109857000Y-140943067D01*
X109857000Y-141853000D01*
X110767973Y-141853000D01*
X110809608Y-141671881D01*
X110586576Y-141266859D01*
X110225526Y-140978018D01*
X110038116Y-140900409D01*
X109857000Y-140943067D01*
X109503000Y-140943067D01*
X109321884Y-140900409D01*
X109134474Y-140978018D01*
X108773424Y-141266859D01*
X108550392Y-141671881D01*
X91534851Y-141671881D01*
X91535526Y-140898950D01*
X91074448Y-139783057D01*
X90221434Y-138928553D01*
X89526522Y-138640000D01*
X108488437Y-138640000D01*
X108488437Y-140340000D01*
X108511796Y-140464144D01*
X108585165Y-140578162D01*
X108697113Y-140654653D01*
X108830000Y-140681563D01*
X110530000Y-140681563D01*
X110654144Y-140658204D01*
X110768162Y-140584835D01*
X110844653Y-140472887D01*
X110871563Y-140340000D01*
X110871563Y-139466784D01*
X111035000Y-139466784D01*
X111035000Y-139513216D01*
X111125203Y-139966696D01*
X111382078Y-140351138D01*
X111766520Y-140608013D01*
X112220000Y-140698216D01*
X112673480Y-140608013D01*
X113057922Y-140351138D01*
X113314797Y-139966696D01*
X113405000Y-139513216D01*
X113405000Y-139466784D01*
X113314797Y-139013304D01*
X113057922Y-138628862D01*
X112673480Y-138371987D01*
X112220000Y-138281784D01*
X111766520Y-138371987D01*
X111382078Y-138628862D01*
X111125203Y-139013304D01*
X111035000Y-139466784D01*
X110871563Y-139466784D01*
X110871563Y-138640000D01*
X110848204Y-138515856D01*
X110774835Y-138401838D01*
X110662887Y-138325347D01*
X110530000Y-138298437D01*
X108830000Y-138298437D01*
X108705856Y-138321796D01*
X108591838Y-138395165D01*
X108515347Y-138507113D01*
X108488437Y-138640000D01*
X89526522Y-138640000D01*
X89106347Y-138465528D01*
X87898950Y-138464474D01*
X86783057Y-138925552D01*
X85928553Y-139778566D01*
X85465528Y-140893653D01*
X85464474Y-142101050D01*
X85925552Y-143216943D01*
X86778566Y-144071447D01*
X87809589Y-144499565D01*
X87338072Y-144450302D01*
X87123075Y-144407537D01*
X86729315Y-144196594D01*
X86174273Y-143825727D01*
X85726391Y-143155424D01*
X85599094Y-142910260D01*
X85410000Y-141959618D01*
X85410000Y-136489440D01*
X86086504Y-136489440D01*
X86176707Y-136942920D01*
X86433582Y-137327362D01*
X86818024Y-137584237D01*
X87271504Y-137674440D01*
X87317936Y-137674440D01*
X87771416Y-137584237D01*
X88155858Y-137327362D01*
X88412733Y-136942920D01*
X88502936Y-136489440D01*
X88412733Y-136035960D01*
X88155858Y-135651518D01*
X88137782Y-135639440D01*
X88643157Y-135639440D01*
X88643157Y-137339440D01*
X88666516Y-137463584D01*
X88739885Y-137577602D01*
X88851833Y-137654093D01*
X88984720Y-137681003D01*
X90684720Y-137681003D01*
X90808864Y-137657644D01*
X90922882Y-137584275D01*
X90999373Y-137472327D01*
X91026283Y-137339440D01*
X91026283Y-136949440D01*
X96398902Y-136949440D01*
X96734731Y-137285269D01*
X96883966Y-137384985D01*
X97060000Y-137420000D01*
X108411956Y-137420000D01*
X108489832Y-137498013D01*
X108723137Y-137594889D01*
X108975755Y-137595110D01*
X109209228Y-137498640D01*
X109388013Y-137320168D01*
X109484889Y-137086863D01*
X109485110Y-136834245D01*
X109388640Y-136600772D01*
X109210168Y-136421987D01*
X108976863Y-136325111D01*
X108724245Y-136324890D01*
X108490772Y-136421360D01*
X108411994Y-136500000D01*
X97250538Y-136500000D01*
X96914709Y-136164171D01*
X96765475Y-136064455D01*
X96589440Y-136029440D01*
X91026283Y-136029440D01*
X91026283Y-135639440D01*
X91002924Y-135515296D01*
X90929555Y-135401278D01*
X90817607Y-135324787D01*
X90684720Y-135297877D01*
X88984720Y-135297877D01*
X88860576Y-135321236D01*
X88746558Y-135394605D01*
X88670067Y-135506553D01*
X88643157Y-135639440D01*
X88137782Y-135639440D01*
X87771416Y-135394643D01*
X87317936Y-135304440D01*
X87271504Y-135304440D01*
X86818024Y-135394643D01*
X86433582Y-135651518D01*
X86176707Y-136035960D01*
X86086504Y-136489440D01*
X85410000Y-136489440D01*
X85410000Y-133949440D01*
X86086504Y-133949440D01*
X86176707Y-134402920D01*
X86433582Y-134787362D01*
X86818024Y-135044237D01*
X87271504Y-135134440D01*
X87317936Y-135134440D01*
X87771416Y-135044237D01*
X88155858Y-134787362D01*
X88412733Y-134402920D01*
X88502936Y-133949440D01*
X88626504Y-133949440D01*
X88716707Y-134402920D01*
X88973582Y-134787362D01*
X89358024Y-135044237D01*
X89811504Y-135134440D01*
X89857936Y-135134440D01*
X90233648Y-135059706D01*
X109111010Y-135059706D01*
X109230323Y-135235884D01*
X109737452Y-135393627D01*
X110266344Y-135345292D01*
X110530477Y-135235884D01*
X110649790Y-135059706D01*
X115611010Y-135059706D01*
X115730323Y-135235884D01*
X116237452Y-135393627D01*
X116766344Y-135345292D01*
X117030477Y-135235884D01*
X117149790Y-135059706D01*
X116380400Y-134290316D01*
X115611010Y-135059706D01*
X110649790Y-135059706D01*
X109880400Y-134290316D01*
X109111010Y-135059706D01*
X90233648Y-135059706D01*
X90311416Y-135044237D01*
X90695858Y-134787362D01*
X90952733Y-134402920D01*
X91042936Y-133949440D01*
X91032516Y-133897052D01*
X108526773Y-133897052D01*
X108575108Y-134425944D01*
X108684516Y-134690077D01*
X108860694Y-134809390D01*
X109630084Y-134040000D01*
X110130716Y-134040000D01*
X110900106Y-134809390D01*
X111076284Y-134690077D01*
X111234027Y-134182948D01*
X111207900Y-133897052D01*
X115026773Y-133897052D01*
X115075108Y-134425944D01*
X115184516Y-134690077D01*
X115360694Y-134809390D01*
X116130084Y-134040000D01*
X116630716Y-134040000D01*
X117400106Y-134809390D01*
X117576284Y-134690077D01*
X117734027Y-134182948D01*
X117685692Y-133654056D01*
X117576284Y-133389923D01*
X117400106Y-133270610D01*
X116630716Y-134040000D01*
X116130084Y-134040000D01*
X115360694Y-133270610D01*
X115184516Y-133389923D01*
X115026773Y-133897052D01*
X111207900Y-133897052D01*
X111185692Y-133654056D01*
X111076284Y-133389923D01*
X110900106Y-133270610D01*
X110130716Y-134040000D01*
X109630084Y-134040000D01*
X108860694Y-133270610D01*
X108684516Y-133389923D01*
X108526773Y-133897052D01*
X91032516Y-133897052D01*
X90952733Y-133495960D01*
X90695858Y-133111518D01*
X90559332Y-133020294D01*
X109111010Y-133020294D01*
X109880400Y-133789684D01*
X110649790Y-133020294D01*
X115611010Y-133020294D01*
X116380400Y-133789684D01*
X117149790Y-133020294D01*
X117030477Y-132844116D01*
X116523348Y-132686373D01*
X115994456Y-132734708D01*
X115730323Y-132844116D01*
X115611010Y-133020294D01*
X110649790Y-133020294D01*
X110530477Y-132844116D01*
X110023348Y-132686373D01*
X109494456Y-132734708D01*
X109230323Y-132844116D01*
X109111010Y-133020294D01*
X90559332Y-133020294D01*
X90311416Y-132854643D01*
X89857936Y-132764440D01*
X89811504Y-132764440D01*
X89358024Y-132854643D01*
X88973582Y-133111518D01*
X88716707Y-133495960D01*
X88626504Y-133949440D01*
X88502936Y-133949440D01*
X88412733Y-133495960D01*
X88155858Y-133111518D01*
X87771416Y-132854643D01*
X87317936Y-132764440D01*
X87271504Y-132764440D01*
X86818024Y-132854643D01*
X86433582Y-133111518D01*
X86176707Y-133495960D01*
X86086504Y-133949440D01*
X85410000Y-133949440D01*
X85410000Y-132922997D01*
X85583137Y-132994889D01*
X85835755Y-132995110D01*
X86069228Y-132898640D01*
X86248013Y-132720168D01*
X86344889Y-132486863D01*
X86345110Y-132234245D01*
X86248640Y-132000772D01*
X86170000Y-131921994D01*
X86170000Y-131779318D01*
X86242738Y-131954966D01*
X86531579Y-132316016D01*
X86936601Y-132539048D01*
X87117720Y-132497413D01*
X87117720Y-131586440D01*
X87471720Y-131586440D01*
X87471720Y-132497413D01*
X87652839Y-132539048D01*
X88057861Y-132316016D01*
X88346702Y-131954966D01*
X88424311Y-131767556D01*
X88381653Y-131586440D01*
X87471720Y-131586440D01*
X87117720Y-131586440D01*
X87097720Y-131586440D01*
X87097720Y-131409440D01*
X88626504Y-131409440D01*
X88716707Y-131862920D01*
X88973582Y-132247362D01*
X89358024Y-132504237D01*
X89811504Y-132594440D01*
X89857936Y-132594440D01*
X90311416Y-132504237D01*
X90695858Y-132247362D01*
X90952733Y-131862920D01*
X91042936Y-131409440D01*
X90952733Y-130955960D01*
X90695858Y-130571518D01*
X90311416Y-130314643D01*
X89857936Y-130224440D01*
X89811504Y-130224440D01*
X89358024Y-130314643D01*
X88973582Y-130571518D01*
X88716707Y-130955960D01*
X88626504Y-131409440D01*
X87097720Y-131409440D01*
X87097720Y-131232440D01*
X87117720Y-131232440D01*
X87117720Y-130321467D01*
X87471720Y-130321467D01*
X87471720Y-131232440D01*
X88381653Y-131232440D01*
X88424311Y-131051324D01*
X88346702Y-130863914D01*
X88057861Y-130502864D01*
X87652839Y-130279832D01*
X87471720Y-130321467D01*
X87117720Y-130321467D01*
X86936601Y-130279832D01*
X86531579Y-130502864D01*
X86242738Y-130863914D01*
X86170000Y-131039562D01*
X86170000Y-129289202D01*
X86176707Y-129322920D01*
X86433582Y-129707362D01*
X86818024Y-129964237D01*
X87271504Y-130054440D01*
X87317936Y-130054440D01*
X87771416Y-129964237D01*
X88155858Y-129707362D01*
X88412733Y-129322920D01*
X88502936Y-128869440D01*
X88412733Y-128415960D01*
X88155858Y-128031518D01*
X87771416Y-127774643D01*
X87317936Y-127684440D01*
X87271504Y-127684440D01*
X86818024Y-127774643D01*
X86433582Y-128031518D01*
X86176707Y-128415960D01*
X86170000Y-128449678D01*
X86170000Y-126749202D01*
X86176707Y-126782920D01*
X86433582Y-127167362D01*
X86818024Y-127424237D01*
X87271504Y-127514440D01*
X87317936Y-127514440D01*
X87771416Y-127424237D01*
X88155858Y-127167362D01*
X88412733Y-126782920D01*
X88502936Y-126329440D01*
X88626504Y-126329440D01*
X88716707Y-126782920D01*
X88973582Y-127167362D01*
X89358024Y-127424237D01*
X89811504Y-127514440D01*
X89857936Y-127514440D01*
X90311416Y-127424237D01*
X90695858Y-127167362D01*
X90952733Y-126782920D01*
X91042936Y-126329440D01*
X90952733Y-125875960D01*
X90695858Y-125491518D01*
X90311416Y-125234643D01*
X89857936Y-125144440D01*
X89811504Y-125144440D01*
X89358024Y-125234643D01*
X88973582Y-125491518D01*
X88716707Y-125875960D01*
X88626504Y-126329440D01*
X88502936Y-126329440D01*
X88412733Y-125875960D01*
X88155858Y-125491518D01*
X87771416Y-125234643D01*
X87317936Y-125144440D01*
X87271504Y-125144440D01*
X86818024Y-125234643D01*
X86433582Y-125491518D01*
X86176707Y-125875960D01*
X86170000Y-125909678D01*
X86170000Y-124209202D01*
X86176707Y-124242920D01*
X86433582Y-124627362D01*
X86818024Y-124884237D01*
X87271504Y-124974440D01*
X87317936Y-124974440D01*
X87771416Y-124884237D01*
X88155858Y-124627362D01*
X88412733Y-124242920D01*
X88502936Y-123789440D01*
X88626504Y-123789440D01*
X88716707Y-124242920D01*
X88973582Y-124627362D01*
X89358024Y-124884237D01*
X89811504Y-124974440D01*
X89857936Y-124974440D01*
X90311416Y-124884237D01*
X90695858Y-124627362D01*
X90952733Y-124242920D01*
X91042936Y-123789440D01*
X90952733Y-123335960D01*
X90695858Y-122951518D01*
X90311416Y-122694643D01*
X89857936Y-122604440D01*
X89811504Y-122604440D01*
X89358024Y-122694643D01*
X88973582Y-122951518D01*
X88716707Y-123335960D01*
X88626504Y-123789440D01*
X88502936Y-123789440D01*
X88412733Y-123335960D01*
X88155858Y-122951518D01*
X87771416Y-122694643D01*
X87317936Y-122604440D01*
X87271504Y-122604440D01*
X86818024Y-122694643D01*
X86433582Y-122951518D01*
X86176707Y-123335960D01*
X86170000Y-123369678D01*
X86170000Y-121669202D01*
X86176707Y-121702920D01*
X86433582Y-122087362D01*
X86818024Y-122344237D01*
X87271504Y-122434440D01*
X87317936Y-122434440D01*
X87771416Y-122344237D01*
X88155858Y-122087362D01*
X88412733Y-121702920D01*
X88502936Y-121249440D01*
X88412733Y-120795960D01*
X88155858Y-120411518D01*
X87771416Y-120154643D01*
X87317936Y-120064440D01*
X87271504Y-120064440D01*
X86818024Y-120154643D01*
X86433582Y-120411518D01*
X86176707Y-120795960D01*
X86170000Y-120829678D01*
X86170000Y-119129202D01*
X86176707Y-119162920D01*
X86433582Y-119547362D01*
X86818024Y-119804237D01*
X87271504Y-119894440D01*
X87317936Y-119894440D01*
X87744361Y-119809619D01*
X88230011Y-120295269D01*
X88379245Y-120394985D01*
X88555280Y-120430000D01*
X88961233Y-120430000D01*
X88716707Y-120795960D01*
X88626504Y-121249440D01*
X88716707Y-121702920D01*
X88973582Y-122087362D01*
X89358024Y-122344237D01*
X89811504Y-122434440D01*
X89857936Y-122434440D01*
X90311416Y-122344237D01*
X90695858Y-122087362D01*
X90941321Y-121720000D01*
X96340000Y-121720000D01*
X96476641Y-121692821D01*
X93724731Y-124444731D01*
X93625015Y-124593965D01*
X93625015Y-124593966D01*
X93590000Y-124770000D01*
X93590000Y-127659462D01*
X92840022Y-128409440D01*
X90948376Y-128409440D01*
X90695858Y-128031518D01*
X90311416Y-127774643D01*
X89857936Y-127684440D01*
X89811504Y-127684440D01*
X89358024Y-127774643D01*
X88973582Y-128031518D01*
X88716707Y-128415960D01*
X88626504Y-128869440D01*
X88716707Y-129322920D01*
X88973582Y-129707362D01*
X89358024Y-129964237D01*
X89811504Y-130054440D01*
X89857936Y-130054440D01*
X90311416Y-129964237D01*
X90695858Y-129707362D01*
X90948376Y-129329440D01*
X93030560Y-129329440D01*
X93206595Y-129294425D01*
X93355829Y-129194709D01*
X94375269Y-128175269D01*
X94474985Y-128026035D01*
X94510000Y-127850000D01*
X94510000Y-126025755D01*
X94804890Y-126025755D01*
X94901360Y-126259228D01*
X94980000Y-126338006D01*
X94980000Y-126960000D01*
X95015015Y-127136035D01*
X95114731Y-127285269D01*
X97694731Y-129865269D01*
X97843965Y-129964985D01*
X98020000Y-130000000D01*
X108625996Y-130000000D01*
X108747982Y-130295229D01*
X109123196Y-130671098D01*
X109613687Y-130874768D01*
X110144783Y-130875231D01*
X110635629Y-130672418D01*
X111011498Y-130297204D01*
X111134908Y-130000000D01*
X115125996Y-130000000D01*
X115247982Y-130295229D01*
X115623196Y-130671098D01*
X116113687Y-130874768D01*
X116644783Y-130875231D01*
X117135629Y-130672418D01*
X117511498Y-130297204D01*
X117715168Y-129806713D01*
X117715631Y-129275617D01*
X117512818Y-128784771D01*
X117137604Y-128408902D01*
X116647113Y-128205232D01*
X116116017Y-128204769D01*
X115625171Y-128407582D01*
X115249302Y-128782796D01*
X115125892Y-129080000D01*
X111134804Y-129080000D01*
X111012818Y-128784771D01*
X110637604Y-128408902D01*
X110147113Y-128205232D01*
X109616017Y-128204769D01*
X109125171Y-128407582D01*
X108749302Y-128782796D01*
X108625892Y-129080000D01*
X98210538Y-129080000D01*
X96077484Y-126946946D01*
X99032290Y-126946946D01*
X99151603Y-127123124D01*
X99658732Y-127280867D01*
X100187624Y-127232532D01*
X100451757Y-127123124D01*
X100571070Y-126946946D01*
X105532290Y-126946946D01*
X105651603Y-127123124D01*
X106158732Y-127280867D01*
X106687624Y-127232532D01*
X106951757Y-127123124D01*
X107071070Y-126946946D01*
X109146570Y-126946946D01*
X109265883Y-127123124D01*
X109773012Y-127280867D01*
X110301904Y-127232532D01*
X110566037Y-127123124D01*
X110685350Y-126946946D01*
X115646570Y-126946946D01*
X115765883Y-127123124D01*
X116273012Y-127280867D01*
X116801904Y-127232532D01*
X117066037Y-127123124D01*
X117171588Y-126967266D01*
X119276090Y-126967266D01*
X119395403Y-127143444D01*
X119902532Y-127301187D01*
X120431424Y-127252852D01*
X120695557Y-127143444D01*
X120814870Y-126967266D01*
X125776090Y-126967266D01*
X125895403Y-127143444D01*
X126402532Y-127301187D01*
X126931424Y-127252852D01*
X127195557Y-127143444D01*
X127314870Y-126967266D01*
X126545480Y-126197876D01*
X125776090Y-126967266D01*
X120814870Y-126967266D01*
X120045480Y-126197876D01*
X119276090Y-126967266D01*
X117171588Y-126967266D01*
X117185350Y-126946946D01*
X116415960Y-126177556D01*
X115646570Y-126946946D01*
X110685350Y-126946946D01*
X109915960Y-126177556D01*
X109146570Y-126946946D01*
X107071070Y-126946946D01*
X106301680Y-126177556D01*
X105532290Y-126946946D01*
X100571070Y-126946946D01*
X99801680Y-126177556D01*
X99032290Y-126946946D01*
X96077484Y-126946946D01*
X95900000Y-126769462D01*
X95900000Y-126338044D01*
X95978013Y-126260168D01*
X96074889Y-126026863D01*
X96075101Y-125784292D01*
X98448053Y-125784292D01*
X98496388Y-126313184D01*
X98605796Y-126577317D01*
X98781974Y-126696630D01*
X99551364Y-125927240D01*
X100051996Y-125927240D01*
X100821386Y-126696630D01*
X100997564Y-126577317D01*
X101155307Y-126070188D01*
X101129180Y-125784292D01*
X104948053Y-125784292D01*
X104996388Y-126313184D01*
X105105796Y-126577317D01*
X105281974Y-126696630D01*
X106051364Y-125927240D01*
X106551996Y-125927240D01*
X107321386Y-126696630D01*
X107497564Y-126577317D01*
X107655307Y-126070188D01*
X107629180Y-125784292D01*
X108562333Y-125784292D01*
X108610668Y-126313184D01*
X108720076Y-126577317D01*
X108896254Y-126696630D01*
X109665644Y-125927240D01*
X110166276Y-125927240D01*
X110935666Y-126696630D01*
X111111844Y-126577317D01*
X111269587Y-126070188D01*
X111243460Y-125784292D01*
X115062333Y-125784292D01*
X115110668Y-126313184D01*
X115220076Y-126577317D01*
X115396254Y-126696630D01*
X116165644Y-125927240D01*
X116666276Y-125927240D01*
X117435666Y-126696630D01*
X117611844Y-126577317D01*
X117769587Y-126070188D01*
X117745317Y-125804612D01*
X118691853Y-125804612D01*
X118740188Y-126333504D01*
X118849596Y-126597637D01*
X119025774Y-126716950D01*
X119795164Y-125947560D01*
X120295796Y-125947560D01*
X121065186Y-126716950D01*
X121241364Y-126597637D01*
X121399107Y-126090508D01*
X121372980Y-125804612D01*
X125191853Y-125804612D01*
X125240188Y-126333504D01*
X125349596Y-126597637D01*
X125525774Y-126716950D01*
X126295164Y-125947560D01*
X126795796Y-125947560D01*
X127565186Y-126716950D01*
X127741364Y-126597637D01*
X127899107Y-126090508D01*
X127850772Y-125561616D01*
X127741364Y-125297483D01*
X127565186Y-125178170D01*
X126795796Y-125947560D01*
X126295164Y-125947560D01*
X125525774Y-125178170D01*
X125349596Y-125297483D01*
X125191853Y-125804612D01*
X121372980Y-125804612D01*
X121350772Y-125561616D01*
X121241364Y-125297483D01*
X121065186Y-125178170D01*
X120295796Y-125947560D01*
X119795164Y-125947560D01*
X119025774Y-125178170D01*
X118849596Y-125297483D01*
X118691853Y-125804612D01*
X117745317Y-125804612D01*
X117721252Y-125541296D01*
X117611844Y-125277163D01*
X117435666Y-125157850D01*
X116666276Y-125927240D01*
X116165644Y-125927240D01*
X115396254Y-125157850D01*
X115220076Y-125277163D01*
X115062333Y-125784292D01*
X111243460Y-125784292D01*
X111221252Y-125541296D01*
X111111844Y-125277163D01*
X110935666Y-125157850D01*
X110166276Y-125927240D01*
X109665644Y-125927240D01*
X108896254Y-125157850D01*
X108720076Y-125277163D01*
X108562333Y-125784292D01*
X107629180Y-125784292D01*
X107606972Y-125541296D01*
X107497564Y-125277163D01*
X107321386Y-125157850D01*
X106551996Y-125927240D01*
X106051364Y-125927240D01*
X105281974Y-125157850D01*
X105105796Y-125277163D01*
X104948053Y-125784292D01*
X101129180Y-125784292D01*
X101106972Y-125541296D01*
X100997564Y-125277163D01*
X100821386Y-125157850D01*
X100051996Y-125927240D01*
X99551364Y-125927240D01*
X98781974Y-125157850D01*
X98605796Y-125277163D01*
X98448053Y-125784292D01*
X96075101Y-125784292D01*
X96075110Y-125774245D01*
X95978640Y-125540772D01*
X95800168Y-125361987D01*
X95566863Y-125265111D01*
X95314245Y-125264890D01*
X95080772Y-125361360D01*
X94901987Y-125539832D01*
X94805111Y-125773137D01*
X94804890Y-126025755D01*
X94510000Y-126025755D01*
X94510000Y-124960538D01*
X94563004Y-124907534D01*
X99032290Y-124907534D01*
X99801680Y-125676924D01*
X100571070Y-124907534D01*
X105532290Y-124907534D01*
X106301680Y-125676924D01*
X107071070Y-124907534D01*
X109146570Y-124907534D01*
X109915960Y-125676924D01*
X110685350Y-124907534D01*
X115646570Y-124907534D01*
X116415960Y-125676924D01*
X117165030Y-124927854D01*
X119276090Y-124927854D01*
X120045480Y-125697244D01*
X120814870Y-124927854D01*
X125776090Y-124927854D01*
X126545480Y-125697244D01*
X127314870Y-124927854D01*
X127195557Y-124751676D01*
X126688428Y-124593933D01*
X126159536Y-124642268D01*
X125895403Y-124751676D01*
X125776090Y-124927854D01*
X120814870Y-124927854D01*
X120695557Y-124751676D01*
X120188428Y-124593933D01*
X119659536Y-124642268D01*
X119395403Y-124751676D01*
X119276090Y-124927854D01*
X117165030Y-124927854D01*
X117185350Y-124907534D01*
X117066037Y-124731356D01*
X116558908Y-124573613D01*
X116030016Y-124621948D01*
X115765883Y-124731356D01*
X115646570Y-124907534D01*
X110685350Y-124907534D01*
X110566037Y-124731356D01*
X110058908Y-124573613D01*
X109530016Y-124621948D01*
X109265883Y-124731356D01*
X109146570Y-124907534D01*
X107071070Y-124907534D01*
X106951757Y-124731356D01*
X106444628Y-124573613D01*
X105915736Y-124621948D01*
X105651603Y-124731356D01*
X105532290Y-124907534D01*
X100571070Y-124907534D01*
X100451757Y-124731356D01*
X99944628Y-124573613D01*
X99415736Y-124621948D01*
X99151603Y-124731356D01*
X99032290Y-124907534D01*
X94563004Y-124907534D01*
X97583298Y-121887240D01*
X98547276Y-121887240D01*
X98669262Y-122182469D01*
X99044476Y-122558338D01*
X99534967Y-122762008D01*
X100066063Y-122762471D01*
X100556909Y-122559658D01*
X100932778Y-122184444D01*
X101056188Y-121887240D01*
X105047276Y-121887240D01*
X105169262Y-122182469D01*
X105544476Y-122558338D01*
X106034967Y-122762008D01*
X106566063Y-122762471D01*
X107056909Y-122559658D01*
X107432778Y-122184444D01*
X107636448Y-121693953D01*
X107636911Y-121162857D01*
X107434098Y-120672011D01*
X107058884Y-120296142D01*
X106568393Y-120092472D01*
X106037297Y-120092009D01*
X105546451Y-120294822D01*
X105170582Y-120670036D01*
X105047172Y-120967240D01*
X101056084Y-120967240D01*
X100934098Y-120672011D01*
X100558884Y-120296142D01*
X100068393Y-120092472D01*
X99537297Y-120092009D01*
X99046451Y-120294822D01*
X98670582Y-120670036D01*
X98547172Y-120967240D01*
X97392760Y-120967240D01*
X97256119Y-120994419D01*
X98320538Y-119930000D01*
X107439462Y-119930000D01*
X108607245Y-121097783D01*
X108581192Y-121160527D01*
X108580729Y-121691623D01*
X108783542Y-122182469D01*
X109158756Y-122558338D01*
X109649247Y-122762008D01*
X110180343Y-122762471D01*
X110671189Y-122559658D01*
X111047058Y-122184444D01*
X111170468Y-121887240D01*
X115161556Y-121887240D01*
X115283542Y-122182469D01*
X115658756Y-122558338D01*
X116149247Y-122762008D01*
X116680343Y-122762471D01*
X117171189Y-122559658D01*
X117547058Y-122184444D01*
X117743257Y-121711943D01*
X118710249Y-121711943D01*
X118913062Y-122202789D01*
X119288276Y-122578658D01*
X119778767Y-122782328D01*
X120309863Y-122782791D01*
X120800709Y-122579978D01*
X121176578Y-122204764D01*
X121299988Y-121907560D01*
X125291076Y-121907560D01*
X125413062Y-122202789D01*
X125788276Y-122578658D01*
X126278767Y-122782328D01*
X126809863Y-122782791D01*
X127300709Y-122579978D01*
X127676578Y-122204764D01*
X127880248Y-121714273D01*
X127880711Y-121183177D01*
X127677898Y-120692331D01*
X127302684Y-120316462D01*
X126812193Y-120112792D01*
X126281097Y-120112329D01*
X125790251Y-120315142D01*
X125414382Y-120690356D01*
X125290972Y-120987560D01*
X121299884Y-120987560D01*
X121177898Y-120692331D01*
X120802684Y-120316462D01*
X120312193Y-120112792D01*
X119781097Y-120112329D01*
X119290251Y-120315142D01*
X118914382Y-120690356D01*
X118710712Y-121180847D01*
X118710249Y-121711943D01*
X117743257Y-121711943D01*
X117750728Y-121693953D01*
X117751191Y-121162857D01*
X117548378Y-120672011D01*
X117173164Y-120296142D01*
X116682673Y-120092472D01*
X116151577Y-120092009D01*
X115660731Y-120294822D01*
X115284862Y-120670036D01*
X115161452Y-120967240D01*
X111170364Y-120967240D01*
X111048378Y-120672011D01*
X110673164Y-120296142D01*
X110182673Y-120092472D01*
X109651577Y-120092009D01*
X109160731Y-120294822D01*
X109133021Y-120322483D01*
X107955269Y-119144731D01*
X107806035Y-119045015D01*
X107630000Y-119010000D01*
X106890538Y-119010000D01*
X107000312Y-118900226D01*
X109202450Y-118900226D01*
X109321763Y-119076404D01*
X109828892Y-119234147D01*
X110357784Y-119185812D01*
X110621917Y-119076404D01*
X110741230Y-118900226D01*
X115702450Y-118900226D01*
X115821763Y-119076404D01*
X116328892Y-119234147D01*
X116857784Y-119185812D01*
X117121917Y-119076404D01*
X117241230Y-118900226D01*
X116471840Y-118130836D01*
X115702450Y-118900226D01*
X110741230Y-118900226D01*
X109971840Y-118130836D01*
X109202450Y-118900226D01*
X107000312Y-118900226D01*
X107725269Y-118175269D01*
X107824985Y-118026035D01*
X107860000Y-117850000D01*
X107860000Y-117737572D01*
X108618213Y-117737572D01*
X108666548Y-118266464D01*
X108775956Y-118530597D01*
X108952134Y-118649910D01*
X109721524Y-117880520D01*
X110222156Y-117880520D01*
X110991546Y-118649910D01*
X111167724Y-118530597D01*
X111325467Y-118023468D01*
X111299340Y-117737572D01*
X115118213Y-117737572D01*
X115166548Y-118266464D01*
X115275956Y-118530597D01*
X115452134Y-118649910D01*
X116221524Y-117880520D01*
X116722156Y-117880520D01*
X117491546Y-118649910D01*
X117667724Y-118530597D01*
X117825467Y-118023468D01*
X117777132Y-117494576D01*
X117667724Y-117230443D01*
X117491546Y-117111130D01*
X116722156Y-117880520D01*
X116221524Y-117880520D01*
X115452134Y-117111130D01*
X115275956Y-117230443D01*
X115118213Y-117737572D01*
X111299340Y-117737572D01*
X111277132Y-117494576D01*
X111167724Y-117230443D01*
X110991546Y-117111130D01*
X110222156Y-117880520D01*
X109721524Y-117880520D01*
X108952134Y-117111130D01*
X108775956Y-117230443D01*
X108618213Y-117737572D01*
X107860000Y-117737572D01*
X107860000Y-116860814D01*
X109202450Y-116860814D01*
X109971840Y-117630204D01*
X110741230Y-116860814D01*
X115702450Y-116860814D01*
X116471840Y-117630204D01*
X117241230Y-116860814D01*
X117121917Y-116684636D01*
X116614788Y-116526893D01*
X116085896Y-116575228D01*
X115821763Y-116684636D01*
X115702450Y-116860814D01*
X110741230Y-116860814D01*
X110621917Y-116684636D01*
X110114788Y-116526893D01*
X109585896Y-116575228D01*
X109321763Y-116684636D01*
X109202450Y-116860814D01*
X107860000Y-116860814D01*
X107860000Y-114630538D01*
X108650018Y-113840520D01*
X108717436Y-113840520D01*
X108839422Y-114135749D01*
X109214636Y-114511618D01*
X109705127Y-114715288D01*
X110236223Y-114715751D01*
X110727069Y-114512938D01*
X111102938Y-114137724D01*
X111226348Y-113840520D01*
X115217436Y-113840520D01*
X115339422Y-114135749D01*
X115714636Y-114511618D01*
X116205127Y-114715288D01*
X116736223Y-114715751D01*
X117227069Y-114512938D01*
X117602938Y-114137724D01*
X117806608Y-113647233D01*
X117807071Y-113116137D01*
X117604258Y-112625291D01*
X117229044Y-112249422D01*
X116738553Y-112045752D01*
X116207457Y-112045289D01*
X115716611Y-112248102D01*
X115340742Y-112623316D01*
X115217332Y-112920520D01*
X111226244Y-112920520D01*
X111104258Y-112625291D01*
X110729044Y-112249422D01*
X110238553Y-112045752D01*
X109707457Y-112045289D01*
X109216611Y-112248102D01*
X108840742Y-112623316D01*
X108717332Y-112920520D01*
X108459480Y-112920520D01*
X108283445Y-112955535D01*
X108134211Y-113055251D01*
X107074731Y-114114731D01*
X106975015Y-114263965D01*
X106975015Y-114263966D01*
X106940000Y-114440000D01*
X106940000Y-117659462D01*
X106350022Y-118249440D01*
X90948376Y-118249440D01*
X90695858Y-117871518D01*
X90311416Y-117614643D01*
X89857936Y-117524440D01*
X89811504Y-117524440D01*
X89358024Y-117614643D01*
X88973582Y-117871518D01*
X88716707Y-118255960D01*
X88626504Y-118709440D01*
X88716707Y-119162920D01*
X88948618Y-119510000D01*
X88745818Y-119510000D01*
X88407127Y-119171309D01*
X88412733Y-119162920D01*
X88502936Y-118709440D01*
X88412733Y-118255960D01*
X88155858Y-117871518D01*
X87771416Y-117614643D01*
X87317936Y-117524440D01*
X87271504Y-117524440D01*
X86818024Y-117614643D01*
X86433582Y-117871518D01*
X86176707Y-118255960D01*
X86170000Y-118289678D01*
X86170000Y-116589202D01*
X86176707Y-116622920D01*
X86433582Y-117007362D01*
X86818024Y-117264237D01*
X87271504Y-117354440D01*
X87317936Y-117354440D01*
X87771416Y-117264237D01*
X88155858Y-117007362D01*
X88412733Y-116622920D01*
X88502936Y-116169440D01*
X88626504Y-116169440D01*
X88716707Y-116622920D01*
X88973582Y-117007362D01*
X89358024Y-117264237D01*
X89811504Y-117354440D01*
X89857936Y-117354440D01*
X90311416Y-117264237D01*
X90695858Y-117007362D01*
X90952733Y-116622920D01*
X91042936Y-116169440D01*
X90952733Y-115715960D01*
X90695858Y-115331518D01*
X90311416Y-115074643D01*
X89857936Y-114984440D01*
X89811504Y-114984440D01*
X89358024Y-115074643D01*
X88973582Y-115331518D01*
X88716707Y-115715960D01*
X88626504Y-116169440D01*
X88502936Y-116169440D01*
X88412733Y-115715960D01*
X88155858Y-115331518D01*
X87771416Y-115074643D01*
X87317936Y-114984440D01*
X87271504Y-114984440D01*
X86818024Y-115074643D01*
X86433582Y-115331518D01*
X86176707Y-115715960D01*
X86170000Y-115749678D01*
X86170000Y-114049202D01*
X86176707Y-114082920D01*
X86433582Y-114467362D01*
X86818024Y-114724237D01*
X87271504Y-114814440D01*
X87317936Y-114814440D01*
X87771416Y-114724237D01*
X88155858Y-114467362D01*
X88412733Y-114082920D01*
X88502936Y-113629440D01*
X88626504Y-113629440D01*
X88716707Y-114082920D01*
X88973582Y-114467362D01*
X89358024Y-114724237D01*
X89811504Y-114814440D01*
X89857936Y-114814440D01*
X90311416Y-114724237D01*
X90695858Y-114467362D01*
X90952733Y-114082920D01*
X91042936Y-113629440D01*
X90952733Y-113175960D01*
X90695858Y-112791518D01*
X90311416Y-112534643D01*
X89857936Y-112444440D01*
X89811504Y-112444440D01*
X89358024Y-112534643D01*
X88973582Y-112791518D01*
X88716707Y-113175960D01*
X88626504Y-113629440D01*
X88502936Y-113629440D01*
X88412733Y-113175960D01*
X88155858Y-112791518D01*
X87771416Y-112534643D01*
X87317936Y-112444440D01*
X87271504Y-112444440D01*
X86818024Y-112534643D01*
X86433582Y-112791518D01*
X86176707Y-113175960D01*
X86170000Y-113209678D01*
X86170000Y-111509202D01*
X86176707Y-111542920D01*
X86433582Y-111927362D01*
X86818024Y-112184237D01*
X87271504Y-112274440D01*
X87317936Y-112274440D01*
X87771416Y-112184237D01*
X88155858Y-111927362D01*
X88412733Y-111542920D01*
X88502936Y-111089440D01*
X88412733Y-110635960D01*
X88407127Y-110627571D01*
X88744698Y-110290000D01*
X88947869Y-110290000D01*
X88716707Y-110635960D01*
X88626504Y-111089440D01*
X88716707Y-111542920D01*
X88973582Y-111927362D01*
X89358024Y-112184237D01*
X89811504Y-112274440D01*
X89857936Y-112274440D01*
X90311416Y-112184237D01*
X90695858Y-111927362D01*
X90952733Y-111542920D01*
X91042936Y-111089440D01*
X90952733Y-110635960D01*
X90721571Y-110290000D01*
X91530000Y-110290000D01*
X91706035Y-110254985D01*
X91855269Y-110155269D01*
X92135269Y-109875269D01*
X92234985Y-109726035D01*
X92270000Y-109550000D01*
X92270000Y-108663332D01*
X92301360Y-108739228D01*
X92479832Y-108918013D01*
X92713137Y-109014889D01*
X92965755Y-109015110D01*
X93199228Y-108918640D01*
X93378013Y-108740168D01*
X93474889Y-108506863D01*
X93474986Y-108395552D01*
X94930538Y-106940000D01*
X122170000Y-106940000D01*
X122346035Y-106904985D01*
X122495269Y-106805269D01*
X123715269Y-105585269D01*
X123814985Y-105436035D01*
X123850000Y-105260000D01*
X123850000Y-103202324D01*
X123931360Y-103399228D01*
X124010000Y-103478006D01*
X124010000Y-106156644D01*
X123780772Y-106251360D01*
X123601987Y-106429832D01*
X123505111Y-106663137D01*
X123504890Y-106915755D01*
X123601360Y-107149228D01*
X123756975Y-107305116D01*
X123601987Y-107459832D01*
X123505111Y-107693137D01*
X123504890Y-107945755D01*
X123601360Y-108179228D01*
X123779832Y-108358013D01*
X123811375Y-108371111D01*
X123810772Y-108371360D01*
X123631987Y-108549832D01*
X123535111Y-108783137D01*
X123534890Y-109035755D01*
X123631360Y-109269228D01*
X123809832Y-109448013D01*
X124043137Y-109544889D01*
X124295755Y-109545110D01*
X124529228Y-109448640D01*
X124708013Y-109270168D01*
X124804889Y-109036863D01*
X124804986Y-108925552D01*
X126365269Y-107365269D01*
X126421335Y-107281360D01*
X126464985Y-107216034D01*
X126500000Y-107040000D01*
X126500000Y-105518044D01*
X126578013Y-105440168D01*
X126674889Y-105206863D01*
X126675110Y-104954245D01*
X126578640Y-104720772D01*
X126400168Y-104541987D01*
X126166863Y-104445111D01*
X125914245Y-104444890D01*
X125690850Y-104537196D01*
X125768013Y-104460168D01*
X125864889Y-104226863D01*
X125865110Y-103974245D01*
X125768640Y-103740772D01*
X125590168Y-103561987D01*
X125356863Y-103465111D01*
X125104245Y-103464890D01*
X124930000Y-103536887D01*
X124930000Y-103478044D01*
X125008013Y-103400168D01*
X125104889Y-103166863D01*
X125105110Y-102914245D01*
X125008640Y-102680772D01*
X124830168Y-102501987D01*
X124596863Y-102405111D01*
X124344245Y-102404890D01*
X124110772Y-102501360D01*
X123931987Y-102679832D01*
X123850000Y-102877280D01*
X123850000Y-101915755D01*
X132164890Y-101915755D01*
X132261360Y-102149228D01*
X132340000Y-102228006D01*
X132340000Y-107210000D01*
X132375015Y-107386035D01*
X132444999Y-107490773D01*
X132444890Y-107615755D01*
X132541360Y-107849228D01*
X132719832Y-108028013D01*
X132953137Y-108124889D01*
X133205755Y-108125110D01*
X133439228Y-108028640D01*
X133618013Y-107850168D01*
X133714889Y-107616863D01*
X133715110Y-107364245D01*
X133618640Y-107130772D01*
X133440168Y-106951987D01*
X133260000Y-106877175D01*
X133260000Y-102228044D01*
X133338013Y-102150168D01*
X133434889Y-101916863D01*
X133435110Y-101664245D01*
X133338640Y-101430772D01*
X133160168Y-101251987D01*
X132926863Y-101155111D01*
X132674245Y-101154890D01*
X132440772Y-101251360D01*
X132261987Y-101429832D01*
X132165111Y-101663137D01*
X132164890Y-101915755D01*
X123850000Y-101915755D01*
X123850000Y-99315755D01*
X131354890Y-99315755D01*
X131451360Y-99549228D01*
X131629832Y-99728013D01*
X131863137Y-99824889D01*
X131974448Y-99824986D01*
X134100000Y-101950538D01*
X134100000Y-107180000D01*
X134135015Y-107356035D01*
X134204999Y-107460772D01*
X134204890Y-107585755D01*
X134301360Y-107819228D01*
X134479832Y-107998013D01*
X134713137Y-108094889D01*
X134965755Y-108095110D01*
X135199228Y-107998640D01*
X135378013Y-107820168D01*
X135474889Y-107586863D01*
X135475110Y-107334245D01*
X135378640Y-107100772D01*
X135200168Y-106921987D01*
X135020000Y-106847175D01*
X135020000Y-101760000D01*
X135012044Y-101720000D01*
X134984985Y-101583965D01*
X134885269Y-101434731D01*
X132625014Y-99174476D01*
X132625110Y-99064245D01*
X132528640Y-98830772D01*
X132450000Y-98751994D01*
X132450000Y-95420000D01*
X133608437Y-95420000D01*
X133608437Y-97420000D01*
X133631796Y-97544144D01*
X133705165Y-97658162D01*
X133817113Y-97734653D01*
X133950000Y-97761563D01*
X135950000Y-97761563D01*
X136074144Y-97738204D01*
X136188162Y-97664835D01*
X136264653Y-97552887D01*
X136291563Y-97420000D01*
X136291563Y-95420000D01*
X136268204Y-95295856D01*
X136194835Y-95181838D01*
X136082887Y-95105347D01*
X135950000Y-95078437D01*
X133950000Y-95078437D01*
X133825856Y-95101796D01*
X133711838Y-95175165D01*
X133635347Y-95287113D01*
X133608437Y-95420000D01*
X132450000Y-95420000D01*
X132450000Y-93990575D01*
X132458771Y-90859271D01*
X132538013Y-90780168D01*
X132634889Y-90546863D01*
X132635110Y-90294245D01*
X132538640Y-90060772D01*
X132360168Y-89881987D01*
X132258344Y-89839706D01*
X134180610Y-89839706D01*
X134299923Y-90015884D01*
X134807052Y-90173627D01*
X135335944Y-90125292D01*
X135600077Y-90015884D01*
X135719390Y-89839706D01*
X134950000Y-89070316D01*
X134180610Y-89839706D01*
X132258344Y-89839706D01*
X132126863Y-89785111D01*
X131874245Y-89784890D01*
X131640772Y-89881360D01*
X131461987Y-90059832D01*
X131365111Y-90293137D01*
X131364890Y-90545755D01*
X131461360Y-90779228D01*
X131538775Y-90856779D01*
X131530002Y-93988711D01*
X131530128Y-93989355D01*
X131530000Y-93990000D01*
X131530000Y-98751956D01*
X131451987Y-98829832D01*
X131355111Y-99063137D01*
X131354890Y-99315755D01*
X123850000Y-99315755D01*
X123850000Y-98250000D01*
X123814985Y-98073966D01*
X123715269Y-97924731D01*
X121555269Y-95764731D01*
X121406035Y-95665015D01*
X121230000Y-95630000D01*
X120498167Y-95630000D01*
X120490168Y-95621987D01*
X120256863Y-95525111D01*
X120004245Y-95524890D01*
X119770772Y-95621360D01*
X119591987Y-95799832D01*
X119495111Y-96033137D01*
X119494890Y-96285755D01*
X119591360Y-96519228D01*
X119769832Y-96698013D01*
X120003137Y-96794889D01*
X120255755Y-96795110D01*
X120489228Y-96698640D01*
X120638129Y-96550000D01*
X121039462Y-96550000D01*
X122930000Y-98440538D01*
X122930000Y-105069462D01*
X121979462Y-106020000D01*
X107810538Y-106020000D01*
X108365269Y-105465269D01*
X108464984Y-105316035D01*
X108464985Y-105316034D01*
X108500000Y-105140000D01*
X108500000Y-99760886D01*
X108534889Y-99676863D01*
X108535110Y-99424245D01*
X108438640Y-99190772D01*
X108260168Y-99011987D01*
X108026863Y-98915111D01*
X107774245Y-98914890D01*
X107540772Y-99011360D01*
X107361987Y-99189832D01*
X107265111Y-99423137D01*
X107264890Y-99675755D01*
X107361360Y-99909228D01*
X107539832Y-100088013D01*
X107580000Y-100104692D01*
X107580000Y-104949462D01*
X107149462Y-105380000D01*
X94320000Y-105380000D01*
X94143965Y-105415015D01*
X93994731Y-105514731D01*
X91484731Y-108024731D01*
X91385015Y-108173965D01*
X91369267Y-108253137D01*
X91350000Y-108350000D01*
X91350000Y-109359462D01*
X91339462Y-109370000D01*
X90707459Y-109370000D01*
X90952733Y-109002920D01*
X91042936Y-108549440D01*
X90952733Y-108095960D01*
X90695858Y-107711518D01*
X90311416Y-107454643D01*
X89857936Y-107364440D01*
X89811504Y-107364440D01*
X89358024Y-107454643D01*
X88973582Y-107711518D01*
X88716707Y-108095960D01*
X88626504Y-108549440D01*
X88716707Y-109002920D01*
X88961981Y-109370000D01*
X88554160Y-109370000D01*
X88378125Y-109405015D01*
X88228891Y-109504731D01*
X87744361Y-109989261D01*
X87317936Y-109904440D01*
X87271504Y-109904440D01*
X86818024Y-109994643D01*
X86433582Y-110251518D01*
X86176707Y-110635960D01*
X86170000Y-110669678D01*
X86170000Y-108969202D01*
X86176707Y-109002920D01*
X86433582Y-109387362D01*
X86818024Y-109644237D01*
X87271504Y-109734440D01*
X87317936Y-109734440D01*
X87771416Y-109644237D01*
X88155858Y-109387362D01*
X88412733Y-109002920D01*
X88502936Y-108549440D01*
X88412733Y-108095960D01*
X88155858Y-107711518D01*
X87771416Y-107454643D01*
X87317936Y-107364440D01*
X87271504Y-107364440D01*
X86818024Y-107454643D01*
X86433582Y-107711518D01*
X86176707Y-108095960D01*
X86170000Y-108129678D01*
X86170000Y-106429202D01*
X86176707Y-106462920D01*
X86433582Y-106847362D01*
X86818024Y-107104237D01*
X87271504Y-107194440D01*
X87317936Y-107194440D01*
X87771416Y-107104237D01*
X88155858Y-106847362D01*
X88412733Y-106462920D01*
X88502936Y-106009440D01*
X88626504Y-106009440D01*
X88716707Y-106462920D01*
X88973582Y-106847362D01*
X89358024Y-107104237D01*
X89811504Y-107194440D01*
X89857936Y-107194440D01*
X90311416Y-107104237D01*
X90695858Y-106847362D01*
X90952733Y-106462920D01*
X91042936Y-106009440D01*
X90952733Y-105555960D01*
X90695858Y-105171518D01*
X90311416Y-104914643D01*
X89857936Y-104824440D01*
X89811504Y-104824440D01*
X89358024Y-104914643D01*
X88973582Y-105171518D01*
X88716707Y-105555960D01*
X88626504Y-106009440D01*
X88502936Y-106009440D01*
X88412733Y-105555960D01*
X88155858Y-105171518D01*
X87771416Y-104914643D01*
X87317936Y-104824440D01*
X87271504Y-104824440D01*
X86818024Y-104914643D01*
X86433582Y-105171518D01*
X86176707Y-105555960D01*
X86170000Y-105589678D01*
X86170000Y-103889202D01*
X86176707Y-103922920D01*
X86433582Y-104307362D01*
X86818024Y-104564237D01*
X87271504Y-104654440D01*
X87317936Y-104654440D01*
X87771416Y-104564237D01*
X88155858Y-104307362D01*
X88412733Y-103922920D01*
X88502936Y-103469440D01*
X88626504Y-103469440D01*
X88716707Y-103922920D01*
X88973582Y-104307362D01*
X89358024Y-104564237D01*
X89811504Y-104654440D01*
X89857936Y-104654440D01*
X90311416Y-104564237D01*
X90695858Y-104307362D01*
X90952733Y-103922920D01*
X91042936Y-103469440D01*
X90952733Y-103015960D01*
X90695858Y-102631518D01*
X90311416Y-102374643D01*
X89857936Y-102284440D01*
X89811504Y-102284440D01*
X89358024Y-102374643D01*
X88973582Y-102631518D01*
X88716707Y-103015960D01*
X88626504Y-103469440D01*
X88502936Y-103469440D01*
X88412733Y-103015960D01*
X88155858Y-102631518D01*
X87771416Y-102374643D01*
X87317936Y-102284440D01*
X87271504Y-102284440D01*
X86818024Y-102374643D01*
X86433582Y-102631518D01*
X86176707Y-103015960D01*
X86170000Y-103049678D01*
X86170000Y-101349202D01*
X86176707Y-101382920D01*
X86433582Y-101767362D01*
X86818024Y-102024237D01*
X87271504Y-102114440D01*
X87317936Y-102114440D01*
X87771416Y-102024237D01*
X88155858Y-101767362D01*
X88412733Y-101382920D01*
X88502936Y-100929440D01*
X88626504Y-100929440D01*
X88716707Y-101382920D01*
X88973582Y-101767362D01*
X89358024Y-102024237D01*
X89811504Y-102114440D01*
X89857936Y-102114440D01*
X90284361Y-102029619D01*
X90420011Y-102165269D01*
X90569246Y-102264985D01*
X90745280Y-102300000D01*
X95859462Y-102300000D01*
X96564986Y-103005524D01*
X96564890Y-103115755D01*
X96661360Y-103349228D01*
X96839832Y-103528013D01*
X97073137Y-103624889D01*
X97325755Y-103625110D01*
X97559228Y-103528640D01*
X97738013Y-103350168D01*
X97834889Y-103116863D01*
X97835110Y-102864245D01*
X97738640Y-102630772D01*
X97560168Y-102451987D01*
X97326863Y-102355111D01*
X97215552Y-102355014D01*
X96375269Y-101514731D01*
X96226035Y-101415015D01*
X96050000Y-101380000D01*
X90953314Y-101380000D01*
X91042936Y-100929440D01*
X90952733Y-100475960D01*
X90919188Y-100425755D01*
X92854890Y-100425755D01*
X92951360Y-100659228D01*
X93129832Y-100838013D01*
X93363137Y-100934889D01*
X93615755Y-100935110D01*
X93849228Y-100838640D01*
X94028013Y-100660168D01*
X94124889Y-100426863D01*
X94124986Y-100315552D01*
X96860538Y-97580000D01*
X111820000Y-97580000D01*
X111996035Y-97544985D01*
X112145269Y-97445269D01*
X113485269Y-96105269D01*
X113538586Y-96025475D01*
X113584985Y-95956034D01*
X113620000Y-95780000D01*
X113620000Y-89460000D01*
X113593871Y-89328640D01*
X113584985Y-89283965D01*
X113485269Y-89134731D01*
X113125014Y-88774476D01*
X113125110Y-88664245D01*
X113028640Y-88430772D01*
X112850168Y-88251987D01*
X112616863Y-88155111D01*
X112364245Y-88154890D01*
X112130772Y-88251360D01*
X111951987Y-88429832D01*
X111855111Y-88663137D01*
X111854890Y-88915755D01*
X111951360Y-89149228D01*
X112129832Y-89328013D01*
X112363137Y-89424889D01*
X112474448Y-89424986D01*
X112700000Y-89650538D01*
X112700000Y-95589462D01*
X111629462Y-96660000D01*
X96670000Y-96660000D01*
X96493965Y-96695015D01*
X96344731Y-96794731D01*
X93474476Y-99664986D01*
X93364245Y-99664890D01*
X93130772Y-99761360D01*
X92951987Y-99939832D01*
X92855111Y-100173137D01*
X92854890Y-100425755D01*
X90919188Y-100425755D01*
X90695858Y-100091518D01*
X90311416Y-99834643D01*
X89857936Y-99744440D01*
X89811504Y-99744440D01*
X89358024Y-99834643D01*
X88973582Y-100091518D01*
X88716707Y-100475960D01*
X88626504Y-100929440D01*
X88502936Y-100929440D01*
X88412733Y-100475960D01*
X88155858Y-100091518D01*
X87771416Y-99834643D01*
X87317936Y-99744440D01*
X87271504Y-99744440D01*
X86818024Y-99834643D01*
X86433582Y-100091518D01*
X86176707Y-100475960D01*
X86170000Y-100509678D01*
X86170000Y-98809202D01*
X86176707Y-98842920D01*
X86433582Y-99227362D01*
X86818024Y-99484237D01*
X87271504Y-99574440D01*
X87317936Y-99574440D01*
X87771416Y-99484237D01*
X88155858Y-99227362D01*
X88412733Y-98842920D01*
X88502936Y-98389440D01*
X88626504Y-98389440D01*
X88716707Y-98842920D01*
X88973582Y-99227362D01*
X89358024Y-99484237D01*
X89811504Y-99574440D01*
X89857936Y-99574440D01*
X90311416Y-99484237D01*
X90695858Y-99227362D01*
X90952733Y-98842920D01*
X91042936Y-98389440D01*
X90952733Y-97935960D01*
X90772189Y-97665755D01*
X93704890Y-97665755D01*
X93801360Y-97899228D01*
X93979832Y-98078013D01*
X94213137Y-98174889D01*
X94465755Y-98175110D01*
X94699228Y-98078640D01*
X94878013Y-97900168D01*
X94974889Y-97666863D01*
X94974986Y-97555552D01*
X99900538Y-92630000D01*
X106220000Y-92630000D01*
X106396035Y-92594985D01*
X106545269Y-92495269D01*
X107845621Y-91194917D01*
X108065755Y-91195110D01*
X108299228Y-91098640D01*
X108478013Y-90920168D01*
X108574889Y-90686863D01*
X108575110Y-90434245D01*
X108478640Y-90200772D01*
X108300168Y-90021987D01*
X108066863Y-89925111D01*
X107814245Y-89924890D01*
X107580772Y-90021360D01*
X107401987Y-90199832D01*
X107305111Y-90433137D01*
X107305110Y-90434352D01*
X106029462Y-91710000D01*
X99710000Y-91710000D01*
X99533965Y-91745015D01*
X99384731Y-91844731D01*
X94324476Y-96904986D01*
X94214245Y-96904890D01*
X93980772Y-97001360D01*
X93801987Y-97179832D01*
X93705111Y-97413137D01*
X93704890Y-97665755D01*
X90772189Y-97665755D01*
X90695858Y-97551518D01*
X90311416Y-97294643D01*
X89857936Y-97204440D01*
X89811504Y-97204440D01*
X89358024Y-97294643D01*
X88973582Y-97551518D01*
X88716707Y-97935960D01*
X88626504Y-98389440D01*
X88502936Y-98389440D01*
X88412733Y-97935960D01*
X88155858Y-97551518D01*
X87771416Y-97294643D01*
X87317936Y-97204440D01*
X87271504Y-97204440D01*
X86818024Y-97294643D01*
X86433582Y-97551518D01*
X86176707Y-97935960D01*
X86170000Y-97969678D01*
X86170000Y-96269202D01*
X86176707Y-96302920D01*
X86433582Y-96687362D01*
X86818024Y-96944237D01*
X87271504Y-97034440D01*
X87317936Y-97034440D01*
X87771416Y-96944237D01*
X88155858Y-96687362D01*
X88412733Y-96302920D01*
X88502936Y-95849440D01*
X88626504Y-95849440D01*
X88716707Y-96302920D01*
X88973582Y-96687362D01*
X89358024Y-96944237D01*
X89811504Y-97034440D01*
X89857936Y-97034440D01*
X90311416Y-96944237D01*
X90695858Y-96687362D01*
X90948376Y-96309440D01*
X91680560Y-96309440D01*
X91856595Y-96274425D01*
X92005829Y-96174709D01*
X93365269Y-94815269D01*
X93464984Y-94666035D01*
X93464985Y-94666034D01*
X93500000Y-94490000D01*
X93500000Y-87325755D01*
X104554890Y-87325755D01*
X104651360Y-87559228D01*
X104829832Y-87738013D01*
X105063137Y-87834889D01*
X105174448Y-87834986D01*
X105214731Y-87875269D01*
X105363965Y-87974985D01*
X105540000Y-88010000D01*
X113579462Y-88010000D01*
X116770000Y-91200538D01*
X116770000Y-103651956D01*
X116691987Y-103729832D01*
X116595111Y-103963137D01*
X116594890Y-104215755D01*
X116691360Y-104449228D01*
X116869832Y-104628013D01*
X117103137Y-104724889D01*
X117355755Y-104725110D01*
X117589228Y-104628640D01*
X117730000Y-104488114D01*
X117730000Y-104721956D01*
X117651987Y-104799832D01*
X117555111Y-105033137D01*
X117554890Y-105285755D01*
X117651360Y-105519228D01*
X117829832Y-105698013D01*
X118063137Y-105794889D01*
X118315755Y-105795110D01*
X118549228Y-105698640D01*
X118728013Y-105520168D01*
X118824889Y-105286863D01*
X118825110Y-105034245D01*
X118728640Y-104800772D01*
X118650000Y-104721994D01*
X118650000Y-90910000D01*
X118615397Y-90736035D01*
X118614985Y-90733965D01*
X118515269Y-90584731D01*
X116607590Y-88677052D01*
X133596373Y-88677052D01*
X133644708Y-89205944D01*
X133754116Y-89470077D01*
X133930294Y-89589390D01*
X134699684Y-88820000D01*
X135200316Y-88820000D01*
X135969706Y-89589390D01*
X136145884Y-89470077D01*
X136303627Y-88962948D01*
X136255292Y-88434056D01*
X136145884Y-88169923D01*
X135969706Y-88050610D01*
X135200316Y-88820000D01*
X134699684Y-88820000D01*
X133930294Y-88050610D01*
X133754116Y-88169923D01*
X133596373Y-88677052D01*
X116607590Y-88677052D01*
X115730832Y-87800294D01*
X134180610Y-87800294D01*
X134950000Y-88569684D01*
X135719390Y-87800294D01*
X135600077Y-87624116D01*
X135092948Y-87466373D01*
X134564056Y-87514708D01*
X134299923Y-87624116D01*
X134180610Y-87800294D01*
X115730832Y-87800294D01*
X114325269Y-86394731D01*
X114176035Y-86295015D01*
X114000000Y-86260000D01*
X109108097Y-86260000D01*
X109060168Y-86211987D01*
X108826863Y-86115111D01*
X108574245Y-86114890D01*
X108340772Y-86211360D01*
X108161987Y-86389832D01*
X108065111Y-86623137D01*
X108064890Y-86875755D01*
X108153415Y-87090000D01*
X105825096Y-87090000D01*
X105825110Y-87074245D01*
X105728640Y-86840772D01*
X105550168Y-86661987D01*
X105316863Y-86565111D01*
X105064245Y-86564890D01*
X104830772Y-86661360D01*
X104651987Y-86839832D01*
X104555111Y-87073137D01*
X104554890Y-87325755D01*
X93500000Y-87325755D01*
X93500000Y-86020538D01*
X95623438Y-83897100D01*
X107495037Y-83897100D01*
X107495037Y-85597100D01*
X107518396Y-85721244D01*
X107591765Y-85835262D01*
X107703713Y-85911753D01*
X107836600Y-85938663D01*
X109536600Y-85938663D01*
X109660744Y-85915304D01*
X109774762Y-85841935D01*
X109851253Y-85729987D01*
X109878163Y-85597100D01*
X109878163Y-85105219D01*
X110096992Y-85105219D01*
X110320024Y-85510241D01*
X110681074Y-85799082D01*
X110868484Y-85876691D01*
X111049600Y-85834033D01*
X111049600Y-84924100D01*
X111403600Y-84924100D01*
X111403600Y-85834033D01*
X111584716Y-85876691D01*
X111772126Y-85799082D01*
X112133176Y-85510241D01*
X112356208Y-85105219D01*
X112314573Y-84924100D01*
X111403600Y-84924100D01*
X111049600Y-84924100D01*
X110138627Y-84924100D01*
X110096992Y-85105219D01*
X109878163Y-85105219D01*
X109878163Y-84723884D01*
X112581600Y-84723884D01*
X112581600Y-84770316D01*
X112671803Y-85223796D01*
X112928678Y-85608238D01*
X113313120Y-85865113D01*
X113766600Y-85955316D01*
X114220080Y-85865113D01*
X114604522Y-85608238D01*
X114861397Y-85223796D01*
X114951600Y-84770316D01*
X114951600Y-84723884D01*
X115121600Y-84723884D01*
X115121600Y-84770316D01*
X115211803Y-85223796D01*
X115468678Y-85608238D01*
X115853120Y-85865113D01*
X116306600Y-85955316D01*
X116760080Y-85865113D01*
X117144522Y-85608238D01*
X117401397Y-85223796D01*
X117491600Y-84770316D01*
X117491600Y-84723884D01*
X117401397Y-84270404D01*
X117144522Y-83885962D01*
X116760080Y-83629087D01*
X116306600Y-83538884D01*
X115853120Y-83629087D01*
X115468678Y-83885962D01*
X115211803Y-84270404D01*
X115121600Y-84723884D01*
X114951600Y-84723884D01*
X114861397Y-84270404D01*
X114604522Y-83885962D01*
X114220080Y-83629087D01*
X113766600Y-83538884D01*
X113313120Y-83629087D01*
X112928678Y-83885962D01*
X112671803Y-84270404D01*
X112581600Y-84723884D01*
X109878163Y-84723884D01*
X109878163Y-84388981D01*
X110096992Y-84388981D01*
X110138627Y-84570100D01*
X111049600Y-84570100D01*
X111049600Y-83660167D01*
X111403600Y-83660167D01*
X111403600Y-84570100D01*
X112314573Y-84570100D01*
X112356208Y-84388981D01*
X112133176Y-83983959D01*
X111772126Y-83695118D01*
X111584716Y-83617509D01*
X111403600Y-83660167D01*
X111049600Y-83660167D01*
X110868484Y-83617509D01*
X110681074Y-83695118D01*
X110320024Y-83983959D01*
X110096992Y-84388981D01*
X109878163Y-84388981D01*
X109878163Y-83897100D01*
X109854804Y-83772956D01*
X109781435Y-83658938D01*
X109669487Y-83582447D01*
X109536600Y-83555537D01*
X107836600Y-83555537D01*
X107712456Y-83578896D01*
X107598438Y-83652265D01*
X107521947Y-83764213D01*
X107495037Y-83897100D01*
X95623438Y-83897100D01*
X97850538Y-81670000D01*
X129681833Y-81670000D01*
X129689832Y-81678013D01*
X129923137Y-81774889D01*
X130175755Y-81775110D01*
X130409228Y-81678640D01*
X130588013Y-81500168D01*
X130684889Y-81266863D01*
X130685110Y-81014245D01*
X130588640Y-80780772D01*
X130410168Y-80601987D01*
X130176863Y-80505111D01*
X129924245Y-80504890D01*
X129690772Y-80601360D01*
X129541871Y-80750000D01*
X97660000Y-80750000D01*
X97483965Y-80785015D01*
X97334731Y-80884731D01*
X92714731Y-85504731D01*
X92615015Y-85653965D01*
X92611714Y-85670559D01*
X92580000Y-85830000D01*
X92580000Y-94299462D01*
X91490022Y-95389440D01*
X90948376Y-95389440D01*
X90695858Y-95011518D01*
X90311416Y-94754643D01*
X89857936Y-94664440D01*
X89811504Y-94664440D01*
X89358024Y-94754643D01*
X88973582Y-95011518D01*
X88716707Y-95395960D01*
X88626504Y-95849440D01*
X88502936Y-95849440D01*
X88412733Y-95395960D01*
X88155858Y-95011518D01*
X87771416Y-94754643D01*
X87317936Y-94664440D01*
X87271504Y-94664440D01*
X86818024Y-94754643D01*
X86433582Y-95011518D01*
X86176707Y-95395960D01*
X86170000Y-95429678D01*
X86170000Y-93729202D01*
X86176707Y-93762920D01*
X86433582Y-94147362D01*
X86818024Y-94404237D01*
X87271504Y-94494440D01*
X87317936Y-94494440D01*
X87771416Y-94404237D01*
X88155858Y-94147362D01*
X88412733Y-93762920D01*
X88502936Y-93309440D01*
X88626504Y-93309440D01*
X88716707Y-93762920D01*
X88973582Y-94147362D01*
X89358024Y-94404237D01*
X89811504Y-94494440D01*
X89857936Y-94494440D01*
X90311416Y-94404237D01*
X90695858Y-94147362D01*
X90952733Y-93762920D01*
X91042936Y-93309440D01*
X90952733Y-92855960D01*
X90695858Y-92471518D01*
X90311416Y-92214643D01*
X89857936Y-92124440D01*
X89811504Y-92124440D01*
X89358024Y-92214643D01*
X88973582Y-92471518D01*
X88716707Y-92855960D01*
X88626504Y-93309440D01*
X88502936Y-93309440D01*
X88412733Y-92855960D01*
X88155858Y-92471518D01*
X87771416Y-92214643D01*
X87317936Y-92124440D01*
X87271504Y-92124440D01*
X86818024Y-92214643D01*
X86433582Y-92471518D01*
X86176707Y-92855960D01*
X86170000Y-92889678D01*
X86170000Y-91189202D01*
X86176707Y-91222920D01*
X86433582Y-91607362D01*
X86818024Y-91864237D01*
X87271504Y-91954440D01*
X87317936Y-91954440D01*
X87771416Y-91864237D01*
X88155858Y-91607362D01*
X88412733Y-91222920D01*
X88502936Y-90769440D01*
X88626504Y-90769440D01*
X88716707Y-91222920D01*
X88973582Y-91607362D01*
X89358024Y-91864237D01*
X89811504Y-91954440D01*
X89857936Y-91954440D01*
X90311416Y-91864237D01*
X90695858Y-91607362D01*
X90952733Y-91222920D01*
X91042936Y-90769440D01*
X90952733Y-90315960D01*
X90695858Y-89931518D01*
X90311416Y-89674643D01*
X89857936Y-89584440D01*
X89811504Y-89584440D01*
X89358024Y-89674643D01*
X88973582Y-89931518D01*
X88716707Y-90315960D01*
X88626504Y-90769440D01*
X88502936Y-90769440D01*
X88412733Y-90315960D01*
X88155858Y-89931518D01*
X87771416Y-89674643D01*
X87317936Y-89584440D01*
X87271504Y-89584440D01*
X86818024Y-89674643D01*
X86433582Y-89931518D01*
X86176707Y-90315960D01*
X86170000Y-90349678D01*
X86170000Y-88649202D01*
X86176707Y-88682920D01*
X86433582Y-89067362D01*
X86818024Y-89324237D01*
X87271504Y-89414440D01*
X87317936Y-89414440D01*
X87771416Y-89324237D01*
X88155858Y-89067362D01*
X88412733Y-88682920D01*
X88502936Y-88229440D01*
X88412733Y-87775960D01*
X88155858Y-87391518D01*
X87824332Y-87170000D01*
X89305108Y-87170000D01*
X88973582Y-87391518D01*
X88716707Y-87775960D01*
X88626504Y-88229440D01*
X88716707Y-88682920D01*
X88973582Y-89067362D01*
X89358024Y-89324237D01*
X89811504Y-89414440D01*
X89857936Y-89414440D01*
X90311416Y-89324237D01*
X90695858Y-89067362D01*
X90952733Y-88682920D01*
X91042936Y-88229440D01*
X90952733Y-87775960D01*
X90695858Y-87391518D01*
X90364332Y-87170000D01*
X90530000Y-87170000D01*
X90706035Y-87134985D01*
X90855269Y-87035269D01*
X92755269Y-85135269D01*
X92854985Y-84986035D01*
X92890000Y-84810000D01*
X92890000Y-82940538D01*
X93835524Y-81995014D01*
X93945755Y-81995110D01*
X94179228Y-81898640D01*
X94358013Y-81720168D01*
X94454889Y-81486863D01*
X94455110Y-81234245D01*
X94358640Y-81000772D01*
X94180168Y-80821987D01*
X93946863Y-80725111D01*
X93694245Y-80724890D01*
X93460772Y-80821360D01*
X93281987Y-80999832D01*
X93185111Y-81233137D01*
X93185014Y-81344448D01*
X92104731Y-82424731D01*
X92005015Y-82573965D01*
X91995618Y-82621209D01*
X91970000Y-82750000D01*
X91970000Y-84619462D01*
X90339462Y-86250000D01*
X89792075Y-86250000D01*
X90216943Y-86074448D01*
X91071447Y-85221434D01*
X91534472Y-84106347D01*
X91535526Y-82898950D01*
X91074448Y-81783057D01*
X90221434Y-80928553D01*
X89106347Y-80465528D01*
X87898950Y-80464474D01*
X86783057Y-80925552D01*
X85928553Y-81778566D01*
X85465528Y-82893653D01*
X85464474Y-84101050D01*
X85925552Y-85216943D01*
X86778566Y-86071447D01*
X87208569Y-86250000D01*
X85890000Y-86250000D01*
X85713966Y-86285015D01*
X85564731Y-86384731D01*
X85410000Y-86539462D01*
X85410000Y-83114047D01*
X85461035Y-82841860D01*
X85479005Y-82817915D01*
X85488185Y-82791405D01*
X85690348Y-81898519D01*
X86003756Y-81429471D01*
X86306272Y-81086074D01*
X86748959Y-80790280D01*
X87203180Y-80576529D01*
X87797686Y-80458275D01*
X88556865Y-80431637D01*
X106198212Y-80410000D01*
X138429325Y-80410000D01*
X139531954Y-80643891D01*
M02*
