G04 #@! TF.FileFunction,Paste,Top*
%FSLAX46Y46*%
G04 Gerber Fmt 4.6, Leading zero omitted, Abs format (unit mm)*
G04 Created by KiCad (PCBNEW 4.0.7) date 07/10/18 09:51:00*
%MOMM*%
%LPD*%
G01*
G04 APERTURE LIST*
%ADD10C,0.100000*%
%ADD11R,0.800000X0.750000*%
%ADD12R,0.800000X0.800000*%
%ADD13R,0.800000X0.900000*%
%ADD14R,0.500000X0.900000*%
%ADD15R,0.900000X0.900000*%
%ADD16R,0.600000X1.500000*%
G04 APERTURE END LIST*
D10*
D11*
X117415880Y-97901760D03*
X118915880Y-97901760D03*
D12*
X96019520Y-123830080D03*
X94419520Y-123830080D03*
D13*
X120759260Y-105301540D03*
X118859260Y-105301540D03*
X119809260Y-107301540D03*
X120815140Y-109436660D03*
X118915140Y-109436660D03*
X119865140Y-111436660D03*
X115562420Y-105301540D03*
X113662420Y-105301540D03*
X114612420Y-107301540D03*
X115562420Y-109492540D03*
X113662420Y-109492540D03*
X114612420Y-111492540D03*
D14*
X94357760Y-121986040D03*
X95857760Y-121986040D03*
X120349580Y-96085660D03*
X121849580Y-96085660D03*
X118887940Y-96141540D03*
X117387940Y-96141540D03*
D15*
X108121580Y-111416140D03*
X108121580Y-106216140D03*
X108121580Y-110096140D03*
X108121580Y-107536140D03*
X108121580Y-108816140D03*
X105121580Y-107536140D03*
X105121580Y-111416140D03*
X105121580Y-106216140D03*
X105121580Y-110096140D03*
X105121580Y-108816140D03*
X110913040Y-88319920D03*
X110913040Y-83119920D03*
X110913040Y-86999920D03*
X110913040Y-84439920D03*
X110913040Y-85719920D03*
X107913040Y-84439920D03*
X107913040Y-88319920D03*
X107913040Y-83119920D03*
X107913040Y-86999920D03*
X107913040Y-85719920D03*
D16*
X110490000Y-96334600D03*
X109220000Y-96334600D03*
X107950000Y-96334600D03*
X106680000Y-96334600D03*
X105410000Y-96334600D03*
X104140000Y-96334600D03*
X102870000Y-96334600D03*
X102870000Y-101734600D03*
X104140000Y-101734600D03*
X105410000Y-101734600D03*
X106680000Y-101734600D03*
X107950000Y-101734600D03*
X109220000Y-101734600D03*
X110490000Y-101734600D03*
M02*
