G04 #@! TF.FileFunction,Other,Fab,Top*
%FSLAX46Y46*%
G04 Gerber Fmt 4.6, Leading zero omitted, Abs format (unit mm)*
G04 Created by KiCad (PCBNEW 4.0.7) date 07/29/18 11:18:04*
%MOMM*%
%LPD*%
G01*
G04 APERTURE LIST*
%ADD10C,0.100000*%
%ADD11C,0.150000*%
%ADD12C,0.075000*%
%ADD13C,0.135000*%
G04 APERTURE END LIST*
D10*
X98931120Y-140067640D02*
X99331120Y-140067640D01*
X99131120Y-140017640D02*
X98931120Y-139717640D01*
X99331120Y-139717640D02*
X99131120Y-140017640D01*
X98931120Y-139717640D02*
X99331120Y-139717640D01*
X99531120Y-139067640D02*
X99531120Y-140667640D01*
X98731120Y-139067640D02*
X99531120Y-139067640D01*
X98731120Y-140667640D02*
X98731120Y-139067640D01*
X99531120Y-140667640D02*
X98731120Y-140667640D01*
X105905300Y-142862300D02*
X105905300Y-140957300D01*
X105905300Y-140957300D02*
X121145300Y-140957300D01*
X121145300Y-140957300D02*
X121145300Y-143497300D01*
X121145300Y-143497300D02*
X106540300Y-143497300D01*
X106540300Y-143497300D02*
X105905300Y-142862300D01*
X107416600Y-85382100D02*
X107416600Y-83477100D01*
X107416600Y-83477100D02*
X117576600Y-83477100D01*
X117576600Y-83477100D02*
X117576600Y-86017100D01*
X117576600Y-86017100D02*
X108051600Y-86017100D01*
X108051600Y-86017100D02*
X107416600Y-85382100D01*
X106330000Y-101330000D02*
X103880000Y-101330000D01*
X106900000Y-101880000D02*
X106900000Y-102730000D01*
X106330000Y-101330000D02*
X106900000Y-101880000D01*
X106900000Y-102730000D02*
X103860000Y-102730000D01*
X103860000Y-101330000D02*
X103860000Y-102730000D01*
X110990000Y-101330000D02*
X108540000Y-101330000D01*
X111560000Y-101880000D02*
X111560000Y-102730000D01*
X110990000Y-101330000D02*
X111560000Y-101880000D01*
X111560000Y-102730000D02*
X108520000Y-102730000D01*
X108520000Y-101330000D02*
X108520000Y-102730000D01*
X115710000Y-101380000D02*
X113260000Y-101380000D01*
X116280000Y-101930000D02*
X116280000Y-102780000D01*
X115710000Y-101380000D02*
X116280000Y-101930000D01*
X116280000Y-102780000D02*
X113240000Y-102780000D01*
X113240000Y-101380000D02*
X113240000Y-102780000D01*
X120570000Y-101330000D02*
X118120000Y-101330000D01*
X121140000Y-101880000D02*
X121140000Y-102730000D01*
X120570000Y-101330000D02*
X121140000Y-101880000D01*
X121140000Y-102730000D02*
X118100000Y-102730000D01*
X118100000Y-101330000D02*
X118100000Y-102730000D01*
X97240040Y-140611760D02*
X96440040Y-140611760D01*
X97240040Y-139011760D02*
X97240040Y-140611760D01*
X96440040Y-139011760D02*
X97240040Y-139011760D01*
X96440040Y-140611760D02*
X96440040Y-139011760D01*
X105520000Y-84330000D02*
X106320000Y-84330000D01*
X105520000Y-85930000D02*
X105520000Y-84330000D01*
X106320000Y-85930000D02*
X105520000Y-85930000D01*
X106320000Y-84330000D02*
X106320000Y-85930000D01*
X103930000Y-84360000D02*
X104730000Y-84360000D01*
X103930000Y-85960000D02*
X103930000Y-84360000D01*
X104730000Y-85960000D02*
X103930000Y-85960000D01*
X104730000Y-84360000D02*
X104730000Y-85960000D01*
X113165960Y-120677240D02*
X116165960Y-120677240D01*
X116165960Y-120677240D02*
X116165960Y-126677240D01*
X116165960Y-126677240D02*
X110165960Y-126677240D01*
X110165960Y-126677240D02*
X110165960Y-120677240D01*
X110165960Y-120677240D02*
X113165960Y-120677240D01*
X115181524Y-123677240D02*
G75*
G03X115181524Y-123677240I-2015564J0D01*
G01*
X113221840Y-112630520D02*
X116221840Y-112630520D01*
X116221840Y-112630520D02*
X116221840Y-118630520D01*
X116221840Y-118630520D02*
X110221840Y-118630520D01*
X110221840Y-118630520D02*
X110221840Y-112630520D01*
X110221840Y-112630520D02*
X113221840Y-112630520D01*
X115237404Y-115630520D02*
G75*
G03X115237404Y-115630520I-2015564J0D01*
G01*
X113130400Y-128790000D02*
X116130400Y-128790000D01*
X116130400Y-128790000D02*
X116130400Y-134790000D01*
X116130400Y-134790000D02*
X110130400Y-134790000D01*
X110130400Y-134790000D02*
X110130400Y-128790000D01*
X110130400Y-128790000D02*
X113130400Y-128790000D01*
X115145964Y-131790000D02*
G75*
G03X115145964Y-131790000I-2015564J0D01*
G01*
X103051680Y-120677240D02*
X106051680Y-120677240D01*
X106051680Y-120677240D02*
X106051680Y-126677240D01*
X106051680Y-126677240D02*
X100051680Y-126677240D01*
X100051680Y-126677240D02*
X100051680Y-120677240D01*
X100051680Y-120677240D02*
X103051680Y-120677240D01*
X105067244Y-123677240D02*
G75*
G03X105067244Y-123677240I-2015564J0D01*
G01*
X123295480Y-120697560D02*
X126295480Y-120697560D01*
X126295480Y-120697560D02*
X126295480Y-126697560D01*
X126295480Y-126697560D02*
X120295480Y-126697560D01*
X120295480Y-126697560D02*
X120295480Y-120697560D01*
X120295480Y-120697560D02*
X123295480Y-120697560D01*
X125311044Y-123697560D02*
G75*
G03X125311044Y-123697560I-2015564J0D01*
G01*
D11*
X111085880Y-90652560D02*
X111085880Y-93552560D01*
X111085880Y-93552560D02*
X102385880Y-93552560D01*
X102385880Y-93552560D02*
X102385880Y-89652560D01*
X102385880Y-89652560D02*
X110085880Y-89652560D01*
X110085880Y-89652560D02*
X111085880Y-90652560D01*
D10*
X89834720Y-137759440D02*
X86024720Y-137759440D01*
X86024720Y-137759440D02*
X86024720Y-86959440D01*
X86024720Y-86959440D02*
X91104720Y-86959440D01*
X91104720Y-86959440D02*
X91104720Y-136489440D01*
X91104720Y-136489440D02*
X89834720Y-137759440D01*
X120360000Y-98380000D02*
X120360000Y-99180000D01*
X118760000Y-98380000D02*
X120360000Y-98380000D01*
X118760000Y-99180000D02*
X118760000Y-98380000D01*
X120360000Y-99180000D02*
X118760000Y-99180000D01*
X115450000Y-98290000D02*
X115450000Y-99090000D01*
X113850000Y-98290000D02*
X115450000Y-98290000D01*
X113850000Y-99090000D02*
X113850000Y-98290000D01*
X115450000Y-99090000D02*
X113850000Y-99090000D01*
X110750000Y-98250000D02*
X110750000Y-99050000D01*
X109150000Y-98250000D02*
X110750000Y-98250000D01*
X109150000Y-99050000D02*
X109150000Y-98250000D01*
X110750000Y-99050000D02*
X109150000Y-99050000D01*
X106200000Y-98190000D02*
X106200000Y-98990000D01*
X104600000Y-98190000D02*
X106200000Y-98190000D01*
X104600000Y-98990000D02*
X104600000Y-98190000D01*
X106200000Y-98990000D02*
X104600000Y-98990000D01*
X119475300Y-138447880D02*
X120275300Y-138447880D01*
X119475300Y-140047880D02*
X119475300Y-138447880D01*
X120275300Y-140047880D02*
X119475300Y-140047880D01*
X120275300Y-138447880D02*
X120275300Y-140047880D01*
X116937840Y-138447880D02*
X117737840Y-138447880D01*
X116937840Y-140047880D02*
X116937840Y-138447880D01*
X117737840Y-140047880D02*
X116937840Y-140047880D01*
X117737840Y-138447880D02*
X117737840Y-140047880D01*
X114392760Y-138447880D02*
X115192760Y-138447880D01*
X114392760Y-140047880D02*
X114392760Y-138447880D01*
X115192760Y-140047880D02*
X114392760Y-140047880D01*
X115192760Y-138447880D02*
X115192760Y-140047880D01*
X111842600Y-138455500D02*
X112642600Y-138455500D01*
X111842600Y-140055500D02*
X111842600Y-138455500D01*
X112642600Y-140055500D02*
X111842600Y-140055500D01*
X112642600Y-138455500D02*
X112642600Y-140055500D01*
X100658980Y-92387320D02*
X100658980Y-90787320D01*
X100658980Y-90787320D02*
X101458980Y-90787320D01*
X101458980Y-90787320D02*
X101458980Y-92387320D01*
X101458980Y-92387320D02*
X100658980Y-92387320D01*
X140950000Y-92620000D02*
G75*
G03X140950000Y-92620000I-6000000J0D01*
G01*
X135950000Y-92620000D02*
G75*
G03X135950000Y-92620000I-1000000J0D01*
G01*
D11*
X99807021Y-143304497D02*
X99807021Y-143780688D01*
X98807021Y-143780688D01*
X99283211Y-142971164D02*
X99283211Y-142637830D01*
X99807021Y-142494973D02*
X99807021Y-142971164D01*
X98807021Y-142971164D01*
X98807021Y-142494973D01*
X99807021Y-142066402D02*
X98807021Y-142066402D01*
X98807021Y-141828307D01*
X98854640Y-141685449D01*
X98949878Y-141590211D01*
X99045116Y-141542592D01*
X99235592Y-141494973D01*
X99378450Y-141494973D01*
X99568926Y-141542592D01*
X99664164Y-141590211D01*
X99759402Y-141685449D01*
X99807021Y-141828307D01*
X99807021Y-142066402D01*
X122657681Y-143251109D02*
X121657681Y-143251109D01*
X121657681Y-143013014D01*
X121705300Y-142870156D01*
X121800538Y-142774918D01*
X121895776Y-142727299D01*
X122086252Y-142679680D01*
X122229110Y-142679680D01*
X122419586Y-142727299D01*
X122514824Y-142774918D01*
X122610062Y-142870156D01*
X122657681Y-143013014D01*
X122657681Y-143251109D01*
X122657681Y-142251109D02*
X121657681Y-142251109D01*
X122657681Y-141774919D02*
X121657681Y-141774919D01*
X122657681Y-141203490D01*
X121657681Y-141203490D01*
X113191967Y-141679681D02*
X113191967Y-142393967D01*
X113144347Y-142536824D01*
X113049109Y-142632062D01*
X112906252Y-142679681D01*
X112811014Y-142679681D01*
X113620538Y-141774919D02*
X113668157Y-141727300D01*
X113763395Y-141679681D01*
X114001491Y-141679681D01*
X114096729Y-141727300D01*
X114144348Y-141774919D01*
X114191967Y-141870157D01*
X114191967Y-141965395D01*
X114144348Y-142108252D01*
X113572919Y-142679681D01*
X114191967Y-142679681D01*
X118088981Y-86199481D02*
X118088981Y-86009004D01*
X118136600Y-85913766D01*
X118231838Y-85818528D01*
X118422314Y-85770909D01*
X118755648Y-85770909D01*
X118946124Y-85818528D01*
X119041362Y-85913766D01*
X119088981Y-86009004D01*
X119088981Y-86199481D01*
X119041362Y-86294719D01*
X118946124Y-86389957D01*
X118755648Y-86437576D01*
X118422314Y-86437576D01*
X118231838Y-86389957D01*
X118136600Y-86294719D01*
X118088981Y-86199481D01*
X119088981Y-84866147D02*
X119088981Y-85342338D01*
X118088981Y-85342338D01*
X118565171Y-84532814D02*
X118565171Y-84199480D01*
X119088981Y-84056623D02*
X119088981Y-84532814D01*
X118088981Y-84532814D01*
X118088981Y-84056623D01*
X119088981Y-83628052D02*
X118088981Y-83628052D01*
X118088981Y-83389957D01*
X118136600Y-83247099D01*
X118231838Y-83151861D01*
X118327076Y-83104242D01*
X118517552Y-83056623D01*
X118660410Y-83056623D01*
X118850886Y-83104242D01*
X118946124Y-83151861D01*
X119041362Y-83247099D01*
X119088981Y-83389957D01*
X119088981Y-83628052D01*
X112163267Y-84199481D02*
X112163267Y-84913767D01*
X112115647Y-85056624D01*
X112020409Y-85151862D01*
X111877552Y-85199481D01*
X111782314Y-85199481D01*
X112544219Y-84199481D02*
X113163267Y-84199481D01*
X112829933Y-84580433D01*
X112972791Y-84580433D01*
X113068029Y-84628052D01*
X113115648Y-84675671D01*
X113163267Y-84770910D01*
X113163267Y-85009005D01*
X113115648Y-85104243D01*
X113068029Y-85151862D01*
X112972791Y-85199481D01*
X112687076Y-85199481D01*
X112591838Y-85151862D01*
X112544219Y-85104243D01*
X103738497Y-98979151D02*
X103881354Y-99026770D01*
X103928973Y-99074390D01*
X103976592Y-99169628D01*
X103976592Y-99312485D01*
X103928973Y-99407723D01*
X103881354Y-99455342D01*
X103786116Y-99502961D01*
X103405163Y-99502961D01*
X103405163Y-98502961D01*
X103738497Y-98502961D01*
X103833735Y-98550580D01*
X103881354Y-98598199D01*
X103928973Y-98693437D01*
X103928973Y-98788675D01*
X103881354Y-98883913D01*
X103833735Y-98931532D01*
X103738497Y-98979151D01*
X103405163Y-98979151D01*
X104357544Y-99455342D02*
X104500401Y-99502961D01*
X104738497Y-99502961D01*
X104833735Y-99455342D01*
X104881354Y-99407723D01*
X104928973Y-99312485D01*
X104928973Y-99217247D01*
X104881354Y-99122009D01*
X104833735Y-99074390D01*
X104738497Y-99026770D01*
X104548020Y-98979151D01*
X104452782Y-98931532D01*
X104405163Y-98883913D01*
X104357544Y-98788675D01*
X104357544Y-98693437D01*
X104405163Y-98598199D01*
X104452782Y-98550580D01*
X104548020Y-98502961D01*
X104786116Y-98502961D01*
X104928973Y-98550580D01*
X105309925Y-99455342D02*
X105452782Y-99502961D01*
X105690878Y-99502961D01*
X105786116Y-99455342D01*
X105833735Y-99407723D01*
X105881354Y-99312485D01*
X105881354Y-99217247D01*
X105833735Y-99122009D01*
X105786116Y-99074390D01*
X105690878Y-99026770D01*
X105500401Y-98979151D01*
X105405163Y-98931532D01*
X105357544Y-98883913D01*
X105309925Y-98788675D01*
X105309925Y-98693437D01*
X105357544Y-98598199D01*
X105405163Y-98550580D01*
X105500401Y-98502961D01*
X105738497Y-98502961D01*
X105881354Y-98550580D01*
X106833735Y-99502961D02*
X106262306Y-99502961D01*
X106548020Y-99502961D02*
X106548020Y-98502961D01*
X106452782Y-98645818D01*
X106357544Y-98741056D01*
X106262306Y-98788675D01*
X107167068Y-98502961D02*
X107786116Y-98502961D01*
X107452782Y-98883913D01*
X107595640Y-98883913D01*
X107690878Y-98931532D01*
X107738497Y-98979151D01*
X107786116Y-99074390D01*
X107786116Y-99312485D01*
X107738497Y-99407723D01*
X107690878Y-99455342D01*
X107595640Y-99502961D01*
X107309925Y-99502961D01*
X107214687Y-99455342D01*
X107167068Y-99407723D01*
X108357544Y-98931532D02*
X108262306Y-98883913D01*
X108214687Y-98836294D01*
X108167068Y-98741056D01*
X108167068Y-98693437D01*
X108214687Y-98598199D01*
X108262306Y-98550580D01*
X108357544Y-98502961D01*
X108548021Y-98502961D01*
X108643259Y-98550580D01*
X108690878Y-98598199D01*
X108738497Y-98693437D01*
X108738497Y-98741056D01*
X108690878Y-98836294D01*
X108643259Y-98883913D01*
X108548021Y-98931532D01*
X108357544Y-98931532D01*
X108262306Y-98979151D01*
X108214687Y-99026770D01*
X108167068Y-99122009D01*
X108167068Y-99312485D01*
X108214687Y-99407723D01*
X108262306Y-99455342D01*
X108357544Y-99502961D01*
X108548021Y-99502961D01*
X108643259Y-99455342D01*
X108690878Y-99407723D01*
X108738497Y-99312485D01*
X108738497Y-99122009D01*
X108690878Y-99026770D01*
X108643259Y-98979151D01*
X108548021Y-98931532D01*
D12*
X105332381Y-102303810D02*
X105284762Y-102280000D01*
X105237143Y-102232381D01*
X105165714Y-102160952D01*
X105118095Y-102137143D01*
X105070476Y-102137143D01*
X105094286Y-102256190D02*
X105046667Y-102232381D01*
X104999048Y-102184762D01*
X104975238Y-102089524D01*
X104975238Y-101922857D01*
X104999048Y-101827619D01*
X105046667Y-101780000D01*
X105094286Y-101756190D01*
X105189524Y-101756190D01*
X105237143Y-101780000D01*
X105284762Y-101827619D01*
X105308571Y-101922857D01*
X105308571Y-102089524D01*
X105284762Y-102184762D01*
X105237143Y-102232381D01*
X105189524Y-102256190D01*
X105094286Y-102256190D01*
X105784762Y-102256190D02*
X105499048Y-102256190D01*
X105641905Y-102256190D02*
X105641905Y-101756190D01*
X105594286Y-101827619D01*
X105546667Y-101875238D01*
X105499048Y-101899048D01*
D11*
X108398497Y-104846551D02*
X108541354Y-104894170D01*
X108588973Y-104941790D01*
X108636592Y-105037028D01*
X108636592Y-105179885D01*
X108588973Y-105275123D01*
X108541354Y-105322742D01*
X108446116Y-105370361D01*
X108065163Y-105370361D01*
X108065163Y-104370361D01*
X108398497Y-104370361D01*
X108493735Y-104417980D01*
X108541354Y-104465599D01*
X108588973Y-104560837D01*
X108588973Y-104656075D01*
X108541354Y-104751313D01*
X108493735Y-104798932D01*
X108398497Y-104846551D01*
X108065163Y-104846551D01*
X109017544Y-105322742D02*
X109160401Y-105370361D01*
X109398497Y-105370361D01*
X109493735Y-105322742D01*
X109541354Y-105275123D01*
X109588973Y-105179885D01*
X109588973Y-105084647D01*
X109541354Y-104989409D01*
X109493735Y-104941790D01*
X109398497Y-104894170D01*
X109208020Y-104846551D01*
X109112782Y-104798932D01*
X109065163Y-104751313D01*
X109017544Y-104656075D01*
X109017544Y-104560837D01*
X109065163Y-104465599D01*
X109112782Y-104417980D01*
X109208020Y-104370361D01*
X109446116Y-104370361D01*
X109588973Y-104417980D01*
X109969925Y-105322742D02*
X110112782Y-105370361D01*
X110350878Y-105370361D01*
X110446116Y-105322742D01*
X110493735Y-105275123D01*
X110541354Y-105179885D01*
X110541354Y-105084647D01*
X110493735Y-104989409D01*
X110446116Y-104941790D01*
X110350878Y-104894170D01*
X110160401Y-104846551D01*
X110065163Y-104798932D01*
X110017544Y-104751313D01*
X109969925Y-104656075D01*
X109969925Y-104560837D01*
X110017544Y-104465599D01*
X110065163Y-104417980D01*
X110160401Y-104370361D01*
X110398497Y-104370361D01*
X110541354Y-104417980D01*
X111493735Y-105370361D02*
X110922306Y-105370361D01*
X111208020Y-105370361D02*
X111208020Y-104370361D01*
X111112782Y-104513218D01*
X111017544Y-104608456D01*
X110922306Y-104656075D01*
X111827068Y-104370361D02*
X112446116Y-104370361D01*
X112112782Y-104751313D01*
X112255640Y-104751313D01*
X112350878Y-104798932D01*
X112398497Y-104846551D01*
X112446116Y-104941790D01*
X112446116Y-105179885D01*
X112398497Y-105275123D01*
X112350878Y-105322742D01*
X112255640Y-105370361D01*
X111969925Y-105370361D01*
X111874687Y-105322742D01*
X111827068Y-105275123D01*
X113017544Y-104798932D02*
X112922306Y-104751313D01*
X112874687Y-104703694D01*
X112827068Y-104608456D01*
X112827068Y-104560837D01*
X112874687Y-104465599D01*
X112922306Y-104417980D01*
X113017544Y-104370361D01*
X113208021Y-104370361D01*
X113303259Y-104417980D01*
X113350878Y-104465599D01*
X113398497Y-104560837D01*
X113398497Y-104608456D01*
X113350878Y-104703694D01*
X113303259Y-104751313D01*
X113208021Y-104798932D01*
X113017544Y-104798932D01*
X112922306Y-104846551D01*
X112874687Y-104894170D01*
X112827068Y-104989409D01*
X112827068Y-105179885D01*
X112874687Y-105275123D01*
X112922306Y-105322742D01*
X113017544Y-105370361D01*
X113208021Y-105370361D01*
X113303259Y-105322742D01*
X113350878Y-105275123D01*
X113398497Y-105179885D01*
X113398497Y-104989409D01*
X113350878Y-104894170D01*
X113303259Y-104846551D01*
X113208021Y-104798932D01*
D12*
X109992381Y-102303810D02*
X109944762Y-102280000D01*
X109897143Y-102232381D01*
X109825714Y-102160952D01*
X109778095Y-102137143D01*
X109730476Y-102137143D01*
X109754286Y-102256190D02*
X109706667Y-102232381D01*
X109659048Y-102184762D01*
X109635238Y-102089524D01*
X109635238Y-101922857D01*
X109659048Y-101827619D01*
X109706667Y-101780000D01*
X109754286Y-101756190D01*
X109849524Y-101756190D01*
X109897143Y-101780000D01*
X109944762Y-101827619D01*
X109968571Y-101922857D01*
X109968571Y-102089524D01*
X109944762Y-102184762D01*
X109897143Y-102232381D01*
X109849524Y-102256190D01*
X109754286Y-102256190D01*
X110159048Y-101803810D02*
X110182858Y-101780000D01*
X110230477Y-101756190D01*
X110349524Y-101756190D01*
X110397143Y-101780000D01*
X110420953Y-101803810D01*
X110444762Y-101851429D01*
X110444762Y-101899048D01*
X110420953Y-101970476D01*
X110135239Y-102256190D01*
X110444762Y-102256190D01*
D11*
X111889137Y-99140911D02*
X112031994Y-99188530D01*
X112079613Y-99236150D01*
X112127232Y-99331388D01*
X112127232Y-99474245D01*
X112079613Y-99569483D01*
X112031994Y-99617102D01*
X111936756Y-99664721D01*
X111555803Y-99664721D01*
X111555803Y-98664721D01*
X111889137Y-98664721D01*
X111984375Y-98712340D01*
X112031994Y-98759959D01*
X112079613Y-98855197D01*
X112079613Y-98950435D01*
X112031994Y-99045673D01*
X111984375Y-99093292D01*
X111889137Y-99140911D01*
X111555803Y-99140911D01*
X112508184Y-99617102D02*
X112651041Y-99664721D01*
X112889137Y-99664721D01*
X112984375Y-99617102D01*
X113031994Y-99569483D01*
X113079613Y-99474245D01*
X113079613Y-99379007D01*
X113031994Y-99283769D01*
X112984375Y-99236150D01*
X112889137Y-99188530D01*
X112698660Y-99140911D01*
X112603422Y-99093292D01*
X112555803Y-99045673D01*
X112508184Y-98950435D01*
X112508184Y-98855197D01*
X112555803Y-98759959D01*
X112603422Y-98712340D01*
X112698660Y-98664721D01*
X112936756Y-98664721D01*
X113079613Y-98712340D01*
X113460565Y-99617102D02*
X113603422Y-99664721D01*
X113841518Y-99664721D01*
X113936756Y-99617102D01*
X113984375Y-99569483D01*
X114031994Y-99474245D01*
X114031994Y-99379007D01*
X113984375Y-99283769D01*
X113936756Y-99236150D01*
X113841518Y-99188530D01*
X113651041Y-99140911D01*
X113555803Y-99093292D01*
X113508184Y-99045673D01*
X113460565Y-98950435D01*
X113460565Y-98855197D01*
X113508184Y-98759959D01*
X113555803Y-98712340D01*
X113651041Y-98664721D01*
X113889137Y-98664721D01*
X114031994Y-98712340D01*
X114984375Y-99664721D02*
X114412946Y-99664721D01*
X114698660Y-99664721D02*
X114698660Y-98664721D01*
X114603422Y-98807578D01*
X114508184Y-98902816D01*
X114412946Y-98950435D01*
X115317708Y-98664721D02*
X115936756Y-98664721D01*
X115603422Y-99045673D01*
X115746280Y-99045673D01*
X115841518Y-99093292D01*
X115889137Y-99140911D01*
X115936756Y-99236150D01*
X115936756Y-99474245D01*
X115889137Y-99569483D01*
X115841518Y-99617102D01*
X115746280Y-99664721D01*
X115460565Y-99664721D01*
X115365327Y-99617102D01*
X115317708Y-99569483D01*
X116508184Y-99093292D02*
X116412946Y-99045673D01*
X116365327Y-98998054D01*
X116317708Y-98902816D01*
X116317708Y-98855197D01*
X116365327Y-98759959D01*
X116412946Y-98712340D01*
X116508184Y-98664721D01*
X116698661Y-98664721D01*
X116793899Y-98712340D01*
X116841518Y-98759959D01*
X116889137Y-98855197D01*
X116889137Y-98902816D01*
X116841518Y-98998054D01*
X116793899Y-99045673D01*
X116698661Y-99093292D01*
X116508184Y-99093292D01*
X116412946Y-99140911D01*
X116365327Y-99188530D01*
X116317708Y-99283769D01*
X116317708Y-99474245D01*
X116365327Y-99569483D01*
X116412946Y-99617102D01*
X116508184Y-99664721D01*
X116698661Y-99664721D01*
X116793899Y-99617102D01*
X116841518Y-99569483D01*
X116889137Y-99474245D01*
X116889137Y-99283769D01*
X116841518Y-99188530D01*
X116793899Y-99140911D01*
X116698661Y-99093292D01*
D12*
X114712381Y-102353810D02*
X114664762Y-102330000D01*
X114617143Y-102282381D01*
X114545714Y-102210952D01*
X114498095Y-102187143D01*
X114450476Y-102187143D01*
X114474286Y-102306190D02*
X114426667Y-102282381D01*
X114379048Y-102234762D01*
X114355238Y-102139524D01*
X114355238Y-101972857D01*
X114379048Y-101877619D01*
X114426667Y-101830000D01*
X114474286Y-101806190D01*
X114569524Y-101806190D01*
X114617143Y-101830000D01*
X114664762Y-101877619D01*
X114688571Y-101972857D01*
X114688571Y-102139524D01*
X114664762Y-102234762D01*
X114617143Y-102282381D01*
X114569524Y-102306190D01*
X114474286Y-102306190D01*
X114855239Y-101806190D02*
X115164762Y-101806190D01*
X114998096Y-101996667D01*
X115069524Y-101996667D01*
X115117143Y-102020476D01*
X115140953Y-102044286D01*
X115164762Y-102091905D01*
X115164762Y-102210952D01*
X115140953Y-102258571D01*
X115117143Y-102282381D01*
X115069524Y-102306190D01*
X114926667Y-102306190D01*
X114879048Y-102282381D01*
X114855239Y-102258571D01*
D11*
X116469737Y-104846551D02*
X116612594Y-104894170D01*
X116660213Y-104941790D01*
X116707832Y-105037028D01*
X116707832Y-105179885D01*
X116660213Y-105275123D01*
X116612594Y-105322742D01*
X116517356Y-105370361D01*
X116136403Y-105370361D01*
X116136403Y-104370361D01*
X116469737Y-104370361D01*
X116564975Y-104417980D01*
X116612594Y-104465599D01*
X116660213Y-104560837D01*
X116660213Y-104656075D01*
X116612594Y-104751313D01*
X116564975Y-104798932D01*
X116469737Y-104846551D01*
X116136403Y-104846551D01*
X117088784Y-105322742D02*
X117231641Y-105370361D01*
X117469737Y-105370361D01*
X117564975Y-105322742D01*
X117612594Y-105275123D01*
X117660213Y-105179885D01*
X117660213Y-105084647D01*
X117612594Y-104989409D01*
X117564975Y-104941790D01*
X117469737Y-104894170D01*
X117279260Y-104846551D01*
X117184022Y-104798932D01*
X117136403Y-104751313D01*
X117088784Y-104656075D01*
X117088784Y-104560837D01*
X117136403Y-104465599D01*
X117184022Y-104417980D01*
X117279260Y-104370361D01*
X117517356Y-104370361D01*
X117660213Y-104417980D01*
X118041165Y-105322742D02*
X118184022Y-105370361D01*
X118422118Y-105370361D01*
X118517356Y-105322742D01*
X118564975Y-105275123D01*
X118612594Y-105179885D01*
X118612594Y-105084647D01*
X118564975Y-104989409D01*
X118517356Y-104941790D01*
X118422118Y-104894170D01*
X118231641Y-104846551D01*
X118136403Y-104798932D01*
X118088784Y-104751313D01*
X118041165Y-104656075D01*
X118041165Y-104560837D01*
X118088784Y-104465599D01*
X118136403Y-104417980D01*
X118231641Y-104370361D01*
X118469737Y-104370361D01*
X118612594Y-104417980D01*
X119564975Y-105370361D02*
X118993546Y-105370361D01*
X119279260Y-105370361D02*
X119279260Y-104370361D01*
X119184022Y-104513218D01*
X119088784Y-104608456D01*
X118993546Y-104656075D01*
X119898308Y-104370361D02*
X120517356Y-104370361D01*
X120184022Y-104751313D01*
X120326880Y-104751313D01*
X120422118Y-104798932D01*
X120469737Y-104846551D01*
X120517356Y-104941790D01*
X120517356Y-105179885D01*
X120469737Y-105275123D01*
X120422118Y-105322742D01*
X120326880Y-105370361D01*
X120041165Y-105370361D01*
X119945927Y-105322742D01*
X119898308Y-105275123D01*
X121088784Y-104798932D02*
X120993546Y-104751313D01*
X120945927Y-104703694D01*
X120898308Y-104608456D01*
X120898308Y-104560837D01*
X120945927Y-104465599D01*
X120993546Y-104417980D01*
X121088784Y-104370361D01*
X121279261Y-104370361D01*
X121374499Y-104417980D01*
X121422118Y-104465599D01*
X121469737Y-104560837D01*
X121469737Y-104608456D01*
X121422118Y-104703694D01*
X121374499Y-104751313D01*
X121279261Y-104798932D01*
X121088784Y-104798932D01*
X120993546Y-104846551D01*
X120945927Y-104894170D01*
X120898308Y-104989409D01*
X120898308Y-105179885D01*
X120945927Y-105275123D01*
X120993546Y-105322742D01*
X121088784Y-105370361D01*
X121279261Y-105370361D01*
X121374499Y-105322742D01*
X121422118Y-105275123D01*
X121469737Y-105179885D01*
X121469737Y-104989409D01*
X121422118Y-104894170D01*
X121374499Y-104846551D01*
X121279261Y-104798932D01*
D12*
X119572381Y-102303810D02*
X119524762Y-102280000D01*
X119477143Y-102232381D01*
X119405714Y-102160952D01*
X119358095Y-102137143D01*
X119310476Y-102137143D01*
X119334286Y-102256190D02*
X119286667Y-102232381D01*
X119239048Y-102184762D01*
X119215238Y-102089524D01*
X119215238Y-101922857D01*
X119239048Y-101827619D01*
X119286667Y-101780000D01*
X119334286Y-101756190D01*
X119429524Y-101756190D01*
X119477143Y-101780000D01*
X119524762Y-101827619D01*
X119548571Y-101922857D01*
X119548571Y-102089524D01*
X119524762Y-102184762D01*
X119477143Y-102232381D01*
X119429524Y-102256190D01*
X119334286Y-102256190D01*
X119977143Y-101922857D02*
X119977143Y-102256190D01*
X119858096Y-101732381D02*
X119739048Y-102089524D01*
X120048572Y-102089524D01*
D11*
X97180661Y-143272426D02*
X97180661Y-143843855D01*
X97180661Y-143558141D02*
X96180661Y-143558141D01*
X96323518Y-143653379D01*
X96418756Y-143748617D01*
X96466375Y-143843855D01*
X96180661Y-142653379D02*
X96180661Y-142558140D01*
X96228280Y-142462902D01*
X96275899Y-142415283D01*
X96371137Y-142367664D01*
X96561613Y-142320045D01*
X96799709Y-142320045D01*
X96990185Y-142367664D01*
X97085423Y-142415283D01*
X97133042Y-142462902D01*
X97180661Y-142558140D01*
X97180661Y-142653379D01*
X97133042Y-142748617D01*
X97085423Y-142796236D01*
X96990185Y-142843855D01*
X96799709Y-142891474D01*
X96561613Y-142891474D01*
X96371137Y-142843855D01*
X96275899Y-142796236D01*
X96228280Y-142748617D01*
X96180661Y-142653379D01*
X96180661Y-141700998D02*
X96180661Y-141605759D01*
X96228280Y-141510521D01*
X96275899Y-141462902D01*
X96371137Y-141415283D01*
X96561613Y-141367664D01*
X96799709Y-141367664D01*
X96990185Y-141415283D01*
X97085423Y-141462902D01*
X97133042Y-141510521D01*
X97180661Y-141605759D01*
X97180661Y-141700998D01*
X97133042Y-141796236D01*
X97085423Y-141843855D01*
X96990185Y-141891474D01*
X96799709Y-141939093D01*
X96561613Y-141939093D01*
X96371137Y-141891474D01*
X96275899Y-141843855D01*
X96228280Y-141796236D01*
X96180661Y-141700998D01*
D12*
X97020992Y-139878426D02*
X96830516Y-140011760D01*
X97020992Y-140106998D02*
X96620992Y-140106998D01*
X96620992Y-139954617D01*
X96640040Y-139916522D01*
X96659088Y-139897474D01*
X96697183Y-139878426D01*
X96754326Y-139878426D01*
X96792421Y-139897474D01*
X96811469Y-139916522D01*
X96830516Y-139954617D01*
X96830516Y-140106998D01*
X97020992Y-139497474D02*
X97020992Y-139726046D01*
X97020992Y-139611760D02*
X96620992Y-139611760D01*
X96678135Y-139649855D01*
X96716230Y-139687950D01*
X96735278Y-139726046D01*
D11*
X106456201Y-87700147D02*
X106456201Y-88271576D01*
X106456201Y-87985862D02*
X105456201Y-87985862D01*
X105599058Y-88081100D01*
X105694296Y-88176338D01*
X105741915Y-88271576D01*
X106456201Y-87271576D02*
X105456201Y-87271576D01*
X106075249Y-87176338D02*
X106456201Y-86890623D01*
X105789534Y-86890623D02*
X106170487Y-87271576D01*
D12*
X106100952Y-85196666D02*
X105910476Y-85330000D01*
X106100952Y-85425238D02*
X105700952Y-85425238D01*
X105700952Y-85272857D01*
X105720000Y-85234762D01*
X105739048Y-85215714D01*
X105777143Y-85196666D01*
X105834286Y-85196666D01*
X105872381Y-85215714D01*
X105891429Y-85234762D01*
X105910476Y-85272857D01*
X105910476Y-85425238D01*
X105739048Y-85044286D02*
X105720000Y-85025238D01*
X105700952Y-84987143D01*
X105700952Y-84891905D01*
X105720000Y-84853809D01*
X105739048Y-84834762D01*
X105777143Y-84815714D01*
X105815238Y-84815714D01*
X105872381Y-84834762D01*
X106100952Y-85063333D01*
X106100952Y-84815714D01*
D11*
X104698561Y-87857147D02*
X104698561Y-88428576D01*
X104698561Y-88142862D02*
X103698561Y-88142862D01*
X103841418Y-88238100D01*
X103936656Y-88333338D01*
X103984275Y-88428576D01*
X104698561Y-87428576D02*
X103698561Y-87428576D01*
X104317609Y-87333338D02*
X104698561Y-87047623D01*
X104031894Y-87047623D02*
X104412847Y-87428576D01*
D12*
X104510952Y-85226666D02*
X104320476Y-85360000D01*
X104510952Y-85455238D02*
X104110952Y-85455238D01*
X104110952Y-85302857D01*
X104130000Y-85264762D01*
X104149048Y-85245714D01*
X104187143Y-85226666D01*
X104244286Y-85226666D01*
X104282381Y-85245714D01*
X104301429Y-85264762D01*
X104320476Y-85302857D01*
X104320476Y-85455238D01*
X104110952Y-85093333D02*
X104110952Y-84845714D01*
X104263333Y-84979047D01*
X104263333Y-84921905D01*
X104282381Y-84883809D01*
X104301429Y-84864762D01*
X104339524Y-84845714D01*
X104434762Y-84845714D01*
X104472857Y-84864762D01*
X104491905Y-84883809D01*
X104510952Y-84921905D01*
X104510952Y-85036190D01*
X104491905Y-85074286D01*
X104472857Y-85093333D01*
D11*
X110618341Y-128532002D02*
X110761198Y-128579621D01*
X110999294Y-128579621D01*
X111094532Y-128532002D01*
X111142151Y-128484383D01*
X111189770Y-128389145D01*
X111189770Y-128293907D01*
X111142151Y-128198669D01*
X111094532Y-128151050D01*
X110999294Y-128103430D01*
X110808817Y-128055811D01*
X110713579Y-128008192D01*
X110665960Y-127960573D01*
X110618341Y-127865335D01*
X110618341Y-127770097D01*
X110665960Y-127674859D01*
X110713579Y-127627240D01*
X110808817Y-127579621D01*
X111046913Y-127579621D01*
X111189770Y-127627240D01*
X111523103Y-127579621D02*
X111761198Y-128579621D01*
X111951675Y-127865335D01*
X112142151Y-128579621D01*
X112380246Y-127579621D01*
X112523103Y-128674859D02*
X113285008Y-128674859D01*
X113523103Y-128579621D02*
X113523103Y-127579621D01*
X113904056Y-127579621D01*
X113999294Y-127627240D01*
X114046913Y-127674859D01*
X114094532Y-127770097D01*
X114094532Y-127912954D01*
X114046913Y-128008192D01*
X113999294Y-128055811D01*
X113904056Y-128103430D01*
X113523103Y-128103430D01*
X114951675Y-127912954D02*
X114951675Y-128579621D01*
X114523103Y-127912954D02*
X114523103Y-128436764D01*
X114570722Y-128532002D01*
X114665960Y-128579621D01*
X114808818Y-128579621D01*
X114904056Y-128532002D01*
X114951675Y-128484383D01*
X115380246Y-128532002D02*
X115475484Y-128579621D01*
X115665960Y-128579621D01*
X115761199Y-128532002D01*
X115808818Y-128436764D01*
X115808818Y-128389145D01*
X115761199Y-128293907D01*
X115665960Y-128246288D01*
X115523103Y-128246288D01*
X115427865Y-128198669D01*
X115380246Y-128103430D01*
X115380246Y-128055811D01*
X115427865Y-127960573D01*
X115523103Y-127912954D01*
X115665960Y-127912954D01*
X115761199Y-127960573D01*
X116237389Y-128579621D02*
X116237389Y-127579621D01*
X116665961Y-128579621D02*
X116665961Y-128055811D01*
X116618342Y-127960573D01*
X116523104Y-127912954D01*
X116380246Y-127912954D01*
X116285008Y-127960573D01*
X116237389Y-128008192D01*
X111832627Y-124082002D02*
X111975484Y-124129621D01*
X112213580Y-124129621D01*
X112308818Y-124082002D01*
X112356437Y-124034383D01*
X112404056Y-123939145D01*
X112404056Y-123843907D01*
X112356437Y-123748669D01*
X112308818Y-123701050D01*
X112213580Y-123653430D01*
X112023103Y-123605811D01*
X111927865Y-123558192D01*
X111880246Y-123510573D01*
X111832627Y-123415335D01*
X111832627Y-123320097D01*
X111880246Y-123224859D01*
X111927865Y-123177240D01*
X112023103Y-123129621D01*
X112261199Y-123129621D01*
X112404056Y-123177240D01*
X112737389Y-123129621D02*
X112975484Y-124129621D01*
X113165961Y-123415335D01*
X113356437Y-124129621D01*
X113594532Y-123129621D01*
X114499294Y-124129621D02*
X113927865Y-124129621D01*
X114213579Y-124129621D02*
X114213579Y-123129621D01*
X114118341Y-123272478D01*
X114023103Y-123367716D01*
X113927865Y-123415335D01*
X110674221Y-120485282D02*
X110817078Y-120532901D01*
X111055174Y-120532901D01*
X111150412Y-120485282D01*
X111198031Y-120437663D01*
X111245650Y-120342425D01*
X111245650Y-120247187D01*
X111198031Y-120151949D01*
X111150412Y-120104330D01*
X111055174Y-120056710D01*
X110864697Y-120009091D01*
X110769459Y-119961472D01*
X110721840Y-119913853D01*
X110674221Y-119818615D01*
X110674221Y-119723377D01*
X110721840Y-119628139D01*
X110769459Y-119580520D01*
X110864697Y-119532901D01*
X111102793Y-119532901D01*
X111245650Y-119580520D01*
X111578983Y-119532901D02*
X111817078Y-120532901D01*
X112007555Y-119818615D01*
X112198031Y-120532901D01*
X112436126Y-119532901D01*
X112578983Y-120628139D02*
X113340888Y-120628139D01*
X113578983Y-120532901D02*
X113578983Y-119532901D01*
X113959936Y-119532901D01*
X114055174Y-119580520D01*
X114102793Y-119628139D01*
X114150412Y-119723377D01*
X114150412Y-119866234D01*
X114102793Y-119961472D01*
X114055174Y-120009091D01*
X113959936Y-120056710D01*
X113578983Y-120056710D01*
X115007555Y-119866234D02*
X115007555Y-120532901D01*
X114578983Y-119866234D02*
X114578983Y-120390044D01*
X114626602Y-120485282D01*
X114721840Y-120532901D01*
X114864698Y-120532901D01*
X114959936Y-120485282D01*
X115007555Y-120437663D01*
X115436126Y-120485282D02*
X115531364Y-120532901D01*
X115721840Y-120532901D01*
X115817079Y-120485282D01*
X115864698Y-120390044D01*
X115864698Y-120342425D01*
X115817079Y-120247187D01*
X115721840Y-120199568D01*
X115578983Y-120199568D01*
X115483745Y-120151949D01*
X115436126Y-120056710D01*
X115436126Y-120009091D01*
X115483745Y-119913853D01*
X115578983Y-119866234D01*
X115721840Y-119866234D01*
X115817079Y-119913853D01*
X116293269Y-120532901D02*
X116293269Y-119532901D01*
X116721841Y-120532901D02*
X116721841Y-120009091D01*
X116674222Y-119913853D01*
X116578984Y-119866234D01*
X116436126Y-119866234D01*
X116340888Y-119913853D01*
X116293269Y-119961472D01*
X111888507Y-116035282D02*
X112031364Y-116082901D01*
X112269460Y-116082901D01*
X112364698Y-116035282D01*
X112412317Y-115987663D01*
X112459936Y-115892425D01*
X112459936Y-115797187D01*
X112412317Y-115701949D01*
X112364698Y-115654330D01*
X112269460Y-115606710D01*
X112078983Y-115559091D01*
X111983745Y-115511472D01*
X111936126Y-115463853D01*
X111888507Y-115368615D01*
X111888507Y-115273377D01*
X111936126Y-115178139D01*
X111983745Y-115130520D01*
X112078983Y-115082901D01*
X112317079Y-115082901D01*
X112459936Y-115130520D01*
X112793269Y-115082901D02*
X113031364Y-116082901D01*
X113221841Y-115368615D01*
X113412317Y-116082901D01*
X113650412Y-115082901D01*
X113983745Y-115178139D02*
X114031364Y-115130520D01*
X114126602Y-115082901D01*
X114364698Y-115082901D01*
X114459936Y-115130520D01*
X114507555Y-115178139D01*
X114555174Y-115273377D01*
X114555174Y-115368615D01*
X114507555Y-115511472D01*
X113936126Y-116082901D01*
X114555174Y-116082901D01*
X110582781Y-136644762D02*
X110725638Y-136692381D01*
X110963734Y-136692381D01*
X111058972Y-136644762D01*
X111106591Y-136597143D01*
X111154210Y-136501905D01*
X111154210Y-136406667D01*
X111106591Y-136311429D01*
X111058972Y-136263810D01*
X110963734Y-136216190D01*
X110773257Y-136168571D01*
X110678019Y-136120952D01*
X110630400Y-136073333D01*
X110582781Y-135978095D01*
X110582781Y-135882857D01*
X110630400Y-135787619D01*
X110678019Y-135740000D01*
X110773257Y-135692381D01*
X111011353Y-135692381D01*
X111154210Y-135740000D01*
X111487543Y-135692381D02*
X111725638Y-136692381D01*
X111916115Y-135978095D01*
X112106591Y-136692381D01*
X112344686Y-135692381D01*
X112487543Y-136787619D02*
X113249448Y-136787619D01*
X113487543Y-136692381D02*
X113487543Y-135692381D01*
X113868496Y-135692381D01*
X113963734Y-135740000D01*
X114011353Y-135787619D01*
X114058972Y-135882857D01*
X114058972Y-136025714D01*
X114011353Y-136120952D01*
X113963734Y-136168571D01*
X113868496Y-136216190D01*
X113487543Y-136216190D01*
X114916115Y-136025714D02*
X114916115Y-136692381D01*
X114487543Y-136025714D02*
X114487543Y-136549524D01*
X114535162Y-136644762D01*
X114630400Y-136692381D01*
X114773258Y-136692381D01*
X114868496Y-136644762D01*
X114916115Y-136597143D01*
X115344686Y-136644762D02*
X115439924Y-136692381D01*
X115630400Y-136692381D01*
X115725639Y-136644762D01*
X115773258Y-136549524D01*
X115773258Y-136501905D01*
X115725639Y-136406667D01*
X115630400Y-136359048D01*
X115487543Y-136359048D01*
X115392305Y-136311429D01*
X115344686Y-136216190D01*
X115344686Y-136168571D01*
X115392305Y-136073333D01*
X115487543Y-136025714D01*
X115630400Y-136025714D01*
X115725639Y-136073333D01*
X116201829Y-136692381D02*
X116201829Y-135692381D01*
X116630401Y-136692381D02*
X116630401Y-136168571D01*
X116582782Y-136073333D01*
X116487544Y-136025714D01*
X116344686Y-136025714D01*
X116249448Y-136073333D01*
X116201829Y-136120952D01*
X111797067Y-132194762D02*
X111939924Y-132242381D01*
X112178020Y-132242381D01*
X112273258Y-132194762D01*
X112320877Y-132147143D01*
X112368496Y-132051905D01*
X112368496Y-131956667D01*
X112320877Y-131861429D01*
X112273258Y-131813810D01*
X112178020Y-131766190D01*
X111987543Y-131718571D01*
X111892305Y-131670952D01*
X111844686Y-131623333D01*
X111797067Y-131528095D01*
X111797067Y-131432857D01*
X111844686Y-131337619D01*
X111892305Y-131290000D01*
X111987543Y-131242381D01*
X112225639Y-131242381D01*
X112368496Y-131290000D01*
X112701829Y-131242381D02*
X112939924Y-132242381D01*
X113130401Y-131528095D01*
X113320877Y-132242381D01*
X113558972Y-131242381D01*
X113844686Y-131242381D02*
X114463734Y-131242381D01*
X114130400Y-131623333D01*
X114273258Y-131623333D01*
X114368496Y-131670952D01*
X114416115Y-131718571D01*
X114463734Y-131813810D01*
X114463734Y-132051905D01*
X114416115Y-132147143D01*
X114368496Y-132194762D01*
X114273258Y-132242381D01*
X113987543Y-132242381D01*
X113892305Y-132194762D01*
X113844686Y-132147143D01*
X100504061Y-128532002D02*
X100646918Y-128579621D01*
X100885014Y-128579621D01*
X100980252Y-128532002D01*
X101027871Y-128484383D01*
X101075490Y-128389145D01*
X101075490Y-128293907D01*
X101027871Y-128198669D01*
X100980252Y-128151050D01*
X100885014Y-128103430D01*
X100694537Y-128055811D01*
X100599299Y-128008192D01*
X100551680Y-127960573D01*
X100504061Y-127865335D01*
X100504061Y-127770097D01*
X100551680Y-127674859D01*
X100599299Y-127627240D01*
X100694537Y-127579621D01*
X100932633Y-127579621D01*
X101075490Y-127627240D01*
X101408823Y-127579621D02*
X101646918Y-128579621D01*
X101837395Y-127865335D01*
X102027871Y-128579621D01*
X102265966Y-127579621D01*
X102408823Y-128674859D02*
X103170728Y-128674859D01*
X103408823Y-128579621D02*
X103408823Y-127579621D01*
X103789776Y-127579621D01*
X103885014Y-127627240D01*
X103932633Y-127674859D01*
X103980252Y-127770097D01*
X103980252Y-127912954D01*
X103932633Y-128008192D01*
X103885014Y-128055811D01*
X103789776Y-128103430D01*
X103408823Y-128103430D01*
X104837395Y-127912954D02*
X104837395Y-128579621D01*
X104408823Y-127912954D02*
X104408823Y-128436764D01*
X104456442Y-128532002D01*
X104551680Y-128579621D01*
X104694538Y-128579621D01*
X104789776Y-128532002D01*
X104837395Y-128484383D01*
X105265966Y-128532002D02*
X105361204Y-128579621D01*
X105551680Y-128579621D01*
X105646919Y-128532002D01*
X105694538Y-128436764D01*
X105694538Y-128389145D01*
X105646919Y-128293907D01*
X105551680Y-128246288D01*
X105408823Y-128246288D01*
X105313585Y-128198669D01*
X105265966Y-128103430D01*
X105265966Y-128055811D01*
X105313585Y-127960573D01*
X105408823Y-127912954D01*
X105551680Y-127912954D01*
X105646919Y-127960573D01*
X106123109Y-128579621D02*
X106123109Y-127579621D01*
X106551681Y-128579621D02*
X106551681Y-128055811D01*
X106504062Y-127960573D01*
X106408824Y-127912954D01*
X106265966Y-127912954D01*
X106170728Y-127960573D01*
X106123109Y-128008192D01*
X101718347Y-124082002D02*
X101861204Y-124129621D01*
X102099300Y-124129621D01*
X102194538Y-124082002D01*
X102242157Y-124034383D01*
X102289776Y-123939145D01*
X102289776Y-123843907D01*
X102242157Y-123748669D01*
X102194538Y-123701050D01*
X102099300Y-123653430D01*
X101908823Y-123605811D01*
X101813585Y-123558192D01*
X101765966Y-123510573D01*
X101718347Y-123415335D01*
X101718347Y-123320097D01*
X101765966Y-123224859D01*
X101813585Y-123177240D01*
X101908823Y-123129621D01*
X102146919Y-123129621D01*
X102289776Y-123177240D01*
X102623109Y-123129621D02*
X102861204Y-124129621D01*
X103051681Y-123415335D01*
X103242157Y-124129621D01*
X103480252Y-123129621D01*
X104289776Y-123462954D02*
X104289776Y-124129621D01*
X104051680Y-123082002D02*
X103813585Y-123796288D01*
X104432633Y-123796288D01*
X120747861Y-128552322D02*
X120890718Y-128599941D01*
X121128814Y-128599941D01*
X121224052Y-128552322D01*
X121271671Y-128504703D01*
X121319290Y-128409465D01*
X121319290Y-128314227D01*
X121271671Y-128218989D01*
X121224052Y-128171370D01*
X121128814Y-128123750D01*
X120938337Y-128076131D01*
X120843099Y-128028512D01*
X120795480Y-127980893D01*
X120747861Y-127885655D01*
X120747861Y-127790417D01*
X120795480Y-127695179D01*
X120843099Y-127647560D01*
X120938337Y-127599941D01*
X121176433Y-127599941D01*
X121319290Y-127647560D01*
X121652623Y-127599941D02*
X121890718Y-128599941D01*
X122081195Y-127885655D01*
X122271671Y-128599941D01*
X122509766Y-127599941D01*
X122652623Y-128695179D02*
X123414528Y-128695179D01*
X123652623Y-128599941D02*
X123652623Y-127599941D01*
X124033576Y-127599941D01*
X124128814Y-127647560D01*
X124176433Y-127695179D01*
X124224052Y-127790417D01*
X124224052Y-127933274D01*
X124176433Y-128028512D01*
X124128814Y-128076131D01*
X124033576Y-128123750D01*
X123652623Y-128123750D01*
X125081195Y-127933274D02*
X125081195Y-128599941D01*
X124652623Y-127933274D02*
X124652623Y-128457084D01*
X124700242Y-128552322D01*
X124795480Y-128599941D01*
X124938338Y-128599941D01*
X125033576Y-128552322D01*
X125081195Y-128504703D01*
X125509766Y-128552322D02*
X125605004Y-128599941D01*
X125795480Y-128599941D01*
X125890719Y-128552322D01*
X125938338Y-128457084D01*
X125938338Y-128409465D01*
X125890719Y-128314227D01*
X125795480Y-128266608D01*
X125652623Y-128266608D01*
X125557385Y-128218989D01*
X125509766Y-128123750D01*
X125509766Y-128076131D01*
X125557385Y-127980893D01*
X125652623Y-127933274D01*
X125795480Y-127933274D01*
X125890719Y-127980893D01*
X126366909Y-128599941D02*
X126366909Y-127599941D01*
X126795481Y-128599941D02*
X126795481Y-128076131D01*
X126747862Y-127980893D01*
X126652624Y-127933274D01*
X126509766Y-127933274D01*
X126414528Y-127980893D01*
X126366909Y-128028512D01*
X121962147Y-124102322D02*
X122105004Y-124149941D01*
X122343100Y-124149941D01*
X122438338Y-124102322D01*
X122485957Y-124054703D01*
X122533576Y-123959465D01*
X122533576Y-123864227D01*
X122485957Y-123768989D01*
X122438338Y-123721370D01*
X122343100Y-123673750D01*
X122152623Y-123626131D01*
X122057385Y-123578512D01*
X122009766Y-123530893D01*
X121962147Y-123435655D01*
X121962147Y-123340417D01*
X122009766Y-123245179D01*
X122057385Y-123197560D01*
X122152623Y-123149941D01*
X122390719Y-123149941D01*
X122533576Y-123197560D01*
X122866909Y-123149941D02*
X123105004Y-124149941D01*
X123295481Y-123435655D01*
X123485957Y-124149941D01*
X123724052Y-123149941D01*
X124581195Y-123149941D02*
X124105004Y-123149941D01*
X124057385Y-123626131D01*
X124105004Y-123578512D01*
X124200242Y-123530893D01*
X124438338Y-123530893D01*
X124533576Y-123578512D01*
X124581195Y-123626131D01*
X124628814Y-123721370D01*
X124628814Y-123959465D01*
X124581195Y-124054703D01*
X124533576Y-124102322D01*
X124438338Y-124149941D01*
X124200242Y-124149941D01*
X124105004Y-124102322D01*
X124057385Y-124054703D01*
X104311463Y-91766141D02*
X104978130Y-91766141D01*
X104549558Y-92766141D01*
X105787654Y-92099474D02*
X105787654Y-92766141D01*
X105549558Y-91718522D02*
X105311463Y-92432808D01*
X105930511Y-92432808D01*
X106787654Y-92766141D02*
X106311463Y-92766141D01*
X106311463Y-91766141D01*
X107073368Y-92718522D02*
X107216225Y-92766141D01*
X107454321Y-92766141D01*
X107549559Y-92718522D01*
X107597178Y-92670903D01*
X107644797Y-92575665D01*
X107644797Y-92480427D01*
X107597178Y-92385189D01*
X107549559Y-92337570D01*
X107454321Y-92289950D01*
X107263844Y-92242331D01*
X107168606Y-92194712D01*
X107120987Y-92147093D01*
X107073368Y-92051855D01*
X107073368Y-91956617D01*
X107120987Y-91861379D01*
X107168606Y-91813760D01*
X107263844Y-91766141D01*
X107501940Y-91766141D01*
X107644797Y-91813760D01*
X108263844Y-91766141D02*
X108359083Y-91766141D01*
X108454321Y-91813760D01*
X108501940Y-91861379D01*
X108549559Y-91956617D01*
X108597178Y-92147093D01*
X108597178Y-92385189D01*
X108549559Y-92575665D01*
X108501940Y-92670903D01*
X108454321Y-92718522D01*
X108359083Y-92766141D01*
X108263844Y-92766141D01*
X108168606Y-92718522D01*
X108120987Y-92670903D01*
X108073368Y-92575665D01*
X108025749Y-92385189D01*
X108025749Y-92147093D01*
X108073368Y-91956617D01*
X108120987Y-91861379D01*
X108168606Y-91813760D01*
X108263844Y-91766141D01*
X109454321Y-91766141D02*
X109263844Y-91766141D01*
X109168606Y-91813760D01*
X109120987Y-91861379D01*
X109025749Y-92004236D01*
X108978130Y-92194712D01*
X108978130Y-92575665D01*
X109025749Y-92670903D01*
X109073368Y-92718522D01*
X109168606Y-92766141D01*
X109359083Y-92766141D01*
X109454321Y-92718522D01*
X109501940Y-92670903D01*
X109549559Y-92575665D01*
X109549559Y-92337570D01*
X109501940Y-92242331D01*
X109454321Y-92194712D01*
X109359083Y-92147093D01*
X109168606Y-92147093D01*
X109073368Y-92194712D01*
X109025749Y-92242331D01*
X108978130Y-92337570D01*
D13*
X106156846Y-90256263D02*
X106156846Y-90984834D01*
X106199703Y-91070549D01*
X106242560Y-91113406D01*
X106328274Y-91156263D01*
X106499703Y-91156263D01*
X106585417Y-91113406D01*
X106628274Y-91070549D01*
X106671131Y-90984834D01*
X106671131Y-90256263D01*
X107571131Y-91156263D02*
X107056846Y-91156263D01*
X107313988Y-91156263D02*
X107313988Y-90256263D01*
X107228274Y-90384834D01*
X107142560Y-90470549D01*
X107056846Y-90513406D01*
D11*
X82850434Y-86351821D02*
X82517100Y-85875630D01*
X82279005Y-86351821D02*
X82279005Y-85351821D01*
X82659958Y-85351821D01*
X82755196Y-85399440D01*
X82802815Y-85447059D01*
X82850434Y-85542297D01*
X82850434Y-85685154D01*
X82802815Y-85780392D01*
X82755196Y-85828011D01*
X82659958Y-85875630D01*
X82279005Y-85875630D01*
X83707577Y-86351821D02*
X83707577Y-85828011D01*
X83659958Y-85732773D01*
X83564720Y-85685154D01*
X83374243Y-85685154D01*
X83279005Y-85732773D01*
X83707577Y-86304202D02*
X83612339Y-86351821D01*
X83374243Y-86351821D01*
X83279005Y-86304202D01*
X83231386Y-86208964D01*
X83231386Y-86113726D01*
X83279005Y-86018488D01*
X83374243Y-85970869D01*
X83612339Y-85970869D01*
X83707577Y-85923250D01*
X84136148Y-86304202D02*
X84231386Y-86351821D01*
X84421862Y-86351821D01*
X84517101Y-86304202D01*
X84564720Y-86208964D01*
X84564720Y-86161345D01*
X84517101Y-86066107D01*
X84421862Y-86018488D01*
X84279005Y-86018488D01*
X84183767Y-85970869D01*
X84136148Y-85875630D01*
X84136148Y-85828011D01*
X84183767Y-85732773D01*
X84279005Y-85685154D01*
X84421862Y-85685154D01*
X84517101Y-85732773D01*
X84993291Y-85685154D02*
X84993291Y-86685154D01*
X84993291Y-85732773D02*
X85088529Y-85685154D01*
X85279006Y-85685154D01*
X85374244Y-85732773D01*
X85421863Y-85780392D01*
X85469482Y-85875630D01*
X85469482Y-86161345D01*
X85421863Y-86256583D01*
X85374244Y-86304202D01*
X85279006Y-86351821D01*
X85088529Y-86351821D01*
X84993291Y-86304202D01*
X85898053Y-86351821D02*
X85898053Y-85351821D01*
X85898053Y-85732773D02*
X85993291Y-85685154D01*
X86183768Y-85685154D01*
X86279006Y-85732773D01*
X86326625Y-85780392D01*
X86374244Y-85875630D01*
X86374244Y-86161345D01*
X86326625Y-86256583D01*
X86279006Y-86304202D01*
X86183768Y-86351821D01*
X85993291Y-86351821D01*
X85898053Y-86304202D01*
X87183768Y-86304202D02*
X87088530Y-86351821D01*
X86898053Y-86351821D01*
X86802815Y-86304202D01*
X86755196Y-86208964D01*
X86755196Y-85828011D01*
X86802815Y-85732773D01*
X86898053Y-85685154D01*
X87088530Y-85685154D01*
X87183768Y-85732773D01*
X87231387Y-85828011D01*
X87231387Y-85923250D01*
X86755196Y-86018488D01*
X87659958Y-86351821D02*
X87659958Y-85685154D01*
X87659958Y-85875630D02*
X87707577Y-85780392D01*
X87755196Y-85732773D01*
X87850434Y-85685154D01*
X87945673Y-85685154D01*
X88279006Y-86351821D02*
X88279006Y-85685154D01*
X88279006Y-85875630D02*
X88326625Y-85780392D01*
X88374244Y-85732773D01*
X88469482Y-85685154D01*
X88564721Y-85685154D01*
X88802816Y-85685154D02*
X89040911Y-86351821D01*
X89279007Y-85685154D02*
X89040911Y-86351821D01*
X88945673Y-86589916D01*
X88898054Y-86637535D01*
X88802816Y-86685154D01*
X89421864Y-86447059D02*
X90183769Y-86447059D01*
X90421864Y-86351821D02*
X90421864Y-85351821D01*
X90802817Y-85351821D01*
X90898055Y-85399440D01*
X90945674Y-85447059D01*
X90993293Y-85542297D01*
X90993293Y-85685154D01*
X90945674Y-85780392D01*
X90898055Y-85828011D01*
X90802817Y-85875630D01*
X90421864Y-85875630D01*
X91421864Y-86351821D02*
X91421864Y-85685154D01*
X91421864Y-85351821D02*
X91374245Y-85399440D01*
X91421864Y-85447059D01*
X91469483Y-85399440D01*
X91421864Y-85351821D01*
X91421864Y-85447059D01*
X91659959Y-86447059D02*
X92421864Y-86447059D01*
X92612340Y-85447059D02*
X92659959Y-85399440D01*
X92755197Y-85351821D01*
X92993293Y-85351821D01*
X93088531Y-85399440D01*
X93136150Y-85447059D01*
X93183769Y-85542297D01*
X93183769Y-85637535D01*
X93136150Y-85780392D01*
X92564721Y-86351821D01*
X93183769Y-86351821D01*
X93374245Y-86447059D02*
X94136150Y-86447059D01*
X94279007Y-85351821D02*
X94898055Y-85351821D01*
X94564721Y-85732773D01*
X94707579Y-85732773D01*
X94802817Y-85780392D01*
X94850436Y-85828011D01*
X94898055Y-85923250D01*
X94898055Y-86161345D01*
X94850436Y-86256583D01*
X94802817Y-86304202D01*
X94707579Y-86351821D01*
X94421864Y-86351821D01*
X94326626Y-86304202D01*
X94279007Y-86256583D01*
X88017101Y-112692773D02*
X88731387Y-112692773D01*
X88874244Y-112740393D01*
X88969482Y-112835631D01*
X89017101Y-112978488D01*
X89017101Y-113073726D01*
X89017101Y-111692773D02*
X89017101Y-112264202D01*
X89017101Y-111978488D02*
X88017101Y-111978488D01*
X88159958Y-112073726D01*
X88255196Y-112168964D01*
X88302815Y-112264202D01*
X118964762Y-97732381D02*
X118393333Y-97732381D01*
X118679047Y-97732381D02*
X118679047Y-96732381D01*
X118583809Y-96875238D01*
X118488571Y-96970476D01*
X118393333Y-97018095D01*
X119583809Y-96732381D02*
X119679048Y-96732381D01*
X119774286Y-96780000D01*
X119821905Y-96827619D01*
X119869524Y-96922857D01*
X119917143Y-97113333D01*
X119917143Y-97351429D01*
X119869524Y-97541905D01*
X119821905Y-97637143D01*
X119774286Y-97684762D01*
X119679048Y-97732381D01*
X119583809Y-97732381D01*
X119488571Y-97684762D01*
X119440952Y-97637143D01*
X119393333Y-97541905D01*
X119345714Y-97351429D01*
X119345714Y-97113333D01*
X119393333Y-96922857D01*
X119440952Y-96827619D01*
X119488571Y-96780000D01*
X119583809Y-96732381D01*
X120345714Y-97732381D02*
X120345714Y-96732381D01*
X120440952Y-97351429D02*
X120726667Y-97732381D01*
X120726667Y-97065714D02*
X120345714Y-97446667D01*
D12*
X119493334Y-98960952D02*
X119360000Y-98770476D01*
X119264762Y-98960952D02*
X119264762Y-98560952D01*
X119417143Y-98560952D01*
X119455238Y-98580000D01*
X119474286Y-98599048D01*
X119493334Y-98637143D01*
X119493334Y-98694286D01*
X119474286Y-98732381D01*
X119455238Y-98751429D01*
X119417143Y-98770476D01*
X119264762Y-98770476D01*
X119836191Y-98694286D02*
X119836191Y-98960952D01*
X119740953Y-98541905D02*
X119645714Y-98827619D01*
X119893334Y-98827619D01*
D11*
X114054762Y-97642381D02*
X113483333Y-97642381D01*
X113769047Y-97642381D02*
X113769047Y-96642381D01*
X113673809Y-96785238D01*
X113578571Y-96880476D01*
X113483333Y-96928095D01*
X114673809Y-96642381D02*
X114769048Y-96642381D01*
X114864286Y-96690000D01*
X114911905Y-96737619D01*
X114959524Y-96832857D01*
X115007143Y-97023333D01*
X115007143Y-97261429D01*
X114959524Y-97451905D01*
X114911905Y-97547143D01*
X114864286Y-97594762D01*
X114769048Y-97642381D01*
X114673809Y-97642381D01*
X114578571Y-97594762D01*
X114530952Y-97547143D01*
X114483333Y-97451905D01*
X114435714Y-97261429D01*
X114435714Y-97023333D01*
X114483333Y-96832857D01*
X114530952Y-96737619D01*
X114578571Y-96690000D01*
X114673809Y-96642381D01*
X115435714Y-97642381D02*
X115435714Y-96642381D01*
X115530952Y-97261429D02*
X115816667Y-97642381D01*
X115816667Y-96975714D02*
X115435714Y-97356667D01*
D12*
X114583334Y-98870952D02*
X114450000Y-98680476D01*
X114354762Y-98870952D02*
X114354762Y-98470952D01*
X114507143Y-98470952D01*
X114545238Y-98490000D01*
X114564286Y-98509048D01*
X114583334Y-98547143D01*
X114583334Y-98604286D01*
X114564286Y-98642381D01*
X114545238Y-98661429D01*
X114507143Y-98680476D01*
X114354762Y-98680476D01*
X114945238Y-98470952D02*
X114754762Y-98470952D01*
X114735714Y-98661429D01*
X114754762Y-98642381D01*
X114792857Y-98623333D01*
X114888095Y-98623333D01*
X114926191Y-98642381D01*
X114945238Y-98661429D01*
X114964286Y-98699524D01*
X114964286Y-98794762D01*
X114945238Y-98832857D01*
X114926191Y-98851905D01*
X114888095Y-98870952D01*
X114792857Y-98870952D01*
X114754762Y-98851905D01*
X114735714Y-98832857D01*
D11*
X109354762Y-97602381D02*
X108783333Y-97602381D01*
X109069047Y-97602381D02*
X109069047Y-96602381D01*
X108973809Y-96745238D01*
X108878571Y-96840476D01*
X108783333Y-96888095D01*
X109973809Y-96602381D02*
X110069048Y-96602381D01*
X110164286Y-96650000D01*
X110211905Y-96697619D01*
X110259524Y-96792857D01*
X110307143Y-96983333D01*
X110307143Y-97221429D01*
X110259524Y-97411905D01*
X110211905Y-97507143D01*
X110164286Y-97554762D01*
X110069048Y-97602381D01*
X109973809Y-97602381D01*
X109878571Y-97554762D01*
X109830952Y-97507143D01*
X109783333Y-97411905D01*
X109735714Y-97221429D01*
X109735714Y-96983333D01*
X109783333Y-96792857D01*
X109830952Y-96697619D01*
X109878571Y-96650000D01*
X109973809Y-96602381D01*
X110735714Y-97602381D02*
X110735714Y-96602381D01*
X110830952Y-97221429D02*
X111116667Y-97602381D01*
X111116667Y-96935714D02*
X110735714Y-97316667D01*
D12*
X109883334Y-98830952D02*
X109750000Y-98640476D01*
X109654762Y-98830952D02*
X109654762Y-98430952D01*
X109807143Y-98430952D01*
X109845238Y-98450000D01*
X109864286Y-98469048D01*
X109883334Y-98507143D01*
X109883334Y-98564286D01*
X109864286Y-98602381D01*
X109845238Y-98621429D01*
X109807143Y-98640476D01*
X109654762Y-98640476D01*
X110226191Y-98430952D02*
X110150000Y-98430952D01*
X110111905Y-98450000D01*
X110092857Y-98469048D01*
X110054762Y-98526190D01*
X110035714Y-98602381D01*
X110035714Y-98754762D01*
X110054762Y-98792857D01*
X110073810Y-98811905D01*
X110111905Y-98830952D01*
X110188095Y-98830952D01*
X110226191Y-98811905D01*
X110245238Y-98792857D01*
X110264286Y-98754762D01*
X110264286Y-98659524D01*
X110245238Y-98621429D01*
X110226191Y-98602381D01*
X110188095Y-98583333D01*
X110111905Y-98583333D01*
X110073810Y-98602381D01*
X110054762Y-98621429D01*
X110035714Y-98659524D01*
D11*
X104804762Y-97542381D02*
X104233333Y-97542381D01*
X104519047Y-97542381D02*
X104519047Y-96542381D01*
X104423809Y-96685238D01*
X104328571Y-96780476D01*
X104233333Y-96828095D01*
X105423809Y-96542381D02*
X105519048Y-96542381D01*
X105614286Y-96590000D01*
X105661905Y-96637619D01*
X105709524Y-96732857D01*
X105757143Y-96923333D01*
X105757143Y-97161429D01*
X105709524Y-97351905D01*
X105661905Y-97447143D01*
X105614286Y-97494762D01*
X105519048Y-97542381D01*
X105423809Y-97542381D01*
X105328571Y-97494762D01*
X105280952Y-97447143D01*
X105233333Y-97351905D01*
X105185714Y-97161429D01*
X105185714Y-96923333D01*
X105233333Y-96732857D01*
X105280952Y-96637619D01*
X105328571Y-96590000D01*
X105423809Y-96542381D01*
X106185714Y-97542381D02*
X106185714Y-96542381D01*
X106280952Y-97161429D02*
X106566667Y-97542381D01*
X106566667Y-96875714D02*
X106185714Y-97256667D01*
D12*
X105333334Y-98770952D02*
X105200000Y-98580476D01*
X105104762Y-98770952D02*
X105104762Y-98370952D01*
X105257143Y-98370952D01*
X105295238Y-98390000D01*
X105314286Y-98409048D01*
X105333334Y-98447143D01*
X105333334Y-98504286D01*
X105314286Y-98542381D01*
X105295238Y-98561429D01*
X105257143Y-98580476D01*
X105104762Y-98580476D01*
X105466667Y-98370952D02*
X105733334Y-98370952D01*
X105561905Y-98770952D01*
D11*
X118827681Y-139843118D02*
X118827681Y-140414547D01*
X118827681Y-140128833D02*
X117827681Y-140128833D01*
X117970538Y-140224071D01*
X118065776Y-140319309D01*
X118113395Y-140414547D01*
X117827681Y-139224071D02*
X117827681Y-139128832D01*
X117875300Y-139033594D01*
X117922919Y-138985975D01*
X118018157Y-138938356D01*
X118208633Y-138890737D01*
X118446729Y-138890737D01*
X118637205Y-138938356D01*
X118732443Y-138985975D01*
X118780062Y-139033594D01*
X118827681Y-139128832D01*
X118827681Y-139224071D01*
X118780062Y-139319309D01*
X118732443Y-139366928D01*
X118637205Y-139414547D01*
X118446729Y-139462166D01*
X118208633Y-139462166D01*
X118018157Y-139414547D01*
X117922919Y-139366928D01*
X117875300Y-139319309D01*
X117827681Y-139224071D01*
X118827681Y-138462166D02*
X117827681Y-138462166D01*
X118446729Y-138366928D02*
X118827681Y-138081213D01*
X118161014Y-138081213D02*
X118541967Y-138462166D01*
D12*
X120056252Y-139314546D02*
X119865776Y-139447880D01*
X120056252Y-139543118D02*
X119656252Y-139543118D01*
X119656252Y-139390737D01*
X119675300Y-139352642D01*
X119694348Y-139333594D01*
X119732443Y-139314546D01*
X119789586Y-139314546D01*
X119827681Y-139333594D01*
X119846729Y-139352642D01*
X119865776Y-139390737D01*
X119865776Y-139543118D01*
X119827681Y-139085975D02*
X119808633Y-139124070D01*
X119789586Y-139143118D01*
X119751490Y-139162166D01*
X119732443Y-139162166D01*
X119694348Y-139143118D01*
X119675300Y-139124070D01*
X119656252Y-139085975D01*
X119656252Y-139009785D01*
X119675300Y-138971689D01*
X119694348Y-138952642D01*
X119732443Y-138933594D01*
X119751490Y-138933594D01*
X119789586Y-138952642D01*
X119808633Y-138971689D01*
X119827681Y-139009785D01*
X119827681Y-139085975D01*
X119846729Y-139124070D01*
X119865776Y-139143118D01*
X119903871Y-139162166D01*
X119980062Y-139162166D01*
X120018157Y-139143118D01*
X120037205Y-139124070D01*
X120056252Y-139085975D01*
X120056252Y-139009785D01*
X120037205Y-138971689D01*
X120018157Y-138952642D01*
X119980062Y-138933594D01*
X119903871Y-138933594D01*
X119865776Y-138952642D01*
X119846729Y-138971689D01*
X119827681Y-139009785D01*
D11*
X116290221Y-139843118D02*
X116290221Y-140414547D01*
X116290221Y-140128833D02*
X115290221Y-140128833D01*
X115433078Y-140224071D01*
X115528316Y-140319309D01*
X115575935Y-140414547D01*
X115290221Y-139224071D02*
X115290221Y-139128832D01*
X115337840Y-139033594D01*
X115385459Y-138985975D01*
X115480697Y-138938356D01*
X115671173Y-138890737D01*
X115909269Y-138890737D01*
X116099745Y-138938356D01*
X116194983Y-138985975D01*
X116242602Y-139033594D01*
X116290221Y-139128832D01*
X116290221Y-139224071D01*
X116242602Y-139319309D01*
X116194983Y-139366928D01*
X116099745Y-139414547D01*
X115909269Y-139462166D01*
X115671173Y-139462166D01*
X115480697Y-139414547D01*
X115385459Y-139366928D01*
X115337840Y-139319309D01*
X115290221Y-139224071D01*
X116290221Y-138462166D02*
X115290221Y-138462166D01*
X115909269Y-138366928D02*
X116290221Y-138081213D01*
X115623554Y-138081213D02*
X116004507Y-138462166D01*
D12*
X117518792Y-139314546D02*
X117328316Y-139447880D01*
X117518792Y-139543118D02*
X117118792Y-139543118D01*
X117118792Y-139390737D01*
X117137840Y-139352642D01*
X117156888Y-139333594D01*
X117194983Y-139314546D01*
X117252126Y-139314546D01*
X117290221Y-139333594D01*
X117309269Y-139352642D01*
X117328316Y-139390737D01*
X117328316Y-139543118D01*
X117518792Y-139124070D02*
X117518792Y-139047880D01*
X117499745Y-139009785D01*
X117480697Y-138990737D01*
X117423554Y-138952642D01*
X117347364Y-138933594D01*
X117194983Y-138933594D01*
X117156888Y-138952642D01*
X117137840Y-138971689D01*
X117118792Y-139009785D01*
X117118792Y-139085975D01*
X117137840Y-139124070D01*
X117156888Y-139143118D01*
X117194983Y-139162166D01*
X117290221Y-139162166D01*
X117328316Y-139143118D01*
X117347364Y-139124070D01*
X117366411Y-139085975D01*
X117366411Y-139009785D01*
X117347364Y-138971689D01*
X117328316Y-138952642D01*
X117290221Y-138933594D01*
D11*
X113745141Y-139843118D02*
X113745141Y-140414547D01*
X113745141Y-140128833D02*
X112745141Y-140128833D01*
X112887998Y-140224071D01*
X112983236Y-140319309D01*
X113030855Y-140414547D01*
X112745141Y-139224071D02*
X112745141Y-139128832D01*
X112792760Y-139033594D01*
X112840379Y-138985975D01*
X112935617Y-138938356D01*
X113126093Y-138890737D01*
X113364189Y-138890737D01*
X113554665Y-138938356D01*
X113649903Y-138985975D01*
X113697522Y-139033594D01*
X113745141Y-139128832D01*
X113745141Y-139224071D01*
X113697522Y-139319309D01*
X113649903Y-139366928D01*
X113554665Y-139414547D01*
X113364189Y-139462166D01*
X113126093Y-139462166D01*
X112935617Y-139414547D01*
X112840379Y-139366928D01*
X112792760Y-139319309D01*
X112745141Y-139224071D01*
X113745141Y-138462166D02*
X112745141Y-138462166D01*
X113364189Y-138366928D02*
X113745141Y-138081213D01*
X113078474Y-138081213D02*
X113459427Y-138462166D01*
D12*
X114973712Y-139505022D02*
X114783236Y-139638356D01*
X114973712Y-139733594D02*
X114573712Y-139733594D01*
X114573712Y-139581213D01*
X114592760Y-139543118D01*
X114611808Y-139524070D01*
X114649903Y-139505022D01*
X114707046Y-139505022D01*
X114745141Y-139524070D01*
X114764189Y-139543118D01*
X114783236Y-139581213D01*
X114783236Y-139733594D01*
X114973712Y-139124070D02*
X114973712Y-139352642D01*
X114973712Y-139238356D02*
X114573712Y-139238356D01*
X114630855Y-139276451D01*
X114668950Y-139314546D01*
X114687998Y-139352642D01*
X114573712Y-138876451D02*
X114573712Y-138838356D01*
X114592760Y-138800261D01*
X114611808Y-138781213D01*
X114649903Y-138762166D01*
X114726093Y-138743118D01*
X114821331Y-138743118D01*
X114897522Y-138762166D01*
X114935617Y-138781213D01*
X114954665Y-138800261D01*
X114973712Y-138838356D01*
X114973712Y-138876451D01*
X114954665Y-138914547D01*
X114935617Y-138933594D01*
X114897522Y-138952642D01*
X114821331Y-138971690D01*
X114726093Y-138971690D01*
X114649903Y-138952642D01*
X114611808Y-138933594D01*
X114592760Y-138914547D01*
X114573712Y-138876451D01*
D11*
X111194981Y-139850738D02*
X111194981Y-140422167D01*
X111194981Y-140136453D02*
X110194981Y-140136453D01*
X110337838Y-140231691D01*
X110433076Y-140326929D01*
X110480695Y-140422167D01*
X110194981Y-139231691D02*
X110194981Y-139136452D01*
X110242600Y-139041214D01*
X110290219Y-138993595D01*
X110385457Y-138945976D01*
X110575933Y-138898357D01*
X110814029Y-138898357D01*
X111004505Y-138945976D01*
X111099743Y-138993595D01*
X111147362Y-139041214D01*
X111194981Y-139136452D01*
X111194981Y-139231691D01*
X111147362Y-139326929D01*
X111099743Y-139374548D01*
X111004505Y-139422167D01*
X110814029Y-139469786D01*
X110575933Y-139469786D01*
X110385457Y-139422167D01*
X110290219Y-139374548D01*
X110242600Y-139326929D01*
X110194981Y-139231691D01*
X111194981Y-138469786D02*
X110194981Y-138469786D01*
X110814029Y-138374548D02*
X111194981Y-138088833D01*
X110528314Y-138088833D02*
X110909267Y-138469786D01*
D12*
X112423552Y-139512642D02*
X112233076Y-139645976D01*
X112423552Y-139741214D02*
X112023552Y-139741214D01*
X112023552Y-139588833D01*
X112042600Y-139550738D01*
X112061648Y-139531690D01*
X112099743Y-139512642D01*
X112156886Y-139512642D01*
X112194981Y-139531690D01*
X112214029Y-139550738D01*
X112233076Y-139588833D01*
X112233076Y-139741214D01*
X112423552Y-139131690D02*
X112423552Y-139360262D01*
X112423552Y-139245976D02*
X112023552Y-139245976D01*
X112080695Y-139284071D01*
X112118790Y-139322166D01*
X112137838Y-139360262D01*
X112423552Y-138750738D02*
X112423552Y-138979310D01*
X112423552Y-138865024D02*
X112023552Y-138865024D01*
X112080695Y-138903119D01*
X112118790Y-138941214D01*
X112137838Y-138979310D01*
D11*
X103011361Y-92992082D02*
X103011361Y-93563511D01*
X103011361Y-93277797D02*
X102011361Y-93277797D01*
X102154218Y-93373035D01*
X102249456Y-93468273D01*
X102297075Y-93563511D01*
X102011361Y-92373035D02*
X102011361Y-92277796D01*
X102058980Y-92182558D01*
X102106599Y-92134939D01*
X102201837Y-92087320D01*
X102392313Y-92039701D01*
X102630409Y-92039701D01*
X102820885Y-92087320D01*
X102916123Y-92134939D01*
X102963742Y-92182558D01*
X103011361Y-92277796D01*
X103011361Y-92373035D01*
X102963742Y-92468273D01*
X102916123Y-92515892D01*
X102820885Y-92563511D01*
X102630409Y-92611130D01*
X102392313Y-92611130D01*
X102201837Y-92563511D01*
X102106599Y-92515892D01*
X102058980Y-92468273D01*
X102011361Y-92373035D01*
X102011361Y-91420654D02*
X102011361Y-91325415D01*
X102058980Y-91230177D01*
X102106599Y-91182558D01*
X102201837Y-91134939D01*
X102392313Y-91087320D01*
X102630409Y-91087320D01*
X102820885Y-91134939D01*
X102916123Y-91182558D01*
X102963742Y-91230177D01*
X103011361Y-91325415D01*
X103011361Y-91420654D01*
X102963742Y-91515892D01*
X102916123Y-91563511D01*
X102820885Y-91611130D01*
X102630409Y-91658749D01*
X102392313Y-91658749D01*
X102201837Y-91611130D01*
X102106599Y-91563511D01*
X102058980Y-91515892D01*
X102011361Y-91420654D01*
X102344694Y-90658749D02*
X103011361Y-90658749D01*
X102439932Y-90658749D02*
X102392313Y-90611130D01*
X102344694Y-90515892D01*
X102344694Y-90373034D01*
X102392313Y-90277796D01*
X102487551Y-90230177D01*
X103011361Y-90230177D01*
X102344694Y-89896844D02*
X102344694Y-89515892D01*
X103011361Y-89753987D02*
X102154218Y-89753987D01*
X102058980Y-89706368D01*
X102011361Y-89611130D01*
X102011361Y-89515892D01*
D12*
X101166123Y-91637320D02*
X101180409Y-91651606D01*
X101194694Y-91694463D01*
X101194694Y-91723034D01*
X101180409Y-91765891D01*
X101151837Y-91794463D01*
X101123266Y-91808748D01*
X101066123Y-91823034D01*
X101023266Y-91823034D01*
X100966123Y-91808748D01*
X100937551Y-91794463D01*
X100908980Y-91765891D01*
X100894694Y-91723034D01*
X100894694Y-91694463D01*
X100908980Y-91651606D01*
X100923266Y-91637320D01*
X101194694Y-91351606D02*
X101194694Y-91523034D01*
X101194694Y-91437320D02*
X100894694Y-91437320D01*
X100937551Y-91465891D01*
X100966123Y-91494463D01*
X100980409Y-91523034D01*
D11*
X142754762Y-98358097D02*
X142802381Y-98215240D01*
X142802381Y-97977144D01*
X142754762Y-97881906D01*
X142707143Y-97834287D01*
X142611905Y-97786668D01*
X142516667Y-97786668D01*
X142421429Y-97834287D01*
X142373810Y-97881906D01*
X142326190Y-97977144D01*
X142278571Y-98167621D01*
X142230952Y-98262859D01*
X142183333Y-98310478D01*
X142088095Y-98358097D01*
X141992857Y-98358097D01*
X141897619Y-98310478D01*
X141850000Y-98262859D01*
X141802381Y-98167621D01*
X141802381Y-97929525D01*
X141850000Y-97786668D01*
X142135714Y-97358097D02*
X143135714Y-97358097D01*
X142183333Y-97358097D02*
X142135714Y-97262859D01*
X142135714Y-97072382D01*
X142183333Y-96977144D01*
X142230952Y-96929525D01*
X142326190Y-96881906D01*
X142611905Y-96881906D01*
X142707143Y-96929525D01*
X142754762Y-96977144D01*
X142802381Y-97072382D01*
X142802381Y-97262859D01*
X142754762Y-97358097D01*
X142754762Y-96072382D02*
X142802381Y-96167620D01*
X142802381Y-96358097D01*
X142754762Y-96453335D01*
X142659524Y-96500954D01*
X142278571Y-96500954D01*
X142183333Y-96453335D01*
X142135714Y-96358097D01*
X142135714Y-96167620D01*
X142183333Y-96072382D01*
X142278571Y-96024763D01*
X142373810Y-96024763D01*
X142469048Y-96500954D01*
X142802381Y-95167620D02*
X142278571Y-95167620D01*
X142183333Y-95215239D01*
X142135714Y-95310477D01*
X142135714Y-95500954D01*
X142183333Y-95596192D01*
X142754762Y-95167620D02*
X142802381Y-95262858D01*
X142802381Y-95500954D01*
X142754762Y-95596192D01*
X142659524Y-95643811D01*
X142564286Y-95643811D01*
X142469048Y-95596192D01*
X142421429Y-95500954D01*
X142421429Y-95262858D01*
X142373810Y-95167620D01*
X142802381Y-94691430D02*
X141802381Y-94691430D01*
X142421429Y-94596192D02*
X142802381Y-94310477D01*
X142135714Y-94310477D02*
X142516667Y-94691430D01*
X142754762Y-93500953D02*
X142802381Y-93596191D01*
X142802381Y-93786668D01*
X142754762Y-93881906D01*
X142659524Y-93929525D01*
X142278571Y-93929525D01*
X142183333Y-93881906D01*
X142135714Y-93786668D01*
X142135714Y-93596191D01*
X142183333Y-93500953D01*
X142278571Y-93453334D01*
X142373810Y-93453334D01*
X142469048Y-93929525D01*
X142802381Y-93024763D02*
X142135714Y-93024763D01*
X142326190Y-93024763D02*
X142230952Y-92977144D01*
X142183333Y-92929525D01*
X142135714Y-92834287D01*
X142135714Y-92739048D01*
X142897619Y-92643810D02*
X142897619Y-91881905D01*
X142707143Y-91072381D02*
X142754762Y-91120000D01*
X142802381Y-91262857D01*
X142802381Y-91358095D01*
X142754762Y-91500953D01*
X142659524Y-91596191D01*
X142564286Y-91643810D01*
X142373810Y-91691429D01*
X142230952Y-91691429D01*
X142040476Y-91643810D01*
X141945238Y-91596191D01*
X141850000Y-91500953D01*
X141802381Y-91358095D01*
X141802381Y-91262857D01*
X141850000Y-91120000D01*
X141897619Y-91072381D01*
X142802381Y-90643810D02*
X142135714Y-90643810D01*
X142326190Y-90643810D02*
X142230952Y-90596191D01*
X142183333Y-90548572D01*
X142135714Y-90453334D01*
X142135714Y-90358095D01*
X142135714Y-90120000D02*
X142802381Y-89881905D01*
X142135714Y-89643809D02*
X142802381Y-89881905D01*
X143040476Y-89977143D01*
X143088095Y-90024762D01*
X143135714Y-90120000D01*
X142754762Y-89310476D02*
X142802381Y-89215238D01*
X142802381Y-89024762D01*
X142754762Y-88929523D01*
X142659524Y-88881904D01*
X142611905Y-88881904D01*
X142516667Y-88929523D01*
X142469048Y-89024762D01*
X142469048Y-89167619D01*
X142421429Y-89262857D01*
X142326190Y-89310476D01*
X142278571Y-89310476D01*
X142183333Y-89262857D01*
X142135714Y-89167619D01*
X142135714Y-89024762D01*
X142183333Y-88929523D01*
X142135714Y-88596190D02*
X142135714Y-88215238D01*
X141802381Y-88453333D02*
X142659524Y-88453333D01*
X142754762Y-88405714D01*
X142802381Y-88310476D01*
X142802381Y-88215238D01*
X142802381Y-87453332D02*
X142278571Y-87453332D01*
X142183333Y-87500951D01*
X142135714Y-87596189D01*
X142135714Y-87786666D01*
X142183333Y-87881904D01*
X142754762Y-87453332D02*
X142802381Y-87548570D01*
X142802381Y-87786666D01*
X142754762Y-87881904D01*
X142659524Y-87929523D01*
X142564286Y-87929523D01*
X142469048Y-87881904D01*
X142421429Y-87786666D01*
X142421429Y-87548570D01*
X142373810Y-87453332D01*
X142802381Y-86834285D02*
X142754762Y-86929523D01*
X142659524Y-86977142D01*
X141802381Y-86977142D01*
X132481429Y-96810952D02*
X132481429Y-96049047D01*
X132862381Y-96429999D02*
X132100476Y-96429999D01*
X131402381Y-93262857D02*
X131402381Y-93739048D01*
X130402381Y-93739048D01*
X131354762Y-92977143D02*
X131402381Y-92834286D01*
X131402381Y-92596190D01*
X131354762Y-92500952D01*
X131307143Y-92453333D01*
X131211905Y-92405714D01*
X131116667Y-92405714D01*
X131021429Y-92453333D01*
X130973810Y-92500952D01*
X130926190Y-92596190D01*
X130878571Y-92786667D01*
X130830952Y-92881905D01*
X130783333Y-92929524D01*
X130688095Y-92977143D01*
X130592857Y-92977143D01*
X130497619Y-92929524D01*
X130450000Y-92881905D01*
X130402381Y-92786667D01*
X130402381Y-92548571D01*
X130450000Y-92405714D01*
X131402381Y-91453333D02*
X131402381Y-92024762D01*
X131402381Y-91739048D02*
X130402381Y-91739048D01*
X130545238Y-91834286D01*
X130640476Y-91929524D01*
X130688095Y-92024762D01*
M02*
